<?xml version="1.0" standalone="yes"?>

<svg version="1.1" viewBox="0.0 0.0 616.7296587926509 53.76115485564304" fill="none" stroke="none" stroke-linecap="square" stroke-miterlimit="10" xmlns="http://www.w3.org/2000/svg" xmlns:xlink="http://www.w3.org/1999/xlink"><clipPath id="p.0"><path d="m0 0l616.7297 0l0 53.761154l-616.7297 0l0 -53.761154z" clip-rule="nonzero"></path></clipPath><g clip-path="url(#p.0)"><path fill="#000000" fill-opacity="0.0" d="m0 0l616.7297 0l0 53.761154l-616.7297 0z" fill-rule="nonzero"></path><path fill="#cfe2f3" d="m6.5013123 23.744823l62.48819 0l0 24.188976l-62.48819 0z" fill-rule="nonzero"></path><path fill="#000000" fill-opacity="0.0" d="m2.4514437 25.123432l71.55905 0l0 21.543308l-71.55905 0z" fill-rule="nonzero"></path><path fill="#000000" d="m16.039564 34.98946l0 0.65625q0.84375 -0.890625 1.6875 -0.890625q0.5 0 0.875 0.265625q0.390625 0.265625 0.65625 0.8125q0.4375 -0.546875 0.875 -0.8125q0.453125 -0.265625 0.90625 -0.265625q0.71875 0 1.140625 0.453125q0.546875 0.59375 0.546875 1.296875l0 4.59375l0.5625 0q0.234375 0 0.328125 0.09375q0.109375 0.078125 0.109375 0.234375q0 0.140625 -0.109375 0.234375q-0.09375 0.09375 -0.328125 0.09375l-1.21875 0l0 -5.1875q0 -0.5 -0.3125 -0.828125q-0.296875 -0.328125 -0.6875 -0.328125q-0.359375 0 -0.765625 0.28125q-0.390625 0.265625 -0.90625 1.046875l0 4.359375l0.546875 0q0.234375 0 0.328125 0.09375q0.109375 0.078125 0.109375 0.234375q0 0.140625 -0.109375 0.234375q-0.09375 0.09375 -0.328125 0.09375l-1.203125 0l0 -5.140625q0 -0.515625 -0.3125 -0.859375q-0.3125 -0.34375 -0.6875 -0.34375q-0.359375 0 -0.703125 0.234375q-0.46875 0.3125 -1.0 1.09375l0 4.359375l0.5625 0q0.234375 0 0.328125 0.09375q0.109375 0.078125 0.109375 0.234375q0 0.140625 -0.109375 0.234375q-0.09375 0.09375 -0.328125 0.09375l-1.765624 0q-0.234375 0 -0.34375 -0.09375q-0.09375 -0.09375 -0.09375 -0.234375q0 -0.15625 0.09375 -0.234375q0.109375 -0.09375 0.34375 -0.09375l0.546875 0l0 -5.453125l-0.546875 0q-0.234375 0 -0.34375 -0.09375q-0.09375 -0.09375 -0.09375 -0.234375q0 -0.140625 0.09375 -0.234375q0.109375 -0.09375 0.34375 -0.09375l1.203124 0zm12.9140625 -3.375l0 1.703125l-0.96875 0l0 -1.703125l0.96875 0zm0.03125 3.375l0 6.109375l2.578125 0q0.234375 0 0.328125 0.09375q0.10937691 0.078125 0.10937691 0.234375q0 0.140625 -0.10937691 0.234375q-0.09375 0.09375 -0.328125 0.09375l-5.8125 0q-0.234375 0 -0.34375 -0.09375q-0.09375 -0.09375 -0.09375 -0.234375q0 -0.15625 0.09375 -0.234375q0.109375 -0.09375 0.34375 -0.09375l2.578125 0l0 -5.453125l-1.921875 0q-0.234375 0 -0.34375 -0.09375q-0.09375 -0.09375 -0.09375 -0.234375q0 -0.140625 0.09375 -0.234375q0.109375 -0.09375 0.34375 -0.09375l2.578125 0zm7.1328106 0l0 0.984375q0.6875 -0.6875 1.234375 -0.953125q0.5625 -0.265625 1.25 -0.265625q0.75 0 1.375 0.3125q0.4375 0.234375 0.78125 0.78125q0.359375 0.546875 0.359375 1.109375l0 4.140625l0.5625 0q0.234375 0 0.328125 0.09375q0.109375 0.078125 0.109375 0.234375q0 0.140625 -0.109375 0.234375q-0.09375 0.09375 -0.328125 0.09375l-1.765625 0q-0.234375 0 -0.34375 -0.09375q-0.09375 -0.09375 -0.09375 -0.234375q0 -0.15625 0.09375 -0.234375q0.109375 -0.09375 0.34375 -0.09375l0.546875 0l0 -4.03125q0 -0.6875 -0.515625 -1.171875q-0.5 -0.484375 -1.34375 -0.484375q-0.65625 0 -1.140625 0.265625q-0.46875 0.265625 -1.34375 1.296875l0 4.125l0.734375 0q0.234375 0 0.328125 0.09375q0.109375 0.078125 0.109375 0.234375q0 0.140625 -0.109375 0.234375q-0.09375 0.09375 -0.328125 0.09375l-2.140625 0q-0.234375 0 -0.3437462 -0.09375q-0.09375 -0.09375 -0.09375 -0.234375q0 -0.15625 0.09375 -0.234375q0.109371185 -0.09375 0.3437462 -0.09375l0.75 0l0 -5.453125l-0.5625 0q-0.234375 0 -0.34375 -0.09375q-0.09375 -0.09375 -0.09375 -0.234375q0 -0.140625 0.09375 -0.234375q0.109375 -0.09375 0.34375 -0.09375l1.21875 0zm13.9609375 6.765625l0 -0.96875q-1.34375 1.234375 -2.90625 1.234375q-0.953125 0 -1.453125 -0.53125q-0.65625 -0.6875 -0.65625 -1.609375l0 -4.234375l-0.875 0q-0.234375 0 -0.34375 -0.09375q-0.09375 -0.09375 -0.09375 -0.234375q0 -0.140625 0.09375 -0.234375q0.109375 -0.09375 0.34375 -0.09375l1.53125 0l0 4.890625q0 0.640625 0.40625 1.0625q0.40625 0.40625 1.015625 0.40625q1.609375 0 2.9375 -1.46875l0 -4.234375l-1.203125 0q-0.234375 0 -0.34375 -0.09375q-0.09375 -0.09375 -0.09375 -0.234375q0 -0.140625 0.09375 -0.234375q0.109375 -0.09375 0.34375 -0.09375l1.859375 0l0 6.109375l0.5625 0q0.234375 0 0.328125 0.09375q0.109375 0.078125 0.109375 0.234375q0 0.140625 -0.109375 0.234375q-0.09375 0.09375 -0.328125 0.09375l-1.21875 0zm9.5234375 -6.34375q0 -0.21875 0.09375 -0.3125q0.09375 -0.109375 0.234375 -0.109375q0.15625 0 0.25 0.109375q0.09375 0.09375 0.09375 0.328125l0 1.125q0 0.234375 -0.09375 0.34375q-0.09375 0.09375 -0.25 0.09375q-0.125 0 -0.21875 -0.078125q-0.09375 -0.09375 -0.109375 -0.28125q-0.046875 -0.46875 -0.484375 -0.78125q-0.640625 -0.4375 -1.6875 -0.4375q-1.109375 0 -1.71875 0.453125q-0.453125 0.328125 -0.453125 0.75q0 0.46875 0.546875 0.78125q0.375 0.21875 1.421875 0.328125q1.359375 0.15625 1.890625 0.34375q0.765625 0.265625 1.125 0.75q0.375 0.484375 0.375 1.046875q0 0.84375 -0.8125 1.5q-0.796875 0.65625 -2.34375 0.65625q-1.5625 0 -2.546875 -0.796875q0 0.265625 -0.03125 0.34375q-0.03125 0.078125 -0.125 0.140625q-0.078125 0.046875 -0.171875 0.046875q-0.140625 0 -0.234375 -0.09375q-0.09375 -0.109375 -0.09375 -0.34375l0 -1.359375q0 -0.234375 0.078125 -0.328125q0.09375 -0.109375 0.25 -0.109375q0.140625 0 0.234375 0.109375q0.09375 0.09375 0.09375 0.25q0 0.359375 0.1875 0.609375q0.265625 0.375 0.859375 0.625q0.609375 0.234375 1.46875 0.234375q1.28125 0 1.90625 -0.46875q0.625 -0.484375 0.625 -1.015625q0 -0.609375 -0.625 -0.96875q-0.640625 -0.375 -1.875 -0.5q-1.21875 -0.125 -1.75 -0.328125q-0.53125 -0.203125 -0.828125 -0.609375q-0.296875 -0.40625 -0.296875 -0.875q0 -0.84375 0.828125 -1.328125q0.828125 -0.5 1.984375 -0.5q1.359375 0 2.203125 0.65625z" fill-rule="nonzero"></path><path fill="#000000" fill-opacity="0.0" d="m2.4514437 1.1234331l71.55905 0l0 21.543308l-71.55905 0z" fill-rule="nonzero"></path><path fill="#000000" d="m18.695814 8.395711l0 -0.828125q0 -0.25 0.078125 -0.34375q0.09375 -0.109375 0.25 -0.109375q0.140625 0 0.234375 0.109375q0.09375 0.09375 0.09375 0.34375l0 0.828125q0.53125 0.046875 0.875 0.171875q0.34375 0.109375 0.8125 0.421875q0 -0.1875 0.09375 -0.28125q0.09375 -0.09375 0.234375 -0.09375q0.140625 0 0.234375 0.109375q0.09375 0.09375 0.09375 0.328125l0 0.96875q0 0.234375 -0.09375 0.34375q-0.09375 0.09375 -0.234375 0.09375q-0.125 0 -0.21875 -0.078125q-0.078125 -0.078125 -0.109375 -0.28125q-0.046875 -0.359375 -0.484375 -0.65625q-0.640625 -0.421875 -1.515625 -0.421875q-0.875 0 -1.453125 0.515625q-0.578125 0.515625 -0.578125 1.15625q0 0.65625 0.515625 1.0q0.375 0.265625 1.609375 0.5q1.234375 0.21875 1.671875 0.421875q0.625 0.28125 0.921875 0.75q0.3125 0.46875 0.3125 1.125q0 0.890625 -0.703125 1.578124q-0.6875 0.671875 -1.984375 0.796875l0 1.9375q0 0.25 -0.09375 0.34375q-0.09375 0.109375 -0.234375 0.109375q-0.15625 0 -0.25 -0.109375q-0.078125 -0.09375 -0.078125 -0.34375l0 -1.9375q-1.203125 -0.078125 -2.03125 -0.78125q0 0.34375 -0.03125 0.421875q-0.015625 0.078125 -0.109375 0.140625q-0.078125 0.046875 -0.1875 0.046875q-0.140625 0 -0.234375 -0.09375q-0.09375 -0.109375 -0.09375 -0.34375l0 -1.281249q0 -0.234375 0.09375 -0.328125q0.09375 -0.109375 0.234375 -0.109375q0.140625 0 0.25 0.09375q0.0625 0.078125 0.078125 0.3125q0.046875 0.421875 0.671875 0.859375q0.625 0.42187405 1.6875 0.42187405q1.09375 0 1.71875 -0.51562405q0.640625 -0.53125 0.640625 -1.21875q0 -0.46875 -0.234375 -0.796875q-0.234375 -0.328125 -0.734375 -0.53125q-0.328125 -0.140625 -1.375 -0.328125q-1.515625 -0.296875 -2.09375 -0.765625q-0.59375 -0.46875 -0.59375 -1.375q0 -0.84375 0.640625 -1.5q0.640625 -0.671875 1.703125 -0.796875zm13.1171875 0.875l0 5.484375q0 1.374999 -0.921875 2.328124q-0.921875 0.9375 -2.234375 0.9375q-0.875 0 -1.5625 -0.390625q-0.671875 -0.390625 -1.15625 -1.15625q-0.46875 -0.78124905 -0.46875 -1.718749l0 -5.484375l-0.546875 0q-0.234375 0 -0.34375 -0.09375q-0.09375 -0.09375 -0.09375 -0.234375q0 -0.15625 0.109375 -0.25q0.09375 -0.078125 0.328125 -0.078125l2.421875 0q0.234375 0 0.328125 0.09375q0.109375 0.078125 0.109375 0.234375q0 0.140625 -0.109375 0.234375q-0.09375 0.09375 -0.328125 0.09375l-1.21875 0l0 5.484375q0 1.078125 0.734375 1.843749q0.75 0.75 1.765625 0.75q0.65625 0 1.1875 -0.296875q0.53125 -0.296875 0.9375 -0.90625q0.40625 -0.62499905 0.40625 -1.390624l0 -5.484375l-1.21875 0q-0.234375 0 -0.34375 -0.09375q-0.09375 -0.09375 -0.09375 -0.234375q0 -0.15625 0.09375 -0.234375q0.109375 -0.09375 0.34375 -0.09375l2.421877 0q0.234375 0 0.328125 0.09375q0.109375 0.078125 0.109375 0.234375q0 0.140625 -0.109375 0.234375q-0.09375 0.09375 -0.328125 0.09375l-0.5468769 0zm4.3046856 1.71875l0 0.984375q0.6875 -0.6875 1.234375 -0.953125q0.5625 -0.265625 1.25 -0.265625q0.75 0 1.375 0.3125q0.4375 0.234375 0.78125 0.78125q0.359375 0.546875 0.359375 1.109375l0 4.140624l0.5625 0q0.234375 0 0.328125 0.09375q0.109375 0.078125 0.109375 0.234375q0 0.140625 -0.109375 0.234375q-0.09375 0.09375 -0.328125 0.09375l-1.765625 0q-0.234375 0 -0.34375 -0.09375q-0.09375 -0.09375 -0.09375 -0.234375q0 -0.15625 0.09375 -0.234375q0.109375 -0.09375 0.34375 -0.09375l0.546875 0l0 -4.031249q0 -0.6875 -0.515625 -1.171875q-0.5 -0.484375 -1.34375 -0.484375q-0.65625 0 -1.140625 0.265625q-0.46875 0.265625 -1.34375 1.296875l0 4.124999l0.734375 0q0.234375 0 0.328125 0.09375q0.109375 0.078125 0.109375 0.234375q0 0.140625 -0.109375 0.234375q-0.09375 0.09375 -0.328125 0.09375l-2.140625 0q-0.234375 0 -0.3437462 -0.09375q-0.09375 -0.09375 -0.09375 -0.234375q0 -0.15625 0.09375 -0.234375q0.109371185 -0.09375 0.3437462 -0.09375l0.75 0l0 -5.453124l-0.5625 0q-0.234375 0 -0.34375 -0.09375q-0.09375 -0.09375 -0.09375 -0.234375q0 -0.140625 0.09375 -0.234375q0.109375 -0.09375 0.34375 -0.09375l1.21875 0zm15.7265625 2.21875q0 1.3125 -0.53125 2.4375q-0.53125 1.109374 -1.46875 1.749999q-0.921875 0.625 -2.0 0.625q-1.578125 0 -2.796875 -1.34375q-1.203125 -1.359374 -1.203125 -3.468749q0 -2.125 1.203125 -3.46875q1.21875 -1.34375 2.796875 -1.34375q1.078125 0 2.0 0.625q0.9375 0.625 1.46875 1.75q0.53125 1.109375 0.53125 2.4375zm-0.65625 0q0 -1.609375 -0.9375 -2.875q-0.921875 -1.28125 -2.40625 -1.28125q-1.375 0 -2.359375 1.21875q-0.984375 1.21875 -0.984375 2.9375q0 1.828125 1.03125 2.984374q1.03125 1.15625 2.3125 1.15625q1.484375 0 2.40625 -1.265625q0.9375 -1.265624 0.9375 -2.874999zm3.7734375 -2.21875l0 1.1875q0.59375 -0.703125 1.265625 -1.0625q0.671875 -0.359375 1.578125 -0.359375q0.96875 0 1.78125 0.453125q0.828125 0.453125 1.28125 1.265625q0.453125 0.796875 0.453125 1.6875q0 1.421875 -1.015625 2.421874q-1.015625 1.0 -2.484375 1.0q-1.765625 0 -2.859375 -1.421875l0 3.953125l1.59375 0q0.234375 0 0.328125 0.09375q0.109375 0.09375 0.109375 0.234375q0 0.140625 -0.109375 0.234375q-0.09375 0.09375 -0.328125 0.09375l-3.125 0q-0.234375 0 -0.34375 -0.09375q-0.09375 -0.078125 -0.09375 -0.234375q0 -0.140625 0.09375 -0.234375q0.109375 -0.09375 0.34375 -0.09375l0.875 0l0 -8.468749l-0.875 0q-0.234375 0 -0.34375 -0.09375q-0.09375 -0.09375 -0.09375 -0.234375q0 -0.140625 0.09375 -0.234375q0.109375 -0.09375 0.34375 -0.09375l1.53125 0zm5.6875 3.171875q0 -1.125 -0.828125 -1.9375q-0.8125 -0.8125 -2.0 -0.8125q-1.203125 0 -2.03125 0.8125q-0.828125 0.8125 -0.828125 1.9375q0 1.140625 0.828125 1.953124q0.828125 0.8125 2.03125 0.8125q1.171875 0 2.0 -0.8125q0.828125 -0.81249905 0.828125 -1.953124z" fill-rule="nonzero"></path><path fill="#000000" fill-opacity="0.0" d="m6.5 23.925926l62.48819 0" fill-rule="nonzero"></path><path stroke="#000000" stroke-width="1.0" stroke-linejoin="round" stroke-linecap="butt" d="m6.5 23.925926l62.48819 0" fill-rule="nonzero"></path><path fill="#cfe2f3" d="m92.38314 23.744823l59.401573 0l0 24.188976l-59.401573 0z" fill-rule="nonzero"></path><path fill="#000000" fill-opacity="0.0" d="m86.33727 25.123432l71.55906 0l0 21.543308l-71.55906 0z" fill-rule="nonzero"></path><path fill="#000000" d="m101.56602 34.98946l3.5625 0q0.234375 0 0.328125 0.09375q0.109375 0.09375 0.109375 0.234375q0 0.140625 -0.109375 0.234375q-0.09375 0.09375 -0.328125 0.09375l-3.5625 0l0 4.375q0 0.5625 0.453125 0.953125q0.46875 0.375 1.34375 0.375q0.671875 0 1.4375 -0.1875q0.78125 -0.203125 1.203125 -0.453125q0.15625 -0.109375 0.265625 -0.109375q0.125 0 0.21875 0.109375q0.09375 0.09375 0.09375 0.21875q0 0.125 -0.109375 0.21875q-0.25 0.265625 -1.21875 0.578125q-0.953125 0.296875 -1.84375 0.296875q-1.140625 0 -1.828125 -0.546875q-0.671875 -0.546875 -0.671875 -1.453125l0 -4.375l-1.21875 0q-0.234375 0 -0.34375 -0.09375q-0.09375 -0.09375 -0.09375 -0.234375q0 -0.140625 0.09375 -0.234375q0.109375 -0.09375 0.34375 -0.09375l1.21875 0l0 -1.9375q0 -0.234375 0.09375 -0.328125q0.09375 -0.109375 0.234375 -0.109375q0.140625 0 0.234375 0.109375q0.09375 0.09375 0.09375 0.328125l0 1.9375zm8.7890625 -3.046875l0 4.046875q0.625 -0.6875 1.203125 -0.953125q0.578125 -0.28125 1.28125 -0.28125q0.765625 0 1.296875 0.265625q0.546875 0.265625 0.90625 0.828125q0.359375 0.5625 0.359375 1.171875l0 4.078125l0.734375 0q0.234375 0 0.328125 0.09375q0.109375 0.078125 0.109375 0.234375q0 0.140625 -0.109375 0.234375q-0.09375 0.09375 -0.328125 0.09375l-2.140625 0q-0.234375 0 -0.34375 -0.09375q-0.09375 -0.09375 -0.09375 -0.234375q0 -0.15625 0.09375 -0.234375q0.109375 -0.09375 0.34375 -0.09375l0.734375 0l0 -4.03125q0 -0.703125 -0.515625 -1.171875q-0.5 -0.484375 -1.421875 -0.484375q-0.71875 0 -1.21875 0.34375q-0.375 0.25 -1.21875 1.1875l0 4.15625l0.75 0q0.234375 0 0.328125 0.09375q0.109375 0.078125 0.109375 0.234375q0 0.140625 -0.109375 0.234375q-0.09375 0.09375 -0.328125 0.09375l-2.140625 0q-0.234375 0 -0.34375 -0.09375q-0.09375 -0.09375 -0.09375 -0.234375q0 -0.15625 0.09375 -0.234375q0.109375 -0.09375 0.34375 -0.09375l0.734375 0l0 -8.484375l-0.875 0q-0.234375 0 -0.34375 -0.09375q-0.09375 -0.09375 -0.09375 -0.25q0 -0.140625 0.09375 -0.234375q0.109375 -0.09375 0.34375 -0.09375l1.53125 0zm10.9765625 3.046875l0 1.65625q1.28125 -1.15625 1.921875 -1.484375q0.640625 -0.34375 1.171875 -0.34375q0.59375 0 1.09375 0.40625q0.5 0.390625 0.5 0.59375q0 0.140625 -0.09375 0.25q-0.09375 0.09375 -0.25 0.09375q-0.078125 0 -0.140625 -0.03125q-0.046875 -0.03125 -0.1875 -0.171875q-0.28125 -0.28125 -0.484375 -0.375q-0.203125 -0.109375 -0.390625 -0.109375q-0.4375 0 -1.046875 0.34375q-0.59375 0.34375 -2.09375 1.6875l0 3.59375l2.90625 0q0.25 0 0.34375 0.09375q0.109375 0.078125 0.109375 0.234375q0 0.140625 -0.109375 0.234375q-0.09375 0.09375 -0.34375 0.09375l-5.140625 0q-0.234375 0 -0.34375 -0.09375q-0.09375 -0.09375 -0.09375 -0.234375q0 -0.125 0.09375 -0.21875q0.09375 -0.09375 0.34375 -0.09375l1.578125 0l0 -5.46875l-1.203125 0q-0.234375 0 -0.34375 -0.09375q-0.09375 -0.09375 -0.09375 -0.234375q0 -0.140625 0.09375 -0.234375q0.09375 -0.09375 0.34375 -0.09375l1.859375 0zm13.945305 3.53125l-6.6875 0q0.171875 1.28125 1.0625 2.0625q0.890625 0.765625 2.21875 0.765625q0.734375 0 1.53125 -0.234375q0.8125 -0.25 1.3125 -0.640625q0.15625 -0.125 0.265625 -0.125q0.125 0 0.21875 0.109375q0.09375 0.09375 0.09375 0.21875q0 0.140625 -0.125 0.265625q-0.375 0.390625 -1.34375 0.734375q-0.953125 0.34375 -1.953125 0.34375q-1.6875 0 -2.828125 -1.109375q-1.1249924 -1.109375 -1.1249924 -2.6875q0 -1.421875 1.0624924 -2.4375q1.0625 -1.03125 2.625 -1.03125q1.609375 0 2.640625 1.046875q1.046875 1.046875 1.03125 2.71875zm-0.671875 -0.65625q-0.1875 -1.09375 -1.03125 -1.765625q-0.828125 -0.6875 -1.96875 -0.6875q-1.15625 0 -1.984375 0.671875q-0.828125 0.671875 -1.03125 1.78125l6.015625 0zm10.2734375 0.65625l-6.6875 0q0.171875 1.28125 1.0625 2.0625q0.890625 0.765625 2.21875 0.765625q0.734375 0 1.53125 -0.234375q0.8125 -0.25 1.3125 -0.640625q0.15625 -0.125 0.265625 -0.125q0.125 0 0.21875 0.109375q0.09375 0.09375 0.09375 0.21875q0 0.140625 -0.125 0.265625q-0.375 0.390625 -1.34375 0.734375q-0.953125 0.34375 -1.953125 0.34375q-1.6875 0 -2.828125 -1.109375q-1.125 -1.109375 -1.125 -2.6875q0 -1.421875 1.0625 -2.4375q1.0625 -1.03125 2.625 -1.03125q1.609375 0 2.640625 1.046875q1.046875 1.046875 1.03125 2.71875zm-0.671875 -0.65625q-0.1875 -1.09375 -1.03125 -1.765625q-0.828125 -0.6875 -1.96875 -0.6875q-1.15625 0 -1.984375 0.671875q-0.828125 0.671875 -1.03125 1.78125l6.015625 0z" fill-rule="nonzero"></path><path fill="#000000" fill-opacity="0.0" d="m86.33727 1.1234331l71.55906 0l0 21.543308l-71.55906 0z" fill-rule="nonzero"></path><path fill="#000000" d="m116.983986 8.395711l0 -0.828125q0 -0.25 0.078125 -0.34375q0.09375 -0.109375 0.25 -0.109375q0.140625 0 0.234375 0.109375q0.09375 0.09375 0.09375 0.34375l0 0.828125q0.53125 0.046875 0.875 0.171875q0.34375 0.109375 0.8125 0.421875q0 -0.1875 0.09375 -0.28125q0.09375 -0.09375 0.234375 -0.09375q0.140625 0 0.234375 0.109375q0.09375 0.09375 0.09375 0.328125l0 0.96875q0 0.234375 -0.09375 0.34375q-0.09375 0.09375 -0.234375 0.09375q-0.125 0 -0.21875 -0.078125q-0.078125 -0.078125 -0.109375 -0.28125q-0.046875 -0.359375 -0.484375 -0.65625q-0.640625 -0.421875 -1.515625 -0.421875q-0.875 0 -1.453125 0.515625q-0.578125 0.515625 -0.578125 1.15625q0 0.65625 0.515625 1.0q0.375 0.265625 1.609375 0.5q1.234375 0.21875 1.671875 0.421875q0.625 0.28125 0.921875 0.75q0.3125 0.46875 0.3125 1.125q0 0.890625 -0.703125 1.578124q-0.6875 0.671875 -1.984375 0.796875l0 1.9375q0 0.25 -0.09375 0.34375q-0.09375 0.109375 -0.234375 0.109375q-0.15625 0 -0.25 -0.109375q-0.078125 -0.09375 -0.078125 -0.34375l0 -1.9375q-1.203125 -0.078125 -2.03125 -0.78125q0 0.34375 -0.03125 0.421875q-0.015625 0.078125 -0.109375 0.140625q-0.078125 0.046875 -0.1875 0.046875q-0.140625 0 -0.234375 -0.09375q-0.09375 -0.109375 -0.09375 -0.34375l0 -1.281249q0 -0.234375 0.09375 -0.328125q0.09375 -0.109375 0.234375 -0.109375q0.140625 0 0.25 0.09375q0.0625 0.078125 0.078125 0.3125q0.046875 0.421875 0.671875 0.859375q0.625 0.42187405 1.6875 0.42187405q1.09375 0 1.71875 -0.51562405q0.640625 -0.53125 0.640625 -1.21875q0 -0.46875 -0.234375 -0.796875q-0.234375 -0.328125 -0.734375 -0.53125q-0.328125 -0.140625 -1.375 -0.328125q-1.515625 -0.296875 -2.09375 -0.765625q-0.59375 -0.46875 -0.59375 -1.375q0 -0.84375 0.640625 -1.5q0.640625 -0.671875 1.703125 -0.796875zm7.8046875 4.9375l0 3.765624l5.0468674 0l0 -1.937499q0 -0.234375 0.078125 -0.328125q0.09375 -0.109375 0.25 -0.109375q0.140625 0 0.234375 0.109375q0.09375 0.09375 0.09375 0.328125l0 2.593749l-7.2499924 0q-0.234375 0 -0.34375 -0.09375q-0.09375 -0.09375 -0.09375 -0.234375q0 -0.15625 0.09375 -0.234375q0.109375 -0.09375 0.34375 -0.09375l0.890625 0l0 -7.828124l-0.890625 0q-0.234375 0 -0.34375 -0.09375q-0.09375 -0.09375 -0.09375 -0.234375q0 -0.15625 0.09375 -0.234375q0.109375 -0.09375 0.34375 -0.09375l6.9062424 0l0 2.25q0 0.234375 -0.09375 0.34375q-0.09375 0.09375 -0.234375 0.09375q-0.15625 0 -0.25 -0.09375q-0.078125 -0.109375 -0.078125 -0.34375l0 -1.59375l-4.7031174 0l0 3.40625l2.34375 0l0 -0.734375q0 -0.234375 0.09375 -0.328125q0.09375 -0.109375 0.25 -0.109375q0.140625 0 0.234375 0.109375q0.09375 0.09375 0.09375 0.328125l0 2.140625q0 0.234375 -0.09375 0.34375q-0.09375 0.09375 -0.234375 0.09375q-0.15625 0 -0.25 -0.09375q-0.09375 -0.109375 -0.09375 -0.34375l0 -0.75l-2.34375 0z" fill-rule="nonzero"></path><path fill="#000000" fill-opacity="0.0" d="m92.38058 23.925926l59.433067 0" fill-rule="nonzero"></path><path stroke="#000000" stroke-width="1.0" stroke-linejoin="round" stroke-linecap="butt" d="m92.38058 23.925926l59.433067 0" fill-rule="nonzero"></path><path fill="#cfe2f3" d="m178.48097 23.744823l62.48819 0l0 24.188976l-62.48819 0z" fill-rule="nonzero"></path><path fill="#000000" fill-opacity="0.0" d="m173.84776 25.123432l71.55907 0l0 21.543308l-71.55907 0z" fill-rule="nonzero"></path><path fill="#000000" d="m187.4359 34.98946l0 0.65625q0.84375 -0.890625 1.6875 -0.890625q0.5 0 0.875 0.265625q0.390625 0.265625 0.65625 0.8125q0.4375 -0.546875 0.875 -0.8125q0.453125 -0.265625 0.90625 -0.265625q0.71875 0 1.140625 0.453125q0.546875 0.59375 0.546875 1.296875l0 4.59375l0.5625 0q0.234375 0 0.328125 0.09375q0.109375 0.078125 0.109375 0.234375q0 0.140625 -0.109375 0.234375q-0.09375 0.09375 -0.328125 0.09375l-1.21875 0l0 -5.1875q0 -0.5 -0.3125 -0.828125q-0.296875 -0.328125 -0.6875 -0.328125q-0.359375 0 -0.765625 0.28125q-0.390625 0.265625 -0.90625 1.046875l0 4.359375l0.546875 0q0.234375 0 0.328125 0.09375q0.109375 0.078125 0.109375 0.234375q0 0.140625 -0.109375 0.234375q-0.09375 0.09375 -0.328125 0.09375l-1.203125 0l0 -5.140625q0 -0.515625 -0.3125 -0.859375q-0.3125 -0.34375 -0.6875 -0.34375q-0.359375 0 -0.703125 0.234375q-0.46875 0.3125 -1.0 1.09375l0 4.359375l0.5625 0q0.234375 0 0.328125 0.09375q0.109375 0.078125 0.109375 0.234375q0 0.140625 -0.109375 0.234375q-0.09375 0.09375 -0.328125 0.09375l-1.765625 0q-0.234375 0 -0.34375 -0.09375q-0.09375 -0.09375 -0.09375 -0.234375q0 -0.15625 0.09375 -0.234375q0.109375 -0.09375 0.34375 -0.09375l0.546875 0l0 -5.453125l-0.546875 0q-0.234375 0 -0.34375 -0.09375q-0.09375 -0.09375 -0.09375 -0.234375q0 -0.140625 0.09375 -0.234375q0.109375 -0.09375 0.34375 -0.09375l1.203125 0zm12.9140625 -3.375l0 1.703125l-0.96875 0l0 -1.703125l0.96875 0zm0.03125 3.375l0 6.109375l2.578125 0q0.234375 0 0.328125 0.09375q0.109375 0.078125 0.109375 0.234375q0 0.140625 -0.109375 0.234375q-0.09375 0.09375 -0.328125 0.09375l-5.8125 0q-0.234375 0 -0.34375 -0.09375q-0.09375 -0.09375 -0.09375 -0.234375q0 -0.15625 0.09375 -0.234375q0.109375 -0.09375 0.34375 -0.09375l2.578125 0l0 -5.453125l-1.921875 0q-0.234375 0 -0.34375 -0.09375q-0.09375 -0.09375 -0.09375 -0.234375q0 -0.140625 0.09375 -0.234375q0.109375 -0.09375 0.34375 -0.09375l2.578125 0zm7.1327972 0l0 0.984375q0.6875 -0.6875 1.234375 -0.953125q0.5625 -0.265625 1.25 -0.265625q0.75 0 1.375 0.3125q0.4375 0.234375 0.78125 0.78125q0.359375 0.546875 0.359375 1.109375l0 4.140625l0.5625 0q0.234375 0 0.328125 0.09375q0.109375 0.078125 0.109375 0.234375q0 0.140625 -0.109375 0.234375q-0.09375 0.09375 -0.328125 0.09375l-1.765625 0q-0.234375 0 -0.34375 -0.09375q-0.09375 -0.09375 -0.09375 -0.234375q0 -0.15625 0.09375 -0.234375q0.109375 -0.09375 0.34375 -0.09375l0.546875 0l0 -4.03125q0 -0.6875 -0.515625 -1.171875q-0.5 -0.484375 -1.34375 -0.484375q-0.65625 0 -1.140625 0.265625q-0.46875 0.265625 -1.34375 1.296875l0 4.125l0.734375 0q0.234375 0 0.328125 0.09375q0.109375 0.078125 0.109375 0.234375q0 0.140625 -0.109375 0.234375q-0.09375 0.09375 -0.328125 0.09375l-2.140625 0q-0.234375 0 -0.34373474 -0.09375q-0.09375 -0.09375 -0.09375 -0.234375q0 -0.15625 0.09375 -0.234375q0.10935974 -0.09375 0.34373474 -0.09375l0.75 0l0 -5.453125l-0.5625 0q-0.234375 0 -0.34375 -0.09375q-0.09375 -0.09375 -0.09375 -0.234375q0 -0.140625 0.09375 -0.234375q0.109375 -0.09375 0.34375 -0.09375l1.21875 0zm13.9609375 6.765625l0 -0.96875q-1.34375 1.234375 -2.90625 1.234375q-0.953125 0 -1.453125 -0.53125q-0.65625 -0.6875 -0.65625 -1.609375l0 -4.234375l-0.875 0q-0.234375 0 -0.34375 -0.09375q-0.09375 -0.09375 -0.09375 -0.234375q0 -0.140625 0.09375 -0.234375q0.109375 -0.09375 0.34375 -0.09375l1.53125 0l0 4.890625q0 0.640625 0.40625 1.0625q0.40625 0.40625 1.015625 0.40625q1.609375 0 2.9375 -1.46875l0 -4.234375l-1.203125 0q-0.234375 0 -0.34375 -0.09375q-0.09375 -0.09375 -0.09375 -0.234375q0 -0.140625 0.09375 -0.234375q0.109375 -0.09375 0.34375 -0.09375l1.859375 0l0 6.109375l0.5625 0q0.234375 0 0.328125 0.09375q0.109375 0.078125 0.109375 0.234375q0 0.140625 -0.109375 0.234375q-0.09375 0.09375 -0.328125 0.09375l-1.21875 0zm9.5234375 -6.34375q0 -0.21875 0.09375 -0.3125q0.09375 -0.109375 0.234375 -0.109375q0.15625 0 0.25 0.109375q0.09375 0.09375 0.09375 0.328125l0 1.125q0 0.234375 -0.09375 0.34375q-0.09375 0.09375 -0.25 0.09375q-0.125 0 -0.21875 -0.078125q-0.09375 -0.09375 -0.109375 -0.28125q-0.046875 -0.46875 -0.484375 -0.78125q-0.640625 -0.4375 -1.6875 -0.4375q-1.109375 0 -1.71875 0.453125q-0.453125 0.328125 -0.453125 0.75q0 0.46875 0.546875 0.78125q0.375 0.21875 1.421875 0.328125q1.359375 0.15625 1.890625 0.34375q0.765625 0.265625 1.125 0.75q0.375 0.484375 0.375 1.046875q0 0.84375 -0.8125 1.5q-0.796875 0.65625 -2.34375 0.65625q-1.5625 0 -2.546875 -0.796875q0 0.265625 -0.03125 0.34375q-0.03125 0.078125 -0.125 0.140625q-0.078125 0.046875 -0.171875 0.046875q-0.140625 0 -0.234375 -0.09375q-0.09375 -0.109375 -0.09375 -0.34375l0 -1.359375q0 -0.234375 0.078125 -0.328125q0.09375 -0.109375 0.25 -0.109375q0.140625 0 0.234375 0.109375q0.09375 0.09375 0.09375 0.25q0 0.359375 0.1875 0.609375q0.265625 0.375 0.859375 0.625q0.609375 0.234375 1.46875 0.234375q1.28125 0 1.90625 -0.46875q0.625 -0.484375 0.625 -1.015625q0 -0.609375 -0.625 -0.96875q-0.640625 -0.375 -1.875 -0.5q-1.21875 -0.125 -1.75 -0.328125q-0.53125 -0.203125 -0.828125 -0.609375q-0.296875 -0.40625 -0.296875 -0.875q0 -0.84375 0.828125 -1.328125q0.828125 -0.5 1.984375 -0.5q1.359375 0 2.203125 0.65625z" fill-rule="nonzero"></path><path fill="#000000" fill-opacity="0.0" d="m170.2231 1.1227769l78.01575 0l0 21.543308l-78.01575 0z" fill-rule="nonzero"></path><path fill="#000000" d="m184.89503 8.395055l0 -0.828125q0 -0.25 0.078125 -0.34375q0.09375 -0.109375 0.25 -0.109375q0.140625 0 0.234375 0.109375q0.09375 0.09375 0.09375 0.34375l0 0.828125q0.53125 0.046875 0.875 0.171875q0.34375 0.109375 0.8125 0.421875q0 -0.1875 0.09375 -0.28125q0.09375 -0.09375 0.234375 -0.09375q0.140625 0 0.234375 0.109375q0.09375 0.09375 0.09375 0.328125l0 0.96875q0 0.234375 -0.09375 0.34375q-0.09375 0.09375 -0.234375 0.09375q-0.125 0 -0.21875 -0.078125q-0.078125 -0.078125 -0.109375 -0.28125q-0.046875 -0.359375 -0.484375 -0.65625q-0.640625 -0.421875 -1.515625 -0.421875q-0.875 0 -1.453125 0.515625q-0.578125 0.515625 -0.578125 1.15625q0 0.65625 0.515625 1.0q0.375 0.265625 1.609375 0.5q1.234375 0.21875 1.671875 0.421875q0.625 0.28125 0.921875 0.75q0.3125 0.46875 0.3125 1.125q0 0.890625 -0.703125 1.578124q-0.6875 0.671875 -1.984375 0.796875l0 1.9375q0 0.25 -0.09375 0.34375q-0.09375 0.109375 -0.234375 0.109375q-0.15625 0 -0.25 -0.109375q-0.078125 -0.09375 -0.078125 -0.34375l0 -1.9375q-1.203125 -0.078125 -2.03125 -0.78125q0 0.34375 -0.03125 0.421875q-0.015625 0.078125 -0.109375 0.140625q-0.078125 0.046875 -0.1875 0.046875q-0.140625 0 -0.234375 -0.09375q-0.09375 -0.109375 -0.09375 -0.34375l0 -1.281249q0 -0.234375 0.09375 -0.328125q0.09375 -0.109375 0.234375 -0.109375q0.140625 0 0.25 0.09375q0.0625 0.078125 0.078125 0.3125q0.046875 0.421875 0.671875 0.859375q0.625 0.42187405 1.6875 0.42187405q1.09375 0 1.71875 -0.51562405q0.640625 -0.53125 0.640625 -1.21875q0 -0.46875 -0.234375 -0.796875q-0.234375 -0.328125 -0.734375 -0.53125q-0.328125 -0.140625 -1.375 -0.328125q-1.515625 -0.296875 -2.09375 -0.765625q-0.59375 -0.46875 -0.59375 -1.375q0 -0.84375 0.640625 -1.5q0.640625 -0.671875 1.703125 -0.796875zm7.1328125 8.703124l0 -7.828124l-0.875 0q-0.234375 0 -0.34375 -0.09375q-0.09375 -0.09375 -0.09375 -0.234375q0 -0.15625 0.09375 -0.234375q0.109375 -0.09375 0.34375 -0.09375l4.125 0q1.21875 0 1.984375 0.703125q0.78125 0.703125 0.78125 1.65625q0 1.203125 -1.296875 1.953125q1.03125 0.359375 1.5 0.96875q0.484375 0.609375 0.484375 1.34375q0 0.65625 -0.3125 1.203124q-0.3125 0.546875 -0.96875 0.9375q-0.640625 0.375 -1.390625 0.375l-4.90625 0q-0.234375 0 -0.34375 -0.09375q-0.09375 -0.09375 -0.09375 -0.234375q0 -0.15625 0.09375 -0.234375q0.109375 -0.09375 0.34375 -0.09375l0.875 0zm0.65625 -4.421874l2.328125 0q0.734375 0 1.359375 -0.28125q0.46875 -0.21875 0.734375 -0.625q0.265625 -0.421875 0.265625 -0.84375q0 -0.625 -0.578125 -1.140625q-0.578125 -0.515625 -1.5 -0.515625l-2.609375 0l0 3.40625zm0 4.421874l3.328125 0q0.625 0 1.09375 -0.28125q0.46875 -0.28125 0.703125 -0.6875q0.25 -0.42187405 0.25 -0.87499905q0 -0.5 -0.34375 -0.96875q-0.34375 -0.46875 -0.96875 -0.703125q-0.609375 -0.25 -1.703125 -0.25l-2.359375 0l0 3.765624zm12.0703125 -9.484374l0 1.703125l-0.96875 0l0 -1.703125l0.96875 0zm0.03125 3.375l0 6.109374l2.578125 0q0.234375 0 0.328125 0.09375q0.109375 0.078125 0.109375 0.234375q0 0.140625 -0.109375 0.234375q-0.09375 0.09375 -0.328125 0.09375l-5.8125 0q-0.234375 0 -0.34375 -0.09375q-0.09375 -0.09375 -0.09375 -0.234375q0 -0.15625 0.09375 -0.234375q0.109375 -0.09375 0.34375 -0.09375l2.578125 0l0 -5.453124l-1.921875 0q-0.234375 0 -0.34375 -0.09375q-0.09375 -0.09375 -0.09375 -0.234375q0 -0.140625 0.09375 -0.234375q0.109375 -0.09375 0.34375 -0.09375l2.578125 0zm7.1328125 0l0 0.984375q0.6875 -0.6875 1.234375 -0.953125q0.5625 -0.265625 1.25 -0.265625q0.75 0 1.375 0.3125q0.4375 0.234375 0.78125 0.78125q0.359375 0.546875 0.359375 1.109375l0 4.140624l0.5625 0q0.234375 0 0.328125 0.09375q0.109375 0.078125 0.109375 0.234375q0 0.140625 -0.109375 0.234375q-0.09375 0.09375 -0.328125 0.09375l-1.765625 0q-0.234375 0 -0.34375 -0.09375q-0.09375 -0.09375 -0.09375 -0.234375q0 -0.15625 0.09375 -0.234375q0.109375 -0.09375 0.34375 -0.09375l0.546875 0l0 -4.031249q0 -0.6875 -0.515625 -1.171875q-0.5 -0.484375 -1.34375 -0.484375q-0.65625 0 -1.140625 0.265625q-0.46875 0.265625 -1.34375 1.296875l0 4.124999l0.734375 0q0.234375 0 0.328125 0.09375q0.109375 0.078125 0.109375 0.234375q0 0.140625 -0.109375 0.234375q-0.09375 0.09375 -0.328125 0.09375l-2.140625 0q-0.234375 0 -0.34375 -0.09375q-0.09375 -0.09375 -0.09375 -0.234375q0 -0.15625 0.09375 -0.234375q0.109375 -0.09375 0.34375 -0.09375l0.75 0l0 -5.453124l-0.5625 0q-0.234375 0 -0.34375 -0.09375q-0.09375 -0.09375 -0.09375 -0.234375q0 -0.140625 0.09375 -0.234375q0.109375 -0.09375 0.34375 -0.09375l1.21875 0zm15.7265625 2.21875q0 1.3125 -0.53125 2.4375q-0.53125 1.109374 -1.46875 1.749999q-0.921875 0.625 -2.0 0.625q-1.578125 0 -2.796875 -1.34375q-1.203125 -1.359374 -1.203125 -3.468749q0 -2.125 1.203125 -3.46875q1.21875 -1.34375 2.796875 -1.34375q1.078125 0 2.0 0.625q0.9375 0.625 1.46875 1.75q0.53125 1.109375 0.53125 2.4375zm-0.65625 0q0 -1.609375 -0.9375 -2.875q-0.921875 -1.28125 -2.40625 -1.28125q-1.375 0 -2.359375 1.21875q-0.984375 1.21875 -0.984375 2.9375q0 1.828125 1.03125 2.984374q1.03125 1.15625 2.3125 1.15625q1.484375 0 2.40625 -1.265625q0.9375 -1.265624 0.9375 -2.874999zm3.7734375 -2.21875l0 1.1875q0.59375 -0.703125 1.265625 -1.0625q0.671875 -0.359375 1.578125 -0.359375q0.96875 0 1.78125 0.453125q0.828125 0.453125 1.28125 1.265625q0.453125 0.796875 0.453125 1.6875q0 1.421875 -1.015625 2.421874q-1.015625 1.0 -2.484375 1.0q-1.765625 0 -2.859375 -1.421875l0 3.953125l1.59375 0q0.234375 0 0.328125 0.09375q0.109375 0.09375 0.109375 0.234375q0 0.140625 -0.109375 0.234375q-0.09375 0.09375 -0.328125 0.09375l-3.125 0q-0.234375 0 -0.34375 -0.09375q-0.09375 -0.078125 -0.09375 -0.234375q0 -0.140625 0.09375 -0.234375q0.109375 -0.09375 0.34375 -0.09375l0.875 0l0 -8.468749l-0.875 0q-0.234375 0 -0.34375 -0.09375q-0.09375 -0.09375 -0.09375 -0.234375q0 -0.140625 0.09375 -0.234375q0.109375 -0.09375 0.34375 -0.09375l1.53125 0zm5.6875 3.171875q0 -1.125 -0.828125 -1.9375q-0.8125 -0.8125 -2.0 -0.8125q-1.203125 0 -2.03125 0.8125q-0.828125 0.8125 -0.828125 1.9375q0 1.140625 0.828125 1.953124q0.828125 0.8125 2.03125 0.8125q1.171875 0 2.0 -0.8125q0.828125 -0.81249905 0.828125 -1.953124z" fill-rule="nonzero"></path><path fill="#000000" fill-opacity="0.0" d="m178.54921 23.9338l62.48819 0" fill-rule="nonzero"></path><path stroke="#000000" stroke-width="1.0" stroke-linejoin="round" stroke-linecap="butt" d="m178.54921 23.9338l62.48819 0" fill-rule="nonzero"></path><path fill="#cfe2f3" d="m265.94397 23.744823l40.6929 0l0 24.188976l-40.6929 0z" fill-rule="nonzero"></path><path fill="#000000" fill-opacity="0.0" d="m260.5656 25.123432l49.543304 0l0 21.543308l-49.543304 0z" fill-rule="nonzero"></path><path fill="#000000" d="m274.38806 34.98946l3.5625 0q0.234375 0 0.328125 0.09375q0.109375 0.09375 0.109375 0.234375q0 0.140625 -0.109375 0.234375q-0.09375 0.09375 -0.328125 0.09375l-3.5625 0l0 4.375q0 0.5625 0.453125 0.953125q0.46875 0.375 1.34375 0.375q0.671875 0 1.4375 -0.1875q0.78125 -0.203125 1.203125 -0.453125q0.15625 -0.109375 0.265625 -0.109375q0.125 0 0.21875 0.109375q0.09375 0.09375 0.09375 0.21875q0 0.125 -0.109375 0.21875q-0.25 0.265625 -1.21875 0.578125q-0.953125 0.296875 -1.84375 0.296875q-1.140625 0 -1.828125 -0.546875q-0.671875 -0.546875 -0.671875 -1.453125l0 -4.375l-1.21875 0q-0.234375 0 -0.34375 -0.09375q-0.09375 -0.09375 -0.09375 -0.234375q0 -0.140625 0.09375 -0.234375q0.109375 -0.09375 0.34375 -0.09375l1.21875 0l0 -1.9375q0 -0.234375 0.09375 -0.328125q0.09375 -0.109375 0.234375 -0.109375q0.140625 0 0.234375 0.109375q0.09375 0.09375 0.09375 0.328125l0 1.9375zm13.2109375 6.765625l-0.8125 0.015625l-1.4375 -4.234375l-1.4375 4.234375l-0.8125 -0.015625l-1.359375 -6.109375l-0.328125 0q-0.234375 0 -0.34375 -0.09375q-0.09375 -0.09375 -0.09375 -0.234375q0 -0.140625 0.09375 -0.234375q0.109375 -0.09375 0.34375 -0.09375l1.8125 0q0.234375 0 0.328125 0.09375q0.109375 0.09375 0.109375 0.234375q0 0.140625 -0.109375 0.234375q-0.09375 0.09375 -0.328125 0.09375l-0.84375 0l1.171875 5.203125l1.390625 -4.15625l0.78125 0l1.4375 4.15625l1.125 -5.203125l-0.828125 0q-0.234375 0 -0.34375 -0.09375q-0.109375 -0.09375 -0.109375 -0.234375q0 -0.140625 0.09375 -0.234375q0.109375 -0.09375 0.359375 -0.09375l1.796875 0q0.234375 0 0.328125 0.09375q0.109375 0.09375 0.109375 0.234375q0 0.140625 -0.109375 0.234375q-0.09375 0.09375 -0.328125 0.09375l-0.3125 0l-1.34375 6.109375zm11.0078125 -3.375q0 1.5 -1.078125 2.578125q-1.0625 1.0625 -2.578125 1.0625q-1.53125 0 -2.609375 -1.0625q-1.0625 -1.078125 -1.0625 -2.578125q0 -1.5 1.0625 -2.5625q1.078125 -1.0625 2.609375 -1.0625q1.515625 0 2.578125 1.0625q1.078125 1.0625 1.078125 2.5625zm-0.65625 0q0 -1.234375 -0.890625 -2.09375q-0.875 -0.875 -2.125 -0.875q-1.25 0 -2.125 0.875q-0.875 0.875 -0.875 2.09375q0 1.21875 0.875 2.09375q0.875 0.875 2.125 0.875q1.25 0 2.125 -0.859375q0.890625 -0.875 0.890625 -2.109375z" fill-rule="nonzero"></path><path fill="#000000" fill-opacity="0.0" d="m260.5656 1.1234331l49.543304 0l0 21.543308l-49.543304 0z" fill-rule="nonzero"></path><path fill="#000000" d="m280.20447 8.395711l0 -0.828125q0 -0.25 0.078125 -0.34375q0.09375 -0.109375 0.25 -0.109375q0.140625 0 0.234375 0.109375q0.09375 0.09375 0.09375 0.34375l0 0.828125q0.53125 0.046875 0.875 0.171875q0.34375 0.109375 0.8125 0.421875q0 -0.1875 0.09375 -0.28125q0.09375 -0.09375 0.234375 -0.09375q0.140625 0 0.234375 0.109375q0.09375 0.09375 0.09375 0.328125l0 0.96875q0 0.234375 -0.09375 0.34375q-0.09375 0.09375 -0.234375 0.09375q-0.125 0 -0.21875 -0.078125q-0.078125 -0.078125 -0.109375 -0.28125q-0.046875 -0.359375 -0.484375 -0.65625q-0.640625 -0.421875 -1.515625 -0.421875q-0.875 0 -1.453125 0.515625q-0.578125 0.515625 -0.578125 1.15625q0 0.65625 0.515625 1.0q0.375 0.265625 1.609375 0.5q1.234375 0.21875 1.671875 0.421875q0.625 0.28125 0.921875 0.75q0.3125 0.46875 0.3125 1.125q0 0.890625 -0.703125 1.578124q-0.6875 0.671875 -1.984375 0.796875l0 1.9375q0 0.25 -0.09375 0.34375q-0.09375 0.109375 -0.234375 0.109375q-0.15625 0 -0.25 -0.109375q-0.078125 -0.09375 -0.078125 -0.34375l0 -1.9375q-1.203125 -0.078125 -2.03125 -0.78125q0 0.34375 -0.03125 0.421875q-0.015625 0.078125 -0.109375 0.140625q-0.078125 0.046875 -0.1875 0.046875q-0.140625 0 -0.234375 -0.09375q-0.09375 -0.109375 -0.09375 -0.34375l0 -1.281249q0 -0.234375 0.09375 -0.328125q0.09375 -0.109375 0.234375 -0.109375q0.140625 0 0.25 0.09375q0.0625 0.078125 0.078125 0.3125q0.046875 0.421875 0.671875 0.859375q0.625 0.42187405 1.6875 0.42187405q1.09375 0 1.71875 -0.51562405q0.640625 -0.53125 0.640625 -1.21875q0 -0.46875 -0.234375 -0.796875q-0.234375 -0.328125 -0.734375 -0.53125q-0.328125 -0.140625 -1.375 -0.328125q-1.515625 -0.296875 -2.09375 -0.765625q-0.59375 -0.46875 -0.59375 -1.375q0 -0.84375 0.640625 -1.5q0.640625 -0.671875 1.703125 -0.796875zm7.8046875 4.9375l0 3.765624l5.046875 0l0 -1.937499q0 -0.234375 0.078125 -0.328125q0.09375 -0.109375 0.25 -0.109375q0.140625 0 0.234375 0.109375q0.09375 0.09375 0.09375 0.328125l0 2.593749l-7.25 0q-0.234375 0 -0.34375 -0.09375q-0.09375 -0.09375 -0.09375 -0.234375q0 -0.15625 0.09375 -0.234375q0.109375 -0.09375 0.34375 -0.09375l0.890625 0l0 -7.828124l-0.890625 0q-0.234375 0 -0.34375 -0.09375q-0.09375 -0.09375 -0.09375 -0.234375q0 -0.15625 0.09375 -0.234375q0.109375 -0.09375 0.34375 -0.09375l6.90625 0l0 2.25q0 0.234375 -0.09375 0.34375q-0.09375 0.09375 -0.234375 0.09375q-0.15625 0 -0.25 -0.09375q-0.078125 -0.109375 -0.078125 -0.34375l0 -1.59375l-4.703125 0l0 3.40625l2.34375 0l0 -0.734375q0 -0.234375 0.09375 -0.328125q0.09375 -0.109375 0.25 -0.109375q0.140625 0 0.234375 0.109375q0.09375 0.09375 0.09375 0.328125l0 2.140625q0 0.234375 -0.09375 0.34375q-0.09375 0.09375 -0.234375 0.09375q-0.15625 0 -0.25 -0.09375q-0.09375 -0.109375 -0.09375 -0.34375l0 -0.75l-2.34375 0z" fill-rule="nonzero"></path><path fill="#000000" fill-opacity="0.0" d="m265.94226 23.925926l40.661407 0" fill-rule="nonzero"></path><path stroke="#000000" stroke-width="1.0" stroke-linejoin="round" stroke-linecap="butt" d="m265.94226 23.925926l40.661407 0" fill-rule="nonzero"></path><path fill="#cfe2f3" d="m334.48557 23.996792l104.09448 0l0 23.811024l-104.09448 0z" fill-rule="nonzero"></path><path fill="#000000" fill-opacity="0.0" d="m330.4357 25.186424l71.55905 0l0 21.543308l-71.55905 0z" fill-rule="nonzero"></path><path fill="#000000" d="m346.68005 32.458702l0 -0.828125q0 -0.25 0.078125 -0.34375q0.09375 -0.109375 0.25 -0.109375q0.140625 0 0.234375 0.109375q0.09375 0.09375 0.09375 0.34375l0 0.828125q0.53125 0.046875 0.875 0.171875q0.34375 0.109375 0.8125 0.421875q0 -0.1875 0.09375 -0.28125q0.09375 -0.09375 0.234375 -0.09375q0.140625 0 0.234375 0.109375q0.09375 0.09375 0.09375 0.328125l0 0.96875q0 0.234375 -0.09375 0.34375q-0.09375 0.09375 -0.234375 0.09375q-0.125 0 -0.21875 -0.078125q-0.078125 -0.078125 -0.109375 -0.28125q-0.046875 -0.359375 -0.484375 -0.65625q-0.640625 -0.421875 -1.515625 -0.421875q-0.875 0 -1.453125 0.515625q-0.578125 0.515625 -0.578125 1.15625q0 0.65625 0.515625 1.0q0.375 0.265625 1.609375 0.5q1.234375 0.21875 1.671875 0.421875q0.625 0.28125 0.921875 0.75q0.3125 0.46875 0.3125 1.125q0 0.890625 -0.703125 1.578125q-0.6875 0.671875 -1.984375 0.796875l0 1.9375q0 0.25 -0.09375 0.34375q-0.09375 0.109375 -0.234375 0.109375q-0.15625 0 -0.25 -0.109375q-0.078125 -0.09375 -0.078125 -0.34375l0 -1.9375q-1.203125 -0.078125 -2.03125 -0.78125q0 0.34375 -0.03125 0.421875q-0.015625 0.078125 -0.109375 0.140625q-0.078125 0.046875 -0.1875 0.046875q-0.140625 0 -0.234375 -0.09375q-0.09375 -0.109375 -0.09375 -0.34375l0 -1.28125q0 -0.234375 0.09375 -0.328125q0.09375 -0.109375 0.234375 -0.109375q0.140625 0 0.25 0.09375q0.0625 0.078125 0.078125 0.3125q0.046875 0.421875 0.671875 0.859375q0.625 0.421875 1.6875 0.421875q1.09375 0 1.71875 -0.515625q0.640625 -0.53125 0.640625 -1.21875q0 -0.46875 -0.234375 -0.796875q-0.234375 -0.328125 -0.734375 -0.53125q-0.328125 -0.140625 -1.375 -0.328125q-1.515625 -0.296875 -2.09375 -0.765625q-0.59375 -0.46875 -0.59375 -1.375q0 -0.84375 0.640625 -1.5q0.640625 -0.671875 1.703125 -0.796875zm13.1171875 0.875l0 5.484375q0 1.375 -0.921875 2.328125q-0.921875 0.9375 -2.234375 0.9375q-0.875 0 -1.5625 -0.390625q-0.671875 -0.390625 -1.15625 -1.15625q-0.46875 -0.78125 -0.46875 -1.71875l0 -5.484375l-0.546875 0q-0.234375 0 -0.34375 -0.09375q-0.09375 -0.09375 -0.09375 -0.234375q0 -0.15625 0.109375 -0.25q0.09375 -0.078125 0.328125 -0.078125l2.421875 0q0.234375 0 0.328125 0.09375q0.109375 0.078125 0.109375 0.234375q0 0.140625 -0.109375 0.234375q-0.09375 0.09375 -0.328125 0.09375l-1.21875 0l0 5.484375q0 1.078125 0.734375 1.84375q0.75 0.75 1.765625 0.75q0.65625 0 1.1875 -0.296875q0.53125 -0.296875 0.9375 -0.90625q0.40625 -0.625 0.40625 -1.390625l0 -5.484375l-1.21875 0q-0.234375 0 -0.34375 -0.09375q-0.09375 -0.09375 -0.09375 -0.234375q0 -0.15625 0.09375 -0.234375q0.109375 -0.09375 0.34375 -0.09375l2.421875 0q0.234375 0 0.328125 0.09375q0.109375 0.078125 0.109375 0.234375q0 0.140625 -0.109375 0.234375q-0.09375 0.09375 -0.328125 0.09375l-0.546875 0zm4.3046875 1.71875l0 0.984375q0.6875 -0.6875 1.234375 -0.953125q0.5625 -0.265625 1.25 -0.265625q0.75 0 1.375 0.3125q0.4375 0.234375 0.78125 0.78125q0.359375 0.546875 0.359375 1.109375l0 4.140625l0.5625 0q0.234375 0 0.328125 0.09375q0.109375 0.078125 0.109375 0.234375q0 0.140625 -0.109375 0.234375q-0.09375 0.09375 -0.328125 0.09375l-1.765625 0q-0.234375 0 -0.34375 -0.09375q-0.09375 -0.09375 -0.09375 -0.234375q0 -0.15625 0.09375 -0.234375q0.109375 -0.09375 0.34375 -0.09375l0.546875 0l0 -4.03125q0 -0.6875 -0.515625 -1.171875q-0.5 -0.484375 -1.34375 -0.484375q-0.65625 0 -1.140625 0.265625q-0.46875 0.265625 -1.34375 1.296875l0 4.125l0.734375 0q0.234375 0 0.328125 0.09375q0.109375 0.078125 0.109375 0.234375q0 0.140625 -0.109375 0.234375q-0.09375 0.09375 -0.328125 0.09375l-2.140625 0q-0.234375 0 -0.34375 -0.09375q-0.09375 -0.09375 -0.09375 -0.234375q0 -0.15625 0.09375 -0.234375q0.109375 -0.09375 0.34375 -0.09375l0.75 0l0 -5.453125l-0.5625 0q-0.234375 0 -0.34375 -0.09375q-0.09375 -0.09375 -0.09375 -0.234375q0 -0.140625 0.09375 -0.234375q0.109375 -0.09375 0.34375 -0.09375l1.21875 0zm15.7265625 2.21875q0 1.3125 -0.53125 2.4375q-0.53125 1.109375 -1.46875 1.75q-0.921875 0.625 -2.0 0.625q-1.578125 0 -2.796875 -1.34375q-1.203125 -1.359375 -1.203125 -3.46875q0 -2.125 1.203125 -3.46875q1.21875 -1.34375 2.796875 -1.34375q1.078125 0 2.0 0.625q0.9375 0.625 1.46875 1.75q0.53125 1.109375 0.53125 2.4375zm-0.65625 0q0 -1.609375 -0.9375 -2.875q-0.921875 -1.28125 -2.40625 -1.28125q-1.375 0 -2.359375 1.21875q-0.984375 1.21875 -0.984375 2.9375q0 1.828125 1.03125 2.984375q1.03125 1.15625 2.3125 1.15625q1.484375 0 2.40625 -1.265625q0.9375 -1.265625 0.9375 -2.875zm3.7734375 -2.21875l0 1.1875q0.59375 -0.703125 1.265625 -1.0625q0.671875 -0.359375 1.578125 -0.359375q0.96875 0 1.78125 0.453125q0.828125 0.453125 1.28125 1.265625q0.453125 0.796875 0.453125 1.6875q0 1.421875 -1.015625 2.421875q-1.015625 1.0 -2.484375 1.0q-1.765625 0 -2.859375 -1.421875l0 3.953125l1.59375 0q0.234375 0 0.328125 0.09375q0.109375 0.09375 0.109375 0.234375q0 0.140625 -0.109375 0.234375q-0.09375 0.09375 -0.328125 0.09375l-3.125 0q-0.234375 0 -0.34375 -0.09375q-0.09375 -0.078125 -0.09375 -0.234375q0 -0.140625 0.09375 -0.234375q0.109375 -0.09375 0.34375 -0.09375l0.875 0l0 -8.46875l-0.875 0q-0.234375 0 -0.34375 -0.09375q-0.09375 -0.09375 -0.09375 -0.234375q0 -0.140625 0.09375 -0.234375q0.109375 -0.09375 0.34375 -0.09375l1.53125 0zm5.6875 3.171875q0 -1.125 -0.828125 -1.9375q-0.8125 -0.8125 -2.0 -0.8125q-1.203125 0 -2.03125 0.8125q-0.828125 0.8125 -0.828125 1.9375q0 1.140625 0.828125 1.953125q0.828125 0.8125 2.03125 0.8125q1.171875 0 2.0 -0.8125q0.828125 -0.8125 0.828125 -1.953125z" fill-rule="nonzero"></path><path fill="#000000" fill-opacity="0.0" d="m399.76904 25.185768l38.80313 0l0 21.543308l-38.80313 0z" fill-rule="nonzero"></path><path fill="#000000" d="m414.03778 32.458046l0 -0.828125q0 -0.25 0.078125 -0.34375q0.09375 -0.109375 0.25 -0.109375q0.140625 0 0.234375 0.109375q0.09375 0.09375 0.09375 0.34375l0 0.828125q0.53125 0.046875 0.875 0.171875q0.34375 0.109375 0.8125 0.421875q0 -0.1875 0.09375 -0.28125q0.09375 -0.09375 0.234375 -0.09375q0.140625 0 0.234375 0.109375q0.09375 0.09375 0.09375 0.328125l0 0.96875q0 0.234375 -0.09375 0.34375q-0.09375 0.09375 -0.234375 0.09375q-0.125 0 -0.21875 -0.078125q-0.078125 -0.078125 -0.109375 -0.28125q-0.046875 -0.359375 -0.484375 -0.65625q-0.640625 -0.421875 -1.515625 -0.421875q-0.875 0 -1.453125 0.515625q-0.578125 0.515625 -0.578125 1.15625q0 0.65625 0.515625 1.0q0.375 0.265625 1.609375 0.5q1.234375 0.21875 1.671875 0.421875q0.625 0.28125 0.921875 0.75q0.3125 0.46875 0.3125 1.125q0 0.890625 -0.703125 1.578125q-0.6875 0.671875 -1.984375 0.796875l0 1.9375q0 0.25 -0.09375 0.34375q-0.09375 0.109375 -0.234375 0.109375q-0.15625 0 -0.25 -0.109375q-0.078125 -0.09375 -0.078125 -0.34375l0 -1.9375q-1.203125 -0.078125 -2.03125 -0.78125q0 0.34375 -0.03125 0.421875q-0.015625 0.078125 -0.109375 0.140625q-0.078125 0.046875 -0.1875 0.046875q-0.140625 0 -0.234375 -0.09375q-0.09375 -0.109375 -0.09375 -0.34375l0 -1.28125q0 -0.234375 0.09375 -0.328125q0.09375 -0.109375 0.234375 -0.109375q0.140625 0 0.25 0.09375q0.0625 0.078125 0.078125 0.3125q0.046875 0.421875 0.671875 0.859375q0.625 0.421875 1.6875 0.421875q1.09375 0 1.71875 -0.515625q0.640625 -0.53125 0.640625 -1.21875q0 -0.46875 -0.234375 -0.796875q-0.234375 -0.328125 -0.734375 -0.53125q-0.328125 -0.140625 -1.375 -0.328125q-1.515625 -0.296875 -2.09375 -0.765625q-0.59375 -0.46875 -0.59375 -1.375q0 -0.84375 0.640625 -1.5q0.640625 -0.671875 1.703125 -0.796875zm7.8046875 4.9375l0 3.765625l5.046875 0l0 -1.9375q0 -0.234375 0.078125 -0.328125q0.09375 -0.109375 0.25 -0.109375q0.140625 0 0.234375 0.109375q0.09375 0.09375 0.09375 0.328125l0 2.59375l-7.25 0q-0.234375 0 -0.34375 -0.09375q-0.09375 -0.09375 -0.09375 -0.234375q0 -0.15625 0.09375 -0.234375q0.109375 -0.09375 0.34375 -0.09375l0.890625 0l0 -7.828125l-0.890625 0q-0.234375 0 -0.34375 -0.09375q-0.09375 -0.09375 -0.09375 -0.234375q0 -0.15625 0.09375 -0.234375q0.109375 -0.09375 0.34375 -0.09375l6.90625 0l0 2.25q0 0.234375 -0.09375 0.34375q-0.09375 0.09375 -0.234375 0.09375q-0.15625 0 -0.25 -0.09375q-0.078125 -0.109375 -0.078125 -0.34375l0 -1.59375l-4.703125 0l0 3.40625l2.34375 0l0 -0.734375q0 -0.234375 0.09375 -0.328125q0.09375 -0.109375 0.25 -0.109375q0.140625 0 0.234375 0.109375q0.09375 0.09375 0.09375 0.328125l0 2.140625q0 0.234375 -0.09375 0.34375q-0.09375 0.09375 -0.234375 0.09375q-0.15625 0 -0.25 -0.09375q-0.09375 -0.109375 -0.09375 -0.34375l0 -0.75l-2.34375 0z" fill-rule="nonzero"></path><path fill="#000000" fill-opacity="0.0" d="m334.48425 24.14771l104.09448 0" fill-rule="nonzero"></path><path stroke="#000000" stroke-width="1.0" stroke-linejoin="round" stroke-linecap="butt" d="m334.48425 24.14771l104.09448 0" fill-rule="nonzero"></path><path fill="#000000" fill-opacity="0.0" d="m334.48557 1.1857691l104.09448 0l0 21.543308l-104.09448 0z" fill-rule="nonzero"></path><path fill="#000000" d="m381.4 8.458047l0 -0.828125q0 -0.25 0.078125 -0.34375q0.09375 -0.109375 0.25 -0.109375q0.140625 0 0.234375 0.109375q0.09375 0.09375 0.09375 0.34375l0 0.828125q0.53125 0.046875 0.875 0.171875q0.34375 0.109375 0.8125 0.421875q0 -0.1875 0.09375 -0.28125q0.09375 -0.09375 0.234375 -0.09375q0.140625 0 0.234375 0.109375q0.09375 0.09375 0.09375 0.328125l0 0.96875q0 0.234375 -0.09375 0.34375q-0.09375 0.09375 -0.234375 0.09375q-0.125 0 -0.21875 -0.078125q-0.078125 -0.078125 -0.109375 -0.28125q-0.046875 -0.359375 -0.484375 -0.65625q-0.640625 -0.421875 -1.515625 -0.421875q-0.875 0 -1.453125 0.515625q-0.578125 0.515625 -0.578125 1.15625q0 0.65625 0.515625 1.0q0.375 0.265625 1.609375 0.5q1.234375 0.21875 1.671875 0.421875q0.625 0.28125 0.921875 0.75q0.3125 0.46875 0.3125 1.125q0 0.890625 -0.703125 1.578124q-0.6875 0.671875 -1.984375 0.796875l0 1.9375q0 0.25 -0.09375 0.34375q-0.09375 0.109375 -0.234375 0.109375q-0.15625 0 -0.25 -0.109375q-0.078125 -0.09375 -0.078125 -0.34375l0 -1.9375q-1.203125 -0.078125 -2.03125 -0.78125q0 0.34375 -0.03125 0.421875q-0.015625 0.078125 -0.109375 0.140625q-0.078125 0.046875 -0.1875 0.046875q-0.140625 0 -0.234375 -0.09375q-0.09375 -0.109375 -0.09375 -0.34375l0 -1.281249q0 -0.234375 0.09375 -0.328125q0.09375 -0.109375 0.234375 -0.109375q0.140625 0 0.25 0.09375q0.0625 0.078125 0.078125 0.3125q0.046875 0.421875 0.671875 0.859375q0.625 0.42187405 1.6875 0.42187405q1.09375 0 1.71875 -0.51562405q0.640625 -0.53125 0.640625 -1.21875q0 -0.46875 -0.234375 -0.796875q-0.234375 -0.328125 -0.734375 -0.53125q-0.328125 -0.140625 -1.375 -0.328125q-1.515625 -0.296875 -2.09375 -0.765625q-0.59375 -0.46875 -0.59375 -1.375q0 -0.84375 0.640625 -1.5q0.640625 -0.671875 1.703125 -0.796875zm7.8046875 4.9375l0 3.765624l5.046875 0l0 -1.937499q0 -0.234375 0.078125 -0.328125q0.09375 -0.109375 0.25 -0.109375q0.140625 0 0.234375 0.109375q0.09375 0.09375 0.09375 0.328125l0 2.593749l-7.25 0q-0.234375 0 -0.34375 -0.09375q-0.09375 -0.09375 -0.09375 -0.234375q0 -0.15625 0.09375 -0.234375q0.109375 -0.09375 0.34375 -0.09375l0.890625 0l0 -7.828124l-0.890625 0q-0.234375 0 -0.34375 -0.09375q-0.09375 -0.09375 -0.09375 -0.234375q0 -0.15625 0.09375 -0.234375q0.109375 -0.09375 0.34375 -0.09375l6.90625 0l0 2.25q0 0.234375 -0.09375 0.34375q-0.09375 0.09375 -0.234375 0.09375q-0.15625 0 -0.25 -0.09375q-0.078125 -0.109375 -0.078125 -0.34375l0 -1.59375l-4.703125 0l0 3.40625l2.34375 0l0 -0.734375q0 -0.234375 0.09375 -0.328125q0.09375 -0.109375 0.25 -0.109375q0.140625 0 0.234375 0.109375q0.09375 0.09375 0.09375 0.328125l0 2.140625q0 0.234375 -0.09375 0.34375q-0.09375 0.09375 -0.234375 0.09375q-0.15625 0 -0.25 -0.09375q-0.09375 -0.109375 -0.09375 -0.34375l0 -0.75l-2.34375 0z" fill-rule="nonzero"></path><path fill="#cfe2f3" d="m466.90814 23.996792l145.85828 0l0 23.811024l-145.85828 0z" fill-rule="nonzero"></path><path fill="#000000" fill-opacity="0.0" d="m572.1916 25.185768l38.80316 0l0 21.543308l-38.80316 0z" fill-rule="nonzero"></path><path fill="#000000" d="m586.4604 32.458046l0 -0.828125q0 -0.25 0.078125 -0.34375q0.09375 -0.109375 0.25 -0.109375q0.140625 0 0.234375 0.109375q0.09375 0.09375 0.09375 0.34375l0 0.828125q0.53125 0.046875 0.875 0.171875q0.34375 0.109375 0.8125 0.421875q0 -0.1875 0.09375 -0.28125q0.09375 -0.09375 0.234375 -0.09375q0.140625 0 0.234375 0.109375q0.09375 0.09375 0.09375 0.328125l0 0.96875q0 0.234375 -0.09375 0.34375q-0.09375 0.09375 -0.234375 0.09375q-0.125 0 -0.21875 -0.078125q-0.078125 -0.078125 -0.109375 -0.28125q-0.046875 -0.359375 -0.484375 -0.65625q-0.640625 -0.421875 -1.515625 -0.421875q-0.875 0 -1.453125 0.515625q-0.578125 0.515625 -0.578125 1.15625q0 0.65625 0.515625 1.0q0.375 0.265625 1.609375 0.5q1.234375 0.21875 1.671875 0.421875q0.625 0.28125 0.921875 0.75q0.3125 0.46875 0.3125 1.125q0 0.890625 -0.703125 1.578125q-0.6875 0.671875 -1.984375 0.796875l0 1.9375q0 0.25 -0.09375 0.34375q-0.09375 0.109375 -0.234375 0.109375q-0.15625 0 -0.25 -0.109375q-0.078125 -0.09375 -0.078125 -0.34375l0 -1.9375q-1.203125 -0.078125 -2.03125 -0.78125q0 0.34375 -0.03125 0.421875q-0.015625 0.078125 -0.109375 0.140625q-0.078125 0.046875 -0.1875 0.046875q-0.140625 0 -0.234375 -0.09375q-0.09375 -0.109375 -0.09375 -0.34375l0 -1.28125q0 -0.234375 0.09375 -0.328125q0.09375 -0.109375 0.234375 -0.109375q0.140625 0 0.25 0.09375q0.0625 0.078125 0.078125 0.3125q0.046875 0.421875 0.671875 0.859375q0.625 0.421875 1.6875 0.421875q1.09375 0 1.71875 -0.515625q0.640625 -0.53125 0.640625 -1.21875q0 -0.46875 -0.234375 -0.796875q-0.234375 -0.328125 -0.734375 -0.53125q-0.328125 -0.140625 -1.375 -0.328125q-1.515625 -0.296875 -2.09375 -0.765625q-0.59375 -0.46875 -0.59375 -1.375q0 -0.84375 0.640625 -1.5q0.640625 -0.671875 1.703125 -0.796875zm7.8046875 4.9375l0 3.765625l5.046875 0l0 -1.9375q0 -0.234375 0.078125 -0.328125q0.09375 -0.109375 0.25 -0.109375q0.140625 0 0.234375 0.109375q0.09375 0.09375 0.09375 0.328125l0 2.59375l-7.25 0q-0.234375 0 -0.34375 -0.09375q-0.09375 -0.09375 -0.09375 -0.234375q0 -0.15625 0.09375 -0.234375q0.109375 -0.09375 0.34375 -0.09375l0.890625 0l0 -7.828125l-0.890625 0q-0.234375 0 -0.34375 -0.09375q-0.09375 -0.09375 -0.09375 -0.234375q0 -0.15625 0.09375 -0.234375q0.109375 -0.09375 0.34375 -0.09375l6.90625 0l0 2.25q0 0.234375 -0.09375 0.34375q-0.09375 0.09375 -0.234375 0.09375q-0.15625 0 -0.25 -0.09375q-0.078125 -0.109375 -0.078125 -0.34375l0 -1.59375l-4.703125 0l0 3.40625l2.34375 0l0 -0.734375q0 -0.234375 0.09375 -0.328125q0.09375 -0.109375 0.25 -0.109375q0.140625 0 0.234375 0.109375q0.09375 0.09375 0.09375 0.328125l0 2.140625q0 0.234375 -0.09375 0.34375q-0.09375 0.09375 -0.234375 0.09375q-0.15625 0 -0.25 -0.09375q-0.09375 -0.109375 -0.09375 -0.34375l0 -0.75l-2.34375 0z" fill-rule="nonzero"></path><path fill="#000000" fill-opacity="0.0" d="m500.5853 25.185768l78.01578 0l0 21.543308l-78.01578 0z" fill-rule="nonzero"></path><path fill="#000000" d="m515.25726 32.458046l0 -0.828125q0 -0.25 0.078125 -0.34375q0.09375 -0.109375 0.25 -0.109375q0.140625 0 0.234375 0.109375q0.09375 0.09375 0.09375 0.34375l0 0.828125q0.53125 0.046875 0.875 0.171875q0.34375 0.109375 0.8125 0.421875q0 -0.1875 0.09375 -0.28125q0.09375 -0.09375 0.234375 -0.09375q0.140625 0 0.234375 0.109375q0.09375 0.09375 0.09375 0.328125l0 0.96875q0 0.234375 -0.09375 0.34375q-0.09375 0.09375 -0.234375 0.09375q-0.125 0 -0.21875 -0.078125q-0.078125 -0.078125 -0.109375 -0.28125q-0.046875 -0.359375 -0.484375 -0.65625q-0.640625 -0.421875 -1.515625 -0.421875q-0.875 0 -1.453125 0.515625q-0.578125 0.515625 -0.578125 1.15625q0 0.65625 0.515625 1.0q0.375 0.265625 1.609375 0.5q1.234375 0.21875 1.671875 0.421875q0.625 0.28125 0.921875 0.75q0.3125 0.46875 0.3125 1.125q0 0.890625 -0.703125 1.578125q-0.6875 0.671875 -1.984375 0.796875l0 1.9375q0 0.25 -0.09375 0.34375q-0.09375 0.109375 -0.234375 0.109375q-0.15625 0 -0.25 -0.109375q-0.078125 -0.09375 -0.078125 -0.34375l0 -1.9375q-1.203125 -0.078125 -2.03125 -0.78125q0 0.34375 -0.03125 0.421875q-0.015625 0.078125 -0.109375 0.140625q-0.078125 0.046875 -0.1875 0.046875q-0.140625 0 -0.234375 -0.09375q-0.09375 -0.109375 -0.09375 -0.34375l0 -1.28125q0 -0.234375 0.09375 -0.328125q0.09375 -0.109375 0.234375 -0.109375q0.140625 0 0.25 0.09375q0.0625 0.078125 0.078125 0.3125q0.046875 0.421875 0.671875 0.859375q0.625 0.421875 1.6875 0.421875q1.09375 0 1.71875 -0.515625q0.640625 -0.53125 0.640625 -1.21875q0 -0.46875 -0.234375 -0.796875q-0.234375 -0.328125 -0.734375 -0.53125q-0.328125 -0.140625 -1.375 -0.328125q-1.515625 -0.296875 -2.09375 -0.765625q-0.59375 -0.46875 -0.59375 -1.375q0 -0.84375 0.640625 -1.5q0.640625 -0.671875 1.703125 -0.796875zm7.1328125 8.703125l0 -7.828125l-0.875 0q-0.234375 0 -0.34375 -0.09375q-0.09375 -0.09375 -0.09375 -0.234375q0 -0.15625 0.09375 -0.234375q0.109375 -0.09375 0.34375 -0.09375l4.125 0q1.21875 0 1.984375 0.703125q0.78125 0.703125 0.78125 1.65625q0 1.203125 -1.296875 1.953125q1.03125 0.359375 1.5 0.96875q0.484375 0.609375 0.484375 1.34375q0 0.65625 -0.3125 1.203125q-0.3125 0.546875 -0.96875 0.9375q-0.640625 0.375 -1.390625 0.375l-4.90625 0q-0.234375 0 -0.34375 -0.09375q-0.09375 -0.09375 -0.09375 -0.234375q0 -0.15625 0.09375 -0.234375q0.109375 -0.09375 0.34375 -0.09375l0.875 0zm0.65625 -4.421875l2.328125 0q0.734375 0 1.359375 -0.28125q0.46875 -0.21875 0.734375 -0.625q0.265625 -0.421875 0.265625 -0.84375q0 -0.625 -0.578125 -1.140625q-0.578125 -0.515625 -1.5 -0.515625l-2.609375 0l0 3.40625zm0 4.421875l3.328125 0q0.625 0 1.09375 -0.28125q0.46875 -0.28125 0.703125 -0.6875q0.25 -0.421875 0.25 -0.875q0 -0.5 -0.34375 -0.96875q-0.34375 -0.46875 -0.96875 -0.703125q-0.609375 -0.25 -1.703125 -0.25l-2.359375 0l0 3.765625zm12.0703125 -9.484375l0 1.703125l-0.96875 0l0 -1.703125l0.96875 0zm0.03125 3.375l0 6.109375l2.578125 0q0.234375 0 0.328125 0.09375q0.109375 0.078125 0.109375 0.234375q0 0.140625 -0.109375 0.234375q-0.09375 0.09375 -0.328125 0.09375l-5.8125 0q-0.234375 0 -0.34375 -0.09375q-0.09375 -0.09375 -0.09375 -0.234375q0 -0.15625 0.09375 -0.234375q0.109375 -0.09375 0.34375 -0.09375l2.578125 0l0 -5.453125l-1.921875 0q-0.234375 0 -0.34375 -0.09375q-0.09375 -0.09375 -0.09375 -0.234375q0 -0.140625 0.09375 -0.234375q0.109375 -0.09375 0.34375 -0.09375l2.578125 0zm7.1328125 0l0 0.984375q0.6875 -0.6875 1.234375 -0.953125q0.5625 -0.265625 1.25 -0.265625q0.75 0 1.375 0.3125q0.4375 0.234375 0.78125 0.78125q0.359375 0.546875 0.359375 1.109375l0 4.140625l0.5625 0q0.234375 0 0.328125 0.09375q0.109375 0.078125 0.109375 0.234375q0 0.140625 -0.109375 0.234375q-0.09375 0.09375 -0.328125 0.09375l-1.765625 0q-0.234375 0 -0.34375 -0.09375q-0.09375 -0.09375 -0.09375 -0.234375q0 -0.15625 0.09375 -0.234375q0.109375 -0.09375 0.34375 -0.09375l0.546875 0l0 -4.03125q0 -0.6875 -0.515625 -1.171875q-0.5 -0.484375 -1.34375 -0.484375q-0.65625 0 -1.140625 0.265625q-0.46875 0.265625 -1.34375 1.296875l0 4.125l0.734375 0q0.234375 0 0.328125 0.09375q0.109375 0.078125 0.109375 0.234375q0 0.140625 -0.109375 0.234375q-0.09375 0.09375 -0.328125 0.09375l-2.140625 0q-0.234375 0 -0.34375 -0.09375q-0.09375 -0.09375 -0.09375 -0.234375q0 -0.15625 0.09375 -0.234375q0.109375 -0.09375 0.34375 -0.09375l0.75 0l0 -5.453125l-0.5625 0q-0.234375 0 -0.34375 -0.09375q-0.09375 -0.09375 -0.09375 -0.234375q0 -0.140625 0.09375 -0.234375q0.109375 -0.09375 0.34375 -0.09375l1.21875 0zm15.7265625 2.21875q0 1.3125 -0.53125 2.4375q-0.53125 1.109375 -1.46875 1.75q-0.921875 0.625 -2.0 0.625q-1.578125 0 -2.796875 -1.34375q-1.203125 -1.359375 -1.203125 -3.46875q0 -2.125 1.203125 -3.46875q1.21875 -1.34375 2.796875 -1.34375q1.078125 0 2.0 0.625q0.9375 0.625 1.46875 1.75q0.53125 1.109375 0.53125 2.4375zm-0.65625 0q0 -1.609375 -0.9375 -2.875q-0.921875 -1.28125 -2.40625 -1.28125q-1.375 0 -2.359375 1.21875q-0.984375 1.21875 -0.984375 2.9375q0 1.828125 1.03125 2.984375q1.03125 1.15625 2.3125 1.15625q1.484375 0 2.40625 -1.265625q0.9375 -1.265625 0.9375 -2.875zm3.7734375 -2.21875l0 1.1875q0.59375 -0.703125 1.265625 -1.0625q0.671875 -0.359375 1.578125 -0.359375q0.96875 0 1.78125 0.453125q0.828125 0.453125 1.28125 1.265625q0.453125 0.796875 0.453125 1.6875q0 1.421875 -1.015625 2.421875q-1.015625 1.0 -2.484375 1.0q-1.765625 0 -2.859375 -1.421875l0 3.953125l1.59375 0q0.234375 0 0.328125 0.09375q0.109375 0.09375 0.109375 0.234375q0 0.140625 -0.109375 0.234375q-0.09375 0.09375 -0.328125 0.09375l-3.125 0q-0.234375 0 -0.34375 -0.09375q-0.09375 -0.078125 -0.09375 -0.234375q0 -0.140625 0.09375 -0.234375q0.109375 -0.09375 0.34375 -0.09375l0.875 0l0 -8.46875l-0.875 0q-0.234375 0 -0.34375 -0.09375q-0.09375 -0.09375 -0.09375 -0.234375q0 -0.140625 0.09375 -0.234375q0.109375 -0.09375 0.34375 -0.09375l1.53125 0zm5.6875 3.171875q0 -1.125 -0.828125 -1.9375q-0.8125 -0.8125 -2.0 -0.8125q-1.203125 0 -2.03125 0.8125q-0.828125 0.8125 -0.828125 1.9375q0 1.140625 0.828125 1.953125q0.828125 0.8125 2.03125 0.8125q1.171875 0 2.0 -0.8125q0.828125 -0.8125 0.828125 -1.953125z" fill-rule="nonzero"></path><path fill="#000000" fill-opacity="0.0" d="m466.90683 24.14771l145.85825 0" fill-rule="nonzero"></path><path stroke="#000000" stroke-width="1.0" stroke-linejoin="round" stroke-linecap="butt" d="m466.90683 24.14771l145.85825 0" fill-rule="nonzero"></path><path fill="#000000" fill-opacity="0.0" d="m466.90814 1.1857691l145.85828 0l0 21.543308l-145.85828 0z" fill-rule="nonzero"></path><path fill="#000000" d="m534.70447 8.458047l0 -0.828125q0 -0.25 0.078125 -0.34375q0.09375 -0.109375 0.25 -0.109375q0.140625 0 0.234375 0.109375q0.09375 0.09375 0.09375 0.34375l0 0.828125q0.53125 0.046875 0.875 0.171875q0.34375 0.109375 0.8125 0.421875q0 -0.1875 0.09375 -0.28125q0.09375 -0.09375 0.234375 -0.09375q0.140625 0 0.234375 0.109375q0.09375 0.09375 0.09375 0.328125l0 0.96875q0 0.234375 -0.09375 0.34375q-0.09375 0.09375 -0.234375 0.09375q-0.125 0 -0.21875 -0.078125q-0.078125 -0.078125 -0.109375 -0.28125q-0.046875 -0.359375 -0.484375 -0.65625q-0.640625 -0.421875 -1.515625 -0.421875q-0.875 0 -1.453125 0.515625q-0.578125 0.515625 -0.578125 1.15625q0 0.65625 0.515625 1.0q0.375 0.265625 1.609375 0.5q1.234375 0.21875 1.671875 0.421875q0.625 0.28125 0.921875 0.75q0.3125 0.46875 0.3125 1.125q0 0.890625 -0.703125 1.578124q-0.6875 0.671875 -1.984375 0.796875l0 1.9375q0 0.25 -0.09375 0.34375q-0.09375 0.109375 -0.234375 0.109375q-0.15625 0 -0.25 -0.109375q-0.078125 -0.09375 -0.078125 -0.34375l0 -1.9375q-1.203125 -0.078125 -2.03125 -0.78125q0 0.34375 -0.03125 0.421875q-0.015625 0.078125 -0.109375 0.140625q-0.078125 0.046875 -0.1875 0.046875q-0.140625 0 -0.234375 -0.09375q-0.09375 -0.109375 -0.09375 -0.34375l0 -1.281249q0 -0.234375 0.09375 -0.328125q0.09375 -0.109375 0.234375 -0.109375q0.140625 0 0.25 0.09375q0.0625 0.078125 0.078125 0.3125q0.046875 0.421875 0.671875 0.859375q0.625 0.42187405 1.6875 0.42187405q1.09375 0 1.71875 -0.51562405q0.640625 -0.53125 0.640625 -1.21875q0 -0.46875 -0.234375 -0.796875q-0.234375 -0.328125 -0.734375 -0.53125q-0.328125 -0.140625 -1.375 -0.328125q-1.515625 -0.296875 -2.09375 -0.765625q-0.59375 -0.46875 -0.59375 -1.375q0 -0.84375 0.640625 -1.5q0.640625 -0.671875 1.703125 -0.796875zm7.8046875 4.9375l0 3.765624l5.046875 0l0 -1.937499q0 -0.234375 0.078125 -0.328125q0.09375 -0.109375 0.25 -0.109375q0.140625 0 0.234375 0.109375q0.09375 0.09375 0.09375 0.328125l0 2.593749l-7.25 0q-0.234375 0 -0.34375 -0.09375q-0.09375 -0.09375 -0.09375 -0.234375q0 -0.15625 0.09375 -0.234375q0.109375 -0.09375 0.34375 -0.09375l0.890625 0l0 -7.828124l-0.890625 0q-0.234375 0 -0.34375 -0.09375q-0.09375 -0.09375 -0.09375 -0.234375q0 -0.15625 0.09375 -0.234375q0.109375 -0.09375 0.34375 -0.09375l6.90625 0l0 2.25q0 0.234375 -0.09375 0.34375q-0.09375 0.09375 -0.234375 0.09375q-0.15625 0 -0.25 -0.09375q-0.078125 -0.109375 -0.078125 -0.34375l0 -1.59375l-4.703125 0l0 3.40625l2.34375 0l0 -0.734375q0 -0.234375 0.09375 -0.328125q0.09375 -0.109375 0.25 -0.109375q0.140625 0 0.234375 0.109375q0.09375 0.09375 0.09375 0.328125l0 2.140625q0 0.234375 -0.09375 0.34375q-0.09375 0.09375 -0.234375 0.09375q-0.15625 0 -0.25 -0.09375q-0.09375 -0.109375 -0.09375 -0.34375l0 -0.75l-2.34375 0z" fill-rule="nonzero"></path><path fill="#000000" fill-opacity="0.0" d="m468.1916 25.185768l38.80316 0l0 21.543308l-38.80316 0z" fill-rule="nonzero"></path><path fill="#000000" d="m482.46036 32.458046l0 -0.828125q0 -0.25 0.078125 -0.34375q0.09375 -0.109375 0.25 -0.109375q0.140625 0 0.234375 0.109375q0.09375 0.09375 0.09375 0.34375l0 0.828125q0.53125 0.046875 0.875 0.171875q0.34375 0.109375 0.8125 0.421875q0 -0.1875 0.09375 -0.28125q0.09375 -0.09375 0.234375 -0.09375q0.140625 0 0.234375 0.109375q0.09375 0.09375 0.09375 0.328125l0 0.96875q0 0.234375 -0.09375 0.34375q-0.09375 0.09375 -0.234375 0.09375q-0.125 0 -0.21875 -0.078125q-0.078125 -0.078125 -0.109375 -0.28125q-0.046875 -0.359375 -0.484375 -0.65625q-0.640625 -0.421875 -1.515625 -0.421875q-0.875 0 -1.453125 0.515625q-0.578125 0.515625 -0.578125 1.15625q0 0.65625 0.515625 1.0q0.375 0.265625 1.609375 0.5q1.234375 0.21875 1.671875 0.421875q0.625 0.28125 0.921875 0.75q0.3125 0.46875 0.3125 1.125q0 0.890625 -0.703125 1.578125q-0.6875 0.671875 -1.984375 0.796875l0 1.9375q0 0.25 -0.09375 0.34375q-0.09375 0.109375 -0.234375 0.109375q-0.15625 0 -0.25 -0.109375q-0.078125 -0.09375 -0.078125 -0.34375l0 -1.9375q-1.203125 -0.078125 -2.03125 -0.78125q0 0.34375 -0.03125 0.421875q-0.015625 0.078125 -0.109375 0.140625q-0.078125 0.046875 -0.1875 0.046875q-0.140625 0 -0.234375 -0.09375q-0.09375 -0.109375 -0.09375 -0.34375l0 -1.28125q0 -0.234375 0.09375 -0.328125q0.09375 -0.109375 0.234375 -0.109375q0.140625 0 0.25 0.09375q0.0625 0.078125 0.078125 0.3125q0.046875 0.421875 0.671875 0.859375q0.625 0.421875 1.6875 0.421875q1.09375 0 1.71875 -0.515625q0.640625 -0.53125 0.640625 -1.21875q0 -0.46875 -0.234375 -0.796875q-0.234375 -0.328125 -0.734375 -0.53125q-0.328125 -0.140625 -1.375 -0.328125q-1.515625 -0.296875 -2.09375 -0.765625q-0.59375 -0.46875 -0.59375 -1.375q0 -0.84375 0.640625 -1.5q0.640625 -0.671875 1.703125 -0.796875zm7.8046875 4.9375l0 3.765625l5.046875 0l0 -1.9375q0 -0.234375 0.078125 -0.328125q0.09375 -0.109375 0.25 -0.109375q0.140625 0 0.234375 0.109375q0.09375 0.09375 0.09375 0.328125l0 2.59375l-7.25 0q-0.234375 0 -0.34375 -0.09375q-0.09375 -0.09375 -0.09375 -0.234375q0 -0.15625 0.09375 -0.234375q0.109375 -0.09375 0.34375 -0.09375l0.890625 0l0 -7.828125l-0.890625 0q-0.234375 0 -0.34375 -0.09375q-0.09375 -0.09375 -0.09375 -0.234375q0 -0.15625 0.09375 -0.234375q0.109375 -0.09375 0.34375 -0.09375l6.90625 0l0 2.25q0 0.234375 -0.09375 0.34375q-0.09375 0.09375 -0.234375 0.09375q-0.15625 0 -0.25 -0.09375q-0.078125 -0.109375 -0.078125 -0.34375l0 -1.59375l-4.703125 0l0 3.40625l2.34375 0l0 -0.734375q0 -0.234375 0.09375 -0.328125q0.09375 -0.109375 0.25 -0.109375q0.140625 0 0.234375 0.109375q0.09375 0.09375 0.09375 0.328125l0 2.140625q0 0.234375 -0.09375 0.34375q-0.09375 0.09375 -0.234375 0.09375q-0.15625 0 -0.25 -0.09375q-0.09375 -0.109375 -0.09375 -0.34375l0 -0.75l-2.34375 0z" fill-rule="nonzero"></path></g></svg>

