<?xml version="1.0" standalone="yes"?>

<svg version="1.1" viewBox="0.0 0.0 552.1207349081365 105.44356955380577" fill="none" stroke="none" stroke-linecap="square" stroke-miterlimit="10" xmlns="http://www.w3.org/2000/svg" xmlns:xlink="http://www.w3.org/1999/xlink"><clipPath id="p.0"><path d="m0 0l552.1207 0l0 105.44357l-552.1207 0l0 -105.44357z" clip-rule="nonzero"></path></clipPath><g clip-path="url(#p.0)"><path fill="#000000" fill-opacity="0.0" d="m0 0l552.1207 0l0 105.44357l-552.1207 0z" fill-rule="nonzero"></path><path fill="#cfe2f3" d="m6.9164414 25.818897l250.01575 0l0 72.18898l-250.01575 0z" fill-rule="nonzero"></path><path fill="#9fc5e8" d="m6.9164414 50.007874l130.99213 0l0 48.0l-130.99213 0z" fill-rule="nonzero"></path><path fill="#6fa8dc" d="m6.9164414 73.8189l62.48819 0l0 24.188972l-62.48819 0z" fill-rule="nonzero"></path><path fill="#000000" fill-opacity="0.0" d="m2.8665726 75.19751l71.55906 0l0 21.543304l-71.55906 0z" fill-rule="nonzero"></path><path fill="#000000" d="m16.454695 85.06354l0 0.65625q0.84375 -0.890625 1.6875 -0.890625q0.5 0 0.875 0.265625q0.390625 0.265625 0.65625 0.8125q0.4375 -0.546875 0.875 -0.8125q0.453125 -0.265625 0.90625 -0.265625q0.71875 0 1.140625 0.453125q0.546875 0.59375 0.546875 1.296875l0 4.59375l0.5625 0q0.234375 0 0.328125 0.09375q0.109375 0.078125 0.109375 0.234375q0 0.140625 -0.109375 0.234375q-0.09375 0.09375 -0.328125 0.09375l-1.21875 0l0 -5.1875q0 -0.5 -0.3125 -0.828125q-0.296875 -0.328125 -0.6875 -0.328125q-0.359375 0 -0.765625 0.28125q-0.390625 0.265625 -0.90625 1.046875l0 4.359375l0.546875 0q0.234375 0 0.328125 0.09375q0.109375 0.078125 0.109375 0.234375q0 0.140625 -0.109375 0.234375q-0.09375 0.09375 -0.328125 0.09375l-1.203125 0l0 -5.140625q0 -0.515625 -0.3125 -0.859375q-0.3125 -0.34375 -0.6875 -0.34375q-0.359375 0 -0.703125 0.234375q-0.46875 0.3125 -1.0 1.09375l0 4.359375l0.5625 0q0.234375 0 0.328125 0.09375q0.109375 0.078125 0.109375 0.234375q0 0.140625 -0.109375 0.234375q-0.09375 0.09375 -0.328125 0.09375l-1.765626 0q-0.234375 0 -0.34375 -0.09375q-0.09375 -0.09375 -0.09375 -0.234375q0 -0.15625 0.09375 -0.234375q0.109375 -0.09375 0.34375 -0.09375l0.546875 0l0 -5.453125l-0.546875 0q-0.234375 0 -0.34375 -0.09375q-0.09375 -0.09375 -0.09375 -0.234375q0 -0.140625 0.09375 -0.234375q0.109375 -0.09375 0.34375 -0.09375l1.203126 0zm12.9140625 -3.375l0 1.703125l-0.96875 0l0 -1.703125l0.96875 0zm0.03125 3.375l0 6.109375l2.578125 0q0.2343731 0 0.3281231 0.09375q0.109375 0.078125 0.109375 0.234375q0 0.140625 -0.109375 0.234375q-0.09375 0.09375 -0.3281231 0.09375l-5.8125 0q-0.234375 0 -0.34375 -0.09375q-0.09375 -0.09375 -0.09375 -0.234375q0 -0.15625 0.09375 -0.234375q0.109375 -0.09375 0.34375 -0.09375l2.578125 0l0 -5.453125l-1.921875 0q-0.234375 0 -0.34375 -0.09375q-0.09375 -0.09375 -0.09375 -0.234375q0 -0.140625 0.09375 -0.234375q0.109375 -0.09375 0.34375 -0.09375l2.578125 0zm7.1328106 0l0 0.984375q0.6875 -0.6875 1.234375 -0.953125q0.5625 -0.265625 1.25 -0.265625q0.75 0 1.375 0.3125q0.4375 0.234375 0.78125 0.78125q0.359375 0.546875 0.359375 1.109375l0 4.140625l0.5625 0q0.234375 0 0.328125 0.09375q0.109375 0.078125 0.109375 0.234375q0 0.140625 -0.109375 0.234375q-0.09375 0.09375 -0.328125 0.09375l-1.765625 0q-0.234375 0 -0.34375 -0.09375q-0.09375 -0.09375 -0.09375 -0.234375q0 -0.15625 0.09375 -0.234375q0.109375 -0.09375 0.34375 -0.09375l0.546875 0l0 -4.03125q0 -0.6875 -0.515625 -1.171875q-0.5 -0.484375 -1.34375 -0.484375q-0.65625 0 -1.140625 0.265625q-0.46875 0.265625 -1.34375 1.296875l0 4.125l0.734375 0q0.234375 0 0.328125 0.09375q0.109375 0.078125 0.109375 0.234375q0 0.140625 -0.109375 0.234375q-0.09375 0.09375 -0.328125 0.09375l-2.140625 0q-0.234375 0 -0.34375 -0.09375q-0.09375 -0.09375 -0.09375 -0.234375q0 -0.15625 0.09375 -0.234375q0.109375 -0.09375 0.34375 -0.09375l0.75 0l0 -5.453125l-0.5625 0q-0.234375 0 -0.34375 -0.09375q-0.09375 -0.09375 -0.09375 -0.234375q0 -0.140625 0.09375 -0.234375q0.109375 -0.09375 0.34375 -0.09375l1.21875 0zm13.9609375 6.765625l0 -0.96875q-1.34375 1.234375 -2.90625 1.234375q-0.953125 0 -1.453125 -0.53125q-0.65625 -0.6875 -0.65625 -1.609375l0 -4.234375l-0.875 0q-0.234375 0 -0.34375 -0.09375q-0.09375 -0.09375 -0.09375 -0.234375q0 -0.140625 0.09375 -0.234375q0.109375 -0.09375 0.34375 -0.09375l1.53125 0l0 4.890625q0 0.640625 0.40625 1.0625q0.40625 0.40625 1.015625 0.40625q1.609375 0 2.9375 -1.46875l0 -4.234375l-1.203125 0q-0.234375 0 -0.34375 -0.09375q-0.09375 -0.09375 -0.09375 -0.234375q0 -0.140625 0.09375 -0.234375q0.109375 -0.09375 0.34375 -0.09375l1.859375 0l0 6.109375l0.5625 0q0.234375 0 0.328125 0.09375q0.109375 0.078125 0.109375 0.234375q0 0.140625 -0.109375 0.234375q-0.09375 0.09375 -0.328125 0.09375l-1.21875 0zm9.5234375 -6.34375q0 -0.21875 0.09375 -0.3125q0.09375 -0.109375 0.234375 -0.109375q0.15625 0 0.25 0.109375q0.09375 0.09375 0.09375 0.328125l0 1.125q0 0.234375 -0.09375 0.34375q-0.09375 0.09375 -0.25 0.09375q-0.125 0 -0.21875 -0.078125q-0.09375 -0.09375 -0.109375 -0.28125q-0.046875 -0.46875 -0.484375 -0.78125q-0.640625 -0.4375 -1.6875 -0.4375q-1.109375 0 -1.71875 0.453125q-0.453125 0.328125 -0.453125 0.75q0 0.46875 0.546875 0.78125q0.375 0.21875 1.421875 0.328125q1.359375 0.15625 1.890625 0.34375q0.765625 0.265625 1.125 0.75q0.375 0.484375 0.375 1.046875q0 0.84375 -0.8125 1.5q-0.796875 0.65625 -2.34375 0.65625q-1.5625 0 -2.546875 -0.796875q0 0.265625 -0.03125 0.34375q-0.03125 0.078125 -0.125 0.140625q-0.078125 0.046875 -0.171875 0.046875q-0.140625 0 -0.234375 -0.09375q-0.09375 -0.109375 -0.09375 -0.34375l0 -1.359375q0 -0.234375 0.078125 -0.328125q0.09375 -0.109375 0.25 -0.109375q0.140625 0 0.234375 0.109375q0.09375 0.09375 0.09375 0.25q0 0.359375 0.1875 0.609375q0.265625 0.375 0.859375 0.625q0.609375 0.234375 1.46875 0.234375q1.28125 0 1.90625 -0.46875q0.625 -0.484375 0.625 -1.015625q0 -0.609375 -0.625 -0.96875q-0.640625 -0.375 -1.875 -0.5q-1.21875 -0.125 -1.75 -0.328125q-0.53125 -0.203125 -0.828125 -0.609375q-0.296875 -0.40625 -0.296875 -0.875q0 -0.84375 0.828125 -1.328125q0.828125 -0.5 1.984375 -0.5q1.359375 0 2.203125 0.65625z" fill-rule="nonzero"></path><path fill="#6fa8dc" d="m146.16644 73.8189l62.48819 0l0 24.188972l-62.48819 0z" fill-rule="nonzero"></path><path fill="#6fa8dc" d="m216.24492 73.8189l40.692917 0l0 24.188972l-40.692917 0z" fill-rule="nonzero"></path><path fill="#000000" fill-opacity="0.0" d="m141.53323 75.19751l71.55907 0l0 21.543304l-71.55907 0z" fill-rule="nonzero"></path><path fill="#000000" d="m155.12137 85.06354l0 0.65625q0.84375 -0.890625 1.6875 -0.890625q0.5 0 0.875 0.265625q0.390625 0.265625 0.65625 0.8125q0.4375 -0.546875 0.875 -0.8125q0.453125 -0.265625 0.90625 -0.265625q0.71875 0 1.140625 0.453125q0.546875 0.59375 0.546875 1.296875l0 4.59375l0.5625 0q0.234375 0 0.328125 0.09375q0.109375 0.078125 0.109375 0.234375q0 0.140625 -0.109375 0.234375q-0.09375 0.09375 -0.328125 0.09375l-1.21875 0l0 -5.1875q0 -0.5 -0.3125 -0.828125q-0.296875 -0.328125 -0.6875 -0.328125q-0.359375 0 -0.765625 0.28125q-0.390625 0.265625 -0.90625 1.046875l0 4.359375l0.546875 0q0.234375 0 0.328125 0.09375q0.109375 0.078125 0.109375 0.234375q0 0.140625 -0.109375 0.234375q-0.09375 0.09375 -0.328125 0.09375l-1.203125 0l0 -5.140625q0 -0.515625 -0.3125 -0.859375q-0.3125 -0.34375 -0.6875 -0.34375q-0.359375 0 -0.703125 0.234375q-0.46875 0.3125 -1.0 1.09375l0 4.359375l0.5625 0q0.234375 0 0.328125 0.09375q0.109375 0.078125 0.109375 0.234375q0 0.140625 -0.109375 0.234375q-0.09375 0.09375 -0.328125 0.09375l-1.765625 0q-0.234375 0 -0.34375 -0.09375q-0.09375 -0.09375 -0.09375 -0.234375q0 -0.15625 0.09375 -0.234375q0.109375 -0.09375 0.34375 -0.09375l0.546875 0l0 -5.453125l-0.546875 0q-0.234375 0 -0.34375 -0.09375q-0.09375 -0.09375 -0.09375 -0.234375q0 -0.140625 0.09375 -0.234375q0.109375 -0.09375 0.34375 -0.09375l1.203125 0zm12.9140625 -3.375l0 1.703125l-0.96875 0l0 -1.703125l0.96875 0zm0.03125 3.375l0 6.109375l2.578125 0q0.234375 0 0.328125 0.09375q0.109375 0.078125 0.109375 0.234375q0 0.140625 -0.109375 0.234375q-0.09375 0.09375 -0.328125 0.09375l-5.8125 0q-0.234375 0 -0.34375 -0.09375q-0.09375 -0.09375 -0.09375 -0.234375q0 -0.15625 0.09375 -0.234375q0.109375 -0.09375 0.34375 -0.09375l2.578125 0l0 -5.453125l-1.921875 0q-0.234375 0 -0.34375 -0.09375q-0.09375 -0.09375 -0.09375 -0.234375q0 -0.140625 0.09375 -0.234375q0.109375 -0.09375 0.34375 -0.09375l2.578125 0zm7.1327972 0l0 0.984375q0.6875 -0.6875 1.234375 -0.953125q0.5625 -0.265625 1.25 -0.265625q0.75 0 1.375 0.3125q0.4375 0.234375 0.78125 0.78125q0.359375 0.546875 0.359375 1.109375l0 4.140625l0.5625 0q0.234375 0 0.328125 0.09375q0.109375 0.078125 0.109375 0.234375q0 0.140625 -0.109375 0.234375q-0.09375 0.09375 -0.328125 0.09375l-1.765625 0q-0.234375 0 -0.34375 -0.09375q-0.09375 -0.09375 -0.09375 -0.234375q0 -0.15625 0.09375 -0.234375q0.109375 -0.09375 0.34375 -0.09375l0.546875 0l0 -4.03125q0 -0.6875 -0.515625 -1.171875q-0.5 -0.484375 -1.34375 -0.484375q-0.65625 0 -1.140625 0.265625q-0.46875 0.265625 -1.34375 1.296875l0 4.125l0.734375 0q0.234375 0 0.328125 0.09375q0.109375 0.078125 0.109375 0.234375q0 0.140625 -0.109375 0.234375q-0.09375 0.09375 -0.328125 0.09375l-2.140625 0q-0.234375 0 -0.34373474 -0.09375q-0.09375 -0.09375 -0.09375 -0.234375q0 -0.15625 0.09375 -0.234375q0.10935974 -0.09375 0.34373474 -0.09375l0.75 0l0 -5.453125l-0.5625 0q-0.234375 0 -0.34375 -0.09375q-0.09375 -0.09375 -0.09375 -0.234375q0 -0.140625 0.09375 -0.234375q0.109375 -0.09375 0.34375 -0.09375l1.21875 0zm13.9609375 6.765625l0 -0.96875q-1.34375 1.234375 -2.90625 1.234375q-0.953125 0 -1.453125 -0.53125q-0.65625 -0.6875 -0.65625 -1.609375l0 -4.234375l-0.875 0q-0.234375 0 -0.34375 -0.09375q-0.09375 -0.09375 -0.09375 -0.234375q0 -0.140625 0.09375 -0.234375q0.109375 -0.09375 0.34375 -0.09375l1.53125 0l0 4.890625q0 0.640625 0.40625 1.0625q0.40625 0.40625 1.015625 0.40625q1.609375 0 2.9375 -1.46875l0 -4.234375l-1.203125 0q-0.234375 0 -0.34375 -0.09375q-0.09375 -0.09375 -0.09375 -0.234375q0 -0.140625 0.09375 -0.234375q0.109375 -0.09375 0.34375 -0.09375l1.859375 0l0 6.109375l0.5625 0q0.234375 0 0.328125 0.09375q0.109375 0.078125 0.109375 0.234375q0 0.140625 -0.109375 0.234375q-0.09375 0.09375 -0.328125 0.09375l-1.21875 0zm9.5234375 -6.34375q0 -0.21875 0.09375 -0.3125q0.09375 -0.109375 0.234375 -0.109375q0.15625 0 0.25 0.109375q0.09375 0.09375 0.09375 0.328125l0 1.125q0 0.234375 -0.09375 0.34375q-0.09375 0.09375 -0.25 0.09375q-0.125 0 -0.21875 -0.078125q-0.09375 -0.09375 -0.109375 -0.28125q-0.046875 -0.46875 -0.484375 -0.78125q-0.640625 -0.4375 -1.6875 -0.4375q-1.109375 0 -1.71875 0.453125q-0.453125 0.328125 -0.453125 0.75q0 0.46875 0.546875 0.78125q0.375 0.21875 1.421875 0.328125q1.359375 0.15625 1.890625 0.34375q0.765625 0.265625 1.125 0.75q0.375 0.484375 0.375 1.046875q0 0.84375 -0.8125 1.5q-0.796875 0.65625 -2.34375 0.65625q-1.5625 0 -2.546875 -0.796875q0 0.265625 -0.03125 0.34375q-0.03125 0.078125 -0.125 0.140625q-0.078125 0.046875 -0.171875 0.046875q-0.140625 0 -0.234375 -0.09375q-0.09375 -0.109375 -0.09375 -0.34375l0 -1.359375q0 -0.234375 0.078125 -0.328125q0.09375 -0.109375 0.25 -0.109375q0.140625 0 0.234375 0.109375q0.09375 0.09375 0.09375 0.25q0 0.359375 0.1875 0.609375q0.265625 0.375 0.859375 0.625q0.609375 0.234375 1.46875 0.234375q1.28125 0 1.90625 -0.46875q0.625 -0.484375 0.625 -1.015625q0 -0.609375 -0.625 -0.96875q-0.640625 -0.375 -1.875 -0.5q-1.21875 -0.125 -1.75 -0.328125q-0.53125 -0.203125 -0.828125 -0.609375q-0.296875 -0.40625 -0.296875 -0.875q0 -0.84375 0.828125 -1.328125q0.828125 -0.5 1.984375 -0.5q1.359375 0 2.203125 0.65625z" fill-rule="nonzero"></path><path fill="#6fa8dc" d="m78.24577 73.8189l59.40158 0l0 24.188972l-59.40158 0z" fill-rule="nonzero"></path><path fill="#000000" fill-opacity="0.0" d="m72.199905 75.19751l71.55905 0l0 21.543304l-71.55905 0z" fill-rule="nonzero"></path><path fill="#000000" d="m87.42865 85.06354l3.5625 0q0.234375 0 0.328125 0.09375q0.109375 0.09375 0.109375 0.234375q0 0.140625 -0.109375 0.234375q-0.09375 0.09375 -0.328125 0.09375l-3.5625 0l0 4.375q0 0.5625 0.453125 0.953125q0.46875 0.375 1.34375 0.375q0.671875 0 1.4375 -0.1875q0.78125 -0.203125 1.203125 -0.453125q0.15625 -0.109375 0.265625 -0.109375q0.125 0 0.21875 0.109375q0.09375 0.09375 0.09375 0.21875q0 0.125 -0.109375 0.21875q-0.25 0.265625 -1.21875 0.578125q-0.953125 0.296875 -1.84375 0.296875q-1.140625 0 -1.828125 -0.546875q-0.671875 -0.546875 -0.671875 -1.453125l0 -4.375l-1.21875 0q-0.234375 0 -0.34375 -0.09375q-0.09375 -0.09375 -0.09375 -0.234375q0 -0.140625 0.09375 -0.234375q0.109375 -0.09375 0.34375 -0.09375l1.21875 0l0 -1.9375q0 -0.234375 0.09375 -0.328125q0.09375 -0.109375 0.234375 -0.109375q0.140625 0 0.234375 0.109375q0.09375 0.09375 0.09375 0.328125l0 1.9375zm8.7890625 -3.046875l0 4.046875q0.625 -0.6875 1.203125 -0.953125q0.578125 -0.28125 1.28125 -0.28125q0.765625 0 1.296875 0.265625q0.546875 0.265625 0.90625 0.828125q0.359375 0.5625 0.359375 1.171875l0 4.078125l0.734375 0q0.234375 0 0.328125 0.09375q0.109375 0.078125 0.109375 0.234375q0 0.140625 -0.109375 0.234375q-0.09375 0.09375 -0.328125 0.09375l-2.140625 0q-0.234375 0 -0.34375 -0.09375q-0.09375 -0.09375 -0.09375 -0.234375q0 -0.15625 0.09375 -0.234375q0.109375 -0.09375 0.34375 -0.09375l0.734375 0l0 -4.03125q0 -0.703125 -0.515625 -1.171875q-0.5 -0.484375 -1.421875 -0.484375q-0.71875 0 -1.21875 0.34375q-0.375 0.25 -1.21875 1.1875l0 4.15625l0.75 0q0.234375 0 0.328125 0.09375q0.109375 0.078125 0.109375 0.234375q0 0.140625 -0.109375 0.234375q-0.09375 0.09375 -0.328125 0.09375l-2.140625 0q-0.234375 0 -0.34375 -0.09375q-0.09375 -0.09375 -0.09375 -0.234375q0 -0.15625 0.09375 -0.234375q0.109375 -0.09375 0.34375 -0.09375l0.734375 0l0 -8.484375l-0.875 0q-0.234375 0 -0.34375 -0.09375q-0.09375 -0.09375 -0.09375 -0.25q0 -0.140625 0.09375 -0.234375q0.109375 -0.09375 0.34375 -0.09375l1.53125 0zm10.9765625 3.046875l0 1.65625q1.28125 -1.15625 1.921875 -1.484375q0.640625 -0.34375 1.171875 -0.34375q0.59375 0 1.09375 0.40625q0.5 0.390625 0.5 0.59375q0 0.140625 -0.09375 0.25q-0.09375 0.09375 -0.25 0.09375q-0.078125 0 -0.140625 -0.03125q-0.046875 -0.03125 -0.1875 -0.171875q-0.28125 -0.28125 -0.484375 -0.375q-0.203125 -0.109375 -0.390625 -0.109375q-0.4375 0 -1.046875 0.34375q-0.59375 0.34375 -2.09375 1.6875l0 3.59375l2.90625 0q0.25 0 0.34375 0.09375q0.109375 0.078125 0.109375 0.234375q0 0.140625 -0.109375 0.234375q-0.09375 0.09375 -0.34375 0.09375l-5.140625 0q-0.234375 0 -0.34375 -0.09375q-0.09375 -0.09375 -0.09375 -0.234375q0 -0.125 0.09375 -0.21875q0.09375 -0.09375 0.34375 -0.09375l1.578125 0l0 -5.46875l-1.203125 0q-0.234375 0 -0.34375 -0.09375q-0.09375 -0.09375 -0.09375 -0.234375q0 -0.140625 0.09375 -0.234375q0.09375 -0.09375 0.34375 -0.09375l1.859375 0zm13.9453125 3.53125l-6.6875 0q0.171875 1.28125 1.0625 2.0625q0.890625 0.765625 2.21875 0.765625q0.734375 0 1.53125 -0.234375q0.8125 -0.25 1.3125 -0.640625q0.15625 -0.125 0.265625 -0.125q0.125 0 0.21875 0.109375q0.09375 0.09375 0.09375 0.21875q0 0.140625 -0.125 0.265625q-0.375 0.390625 -1.34375 0.734375q-0.953125 0.34375 -1.953125 0.34375q-1.6875 0 -2.828125 -1.109375q-1.125 -1.109375 -1.125 -2.6875q0 -1.421875 1.0625 -2.4375q1.0625 -1.03125 2.625 -1.03125q1.609375 0 2.640625 1.046875q1.046875 1.046875 1.03125 2.71875zm-0.671875 -0.65625q-0.1875 -1.09375 -1.03125 -1.765625q-0.828125 -0.6875 -1.96875 -0.6875q-1.15625 0 -1.984375 0.671875q-0.828125 0.671875 -1.03125 1.78125l6.015625 0zm10.2734375 0.65625l-6.6875 0q0.171875 1.28125 1.0625 2.0625q0.890625 0.765625 2.21875 0.765625q0.734375 0 1.53125 -0.234375q0.8125 -0.25 1.3125 -0.640625q0.15625 -0.125 0.265625 -0.125q0.125 0 0.21875 0.109375q0.09375 0.09375 0.09375 0.21875q0 0.140625 -0.125 0.265625q-0.375 0.390625 -1.34375 0.734375q-0.953125 0.34375 -1.953125 0.34375q-1.6875 0 -2.828125 -1.109375q-1.125 -1.109375 -1.125 -2.6875q0 -1.421875 1.0625 -2.4375q1.0625 -1.03125 2.625 -1.03125q1.609375 0 2.640625 1.046875q1.046875 1.046875 1.03125 2.71875zm-0.671875 -0.65625q-0.1875 -1.09375 -1.03125 -1.765625q-0.828125 -0.6875 -1.96875 -0.6875q-1.15625 0 -1.984375 0.671875q-0.828125 0.671875 -1.03125 1.78125l6.015625 0z" fill-rule="nonzero"></path><path fill="#000000" fill-opacity="0.0" d="m210.86658 75.19751l49.543304 0l0 21.543304l-49.543304 0z" fill-rule="nonzero"></path><path fill="#000000" d="m224.68901 85.06354l3.5625 0q0.234375 0 0.328125 0.09375q0.109375 0.09375 0.109375 0.234375q0 0.140625 -0.109375 0.234375q-0.09375 0.09375 -0.328125 0.09375l-3.5625 0l0 4.375q0 0.5625 0.453125 0.953125q0.46875 0.375 1.34375 0.375q0.671875 0 1.4375 -0.1875q0.78125 -0.203125 1.203125 -0.453125q0.15625 -0.109375 0.265625 -0.109375q0.125 0 0.21875 0.109375q0.09375 0.09375 0.09375 0.21875q0 0.125 -0.109375 0.21875q-0.25 0.265625 -1.21875 0.578125q-0.953125 0.296875 -1.84375 0.296875q-1.140625 0 -1.828125 -0.546875q-0.671875 -0.546875 -0.671875 -1.453125l0 -4.375l-1.21875 0q-0.234375 0 -0.34375 -0.09375q-0.09375 -0.09375 -0.09375 -0.234375q0 -0.140625 0.09375 -0.234375q0.109375 -0.09375 0.34375 -0.09375l1.21875 0l0 -1.9375q0 -0.234375 0.09375 -0.328125q0.09375 -0.109375 0.234375 -0.109375q0.140625 0 0.234375 0.109375q0.09375 0.09375 0.09375 0.328125l0 1.9375zm13.2109375 6.765625l-0.8125 0.015625l-1.4375 -4.234375l-1.4375 4.234375l-0.8125 -0.015625l-1.359375 -6.109375l-0.328125 0q-0.234375 0 -0.34375 -0.09375q-0.09375 -0.09375 -0.09375 -0.234375q0 -0.140625 0.09375 -0.234375q0.109375 -0.09375 0.34375 -0.09375l1.8125 0q0.234375 0 0.328125 0.09375q0.109375 0.09375 0.109375 0.234375q0 0.140625 -0.109375 0.234375q-0.09375 0.09375 -0.328125 0.09375l-0.84375 0l1.171875 5.203125l1.390625 -4.15625l0.78125 0l1.4375 4.15625l1.125 -5.203125l-0.828125 0q-0.234375 0 -0.34375 -0.09375q-0.109375 -0.09375 -0.109375 -0.234375q0 -0.140625 0.09375 -0.234375q0.109375 -0.09375 0.359375 -0.09375l1.796875 0q0.234375 0 0.328125 0.09375q0.109375 0.09375 0.109375 0.234375q0 0.140625 -0.109375 0.234375q-0.09375 0.09375 -0.328125 0.09375l-0.3125 0l-1.34375 6.109375zm11.0078125 -3.375q0 1.5 -1.078125 2.578125q-1.0625 1.0625 -2.578125 1.0625q-1.53125 0 -2.609375 -1.0625q-1.0625 -1.078125 -1.0625 -2.578125q0 -1.5 1.0625 -2.5625q1.078125 -1.0625 2.609375 -1.0625q1.515625 0 2.578125 1.0625q1.078125 1.0625 1.078125 2.5625zm-0.65625 0q0 -1.234375 -0.890625 -2.09375q-0.875 -0.875 -2.125 -0.875q-1.25 0 -2.125 0.875q-0.875 0.875 -0.875 2.09375q0 1.21875 0.875 2.09375q0.875 0.875 2.125 0.875q1.25 0 2.125 -0.859375q0.890625 -0.875 0.890625 -2.109375z" fill-rule="nonzero"></path><path fill="#000000" fill-opacity="0.0" d="m6.915129 26.0l249.76376 0" fill-rule="nonzero"></path><path stroke="#000000" stroke-width="1.0" stroke-linejoin="round" stroke-linecap="butt" d="m6.915129 26.0l249.76376 0" fill-rule="nonzero"></path><path fill="#000000" fill-opacity="0.0" d="m2.8665726 51.197506l71.55906 0l0 21.543308l-71.55906 0z" fill-rule="nonzero"></path><path fill="#000000" d="m19.110945 58.469784l0 -0.828125q0 -0.25 0.078125 -0.34375q0.09375 -0.109375 0.25 -0.109375q0.140625 0 0.234375 0.109375q0.09375 0.09375 0.09375 0.34375l0 0.828125q0.53125 0.046875 0.875 0.171875q0.34375 0.109375 0.8125 0.421875q0 -0.1875 0.09375 -0.28125q0.09375 -0.09375 0.234375 -0.09375q0.140625 0 0.234375 0.109375q0.09375 0.09375 0.09375 0.328125l0 0.96875q0 0.234375 -0.09375 0.34375q-0.09375 0.09375 -0.234375 0.09375q-0.125 0 -0.21875 -0.078125q-0.078125 -0.078125 -0.109375 -0.28125q-0.046875 -0.359375 -0.484375 -0.65625q-0.640625 -0.421875 -1.515625 -0.421875q-0.875 0 -1.453125 0.515625q-0.578125 0.515625 -0.578125 1.15625q0 0.65625 0.515625 1.0q0.375 0.265625 1.609375 0.5q1.234375 0.21875 1.671875 0.421875q0.625 0.28125 0.921875 0.75q0.3125 0.46875 0.3125 1.1250038q0 0.890625 -0.703125 1.578125q-0.6875 0.671875 -1.984375 0.796875l0 1.9375q0 0.25 -0.09375 0.34375q-0.09375 0.109375 -0.234375 0.109375q-0.15625 0 -0.25 -0.109375q-0.078125 -0.09375 -0.078125 -0.34375l0 -1.9375q-1.203125 -0.078125 -2.03125 -0.78125q0 0.34375 -0.03125 0.421875q-0.015625 0.078125 -0.109375 0.140625q-0.078125 0.046875 -0.1875 0.046875q-0.140625 0 -0.234375 -0.09375q-0.09375 -0.109375 -0.09375 -0.34375l0 -1.28125q0 -0.234375 0.09375 -0.328125q0.09375 -0.109375 0.234375 -0.109375q0.140625 0 0.25 0.09375q0.0625 0.078125 0.078125 0.3125q0.046875 0.421875 0.671875 0.859375q0.625 0.421875 1.6875 0.421875q1.09375 0 1.71875 -0.515625q0.640625 -0.53125 0.640625 -1.21875q0 -0.46875 -0.234375 -0.7968788q-0.234375 -0.328125 -0.734375 -0.53125q-0.328125 -0.140625 -1.375 -0.328125q-1.515625 -0.296875 -2.09375 -0.765625q-0.59375 -0.46875 -0.59375 -1.375q0 -0.84375 0.640625 -1.5q0.640625 -0.671875 1.703125 -0.796875zm13.117186 0.875l0 5.484379q0 1.375 -0.9218731 2.328125q-0.921875 0.9375 -2.234375 0.9375q-0.875 0 -1.5625 -0.390625q-0.671875 -0.390625 -1.15625 -1.15625q-0.46875 -0.78125 -0.46875 -1.71875l0 -5.484379l-0.546875 0q-0.234375 0 -0.34375 -0.09375q-0.09375 -0.09375 -0.09375 -0.234375q0 -0.15625 0.109375 -0.25q0.09375 -0.078125 0.328125 -0.078125l2.421875 0q0.234375 0 0.328125 0.09375q0.109375 0.078125 0.109375 0.234375q0 0.140625 -0.109375 0.234375q-0.09375 0.09375 -0.328125 0.09375l-1.21875 0l0 5.484379q0 1.078125 0.734375 1.84375q0.75 0.75 1.765625 0.75q0.65625 0 1.1875 -0.296875q0.53125 -0.296875 0.9375 -0.90625q0.40625 -0.625 0.40625 -1.390625l0 -5.484379l-1.21875 0q-0.234375 0 -0.34375 -0.09375q-0.09375 -0.09375 -0.09375 -0.234375q0 -0.15625 0.09375 -0.234375q0.109375 -0.09375 0.34375 -0.09375l2.421873 0q0.234375 0 0.328125 0.09375q0.109375 0.078125 0.109375 0.234375q0 0.140625 -0.109375 0.234375q-0.09375 0.09375 -0.328125 0.09375l-0.546875 0zm4.3046875 1.71875l0 0.984375q0.6875 -0.6875 1.234375 -0.953125q0.5625 -0.265625 1.25 -0.265625q0.75 0 1.375 0.3125q0.4375 0.234375 0.78125 0.78125q0.359375 0.546875 0.359375 1.109375l0 4.140629l0.5625 0q0.234375 0 0.328125 0.09375q0.109375 0.078125 0.109375 0.234375q0 0.140625 -0.109375 0.234375q-0.09375 0.09375 -0.328125 0.09375l-1.765625 0q-0.234375 0 -0.34375 -0.09375q-0.09375 -0.09375 -0.09375 -0.234375q0 -0.15625 0.09375 -0.234375q0.109375 -0.09375 0.34375 -0.09375l0.546875 0l0 -4.031254q0 -0.6875 -0.515625 -1.171875q-0.5 -0.484375 -1.34375 -0.484375q-0.65625 0 -1.140625 0.265625q-0.46875 0.265625 -1.34375 1.296875l0 4.125004l0.734375 0q0.234375 0 0.328125 0.09375q0.109375 0.078125 0.109375 0.234375q0 0.140625 -0.109375 0.234375q-0.09375 0.09375 -0.328125 0.09375l-2.140625 0q-0.234375 0 -0.34375 -0.09375q-0.09375 -0.09375 -0.09375 -0.234375q0 -0.15625 0.09375 -0.234375q0.109375 -0.09375 0.34375 -0.09375l0.75 0l0 -5.453129l-0.5625 0q-0.234375 0 -0.34375 -0.09375q-0.09375 -0.09375 -0.09375 -0.234375q0 -0.140625 0.09375 -0.234375q0.109375 -0.09375 0.34375 -0.09375l1.21875 0zm15.7265625 2.21875q0 1.3125038 -0.53125 2.4375038q-0.53125 1.109375 -1.46875 1.75q-0.921875 0.625 -2.0 0.625q-1.578125 0 -2.796875 -1.34375q-1.203125 -1.359375 -1.203125 -3.4687538q0 -2.125 1.203125 -3.46875q1.21875 -1.34375 2.796875 -1.34375q1.078125 0 2.0 0.625q0.9375 0.625 1.46875 1.75q0.53125 1.109375 0.53125 2.4375zm-0.65625 0q0 -1.609375 -0.9375 -2.875q-0.921875 -1.28125 -2.40625 -1.28125q-1.375 0 -2.359375 1.21875q-0.984375 1.21875 -0.984375 2.9375q0 1.8281288 1.03125 2.9843788q1.03125 1.15625 2.3125 1.15625q1.484375 0 2.40625 -1.265625q0.9375 -1.265625 0.9375 -2.8750038zm3.7734375 -2.21875l0 1.1875q0.59375 -0.703125 1.265625 -1.0625q0.671875 -0.359375 1.578125 -0.359375q0.96875 0 1.78125 0.453125q0.828125 0.453125 1.28125 1.265625q0.453125 0.796875 0.453125 1.6875038q0 1.421875 -1.015625 2.421875q-1.015625 1.0 -2.484375 1.0q-1.765625 0 -2.859375 -1.421875l0 3.953125l1.59375 0q0.234375 0 0.328125 0.09375q0.109375 0.09375 0.109375 0.234375q0 0.140625 -0.109375 0.234375q-0.09375 0.09375 -0.328125 0.09375l-3.125 0q-0.234375 0 -0.34375 -0.09375q-0.09375 -0.078125 -0.09375 -0.234375q0 -0.140625 0.09375 -0.234375q0.109375 -0.09375 0.34375 -0.09375l0.875 0l0 -8.468754l-0.875 0q-0.234375 0 -0.34375 -0.09375q-0.09375 -0.09375 -0.09375 -0.234375q0 -0.140625 0.09375 -0.234375q0.109375 -0.09375 0.34375 -0.09375l1.53125 0zm5.6875 3.1718788q0 -1.1250038 -0.828125 -1.9375038q-0.8125 -0.8125 -2.0 -0.8125q-1.203125 0 -2.03125 0.8125q-0.828125 0.8125 -0.828125 1.9375038q0 1.140625 0.828125 1.953125q0.828125 0.8125 2.03125 0.8125q1.171875 0 2.0 -0.8125q0.828125 -0.8125 0.828125 -1.953125z" fill-rule="nonzero"></path><path fill="#000000" fill-opacity="0.0" d="m137.90857 51.19685l78.01575 0l0 21.543308l-78.01575 0z" fill-rule="nonzero"></path><path fill="#000000" d="m152.5805 58.469128l0 -0.828125q0 -0.25 0.078125 -0.34375q0.09375 -0.109375 0.25 -0.109375q0.140625 0 0.234375 0.109375q0.09375 0.09375 0.09375 0.34375l0 0.828125q0.53125 0.046875 0.875 0.171875q0.34375 0.109375 0.8125 0.421875q0 -0.1875 0.09375 -0.28125q0.09375 -0.09375 0.234375 -0.09375q0.140625 0 0.234375 0.109375q0.09375 0.09375 0.09375 0.328125l0 0.96875q0 0.234375 -0.09375 0.34375q-0.09375 0.09375 -0.234375 0.09375q-0.125 0 -0.21875 -0.078125q-0.078125 -0.078125 -0.109375 -0.28125q-0.046875 -0.359375 -0.484375 -0.65625q-0.640625 -0.421875 -1.515625 -0.421875q-0.875 0 -1.453125 0.515625q-0.578125 0.515625 -0.578125 1.15625q0 0.65625 0.515625 1.0q0.375 0.265625 1.609375 0.5q1.234375 0.21875 1.671875 0.421875q0.625 0.28125 0.921875 0.75q0.3125 0.46875 0.3125 1.1250038q0 0.890625 -0.703125 1.578125q-0.6875 0.671875 -1.984375 0.796875l0 1.9375q0 0.25 -0.09375 0.34375q-0.09375 0.109375 -0.234375 0.109375q-0.15625 0 -0.25 -0.109375q-0.078125 -0.09375 -0.078125 -0.34375l0 -1.9375q-1.203125 -0.078125 -2.03125 -0.78125q0 0.34375 -0.03125 0.421875q-0.015625 0.078125 -0.109375 0.140625q-0.078125 0.046875 -0.1875 0.046875q-0.140625 0 -0.234375 -0.09375q-0.09375 -0.109375 -0.09375 -0.34375l0 -1.28125q0 -0.234375 0.09375 -0.328125q0.09375 -0.109375 0.234375 -0.109375q0.140625 0 0.25 0.09375q0.0625 0.078125 0.078125 0.3125q0.046875 0.421875 0.671875 0.859375q0.625 0.421875 1.6875 0.421875q1.09375 0 1.71875 -0.515625q0.640625 -0.53125 0.640625 -1.21875q0 -0.46875 -0.234375 -0.7968788q-0.234375 -0.328125 -0.734375 -0.53125q-0.328125 -0.140625 -1.375 -0.328125q-1.515625 -0.296875 -2.09375 -0.765625q-0.59375 -0.46875 -0.59375 -1.375q0 -0.84375 0.640625 -1.5q0.640625 -0.671875 1.703125 -0.796875zm7.1328125 8.703129l0 -7.828129l-0.875 0q-0.234375 0 -0.34375 -0.09375q-0.09375 -0.09375 -0.09375 -0.234375q0 -0.15625 0.09375 -0.234375q0.109375 -0.09375 0.34375 -0.09375l4.125 0q1.21875 0 1.984375 0.703125q0.78125 0.703125 0.78125 1.65625q0 1.203125 -1.296875 1.953125q1.03125 0.359375 1.5 0.96875q0.484375 0.6093788 0.484375 1.3437538q0 0.65625 -0.3125 1.203125q-0.3125 0.546875 -0.96875 0.9375q-0.640625 0.375 -1.390625 0.375l-4.90625 0q-0.234375 0 -0.34375 -0.09375q-0.09375 -0.09375 -0.09375 -0.234375q0 -0.15625 0.09375 -0.234375q0.109375 -0.09375 0.34375 -0.09375l0.875 0zm0.65625 -4.421879l2.328125 0q0.734375 0 1.359375 -0.28125q0.46875 -0.21875 0.734375 -0.625q0.265625 -0.421875 0.265625 -0.84375q0 -0.625 -0.578125 -1.140625q-0.578125 -0.515625 -1.5 -0.515625l-2.609375 0l0 3.40625zm0 4.421879l3.328125 0q0.625 0 1.09375 -0.28125q0.46875 -0.28125 0.703125 -0.6875q0.25 -0.421875 0.25 -0.875q0 -0.5 -0.34375 -0.96875q-0.34375 -0.4687538 -0.96875 -0.7031288q-0.609375 -0.25 -1.703125 -0.25l-2.359375 0l0 3.7656288zm12.0703125 -9.484379l0 1.703125l-0.96875 0l0 -1.703125l0.96875 0zm0.03125 3.375l0 6.109379l2.578125 0q0.234375 0 0.328125 0.09375q0.109375 0.078125 0.109375 0.234375q0 0.140625 -0.109375 0.234375q-0.09375 0.09375 -0.328125 0.09375l-5.8125 0q-0.234375 0 -0.34375 -0.09375q-0.09375 -0.09375 -0.09375 -0.234375q0 -0.15625 0.09375 -0.234375q0.109375 -0.09375 0.34375 -0.09375l2.578125 0l0 -5.453129l-1.921875 0q-0.234375 0 -0.34375 -0.09375q-0.09375 -0.09375 -0.09375 -0.234375q0 -0.140625 0.09375 -0.234375q0.109375 -0.09375 0.34375 -0.09375l2.578125 0zm7.1328125 0l0 0.984375q0.6875 -0.6875 1.234375 -0.953125q0.5625 -0.265625 1.25 -0.265625q0.75 0 1.375 0.3125q0.4375 0.234375 0.78125 0.78125q0.359375 0.546875 0.359375 1.109375l0 4.140629l0.5625 0q0.234375 0 0.328125 0.09375q0.109375 0.078125 0.109375 0.234375q0 0.140625 -0.109375 0.234375q-0.09375 0.09375 -0.328125 0.09375l-1.765625 0q-0.234375 0 -0.34375 -0.09375q-0.09375 -0.09375 -0.09375 -0.234375q0 -0.15625 0.09375 -0.234375q0.109375 -0.09375 0.34375 -0.09375l0.546875 0l0 -4.031254q0 -0.6875 -0.515625 -1.171875q-0.5 -0.484375 -1.34375 -0.484375q-0.65625 0 -1.140625 0.265625q-0.46875 0.265625 -1.34375 1.296875l0 4.125004l0.734375 0q0.234375 0 0.328125 0.09375q0.109375 0.078125 0.109375 0.234375q0 0.140625 -0.109375 0.234375q-0.09375 0.09375 -0.328125 0.09375l-2.140625 0q-0.234375 0 -0.34375 -0.09375q-0.09375 -0.09375 -0.09375 -0.234375q0 -0.15625 0.09375 -0.234375q0.109375 -0.09375 0.34375 -0.09375l0.75 0l0 -5.453129l-0.5625 0q-0.234375 0 -0.34375 -0.09375q-0.09375 -0.09375 -0.09375 -0.234375q0 -0.140625 0.09375 -0.234375q0.109375 -0.09375 0.34375 -0.09375l1.21875 0zm15.7265625 2.21875q0 1.3125038 -0.53125 2.4375038q-0.53125 1.109375 -1.46875 1.75q-0.921875 0.625 -2.0 0.625q-1.578125 0 -2.796875 -1.34375q-1.203125 -1.359375 -1.203125 -3.4687538q0 -2.125 1.203125 -3.46875q1.21875 -1.34375 2.796875 -1.34375q1.078125 0 2.0 0.625q0.9375 0.625 1.46875 1.75q0.53125 1.109375 0.53125 2.4375zm-0.65625 0q0 -1.609375 -0.9375 -2.875q-0.921875 -1.28125 -2.40625 -1.28125q-1.375 0 -2.359375 1.21875q-0.984375 1.21875 -0.984375 2.9375q0 1.8281288 1.03125 2.9843788q1.03125 1.15625 2.3125 1.15625q1.484375 0 2.40625 -1.265625q0.9375 -1.265625 0.9375 -2.8750038zm3.7734375 -2.21875l0 1.1875q0.59375 -0.703125 1.265625 -1.0625q0.671875 -0.359375 1.578125 -0.359375q0.96875 0 1.78125 0.453125q0.828125 0.453125 1.28125 1.265625q0.453125 0.796875 0.453125 1.6875038q0 1.421875 -1.015625 2.421875q-1.015625 1.0 -2.484375 1.0q-1.765625 0 -2.859375 -1.421875l0 3.953125l1.59375 0q0.234375 0 0.328125 0.09375q0.109375 0.09375 0.109375 0.234375q0 0.140625 -0.109375 0.234375q-0.09375 0.09375 -0.328125 0.09375l-3.125 0q-0.234375 0 -0.34375 -0.09375q-0.09375 -0.078125 -0.09375 -0.234375q0 -0.140625 0.09375 -0.234375q0.109375 -0.09375 0.34375 -0.09375l0.875 0l0 -8.468754l-0.875 0q-0.234375 0 -0.34375 -0.09375q-0.09375 -0.09375 -0.09375 -0.234375q0 -0.140625 0.09375 -0.234375q0.109375 -0.09375 0.34375 -0.09375l1.53125 0zm5.6875 3.1718788q0 -1.1250038 -0.828125 -1.9375038q-0.8125 -0.8125 -2.0 -0.8125q-1.203125 0 -2.03125 0.8125q-0.828125 0.8125 -0.828125 1.9375038q0 1.140625 0.828125 1.953125q0.828125 0.8125 2.03125 0.8125q1.171875 0 2.0 -0.8125q0.828125 -0.8125 0.828125 -1.953125z" fill-rule="nonzero"></path><path fill="#000000" fill-opacity="0.0" d="m72.199905 51.197506l71.55905 0l0 21.543308l-71.55905 0z" fill-rule="nonzero"></path><path fill="#000000" d="m102.84662 58.469784l0 -0.828125q0 -0.25 0.078125 -0.34375q0.09375 -0.109375 0.25 -0.109375q0.140625 0 0.234375 0.109375q0.09375 0.09375 0.09375 0.34375l0 0.828125q0.53125 0.046875 0.875 0.171875q0.34375 0.109375 0.8125 0.421875q0 -0.1875 0.09375 -0.28125q0.09375 -0.09375 0.234375 -0.09375q0.140625 0 0.234375 0.109375q0.09375 0.09375 0.09375 0.328125l0 0.96875q0 0.234375 -0.09375 0.34375q-0.09375 0.09375 -0.234375 0.09375q-0.125 0 -0.21875 -0.078125q-0.078125 -0.078125 -0.109375 -0.28125q-0.046875 -0.359375 -0.484375 -0.65625q-0.640625 -0.421875 -1.515625 -0.421875q-0.875 0 -1.453125 0.515625q-0.578125 0.515625 -0.578125 1.15625q0 0.65625 0.515625 1.0q0.375 0.265625 1.609375 0.5q1.234375 0.21875 1.671875 0.421875q0.625 0.28125 0.921875 0.75q0.3125 0.46875 0.3125 1.1250038q0 0.890625 -0.703125 1.578125q-0.6875 0.671875 -1.984375 0.796875l0 1.9375q0 0.25 -0.09375 0.34375q-0.09375 0.109375 -0.234375 0.109375q-0.15625 0 -0.25 -0.109375q-0.078125 -0.09375 -0.078125 -0.34375l0 -1.9375q-1.203125 -0.078125 -2.03125 -0.78125q0 0.34375 -0.03125 0.421875q-0.015625 0.078125 -0.109375 0.140625q-0.078125 0.046875 -0.1875 0.046875q-0.140625 0 -0.234375 -0.09375q-0.09375 -0.109375 -0.09375 -0.34375l0 -1.28125q0 -0.234375 0.09375 -0.328125q0.09375 -0.109375 0.234375 -0.109375q0.140625 0 0.25 0.09375q0.0625 0.078125 0.078125 0.3125q0.046875 0.421875 0.671875 0.859375q0.625 0.421875 1.6875 0.421875q1.09375 0 1.71875 -0.515625q0.640625 -0.53125 0.640625 -1.21875q0 -0.46875 -0.234375 -0.7968788q-0.234375 -0.328125 -0.734375 -0.53125q-0.328125 -0.140625 -1.375 -0.328125q-1.515625 -0.296875 -2.09375 -0.765625q-0.59375 -0.46875 -0.59375 -1.375q0 -0.84375 0.640625 -1.5q0.640625 -0.671875 1.703125 -0.796875zm7.8046875 4.9375l0 3.7656288l5.046875 0l0 -1.9375q0 -0.234375 0.078125 -0.328125q0.09375 -0.109375 0.25 -0.109375q0.140625 0 0.234375 0.109375q0.09375 0.09375 0.09375 0.328125l0 2.59375l-7.25 0q-0.234375 0 -0.34375 -0.09375q-0.09375 -0.09375 -0.09375 -0.234375q0 -0.15625 0.09375 -0.234375q0.109375 -0.09375 0.34375 -0.09375l0.890625 0l0 -7.828129l-0.890625 0q-0.234375 0 -0.34375 -0.09375q-0.09375 -0.09375 -0.09375 -0.234375q0 -0.15625 0.09375 -0.234375q0.109375 -0.09375 0.34375 -0.09375l6.90625 0l0 2.25q0 0.234375 -0.09375 0.34375q-0.09375 0.09375 -0.234375 0.09375q-0.15625 0 -0.25 -0.09375q-0.078125 -0.109375 -0.078125 -0.34375l0 -1.59375l-4.703125 0l0 3.40625l2.34375 0l0 -0.734375q0 -0.234375 0.09375 -0.328125q0.09375 -0.109375 0.25 -0.109375q0.140625 0 0.234375 0.109375q0.09375 0.09375 0.09375 0.328125l0 2.1406288q0 0.234375 -0.09375 0.34375q-0.09375 0.09375 -0.234375 0.09375q-0.15625 0 -0.25 -0.09375q-0.09375 -0.109375 -0.09375 -0.34375l0 -0.7500038l-2.34375 0z" fill-rule="nonzero"></path><path fill="#000000" fill-opacity="0.0" d="m210.86658 51.197506l49.543304 0l0 21.543308l-49.543304 0z" fill-rule="nonzero"></path><path fill="#000000" d="m230.50542 58.469784l0 -0.828125q0 -0.25 0.078125 -0.34375q0.09375 -0.109375 0.25 -0.109375q0.140625 0 0.234375 0.109375q0.09375 0.09375 0.09375 0.34375l0 0.828125q0.53125 0.046875 0.875 0.171875q0.34375 0.109375 0.8125 0.421875q0 -0.1875 0.09375 -0.28125q0.09375 -0.09375 0.234375 -0.09375q0.140625 0 0.234375 0.109375q0.09375 0.09375 0.09375 0.328125l0 0.96875q0 0.234375 -0.09375 0.34375q-0.09375 0.09375 -0.234375 0.09375q-0.125 0 -0.21875 -0.078125q-0.078125 -0.078125 -0.109375 -0.28125q-0.046875 -0.359375 -0.484375 -0.65625q-0.640625 -0.421875 -1.515625 -0.421875q-0.875 0 -1.453125 0.515625q-0.578125 0.515625 -0.578125 1.15625q0 0.65625 0.515625 1.0q0.375 0.265625 1.609375 0.5q1.234375 0.21875 1.671875 0.421875q0.625 0.28125 0.921875 0.75q0.3125 0.46875 0.3125 1.1250038q0 0.890625 -0.703125 1.578125q-0.6875 0.671875 -1.984375 0.796875l0 1.9375q0 0.25 -0.09375 0.34375q-0.09375 0.109375 -0.234375 0.109375q-0.15625 0 -0.25 -0.109375q-0.078125 -0.09375 -0.078125 -0.34375l0 -1.9375q-1.203125 -0.078125 -2.03125 -0.78125q0 0.34375 -0.03125 0.421875q-0.015625 0.078125 -0.109375 0.140625q-0.078125 0.046875 -0.1875 0.046875q-0.140625 0 -0.234375 -0.09375q-0.09375 -0.109375 -0.09375 -0.34375l0 -1.28125q0 -0.234375 0.09375 -0.328125q0.09375 -0.109375 0.234375 -0.109375q0.140625 0 0.25 0.09375q0.0625 0.078125 0.078125 0.3125q0.046875 0.421875 0.671875 0.859375q0.625 0.421875 1.6875 0.421875q1.09375 0 1.71875 -0.515625q0.640625 -0.53125 0.640625 -1.21875q0 -0.46875 -0.234375 -0.7968788q-0.234375 -0.328125 -0.734375 -0.53125q-0.328125 -0.140625 -1.375 -0.328125q-1.515625 -0.296875 -2.09375 -0.765625q-0.59375 -0.46875 -0.59375 -1.375q0 -0.84375 0.640625 -1.5q0.640625 -0.671875 1.703125 -0.796875zm7.8046875 4.9375l0 3.7656288l5.046875 0l0 -1.9375q0 -0.234375 0.078125 -0.328125q0.09375 -0.109375 0.25 -0.109375q0.140625 0 0.234375 0.109375q0.09375 0.09375 0.09375 0.328125l0 2.59375l-7.25 0q-0.234375 0 -0.34375 -0.09375q-0.09375 -0.09375 -0.09375 -0.234375q0 -0.15625 0.09375 -0.234375q0.109375 -0.09375 0.34375 -0.09375l0.890625 0l0 -7.828129l-0.890625 0q-0.234375 0 -0.34375 -0.09375q-0.09375 -0.09375 -0.09375 -0.234375q0 -0.15625 0.09375 -0.234375q0.109375 -0.09375 0.34375 -0.09375l6.90625 0l0 2.25q0 0.234375 -0.09375 0.34375q-0.09375 0.09375 -0.234375 0.09375q-0.15625 0 -0.25 -0.09375q-0.078125 -0.109375 -0.078125 -0.34375l0 -1.59375l-4.703125 0l0 3.40625l2.34375 0l0 -0.734375q0 -0.234375 0.09375 -0.328125q0.09375 -0.109375 0.25 -0.109375q0.140625 0 0.234375 0.109375q0.09375 0.09375 0.09375 0.328125l0 2.1406288q0 0.234375 -0.09375 0.34375q-0.09375 0.09375 -0.234375 0.09375q-0.15625 0 -0.25 -0.09375q-0.09375 -0.109375 -0.09375 -0.34375l0 -0.7500038l-2.34375 0z" fill-rule="nonzero"></path><path fill="#000000" fill-opacity="0.0" d="m6.915129 74.0l62.48819 0" fill-rule="nonzero"></path><path stroke="#000000" stroke-width="1.0" stroke-linejoin="round" stroke-linecap="butt" d="m6.915129 74.0l62.48819 0" fill-rule="nonzero"></path><path fill="#000000" fill-opacity="0.0" d="m78.24321 74.0l59.433075 0" fill-rule="nonzero"></path><path stroke="#000000" stroke-width="1.0" stroke-linejoin="round" stroke-linecap="butt" d="m78.24321 74.0l59.433075 0" fill-rule="nonzero"></path><path fill="#000000" fill-opacity="0.0" d="m6.915129 50.158794l130.99213 0" fill-rule="nonzero"></path><path stroke="#000000" stroke-width="1.0" stroke-linejoin="round" stroke-linecap="butt" d="m6.915129 50.158794l130.99213 0" fill-rule="nonzero"></path><path fill="#000000" fill-opacity="0.0" d="m6.9164414 27.19685l130.99213 0l0 21.543308l-130.99213 0z" fill-rule="nonzero"></path><path fill="#000000" d="m67.27969 34.469128l0 -0.828125q0 -0.25 0.078125 -0.34375q0.09375 -0.109375 0.25 -0.109375q0.140625 0 0.234375 0.109375q0.09375 0.09375 0.09375 0.34375l0 0.828125q0.53125 0.046875 0.875 0.171875q0.34375 0.109375 0.8125 0.421875q0 -0.1875 0.09375 -0.28125q0.09375 -0.09375 0.234375 -0.09375q0.140625 0 0.234375 0.109375q0.09375 0.09375 0.09375 0.328125l0 0.96875q0 0.234375 -0.09375 0.34375q-0.09375 0.09375 -0.234375 0.09375q-0.125 0 -0.21875 -0.078125q-0.078125 -0.078125 -0.109375 -0.28125q-0.046875 -0.359375 -0.484375 -0.65625q-0.640625 -0.421875 -1.515625 -0.421875q-0.875 0 -1.453125 0.515625q-0.578125 0.515625 -0.578125 1.15625q0 0.65625 0.515625 1.0q0.375 0.265625 1.609375 0.5q1.234375 0.21875 1.671875 0.421875q0.625 0.28125 0.921875 0.75q0.3125 0.46875 0.3125 1.125q0 0.890625 -0.703125 1.578125q-0.6875 0.671875 -1.984375 0.796875l0 1.9375q0 0.25 -0.09375 0.34375q-0.09375 0.109375 -0.234375 0.109375q-0.15625 0 -0.25 -0.109375q-0.078125 -0.09375 -0.078125 -0.34375l0 -1.9375q-1.203125 -0.078125 -2.03125 -0.78125q0 0.34375 -0.03125 0.421875q-0.015625 0.078125 -0.109375 0.140625q-0.078125 0.046875 -0.1875 0.046875q-0.140625 0 -0.234375 -0.09375q-0.09375 -0.109375 -0.09375 -0.34375l0 -1.28125q0 -0.234375 0.09375 -0.328125q0.09375 -0.109375 0.234375 -0.109375q0.140625 0 0.25 0.09375q0.0625 0.078125 0.078125 0.3125q0.046875 0.421875 0.671875 0.859375q0.625 0.421875 1.6875 0.421875q1.09375 0 1.71875 -0.515625q0.640625 -0.53125 0.640625 -1.21875q0 -0.46875 -0.234375 -0.796875q-0.234375 -0.328125 -0.734375 -0.53125q-0.328125 -0.140625 -1.375 -0.328125q-1.515625 -0.296875 -2.09375 -0.765625q-0.59375 -0.46875 -0.59375 -1.375q0 -0.84375 0.640625 -1.5q0.640625 -0.671875 1.703125 -0.796875zm7.8046875 4.9375l0 3.765625l5.046875 0l0 -1.9375q0 -0.234375 0.078125 -0.328125q0.09375 -0.109375 0.25 -0.109375q0.140625 0 0.234375 0.109375q0.09375 0.09375 0.09375 0.328125l0 2.59375l-7.25 0q-0.234375 0 -0.34375 -0.09375q-0.09375 -0.09375 -0.09375 -0.234375q0 -0.15625 0.09375 -0.234375q0.109375 -0.09375 0.34375 -0.09375l0.890625 0l0 -7.828125l-0.890625 0q-0.234375 0 -0.34375 -0.09375q-0.09375 -0.09375 -0.09375 -0.234375q0 -0.15625 0.09375 -0.234375q0.109375 -0.09375 0.34375 -0.09375l6.90625 0l0 2.25q0 0.234375 -0.09375 0.34375q-0.09375 0.09375 -0.234375 0.09375q-0.15625 0 -0.25 -0.09375q-0.078125 -0.109375 -0.078125 -0.34375l0 -1.59375l-4.703125 0l0 3.40625l2.34375 0l0 -0.734375q0 -0.234375 0.09375 -0.328125q0.09375 -0.109375 0.25 -0.109375q0.140625 0 0.234375 0.109375q0.09375 0.09375 0.09375 0.328125l0 2.140625q0 0.234375 -0.09375 0.34375q-0.09375 0.09375 -0.234375 0.09375q-0.15625 0 -0.25 -0.09375q-0.09375 -0.109375 -0.09375 -0.34375l0 -0.75l-2.34375 0z" fill-rule="nonzero"></path><path fill="#000000" fill-opacity="0.0" d="m146.23468 74.00787l62.48819 0" fill-rule="nonzero"></path><path stroke="#000000" stroke-width="1.0" stroke-linejoin="round" stroke-linecap="butt" d="m146.23468 74.00787l62.48819 0" fill-rule="nonzero"></path><path fill="#000000" fill-opacity="0.0" d="m216.24321 74.0l40.661423 0" fill-rule="nonzero"></path><path stroke="#000000" stroke-width="1.0" stroke-linejoin="round" stroke-linecap="butt" d="m216.24321 74.0l40.661423 0" fill-rule="nonzero"></path><path fill="#000000" fill-opacity="0.0" d="m6.9164414 3.1968503l249.76376 0l0 21.543308l-249.76376 0z" fill-rule="nonzero"></path><path fill="#000000" d="m126.66552 10.469129l0 -0.828125q0 -0.25 0.078125 -0.34375q0.09375 -0.109375 0.25 -0.109375q0.140625 0 0.234375 0.109375q0.09375 0.09375 0.09375 0.34375l0 0.828125q0.53125 0.046875 0.8749924 0.171875q0.34375 0.109375 0.8125 0.421875q0 -0.1875 0.09375 -0.28125q0.09375 -0.09375 0.234375 -0.09375q0.140625 0 0.234375 0.109375q0.09375 0.09375 0.09375 0.328125l0 0.96875q0 0.234375 -0.09375 0.34375q-0.09375 0.09375 -0.234375 0.09375q-0.125 0 -0.21875 -0.078125q-0.078125 -0.078125 -0.109375 -0.28125q-0.046875 -0.359375 -0.484375 -0.65625q-0.6406174 -0.421875 -1.5156174 -0.421875q-0.875 0 -1.453125 0.515625q-0.578125 0.515625 -0.578125 1.15625q0 0.65625 0.515625 1.0q0.375 0.265625 1.609375 0.5q1.2343674 0.21875 1.6718674 0.421875q0.625 0.28125 0.921875 0.75q0.3125 0.46875 0.3125 1.124999q0 0.890625 -0.703125 1.578125q-0.6875 0.671875 -1.9843674 0.796875l0 1.9375q0 0.25 -0.09375 0.34375q-0.09375 0.109375 -0.234375 0.109375q-0.15625 0 -0.25 -0.109375q-0.078125 -0.09375 -0.078125 -0.34375l0 -1.9375q-1.203125 -0.078125 -2.03125 -0.78125q0 0.34375 -0.03125 0.421875q-0.015625 0.078125 -0.109375 0.140625q-0.078125 0.046875 -0.1875 0.046875q-0.140625 0 -0.234375 -0.09375q-0.09375 -0.109375 -0.09375 -0.34375l0 -1.28125q0 -0.234375 0.09375 -0.328125q0.09375 -0.109375 0.234375 -0.109375q0.140625 0 0.25 0.09375q0.0625 0.078125 0.078125 0.3125q0.046875 0.421875 0.671875 0.859375q0.625 0.421875 1.6875 0.421875q1.0937424 0 1.7187424 -0.515625q0.640625 -0.53125 0.640625 -1.21875q0 -0.46875 -0.234375 -0.79687405q-0.234375 -0.328125 -0.734375 -0.53125q-0.328125 -0.140625 -1.3749924 -0.328125q-1.515625 -0.296875 -2.09375 -0.765625q-0.59375 -0.46875 -0.59375 -1.375q0 -0.84375 0.640625 -1.5q0.640625 -0.671875 1.703125 -0.796875zm7.80468 4.9375l0 3.765624l5.0468903 0l0 -1.9375q0 -0.234375 0.078125 -0.328125q0.09375 -0.109375 0.25 -0.109375q0.140625 0 0.234375 0.109375q0.09375 0.09375 0.09375 0.328125l0 2.59375l-7.2500153 0q-0.234375 0 -0.34375 -0.09375q-0.09375 -0.09375 -0.09375 -0.234375q0 -0.15625 0.09375 -0.234375q0.109375 -0.09375 0.34375 -0.09375l0.890625 0l0 -7.828124l-0.890625 0q-0.234375 0 -0.34375 -0.09375q-0.09375 -0.09375 -0.09375 -0.234375q0 -0.15625 0.09375 -0.234375q0.109375 -0.09375 0.34375 -0.09375l6.9062653 0l0 2.25q0 0.234375 -0.09375 0.34375q-0.09375 0.09375 -0.234375 0.09375q-0.15625 0 -0.25 -0.09375q-0.078125 -0.109375 -0.078125 -0.34375l0 -1.59375l-4.7031403 0l0 3.40625l2.3437653 0l0 -0.734375q0 -0.234375 0.09375 -0.328125q0.09375 -0.109375 0.25 -0.109375q0.140625 0 0.234375 0.109375q0.09375 0.09375 0.09375 0.328125l0 2.140624q0 0.234375 -0.09375 0.34375q-0.09375 0.09375 -0.234375 0.09375q-0.15625 0 -0.25 -0.09375q-0.09375 -0.109375 -0.09375 -0.34375l0 -0.74999905l-2.3437653 0z" fill-rule="nonzero"></path><path fill="#cfe2f3" d="m294.91644 25.818897l250.01575 0l0 72.18898l-250.01575 0z" fill-rule="nonzero"></path><path fill="#9fc5e8" d="m366.24454 49.937008l178.70865 0l0 47.999996l-178.70865 0z" fill-rule="nonzero"></path><path fill="#6fa8dc" d="m294.91644 73.8189l62.48819 0l0 24.188972l-62.48819 0z" fill-rule="nonzero"></path><path fill="#000000" fill-opacity="0.0" d="m290.86658 75.19751l71.55905 0l0 21.543304l-71.55905 0z" fill-rule="nonzero"></path><path fill="#000000" d="m304.45468 85.06354l0 0.65625q0.84375 -0.890625 1.6875 -0.890625q0.5 0 0.875 0.265625q0.390625 0.265625 0.65625 0.8125q0.4375 -0.546875 0.875 -0.8125q0.453125 -0.265625 0.90625 -0.265625q0.71875 0 1.140625 0.453125q0.546875 0.59375 0.546875 1.296875l0 4.59375l0.5625 0q0.234375 0 0.328125 0.09375q0.109375 0.078125 0.109375 0.234375q0 0.140625 -0.109375 0.234375q-0.09375 0.09375 -0.328125 0.09375l-1.21875 0l0 -5.1875q0 -0.5 -0.3125 -0.828125q-0.296875 -0.328125 -0.6875 -0.328125q-0.359375 0 -0.765625 0.28125q-0.390625 0.265625 -0.90625 1.046875l0 4.359375l0.546875 0q0.234375 0 0.328125 0.09375q0.109375 0.078125 0.109375 0.234375q0 0.140625 -0.109375 0.234375q-0.09375 0.09375 -0.328125 0.09375l-1.203125 0l0 -5.140625q0 -0.515625 -0.3125 -0.859375q-0.3125 -0.34375 -0.6875 -0.34375q-0.359375 0 -0.703125 0.234375q-0.46875 0.3125 -1.0 1.09375l0 4.359375l0.5625 0q0.234375 0 0.328125 0.09375q0.109375 0.078125 0.109375 0.234375q0 0.140625 -0.109375 0.234375q-0.09375 0.09375 -0.328125 0.09375l-1.765625 0q-0.234375 0 -0.34375 -0.09375q-0.09375 -0.09375 -0.09375 -0.234375q0 -0.15625 0.09375 -0.234375q0.109375 -0.09375 0.34375 -0.09375l0.546875 0l0 -5.453125l-0.546875 0q-0.234375 0 -0.34375 -0.09375q-0.09375 -0.09375 -0.09375 -0.234375q0 -0.140625 0.09375 -0.234375q0.109375 -0.09375 0.34375 -0.09375l1.203125 0zm12.9140625 -3.375l0 1.703125l-0.96875 0l0 -1.703125l0.96875 0zm0.03125 3.375l0 6.109375l2.578125 0q0.234375 0 0.328125 0.09375q0.109375 0.078125 0.109375 0.234375q0 0.140625 -0.109375 0.234375q-0.09375 0.09375 -0.328125 0.09375l-5.8125 0q-0.234375 0 -0.34375 -0.09375q-0.09375 -0.09375 -0.09375 -0.234375q0 -0.15625 0.09375 -0.234375q0.109375 -0.09375 0.34375 -0.09375l2.578125 0l0 -5.453125l-1.921875 0q-0.234375 0 -0.34375 -0.09375q-0.09375 -0.09375 -0.09375 -0.234375q0 -0.140625 0.09375 -0.234375q0.109375 -0.09375 0.34375 -0.09375l2.578125 0zm7.1328125 0l0 0.984375q0.6875 -0.6875 1.234375 -0.953125q0.5625 -0.265625 1.25 -0.265625q0.75 0 1.375 0.3125q0.4375 0.234375 0.78125 0.78125q0.359375 0.546875 0.359375 1.109375l0 4.140625l0.5625 0q0.234375 0 0.328125 0.09375q0.109375 0.078125 0.109375 0.234375q0 0.140625 -0.109375 0.234375q-0.09375 0.09375 -0.328125 0.09375l-1.765625 0q-0.234375 0 -0.34375 -0.09375q-0.09375 -0.09375 -0.09375 -0.234375q0 -0.15625 0.09375 -0.234375q0.109375 -0.09375 0.34375 -0.09375l0.546875 0l0 -4.03125q0 -0.6875 -0.515625 -1.171875q-0.5 -0.484375 -1.34375 -0.484375q-0.65625 0 -1.140625 0.265625q-0.46875 0.265625 -1.34375 1.296875l0 4.125l0.734375 0q0.234375 0 0.328125 0.09375q0.109375 0.078125 0.109375 0.234375q0 0.140625 -0.109375 0.234375q-0.09375 0.09375 -0.328125 0.09375l-2.140625 0q-0.234375 0 -0.34375 -0.09375q-0.09375 -0.09375 -0.09375 -0.234375q0 -0.15625 0.09375 -0.234375q0.109375 -0.09375 0.34375 -0.09375l0.75 0l0 -5.453125l-0.5625 0q-0.234375 0 -0.34375 -0.09375q-0.09375 -0.09375 -0.09375 -0.234375q0 -0.140625 0.09375 -0.234375q0.109375 -0.09375 0.34375 -0.09375l1.21875 0zm13.9609375 6.765625l0 -0.96875q-1.34375 1.234375 -2.90625 1.234375q-0.953125 0 -1.453125 -0.53125q-0.65625 -0.6875 -0.65625 -1.609375l0 -4.234375l-0.875 0q-0.234375 0 -0.34375 -0.09375q-0.09375 -0.09375 -0.09375 -0.234375q0 -0.140625 0.09375 -0.234375q0.109375 -0.09375 0.34375 -0.09375l1.53125 0l0 4.890625q0 0.640625 0.40625 1.0625q0.40625 0.40625 1.015625 0.40625q1.609375 0 2.9375 -1.46875l0 -4.234375l-1.203125 0q-0.234375 0 -0.34375 -0.09375q-0.09375 -0.09375 -0.09375 -0.234375q0 -0.140625 0.09375 -0.234375q0.109375 -0.09375 0.34375 -0.09375l1.859375 0l0 6.109375l0.5625 0q0.234375 0 0.328125 0.09375q0.109375 0.078125 0.109375 0.234375q0 0.140625 -0.109375 0.234375q-0.09375 0.09375 -0.328125 0.09375l-1.21875 0zm9.5234375 -6.34375q0 -0.21875 0.09375 -0.3125q0.09375 -0.109375 0.234375 -0.109375q0.15625 0 0.25 0.109375q0.09375 0.09375 0.09375 0.328125l0 1.125q0 0.234375 -0.09375 0.34375q-0.09375 0.09375 -0.25 0.09375q-0.125 0 -0.21875 -0.078125q-0.09375 -0.09375 -0.109375 -0.28125q-0.046875 -0.46875 -0.484375 -0.78125q-0.640625 -0.4375 -1.6875 -0.4375q-1.109375 0 -1.71875 0.453125q-0.453125 0.328125 -0.453125 0.75q0 0.46875 0.546875 0.78125q0.375 0.21875 1.421875 0.328125q1.359375 0.15625 1.890625 0.34375q0.765625 0.265625 1.125 0.75q0.375 0.484375 0.375 1.046875q0 0.84375 -0.8125 1.5q-0.796875 0.65625 -2.34375 0.65625q-1.5625 0 -2.546875 -0.796875q0 0.265625 -0.03125 0.34375q-0.03125 0.078125 -0.125 0.140625q-0.078125 0.046875 -0.171875 0.046875q-0.140625 0 -0.234375 -0.09375q-0.09375 -0.109375 -0.09375 -0.34375l0 -1.359375q0 -0.234375 0.078125 -0.328125q0.09375 -0.109375 0.25 -0.109375q0.140625 0 0.234375 0.109375q0.09375 0.09375 0.09375 0.25q0 0.359375 0.1875 0.609375q0.265625 0.375 0.859375 0.625q0.609375 0.234375 1.46875 0.234375q1.28125 0 1.90625 -0.46875q0.625 -0.484375 0.625 -1.015625q0 -0.609375 -0.625 -0.96875q-0.640625 -0.375 -1.875 -0.5q-1.21875 -0.125 -1.75 -0.328125q-0.53125 -0.203125 -0.828125 -0.609375q-0.296875 -0.40625 -0.296875 -0.875q0 -0.84375 0.828125 -1.328125q0.828125 -0.5 1.984375 -0.5q1.359375 0 2.203125 0.65625z" fill-rule="nonzero"></path><path fill="#6fa8dc" d="m434.16644 73.8189l62.48819 0l0 24.188972l-62.48819 0z" fill-rule="nonzero"></path><path fill="#6fa8dc" d="m504.24493 73.8189l40.69287 0l0 24.188972l-40.69287 0z" fill-rule="nonzero"></path><path fill="#000000" fill-opacity="0.0" d="m429.53323 75.19751l71.55905 0l0 21.543304l-71.55905 0z" fill-rule="nonzero"></path><path fill="#000000" d="m443.12137 85.06354l0 0.65625q0.84375 -0.890625 1.6875 -0.890625q0.5 0 0.875 0.265625q0.390625 0.265625 0.65625 0.8125q0.4375 -0.546875 0.875 -0.8125q0.453125 -0.265625 0.90625 -0.265625q0.71875 0 1.140625 0.453125q0.546875 0.59375 0.546875 1.296875l0 4.59375l0.5625 0q0.234375 0 0.328125 0.09375q0.109375 0.078125 0.109375 0.234375q0 0.140625 -0.109375 0.234375q-0.09375 0.09375 -0.328125 0.09375l-1.21875 0l0 -5.1875q0 -0.5 -0.3125 -0.828125q-0.296875 -0.328125 -0.6875 -0.328125q-0.359375 0 -0.765625 0.28125q-0.390625 0.265625 -0.90625 1.046875l0 4.359375l0.546875 0q0.234375 0 0.328125 0.09375q0.109375 0.078125 0.109375 0.234375q0 0.140625 -0.109375 0.234375q-0.09375 0.09375 -0.328125 0.09375l-1.203125 0l0 -5.140625q0 -0.515625 -0.3125 -0.859375q-0.3125 -0.34375 -0.6875 -0.34375q-0.359375 0 -0.703125 0.234375q-0.46875 0.3125 -1.0 1.09375l0 4.359375l0.5625 0q0.234375 0 0.328125 0.09375q0.109375 0.078125 0.109375 0.234375q0 0.140625 -0.109375 0.234375q-0.09375 0.09375 -0.328125 0.09375l-1.765625 0q-0.234375 0 -0.34375 -0.09375q-0.09375 -0.09375 -0.09375 -0.234375q0 -0.15625 0.09375 -0.234375q0.109375 -0.09375 0.34375 -0.09375l0.546875 0l0 -5.453125l-0.546875 0q-0.234375 0 -0.34375 -0.09375q-0.09375 -0.09375 -0.09375 -0.234375q0 -0.140625 0.09375 -0.234375q0.109375 -0.09375 0.34375 -0.09375l1.203125 0zm12.9140625 -3.375l0 1.703125l-0.96875 0l0 -1.703125l0.96875 0zm0.03125 3.375l0 6.109375l2.578125 0q0.234375 0 0.328125 0.09375q0.109375 0.078125 0.109375 0.234375q0 0.140625 -0.109375 0.234375q-0.09375 0.09375 -0.328125 0.09375l-5.8125 0q-0.234375 0 -0.34375 -0.09375q-0.09375 -0.09375 -0.09375 -0.234375q0 -0.15625 0.09375 -0.234375q0.109375 -0.09375 0.34375 -0.09375l2.578125 0l0 -5.453125l-1.921875 0q-0.234375 0 -0.34375 -0.09375q-0.09375 -0.09375 -0.09375 -0.234375q0 -0.140625 0.09375 -0.234375q0.109375 -0.09375 0.34375 -0.09375l2.578125 0zm7.1328125 0l0 0.984375q0.6875 -0.6875 1.234375 -0.953125q0.5625 -0.265625 1.25 -0.265625q0.75 0 1.375 0.3125q0.4375 0.234375 0.78125 0.78125q0.359375 0.546875 0.359375 1.109375l0 4.140625l0.5625 0q0.234375 0 0.328125 0.09375q0.109375 0.078125 0.109375 0.234375q0 0.140625 -0.109375 0.234375q-0.09375 0.09375 -0.328125 0.09375l-1.765625 0q-0.234375 0 -0.34375 -0.09375q-0.09375 -0.09375 -0.09375 -0.234375q0 -0.15625 0.09375 -0.234375q0.109375 -0.09375 0.34375 -0.09375l0.546875 0l0 -4.03125q0 -0.6875 -0.515625 -1.171875q-0.5 -0.484375 -1.34375 -0.484375q-0.65625 0 -1.140625 0.265625q-0.46875 0.265625 -1.34375 1.296875l0 4.125l0.734375 0q0.234375 0 0.328125 0.09375q0.109375 0.078125 0.109375 0.234375q0 0.140625 -0.109375 0.234375q-0.09375 0.09375 -0.328125 0.09375l-2.140625 0q-0.234375 0 -0.34375 -0.09375q-0.09375 -0.09375 -0.09375 -0.234375q0 -0.15625 0.09375 -0.234375q0.109375 -0.09375 0.34375 -0.09375l0.75 0l0 -5.453125l-0.5625 0q-0.234375 0 -0.34375 -0.09375q-0.09375 -0.09375 -0.09375 -0.234375q0 -0.140625 0.09375 -0.234375q0.109375 -0.09375 0.34375 -0.09375l1.21875 0zm13.9609375 6.765625l0 -0.96875q-1.34375 1.234375 -2.90625 1.234375q-0.953125 0 -1.453125 -0.53125q-0.65625 -0.6875 -0.65625 -1.609375l0 -4.234375l-0.875 0q-0.234375 0 -0.34375 -0.09375q-0.09375 -0.09375 -0.09375 -0.234375q0 -0.140625 0.09375 -0.234375q0.109375 -0.09375 0.34375 -0.09375l1.53125 0l0 4.890625q0 0.640625 0.40625 1.0625q0.40625 0.40625 1.015625 0.40625q1.609375 0 2.9375 -1.46875l0 -4.234375l-1.203125 0q-0.234375 0 -0.34375 -0.09375q-0.09375 -0.09375 -0.09375 -0.234375q0 -0.140625 0.09375 -0.234375q0.109375 -0.09375 0.34375 -0.09375l1.859375 0l0 6.109375l0.5625 0q0.234375 0 0.328125 0.09375q0.109375 0.078125 0.109375 0.234375q0 0.140625 -0.109375 0.234375q-0.09375 0.09375 -0.328125 0.09375l-1.21875 0zm9.5234375 -6.34375q0 -0.21875 0.09375 -0.3125q0.09375 -0.109375 0.234375 -0.109375q0.15625 0 0.25 0.109375q0.09375 0.09375 0.09375 0.328125l0 1.125q0 0.234375 -0.09375 0.34375q-0.09375 0.09375 -0.25 0.09375q-0.125 0 -0.21875 -0.078125q-0.09375 -0.09375 -0.109375 -0.28125q-0.046875 -0.46875 -0.484375 -0.78125q-0.640625 -0.4375 -1.6875 -0.4375q-1.109375 0 -1.71875 0.453125q-0.453125 0.328125 -0.453125 0.75q0 0.46875 0.546875 0.78125q0.375 0.21875 1.421875 0.328125q1.359375 0.15625 1.890625 0.34375q0.765625 0.265625 1.125 0.75q0.375 0.484375 0.375 1.046875q0 0.84375 -0.8125 1.5q-0.796875 0.65625 -2.34375 0.65625q-1.5625 0 -2.546875 -0.796875q0 0.265625 -0.03125 0.34375q-0.03125 0.078125 -0.125 0.140625q-0.078125 0.046875 -0.171875 0.046875q-0.140625 0 -0.234375 -0.09375q-0.09375 -0.109375 -0.09375 -0.34375l0 -1.359375q0 -0.234375 0.078125 -0.328125q0.09375 -0.109375 0.25 -0.109375q0.140625 0 0.234375 0.109375q0.09375 0.09375 0.09375 0.25q0 0.359375 0.1875 0.609375q0.265625 0.375 0.859375 0.625q0.609375 0.234375 1.46875 0.234375q1.28125 0 1.90625 -0.46875q0.625 -0.484375 0.625 -1.015625q0 -0.609375 -0.625 -0.96875q-0.640625 -0.375 -1.875 -0.5q-1.21875 -0.125 -1.75 -0.328125q-0.53125 -0.203125 -0.828125 -0.609375q-0.296875 -0.40625 -0.296875 -0.875q0 -0.84375 0.828125 -1.328125q0.828125 -0.5 1.984375 -0.5q1.359375 0 2.203125 0.65625z" fill-rule="nonzero"></path><path fill="#6fa8dc" d="m366.2458 73.8189l59.40155 0l0 24.188972l-59.40155 0z" fill-rule="nonzero"></path><path fill="#000000" fill-opacity="0.0" d="m360.19992 75.19751l71.55905 0l0 21.543304l-71.55905 0z" fill-rule="nonzero"></path><path fill="#000000" d="m375.42865 85.06354l3.5625 0q0.234375 0 0.328125 0.09375q0.109375 0.09375 0.109375 0.234375q0 0.140625 -0.109375 0.234375q-0.09375 0.09375 -0.328125 0.09375l-3.5625 0l0 4.375q0 0.5625 0.453125 0.953125q0.46875 0.375 1.34375 0.375q0.671875 0 1.4375 -0.1875q0.78125 -0.203125 1.203125 -0.453125q0.15625 -0.109375 0.265625 -0.109375q0.125 0 0.21875 0.109375q0.09375 0.09375 0.09375 0.21875q0 0.125 -0.109375 0.21875q-0.25 0.265625 -1.21875 0.578125q-0.953125 0.296875 -1.84375 0.296875q-1.140625 0 -1.828125 -0.546875q-0.671875 -0.546875 -0.671875 -1.453125l0 -4.375l-1.21875 0q-0.234375 0 -0.34375 -0.09375q-0.09375 -0.09375 -0.09375 -0.234375q0 -0.140625 0.09375 -0.234375q0.109375 -0.09375 0.34375 -0.09375l1.21875 0l0 -1.9375q0 -0.234375 0.09375 -0.328125q0.09375 -0.109375 0.234375 -0.109375q0.140625 0 0.234375 0.109375q0.09375 0.09375 0.09375 0.328125l0 1.9375zm8.7890625 -3.046875l0 4.046875q0.625 -0.6875 1.203125 -0.953125q0.578125 -0.28125 1.28125 -0.28125q0.765625 0 1.296875 0.265625q0.546875 0.265625 0.90625 0.828125q0.359375 0.5625 0.359375 1.171875l0 4.078125l0.734375 0q0.234375 0 0.328125 0.09375q0.109375 0.078125 0.109375 0.234375q0 0.140625 -0.109375 0.234375q-0.09375 0.09375 -0.328125 0.09375l-2.140625 0q-0.234375 0 -0.34375 -0.09375q-0.09375 -0.09375 -0.09375 -0.234375q0 -0.15625 0.09375 -0.234375q0.109375 -0.09375 0.34375 -0.09375l0.734375 0l0 -4.03125q0 -0.703125 -0.515625 -1.171875q-0.5 -0.484375 -1.421875 -0.484375q-0.71875 0 -1.21875 0.34375q-0.375 0.25 -1.21875 1.1875l0 4.15625l0.75 0q0.234375 0 0.328125 0.09375q0.109375 0.078125 0.109375 0.234375q0 0.140625 -0.109375 0.234375q-0.09375 0.09375 -0.328125 0.09375l-2.140625 0q-0.234375 0 -0.34375 -0.09375q-0.09375 -0.09375 -0.09375 -0.234375q0 -0.15625 0.09375 -0.234375q0.109375 -0.09375 0.34375 -0.09375l0.734375 0l0 -8.484375l-0.875 0q-0.234375 0 -0.34375 -0.09375q-0.09375 -0.09375 -0.09375 -0.25q0 -0.140625 0.09375 -0.234375q0.109375 -0.09375 0.34375 -0.09375l1.53125 0zm10.9765625 3.046875l0 1.65625q1.28125 -1.15625 1.921875 -1.484375q0.640625 -0.34375 1.171875 -0.34375q0.59375 0 1.09375 0.40625q0.5 0.390625 0.5 0.59375q0 0.140625 -0.09375 0.25q-0.09375 0.09375 -0.25 0.09375q-0.078125 0 -0.140625 -0.03125q-0.046875 -0.03125 -0.1875 -0.171875q-0.28125 -0.28125 -0.484375 -0.375q-0.203125 -0.109375 -0.390625 -0.109375q-0.4375 0 -1.046875 0.34375q-0.59375 0.34375 -2.09375 1.6875l0 3.59375l2.90625 0q0.25 0 0.34375 0.09375q0.109375 0.078125 0.109375 0.234375q0 0.140625 -0.109375 0.234375q-0.09375 0.09375 -0.34375 0.09375l-5.140625 0q-0.234375 0 -0.34375 -0.09375q-0.09375 -0.09375 -0.09375 -0.234375q0 -0.125 0.09375 -0.21875q0.09375 -0.09375 0.34375 -0.09375l1.578125 0l0 -5.46875l-1.203125 0q-0.234375 0 -0.34375 -0.09375q-0.09375 -0.09375 -0.09375 -0.234375q0 -0.140625 0.09375 -0.234375q0.09375 -0.09375 0.34375 -0.09375l1.859375 0zm13.9453125 3.53125l-6.6875 0q0.171875 1.28125 1.0625 2.0625q0.890625 0.765625 2.21875 0.765625q0.734375 0 1.53125 -0.234375q0.8125 -0.25 1.3125 -0.640625q0.15625 -0.125 0.265625 -0.125q0.125 0 0.21875 0.109375q0.09375 0.09375 0.09375 0.21875q0 0.140625 -0.125 0.265625q-0.375 0.390625 -1.34375 0.734375q-0.953125 0.34375 -1.953125 0.34375q-1.6875 0 -2.828125 -1.109375q-1.125 -1.109375 -1.125 -2.6875q0 -1.421875 1.0625 -2.4375q1.0625 -1.03125 2.625 -1.03125q1.609375 0 2.640625 1.046875q1.046875 1.046875 1.03125 2.71875zm-0.671875 -0.65625q-0.1875 -1.09375 -1.03125 -1.765625q-0.828125 -0.6875 -1.96875 -0.6875q-1.15625 0 -1.984375 0.671875q-0.828125 0.671875 -1.03125 1.78125l6.015625 0zm10.2734375 0.65625l-6.6875 0q0.171875 1.28125 1.0625 2.0625q0.890625 0.765625 2.21875 0.765625q0.734375 0 1.53125 -0.234375q0.8125 -0.25 1.3125 -0.640625q0.15625 -0.125 0.265625 -0.125q0.125 0 0.21875 0.109375q0.09375 0.09375 0.09375 0.21875q0 0.140625 -0.125 0.265625q-0.375 0.390625 -1.34375 0.734375q-0.953125 0.34375 -1.953125 0.34375q-1.6875 0 -2.828125 -1.109375q-1.125 -1.109375 -1.125 -2.6875q0 -1.421875 1.0625 -2.4375q1.0625 -1.03125 2.625 -1.03125q1.609375 0 2.640625 1.046875q1.046875 1.046875 1.03125 2.71875zm-0.671875 -0.65625q-0.1875 -1.09375 -1.03125 -1.765625q-0.828125 -0.6875 -1.96875 -0.6875q-1.15625 0 -1.984375 0.671875q-0.828125 0.671875 -1.03125 1.78125l6.015625 0z" fill-rule="nonzero"></path><path fill="#000000" fill-opacity="0.0" d="m498.86658 75.19751l49.543274 0l0 21.543304l-49.543274 0z" fill-rule="nonzero"></path><path fill="#000000" d="m512.689 85.06354l3.5625 0q0.234375 0 0.328125 0.09375q0.109375 0.09375 0.109375 0.234375q0 0.140625 -0.109375 0.234375q-0.09375 0.09375 -0.328125 0.09375l-3.5625 0l0 4.375q0 0.5625 0.453125 0.953125q0.46875 0.375 1.34375 0.375q0.671875 0 1.4375 -0.1875q0.78125 -0.203125 1.203125 -0.453125q0.15625 -0.109375 0.265625 -0.109375q0.125 0 0.21875 0.109375q0.09375 0.09375 0.09375 0.21875q0 0.125 -0.109375 0.21875q-0.25 0.265625 -1.21875 0.578125q-0.953125 0.296875 -1.84375 0.296875q-1.140625 0 -1.828125 -0.546875q-0.671875 -0.546875 -0.671875 -1.453125l0 -4.375l-1.2187805 0q-0.234375 0 -0.34375 -0.09375q-0.09375 -0.09375 -0.09375 -0.234375q0 -0.140625 0.09375 -0.234375q0.109375 -0.09375 0.34375 -0.09375l1.2187805 0l0 -1.9375q0 -0.234375 0.09375 -0.328125q0.09375 -0.109375 0.234375 -0.109375q0.140625 0 0.234375 0.109375q0.09375 0.09375 0.09375 0.328125l0 1.9375zm13.2109375 6.765625l-0.8125 0.015625l-1.4375 -4.234375l-1.4375 4.234375l-0.8125 -0.015625l-1.359375 -6.109375l-0.328125 0q-0.234375 0 -0.34375 -0.09375q-0.09375 -0.09375 -0.09375 -0.234375q0 -0.140625 0.09375 -0.234375q0.109375 -0.09375 0.34375 -0.09375l1.8125 0q0.234375 0 0.328125 0.09375q0.109375 0.09375 0.109375 0.234375q0 0.140625 -0.109375 0.234375q-0.09375 0.09375 -0.328125 0.09375l-0.84375 0l1.171875 5.203125l1.390625 -4.15625l0.78125 0l1.4375 4.15625l1.125 -5.203125l-0.828125 0q-0.234375 0 -0.34375 -0.09375q-0.109375 -0.09375 -0.109375 -0.234375q0 -0.140625 0.09375 -0.234375q0.109375 -0.09375 0.359375 -0.09375l1.796875 0q0.234375 0 0.328125 0.09375q0.109375 0.09375 0.109375 0.234375q0 0.140625 -0.109375 0.234375q-0.09375 0.09375 -0.328125 0.09375l-0.3125 0l-1.34375 6.109375zm11.0078125 -3.375q0 1.5 -1.078125 2.578125q-1.0625 1.0625 -2.578125 1.0625q-1.53125 0 -2.609375 -1.0625q-1.0625 -1.078125 -1.0625 -2.578125q0 -1.5 1.0625 -2.5625q1.078125 -1.0625 2.609375 -1.0625q1.515625 0 2.578125 1.0625q1.078125 1.0625 1.078125 2.5625zm-0.65625 0q0 -1.234375 -0.890625 -2.09375q-0.875 -0.875 -2.125 -0.875q-1.25 0 -2.125 0.875q-0.875 0.875 -0.875 2.09375q0 1.21875 0.875 2.09375q0.875 0.875 2.125 0.875q1.25 0 2.125 -0.859375q0.890625 -0.875 0.890625 -2.109375z" fill-rule="nonzero"></path><path fill="#000000" fill-opacity="0.0" d="m294.91513 26.0l249.76376 0" fill-rule="nonzero"></path><path stroke="#000000" stroke-width="1.0" stroke-linejoin="round" stroke-linecap="butt" d="m294.91513 26.0l249.76376 0" fill-rule="nonzero"></path><path fill="#000000" fill-opacity="0.0" d="m290.86658 51.197506l71.55905 0l0 21.543308l-71.55905 0z" fill-rule="nonzero"></path><path fill="#000000" d="m307.11093 58.469784l0 -0.828125q0 -0.25 0.078125 -0.34375q0.09375 -0.109375 0.25 -0.109375q0.140625 0 0.234375 0.109375q0.09375 0.09375 0.09375 0.34375l0 0.828125q0.53125 0.046875 0.875 0.171875q0.34375 0.109375 0.8125 0.421875q0 -0.1875 0.09375 -0.28125q0.09375 -0.09375 0.234375 -0.09375q0.140625 0 0.234375 0.109375q0.09375 0.09375 0.09375 0.328125l0 0.96875q0 0.234375 -0.09375 0.34375q-0.09375 0.09375 -0.234375 0.09375q-0.125 0 -0.21875 -0.078125q-0.078125 -0.078125 -0.109375 -0.28125q-0.046875 -0.359375 -0.484375 -0.65625q-0.640625 -0.421875 -1.515625 -0.421875q-0.875 0 -1.453125 0.515625q-0.578125 0.515625 -0.578125 1.15625q0 0.65625 0.515625 1.0q0.375 0.265625 1.609375 0.5q1.234375 0.21875 1.671875 0.421875q0.625 0.28125 0.921875 0.75q0.3125 0.46875 0.3125 1.1250038q0 0.890625 -0.703125 1.578125q-0.6875 0.671875 -1.984375 0.796875l0 1.9375q0 0.25 -0.09375 0.34375q-0.09375 0.109375 -0.234375 0.109375q-0.15625 0 -0.25 -0.109375q-0.078125 -0.09375 -0.078125 -0.34375l0 -1.9375q-1.203125 -0.078125 -2.03125 -0.78125q0 0.34375 -0.03125 0.421875q-0.015625 0.078125 -0.109375 0.140625q-0.078125 0.046875 -0.1875 0.046875q-0.140625 0 -0.234375 -0.09375q-0.09375 -0.109375 -0.09375 -0.34375l0 -1.28125q0 -0.234375 0.09375 -0.328125q0.09375 -0.109375 0.234375 -0.109375q0.140625 0 0.25 0.09375q0.0625 0.078125 0.078125 0.3125q0.046875 0.421875 0.671875 0.859375q0.625 0.421875 1.6875 0.421875q1.09375 0 1.71875 -0.515625q0.640625 -0.53125 0.640625 -1.21875q0 -0.46875 -0.234375 -0.7968788q-0.234375 -0.328125 -0.734375 -0.53125q-0.328125 -0.140625 -1.375 -0.328125q-1.515625 -0.296875 -2.09375 -0.765625q-0.59375 -0.46875 -0.59375 -1.375q0 -0.84375 0.640625 -1.5q0.640625 -0.671875 1.703125 -0.796875zm13.1171875 0.875l0 5.484379q0 1.375 -0.921875 2.328125q-0.921875 0.9375 -2.234375 0.9375q-0.875 0 -1.5625 -0.390625q-0.671875 -0.390625 -1.15625 -1.15625q-0.46875 -0.78125 -0.46875 -1.71875l0 -5.484379l-0.546875 0q-0.234375 0 -0.34375 -0.09375q-0.09375 -0.09375 -0.09375 -0.234375q0 -0.15625 0.109375 -0.25q0.09375 -0.078125 0.328125 -0.078125l2.421875 0q0.234375 0 0.328125 0.09375q0.109375 0.078125 0.109375 0.234375q0 0.140625 -0.109375 0.234375q-0.09375 0.09375 -0.328125 0.09375l-1.21875 0l0 5.484379q0 1.078125 0.734375 1.84375q0.75 0.75 1.765625 0.75q0.65625 0 1.1875 -0.296875q0.53125 -0.296875 0.9375 -0.90625q0.40625 -0.625 0.40625 -1.390625l0 -5.484379l-1.21875 0q-0.234375 0 -0.34375 -0.09375q-0.09375 -0.09375 -0.09375 -0.234375q0 -0.15625 0.09375 -0.234375q0.109375 -0.09375 0.34375 -0.09375l2.421875 0q0.234375 0 0.328125 0.09375q0.109375 0.078125 0.109375 0.234375q0 0.140625 -0.109375 0.234375q-0.09375 0.09375 -0.328125 0.09375l-0.546875 0zm4.3046875 1.71875l0 0.984375q0.6875 -0.6875 1.234375 -0.953125q0.5625 -0.265625 1.25 -0.265625q0.75 0 1.375 0.3125q0.4375 0.234375 0.78125 0.78125q0.359375 0.546875 0.359375 1.109375l0 4.140629l0.5625 0q0.234375 0 0.328125 0.09375q0.109375 0.078125 0.109375 0.234375q0 0.140625 -0.109375 0.234375q-0.09375 0.09375 -0.328125 0.09375l-1.765625 0q-0.234375 0 -0.34375 -0.09375q-0.09375 -0.09375 -0.09375 -0.234375q0 -0.15625 0.09375 -0.234375q0.109375 -0.09375 0.34375 -0.09375l0.546875 0l0 -4.031254q0 -0.6875 -0.515625 -1.171875q-0.5 -0.484375 -1.34375 -0.484375q-0.65625 0 -1.140625 0.265625q-0.46875 0.265625 -1.34375 1.296875l0 4.125004l0.734375 0q0.234375 0 0.328125 0.09375q0.109375 0.078125 0.109375 0.234375q0 0.140625 -0.109375 0.234375q-0.09375 0.09375 -0.328125 0.09375l-2.140625 0q-0.234375 0 -0.34375 -0.09375q-0.09375 -0.09375 -0.09375 -0.234375q0 -0.15625 0.09375 -0.234375q0.109375 -0.09375 0.34375 -0.09375l0.75 0l0 -5.453129l-0.5625 0q-0.234375 0 -0.34375 -0.09375q-0.09375 -0.09375 -0.09375 -0.234375q0 -0.140625 0.09375 -0.234375q0.109375 -0.09375 0.34375 -0.09375l1.21875 0zm15.7265625 2.21875q0 1.3125038 -0.53125 2.4375038q-0.53125 1.109375 -1.46875 1.75q-0.921875 0.625 -2.0 0.625q-1.578125 0 -2.796875 -1.34375q-1.203125 -1.359375 -1.203125 -3.4687538q0 -2.125 1.203125 -3.46875q1.21875 -1.34375 2.796875 -1.34375q1.078125 0 2.0 0.625q0.9375 0.625 1.46875 1.75q0.53125 1.109375 0.53125 2.4375zm-0.65625 0q0 -1.609375 -0.9375 -2.875q-0.921875 -1.28125 -2.40625 -1.28125q-1.375 0 -2.359375 1.21875q-0.984375 1.21875 -0.984375 2.9375q0 1.8281288 1.03125 2.9843788q1.03125 1.15625 2.3125 1.15625q1.484375 0 2.40625 -1.265625q0.9375 -1.265625 0.9375 -2.8750038zm3.7734375 -2.21875l0 1.1875q0.59375 -0.703125 1.265625 -1.0625q0.671875 -0.359375 1.578125 -0.359375q0.96875 0 1.78125 0.453125q0.828125 0.453125 1.28125 1.265625q0.453125 0.796875 0.453125 1.6875038q0 1.421875 -1.015625 2.421875q-1.015625 1.0 -2.484375 1.0q-1.765625 0 -2.859375 -1.421875l0 3.953125l1.59375 0q0.234375 0 0.328125 0.09375q0.109375 0.09375 0.109375 0.234375q0 0.140625 -0.109375 0.234375q-0.09375 0.09375 -0.328125 0.09375l-3.125 0q-0.234375 0 -0.34375 -0.09375q-0.09375 -0.078125 -0.09375 -0.234375q0 -0.140625 0.09375 -0.234375q0.109375 -0.09375 0.34375 -0.09375l0.875 0l0 -8.468754l-0.875 0q-0.234375 0 -0.34375 -0.09375q-0.09375 -0.09375 -0.09375 -0.234375q0 -0.140625 0.09375 -0.234375q0.109375 -0.09375 0.34375 -0.09375l1.53125 0zm5.6875 3.1718788q0 -1.1250038 -0.828125 -1.9375038q-0.8125 -0.8125 -2.0 -0.8125q-1.203125 0 -2.03125 0.8125q-0.828125 0.8125 -0.828125 1.9375038q0 1.140625 0.828125 1.953125q0.828125 0.8125 2.03125 0.8125q1.171875 0 2.0 -0.8125q0.828125 -0.8125 0.828125 -1.953125z" fill-rule="nonzero"></path><path fill="#000000" fill-opacity="0.0" d="m425.90857 51.19685l78.01575 0l0 21.543308l-78.01575 0z" fill-rule="nonzero"></path><path fill="#000000" d="m440.5805 58.469128l0 -0.828125q0 -0.25 0.078125 -0.34375q0.09375 -0.109375 0.25 -0.109375q0.140625 0 0.234375 0.109375q0.09375 0.09375 0.09375 0.34375l0 0.828125q0.53125 0.046875 0.875 0.171875q0.34375 0.109375 0.8125 0.421875q0 -0.1875 0.09375 -0.28125q0.09375 -0.09375 0.234375 -0.09375q0.140625 0 0.234375 0.109375q0.09375 0.09375 0.09375 0.328125l0 0.96875q0 0.234375 -0.09375 0.34375q-0.09375 0.09375 -0.234375 0.09375q-0.125 0 -0.21875 -0.078125q-0.078125 -0.078125 -0.109375 -0.28125q-0.046875 -0.359375 -0.484375 -0.65625q-0.640625 -0.421875 -1.515625 -0.421875q-0.875 0 -1.453125 0.515625q-0.578125 0.515625 -0.578125 1.15625q0 0.65625 0.515625 1.0q0.375 0.265625 1.609375 0.5q1.234375 0.21875 1.671875 0.421875q0.625 0.28125 0.921875 0.75q0.3125 0.46875 0.3125 1.1250038q0 0.890625 -0.703125 1.578125q-0.6875 0.671875 -1.984375 0.796875l0 1.9375q0 0.25 -0.09375 0.34375q-0.09375 0.109375 -0.234375 0.109375q-0.15625 0 -0.25 -0.109375q-0.078125 -0.09375 -0.078125 -0.34375l0 -1.9375q-1.203125 -0.078125 -2.03125 -0.78125q0 0.34375 -0.03125 0.421875q-0.015625 0.078125 -0.109375 0.140625q-0.078125 0.046875 -0.1875 0.046875q-0.140625 0 -0.234375 -0.09375q-0.09375 -0.109375 -0.09375 -0.34375l0 -1.28125q0 -0.234375 0.09375 -0.328125q0.09375 -0.109375 0.234375 -0.109375q0.140625 0 0.25 0.09375q0.0625 0.078125 0.078125 0.3125q0.046875 0.421875 0.671875 0.859375q0.625 0.421875 1.6875 0.421875q1.09375 0 1.71875 -0.515625q0.640625 -0.53125 0.640625 -1.21875q0 -0.46875 -0.234375 -0.7968788q-0.234375 -0.328125 -0.734375 -0.53125q-0.328125 -0.140625 -1.375 -0.328125q-1.515625 -0.296875 -2.09375 -0.765625q-0.59375 -0.46875 -0.59375 -1.375q0 -0.84375 0.640625 -1.5q0.640625 -0.671875 1.703125 -0.796875zm7.1328125 8.703129l0 -7.828129l-0.875 0q-0.234375 0 -0.34375 -0.09375q-0.09375 -0.09375 -0.09375 -0.234375q0 -0.15625 0.09375 -0.234375q0.109375 -0.09375 0.34375 -0.09375l4.125 0q1.21875 0 1.984375 0.703125q0.78125 0.703125 0.78125 1.65625q0 1.203125 -1.296875 1.953125q1.03125 0.359375 1.5 0.96875q0.484375 0.6093788 0.484375 1.3437538q0 0.65625 -0.3125 1.203125q-0.3125 0.546875 -0.96875 0.9375q-0.640625 0.375 -1.390625 0.375l-4.90625 0q-0.234375 0 -0.34375 -0.09375q-0.09375 -0.09375 -0.09375 -0.234375q0 -0.15625 0.09375 -0.234375q0.109375 -0.09375 0.34375 -0.09375l0.875 0zm0.65625 -4.421879l2.328125 0q0.734375 0 1.359375 -0.28125q0.46875 -0.21875 0.734375 -0.625q0.265625 -0.421875 0.265625 -0.84375q0 -0.625 -0.578125 -1.140625q-0.578125 -0.515625 -1.5 -0.515625l-2.609375 0l0 3.40625zm0 4.421879l3.328125 0q0.625 0 1.09375 -0.28125q0.46875 -0.28125 0.703125 -0.6875q0.25 -0.421875 0.25 -0.875q0 -0.5 -0.34375 -0.96875q-0.34375 -0.4687538 -0.96875 -0.7031288q-0.609375 -0.25 -1.703125 -0.25l-2.359375 0l0 3.7656288zm12.0703125 -9.484379l0 1.703125l-0.96875 0l0 -1.703125l0.96875 0zm0.03125 3.375l0 6.109379l2.578125 0q0.234375 0 0.328125 0.09375q0.109375 0.078125 0.109375 0.234375q0 0.140625 -0.109375 0.234375q-0.09375 0.09375 -0.328125 0.09375l-5.8125 0q-0.234375 0 -0.34375 -0.09375q-0.09375 -0.09375 -0.09375 -0.234375q0 -0.15625 0.09375 -0.234375q0.109375 -0.09375 0.34375 -0.09375l2.578125 0l0 -5.453129l-1.921875 0q-0.234375 0 -0.34375 -0.09375q-0.09375 -0.09375 -0.09375 -0.234375q0 -0.140625 0.09375 -0.234375q0.109375 -0.09375 0.34375 -0.09375l2.578125 0zm7.1328125 0l0 0.984375q0.6875 -0.6875 1.234375 -0.953125q0.5625 -0.265625 1.25 -0.265625q0.75 0 1.375 0.3125q0.4375 0.234375 0.78125 0.78125q0.359375 0.546875 0.359375 1.109375l0 4.140629l0.5625 0q0.234375 0 0.328125 0.09375q0.109375 0.078125 0.109375 0.234375q0 0.140625 -0.109375 0.234375q-0.09375 0.09375 -0.328125 0.09375l-1.765625 0q-0.234375 0 -0.34375 -0.09375q-0.09375 -0.09375 -0.09375 -0.234375q0 -0.15625 0.09375 -0.234375q0.109375 -0.09375 0.34375 -0.09375l0.546875 0l0 -4.031254q0 -0.6875 -0.515625 -1.171875q-0.5 -0.484375 -1.34375 -0.484375q-0.65625 0 -1.140625 0.265625q-0.46875 0.265625 -1.34375 1.296875l0 4.125004l0.734375 0q0.234375 0 0.328125 0.09375q0.109375 0.078125 0.109375 0.234375q0 0.140625 -0.109375 0.234375q-0.09375 0.09375 -0.328125 0.09375l-2.140625 0q-0.234375 0 -0.34375 -0.09375q-0.09375 -0.09375 -0.09375 -0.234375q0 -0.15625 0.09375 -0.234375q0.109375 -0.09375 0.34375 -0.09375l0.75 0l0 -5.453129l-0.5625 0q-0.234375 0 -0.34375 -0.09375q-0.09375 -0.09375 -0.09375 -0.234375q0 -0.140625 0.09375 -0.234375q0.109375 -0.09375 0.34375 -0.09375l1.21875 0zm15.7265625 2.21875q0 1.3125038 -0.53125 2.4375038q-0.53125 1.109375 -1.46875 1.75q-0.921875 0.625 -2.0 0.625q-1.578125 0 -2.796875 -1.34375q-1.203125 -1.359375 -1.203125 -3.4687538q0 -2.125 1.203125 -3.46875q1.21875 -1.34375 2.796875 -1.34375q1.078125 0 2.0 0.625q0.9375 0.625 1.46875 1.75q0.53125 1.109375 0.53125 2.4375zm-0.65625 0q0 -1.609375 -0.9375 -2.875q-0.921875 -1.28125 -2.40625 -1.28125q-1.375 0 -2.359375 1.21875q-0.984375 1.21875 -0.984375 2.9375q0 1.8281288 1.03125 2.9843788q1.03125 1.15625 2.3125 1.15625q1.484375 0 2.40625 -1.265625q0.9375 -1.265625 0.9375 -2.8750038zm3.7734375 -2.21875l0 1.1875q0.59375 -0.703125 1.265625 -1.0625q0.671875 -0.359375 1.578125 -0.359375q0.96875 0 1.78125 0.453125q0.828125 0.453125 1.28125 1.265625q0.453125 0.796875 0.453125 1.6875038q0 1.421875 -1.015625 2.421875q-1.015625 1.0 -2.484375 1.0q-1.765625 0 -2.859375 -1.421875l0 3.953125l1.59375 0q0.234375 0 0.328125 0.09375q0.109375 0.09375 0.109375 0.234375q0 0.140625 -0.109375 0.234375q-0.09375 0.09375 -0.328125 0.09375l-3.125 0q-0.234375 0 -0.34375 -0.09375q-0.09375 -0.078125 -0.09375 -0.234375q0 -0.140625 0.09375 -0.234375q0.109375 -0.09375 0.34375 -0.09375l0.875 0l0 -8.468754l-0.875 0q-0.234375 0 -0.34375 -0.09375q-0.09375 -0.09375 -0.09375 -0.234375q0 -0.140625 0.09375 -0.234375q0.109375 -0.09375 0.34375 -0.09375l1.53125 0zm5.6875 3.1718788q0 -1.1250038 -0.828125 -1.9375038q-0.8125 -0.8125 -2.0 -0.8125q-1.203125 0 -2.03125 0.8125q-0.828125 0.8125 -0.828125 1.9375038q0 1.140625 0.828125 1.953125q0.828125 0.8125 2.03125 0.8125q1.171875 0 2.0 -0.8125q0.828125 -0.8125 0.828125 -1.953125z" fill-rule="nonzero"></path><path fill="#000000" fill-opacity="0.0" d="m360.19992 51.197506l71.55905 0l0 21.543308l-71.55905 0z" fill-rule="nonzero"></path><path fill="#000000" d="m390.84662 58.469784l0 -0.828125q0 -0.25 0.078125 -0.34375q0.09375 -0.109375 0.25 -0.109375q0.140625 0 0.234375 0.109375q0.09375 0.09375 0.09375 0.34375l0 0.828125q0.53125 0.046875 0.875 0.171875q0.34375 0.109375 0.8125 0.421875q0 -0.1875 0.09375 -0.28125q0.09375 -0.09375 0.234375 -0.09375q0.140625 0 0.234375 0.109375q0.09375 0.09375 0.09375 0.328125l0 0.96875q0 0.234375 -0.09375 0.34375q-0.09375 0.09375 -0.234375 0.09375q-0.125 0 -0.21875 -0.078125q-0.078125 -0.078125 -0.109375 -0.28125q-0.046875 -0.359375 -0.484375 -0.65625q-0.640625 -0.421875 -1.515625 -0.421875q-0.875 0 -1.453125 0.515625q-0.578125 0.515625 -0.578125 1.15625q0 0.65625 0.515625 1.0q0.375 0.265625 1.609375 0.5q1.234375 0.21875 1.671875 0.421875q0.625 0.28125 0.921875 0.75q0.3125 0.46875 0.3125 1.1250038q0 0.890625 -0.703125 1.578125q-0.6875 0.671875 -1.984375 0.796875l0 1.9375q0 0.25 -0.09375 0.34375q-0.09375 0.109375 -0.234375 0.109375q-0.15625 0 -0.25 -0.109375q-0.078125 -0.09375 -0.078125 -0.34375l0 -1.9375q-1.203125 -0.078125 -2.03125 -0.78125q0 0.34375 -0.03125 0.421875q-0.015625 0.078125 -0.109375 0.140625q-0.078125 0.046875 -0.1875 0.046875q-0.140625 0 -0.234375 -0.09375q-0.09375 -0.109375 -0.09375 -0.34375l0 -1.28125q0 -0.234375 0.09375 -0.328125q0.09375 -0.109375 0.234375 -0.109375q0.140625 0 0.25 0.09375q0.0625 0.078125 0.078125 0.3125q0.046875 0.421875 0.671875 0.859375q0.625 0.421875 1.6875 0.421875q1.09375 0 1.71875 -0.515625q0.640625 -0.53125 0.640625 -1.21875q0 -0.46875 -0.234375 -0.7968788q-0.234375 -0.328125 -0.734375 -0.53125q-0.328125 -0.140625 -1.375 -0.328125q-1.515625 -0.296875 -2.09375 -0.765625q-0.59375 -0.46875 -0.59375 -1.375q0 -0.84375 0.640625 -1.5q0.640625 -0.671875 1.703125 -0.796875zm7.8046875 4.9375l0 3.7656288l5.046875 0l0 -1.9375q0 -0.234375 0.078125 -0.328125q0.09375 -0.109375 0.25 -0.109375q0.140625 0 0.234375 0.109375q0.09375 0.09375 0.09375 0.328125l0 2.59375l-7.25 0q-0.234375 0 -0.34375 -0.09375q-0.09375 -0.09375 -0.09375 -0.234375q0 -0.15625 0.09375 -0.234375q0.109375 -0.09375 0.34375 -0.09375l0.890625 0l0 -7.828129l-0.890625 0q-0.234375 0 -0.34375 -0.09375q-0.09375 -0.09375 -0.09375 -0.234375q0 -0.15625 0.09375 -0.234375q0.109375 -0.09375 0.34375 -0.09375l6.90625 0l0 2.25q0 0.234375 -0.09375 0.34375q-0.09375 0.09375 -0.234375 0.09375q-0.15625 0 -0.25 -0.09375q-0.078125 -0.109375 -0.078125 -0.34375l0 -1.59375l-4.703125 0l0 3.40625l2.34375 0l0 -0.734375q0 -0.234375 0.09375 -0.328125q0.09375 -0.109375 0.25 -0.109375q0.140625 0 0.234375 0.109375q0.09375 0.09375 0.09375 0.328125l0 2.1406288q0 0.234375 -0.09375 0.34375q-0.09375 0.09375 -0.234375 0.09375q-0.15625 0 -0.25 -0.09375q-0.09375 -0.109375 -0.09375 -0.34375l0 -0.7500038l-2.34375 0z" fill-rule="nonzero"></path><path fill="#000000" fill-opacity="0.0" d="m498.86658 51.197506l49.543274 0l0 21.543308l-49.543274 0z" fill-rule="nonzero"></path><path fill="#000000" d="m518.50543 58.469784l0 -0.828125q0 -0.25 0.078125 -0.34375q0.09375 -0.109375 0.25 -0.109375q0.140625 0 0.234375 0.109375q0.09375 0.09375 0.09375 0.34375l0 0.828125q0.53125 0.046875 0.875 0.171875q0.34375 0.109375 0.8125 0.421875q0 -0.1875 0.09375 -0.28125q0.09375 -0.09375 0.234375 -0.09375q0.140625 0 0.234375 0.109375q0.09375 0.09375 0.09375 0.328125l0 0.96875q0 0.234375 -0.09375 0.34375q-0.09375 0.09375 -0.234375 0.09375q-0.125 0 -0.21875 -0.078125q-0.078125 -0.078125 -0.109375 -0.28125q-0.046875 -0.359375 -0.484375 -0.65625q-0.640625 -0.421875 -1.515625 -0.421875q-0.875 0 -1.453125 0.515625q-0.578125 0.515625 -0.578125 1.15625q0 0.65625 0.515625 1.0q0.375 0.265625 1.609375 0.5q1.234375 0.21875 1.671875 0.421875q0.625 0.28125 0.921875 0.75q0.3125 0.46875 0.3125 1.1250038q0 0.890625 -0.703125 1.578125q-0.6875 0.671875 -1.984375 0.796875l0 1.9375q0 0.25 -0.09375 0.34375q-0.09375 0.109375 -0.234375 0.109375q-0.15625 0 -0.25 -0.109375q-0.078125 -0.09375 -0.078125 -0.34375l0 -1.9375q-1.203125 -0.078125 -2.03125 -0.78125q0 0.34375 -0.03125 0.421875q-0.015625 0.078125 -0.109375 0.140625q-0.078125 0.046875 -0.1875 0.046875q-0.140625 0 -0.234375 -0.09375q-0.09375 -0.109375 -0.09375 -0.34375l0 -1.28125q0 -0.234375 0.09375 -0.328125q0.09375 -0.109375 0.234375 -0.109375q0.140625 0 0.25 0.09375q0.0625 0.078125 0.078125 0.3125q0.046875 0.421875 0.671875 0.859375q0.625 0.421875 1.6875 0.421875q1.09375 0 1.71875 -0.515625q0.640625 -0.53125 0.640625 -1.21875q0 -0.46875 -0.234375 -0.7968788q-0.234375 -0.328125 -0.734375 -0.53125q-0.328125 -0.140625 -1.375 -0.328125q-1.515625 -0.296875 -2.09375 -0.765625q-0.59375 -0.46875 -0.59375 -1.375q0 -0.84375 0.640625 -1.5q0.640625 -0.671875 1.703125 -0.796875zm7.8046875 4.9375l0 3.7656288l5.046875 0l0 -1.9375q0 -0.234375 0.078125 -0.328125q0.09375 -0.109375 0.25 -0.109375q0.140625 0 0.234375 0.109375q0.09375 0.09375 0.09375 0.328125l0 2.59375l-7.25 0q-0.234375 0 -0.34375 -0.09375q-0.09375 -0.09375 -0.09375 -0.234375q0 -0.15625 0.09375 -0.234375q0.109375 -0.09375 0.34375 -0.09375l0.890625 0l0 -7.828129l-0.890625 0q-0.234375 0 -0.34375 -0.09375q-0.09375 -0.09375 -0.09375 -0.234375q0 -0.15625 0.09375 -0.234375q0.109375 -0.09375 0.34375 -0.09375l6.90625 0l0 2.25q0 0.234375 -0.09375 0.34375q-0.09375 0.09375 -0.234375 0.09375q-0.15625 0 -0.25 -0.09375q-0.078125 -0.109375 -0.078125 -0.34375l0 -1.59375l-4.703125 0l0 3.40625l2.34375 0l0 -0.734375q0 -0.234375 0.09375 -0.328125q0.09375 -0.109375 0.25 -0.109375q0.140625 0 0.234375 0.109375q0.09375 0.09375 0.09375 0.328125l0 2.1406288q0 0.234375 -0.09375 0.34375q-0.09375 0.09375 -0.234375 0.09375q-0.15625 0 -0.25 -0.09375q-0.09375 -0.109375 -0.09375 -0.34375l0 -0.7500038l-2.34375 0z" fill-rule="nonzero"></path><path fill="#000000" fill-opacity="0.0" d="m294.91513 74.0l62.48819 0" fill-rule="nonzero"></path><path stroke="#000000" stroke-width="1.0" stroke-linejoin="round" stroke-linecap="butt" d="m294.91513 74.0l62.48819 0" fill-rule="nonzero"></path><path fill="#000000" fill-opacity="0.0" d="m366.24323 74.0l59.433044 0" fill-rule="nonzero"></path><path stroke="#000000" stroke-width="1.0" stroke-linejoin="round" stroke-linecap="butt" d="m366.24323 74.0l59.433044 0" fill-rule="nonzero"></path><path fill="#000000" fill-opacity="0.0" d="m366.66446 50.160107l178.23624 0" fill-rule="nonzero"></path><path stroke="#000000" stroke-width="1.0" stroke-linejoin="round" stroke-linecap="butt" d="m366.66446 50.160107l178.23624 0" fill-rule="nonzero"></path><path fill="#000000" fill-opacity="0.0" d="m366.444 27.19685l178.23624 0l0 21.543308l-178.23624 0z" fill-rule="nonzero"></path><path fill="#000000" d="m450.4293 34.469128l0 -0.828125q0 -0.25 0.078125 -0.34375q0.09375 -0.109375 0.25 -0.109375q0.140625 0 0.234375 0.109375q0.09375 0.09375 0.09375 0.34375l0 0.828125q0.53125 0.046875 0.875 0.171875q0.34375 0.109375 0.8125 0.421875q0 -0.1875 0.09375 -0.28125q0.09375 -0.09375 0.234375 -0.09375q0.140625 0 0.234375 0.109375q0.09375 0.09375 0.09375 0.328125l0 0.96875q0 0.234375 -0.09375 0.34375q-0.09375 0.09375 -0.234375 0.09375q-0.125 0 -0.21875 -0.078125q-0.078125 -0.078125 -0.109375 -0.28125q-0.046875 -0.359375 -0.484375 -0.65625q-0.640625 -0.421875 -1.515625 -0.421875q-0.875 0 -1.453125 0.515625q-0.578125 0.515625 -0.578125 1.15625q0 0.65625 0.515625 1.0q0.375 0.265625 1.609375 0.5q1.234375 0.21875 1.671875 0.421875q0.625 0.28125 0.921875 0.75q0.3125 0.46875 0.3125 1.125q0 0.890625 -0.703125 1.578125q-0.6875 0.671875 -1.984375 0.796875l0 1.9375q0 0.25 -0.09375 0.34375q-0.09375 0.109375 -0.234375 0.109375q-0.15625 0 -0.25 -0.109375q-0.078125 -0.09375 -0.078125 -0.34375l0 -1.9375q-1.203125 -0.078125 -2.03125 -0.78125q0 0.34375 -0.03125 0.421875q-0.015625 0.078125 -0.109375 0.140625q-0.078125 0.046875 -0.1875 0.046875q-0.140625 0 -0.234375 -0.09375q-0.09375 -0.109375 -0.09375 -0.34375l0 -1.28125q0 -0.234375 0.09375 -0.328125q0.09375 -0.109375 0.234375 -0.109375q0.140625 0 0.25 0.09375q0.0625 0.078125 0.078125 0.3125q0.046875 0.421875 0.671875 0.859375q0.625 0.421875 1.6875 0.421875q1.09375 0 1.71875 -0.515625q0.640625 -0.53125 0.640625 -1.21875q0 -0.46875 -0.234375 -0.796875q-0.234375 -0.328125 -0.734375 -0.53125q-0.328125 -0.140625 -1.375 -0.328125q-1.515625 -0.296875 -2.09375 -0.765625q-0.59375 -0.46875 -0.59375 -1.375q0 -0.84375 0.640625 -1.5q0.640625 -0.671875 1.703125 -0.796875zm7.8046875 4.9375l0 3.765625l5.046875 0l0 -1.9375q0 -0.234375 0.078125 -0.328125q0.09375 -0.109375 0.25 -0.109375q0.140625 0 0.234375 0.109375q0.09375 0.09375 0.09375 0.328125l0 2.59375l-7.25 0q-0.234375 0 -0.34375 -0.09375q-0.09375 -0.09375 -0.09375 -0.234375q0 -0.15625 0.09375 -0.234375q0.109375 -0.09375 0.34375 -0.09375l0.890625 0l0 -7.828125l-0.890625 0q-0.234375 0 -0.34375 -0.09375q-0.09375 -0.09375 -0.09375 -0.234375q0 -0.15625 0.09375 -0.234375q0.109375 -0.09375 0.34375 -0.09375l6.90625 0l0 2.25q0 0.234375 -0.09375 0.34375q-0.09375 0.09375 -0.234375 0.09375q-0.15625 0 -0.25 -0.09375q-0.078125 -0.109375 -0.078125 -0.34375l0 -1.59375l-4.703125 0l0 3.40625l2.34375 0l0 -0.734375q0 -0.234375 0.09375 -0.328125q0.09375 -0.109375 0.25 -0.109375q0.140625 0 0.234375 0.109375q0.09375 0.09375 0.09375 0.328125l0 2.140625q0 0.234375 -0.09375 0.34375q-0.09375 0.09375 -0.234375 0.09375q-0.15625 0 -0.25 -0.09375q-0.09375 -0.109375 -0.09375 -0.34375l0 -0.75l-2.34375 0z" fill-rule="nonzero"></path><path fill="#000000" fill-opacity="0.0" d="m434.23468 74.00787l62.48819 0" fill-rule="nonzero"></path><path stroke="#000000" stroke-width="1.0" stroke-linejoin="round" stroke-linecap="butt" d="m434.23468 74.00787l62.48819 0" fill-rule="nonzero"></path><path fill="#000000" fill-opacity="0.0" d="m504.24323 74.0l40.661377 0" fill-rule="nonzero"></path><path stroke="#000000" stroke-width="1.0" stroke-linejoin="round" stroke-linecap="butt" d="m504.24323 74.0l40.661377 0" fill-rule="nonzero"></path><path fill="#000000" fill-opacity="0.0" d="m294.91644 3.1968503l249.7638 0l0 21.543308l-249.7638 0z" fill-rule="nonzero"></path><path fill="#000000" d="m414.66553 10.469129l0 -0.828125q0 -0.25 0.078125 -0.34375q0.09375 -0.109375 0.25 -0.109375q0.140625 0 0.234375 0.109375q0.09375 0.09375 0.09375 0.34375l0 0.828125q0.53125 0.046875 0.875 0.171875q0.34375 0.109375 0.8125 0.421875q0 -0.1875 0.09375 -0.28125q0.09375 -0.09375 0.234375 -0.09375q0.140625 0 0.234375 0.109375q0.09375 0.09375 0.09375 0.328125l0 0.96875q0 0.234375 -0.09375 0.34375q-0.09375 0.09375 -0.234375 0.09375q-0.125 0 -0.21875 -0.078125q-0.078125 -0.078125 -0.109375 -0.28125q-0.046875 -0.359375 -0.484375 -0.65625q-0.640625 -0.421875 -1.515625 -0.421875q-0.875 0 -1.453125 0.515625q-0.578125 0.515625 -0.578125 1.15625q0 0.65625 0.515625 1.0q0.375 0.265625 1.609375 0.5q1.234375 0.21875 1.671875 0.421875q0.625 0.28125 0.921875 0.75q0.3125 0.46875 0.3125 1.124999q0 0.890625 -0.703125 1.578125q-0.6875 0.671875 -1.984375 0.796875l0 1.9375q0 0.25 -0.09375 0.34375q-0.09375 0.109375 -0.234375 0.109375q-0.15625 0 -0.25 -0.109375q-0.078125 -0.09375 -0.078125 -0.34375l0 -1.9375q-1.203125 -0.078125 -2.03125 -0.78125q0 0.34375 -0.03125 0.421875q-0.015625 0.078125 -0.109375 0.140625q-0.078125 0.046875 -0.1875 0.046875q-0.140625 0 -0.234375 -0.09375q-0.09375 -0.109375 -0.09375 -0.34375l0 -1.28125q0 -0.234375 0.09375 -0.328125q0.09375 -0.109375 0.234375 -0.109375q0.140625 0 0.25 0.09375q0.0625 0.078125 0.078125 0.3125q0.046875 0.421875 0.671875 0.859375q0.625 0.421875 1.6875 0.421875q1.09375 0 1.71875 -0.515625q0.640625 -0.53125 0.640625 -1.21875q0 -0.46875 -0.234375 -0.79687405q-0.234375 -0.328125 -0.734375 -0.53125q-0.328125 -0.140625 -1.375 -0.328125q-1.515625 -0.296875 -2.09375 -0.765625q-0.59375 -0.46875 -0.59375 -1.375q0 -0.84375 0.640625 -1.5q0.640625 -0.671875 1.703125 -0.796875zm7.8046875 4.9375l0 3.765624l5.046875 0l0 -1.9375q0 -0.234375 0.078125 -0.328125q0.09375 -0.109375 0.25 -0.109375q0.140625 0 0.234375 0.109375q0.09375 0.09375 0.09375 0.328125l0 2.59375l-7.25 0q-0.234375 0 -0.34375 -0.09375q-0.09375 -0.09375 -0.09375 -0.234375q0 -0.15625 0.09375 -0.234375q0.109375 -0.09375 0.34375 -0.09375l0.890625 0l0 -7.828124l-0.890625 0q-0.234375 0 -0.34375 -0.09375q-0.09375 -0.09375 -0.09375 -0.234375q0 -0.15625 0.09375 -0.234375q0.109375 -0.09375 0.34375 -0.09375l6.90625 0l0 2.25q0 0.234375 -0.09375 0.34375q-0.09375 0.09375 -0.234375 0.09375q-0.15625 0 -0.25 -0.09375q-0.078125 -0.109375 -0.078125 -0.34375l0 -1.59375l-4.703125 0l0 3.40625l2.34375 0l0 -0.734375q0 -0.234375 0.09375 -0.328125q0.09375 -0.109375 0.25 -0.109375q0.140625 0 0.234375 0.109375q0.09375 0.09375 0.09375 0.328125l0 2.140624q0 0.234375 -0.09375 0.34375q-0.09375 0.09375 -0.234375 0.09375q-0.15625 0 -0.25 -0.09375q-0.09375 -0.109375 -0.09375 -0.34375l0 -0.74999905l-2.34375 0z" fill-rule="nonzero"></path></g></svg>

