<?xml version="1.0" standalone="yes"?>

<svg version="1.1" viewBox="0.0 0.0 358.4540682414698 125.61154855643045" fill="none" stroke="none" stroke-linecap="square" stroke-miterlimit="10" xmlns="http://www.w3.org/2000/svg" xmlns:xlink="http://www.w3.org/1999/xlink"><clipPath id="p.0"><path d="m0 0l358.45407 0l0 125.61155l-358.45407 0l0 -125.61155z" clip-rule="nonzero"></path></clipPath><g clip-path="url(#p.0)"><path fill="#000000" fill-opacity="0.0" d="m0 0l358.45407 0l0 125.61155l-358.45407 0z" fill-rule="nonzero"></path><path fill="#cfe2f3" d="m5.988332 23.414467l347.46457 0l0 96.0l-347.46457 0z" fill-rule="nonzero"></path><path fill="#9fc5e8" d="m6.206171 47.85541l278.07874 0l0 71.30708l-278.07874 0z" fill-rule="nonzero"></path><path fill="#6fa8dc" d="m6.3584104 71.42234l167.81102 0l0 48.0l-167.81102 0z" fill-rule="nonzero"></path><path fill="#3d85c6" d="m6.2061844 94.970894l97.95276 0l0 24.18898l-97.95276 0z" fill-rule="nonzero"></path><path fill="#000000" fill-opacity="0.0" d="m6.427308 96.35147l97.79527 0l0 21.543312l-97.79527 0z" fill-rule="nonzero"></path><path fill="#000000" d="m33.133537 106.2175l0 0.65625q0.84375 -0.890625 1.6875 -0.890625q0.5 0 0.875 0.265625q0.390625 0.265625 0.65625 0.8125q0.4375 -0.546875 0.875 -0.8125q0.453125 -0.265625 0.90625 -0.265625q0.71875 0 1.140625 0.453125q0.546875 0.59375 0.546875 1.296875l0 4.59375l0.5625 0q0.234375 0 0.328125 0.09375q0.109375 0.078125 0.109375 0.234375q0 0.140625 -0.109375 0.234375q-0.09375 0.09375 -0.328125 0.09375l-1.21875 0l0 -5.1875q0 -0.5 -0.3125 -0.828125q-0.296875 -0.328125 -0.6875 -0.328125q-0.359375 0 -0.765625 0.28125q-0.390625 0.265625 -0.90625 1.046875l0 4.359375l0.546875 0q0.234375 0 0.328125 0.09375q0.109375 0.078125 0.109375 0.234375q0 0.140625 -0.109375 0.234375q-0.09375 0.09375 -0.328125 0.09375l-1.203125 0l0 -5.140625q0 -0.515625 -0.3125 -0.859375q-0.3125 -0.34375 -0.6875 -0.34375q-0.359375 0 -0.703125 0.234375q-0.46875 0.3125 -1.0 1.09375l0 4.359375l0.5625 0q0.234375 0 0.328125 0.09375q0.109375 0.078125 0.109375 0.234375q0 0.140625 -0.109375 0.234375q-0.09375 0.09375 -0.328125 0.09375l-1.7656231 0q-0.234375 0 -0.34375 -0.09375q-0.09375 -0.09375 -0.09375 -0.234375q0 -0.15625 0.09375 -0.234375q0.109375 -0.09375 0.34375 -0.09375l0.5468731 0l0 -5.453125l-0.5468731 0q-0.234375 0 -0.34375 -0.09375q-0.09375 -0.09375 -0.09375 -0.234375q0 -0.140625 0.09375 -0.234375q0.109375 -0.09375 0.34375 -0.09375l1.2031231 0zm12.9140625 -3.375l0 1.703125l-0.96875 0l0 -1.703125l0.96875 0zm0.03125 3.375l0 6.109375l2.578125 0q0.234375 0 0.328125 0.09375q0.109375 0.078125 0.109375 0.234375q0 0.140625 -0.109375 0.234375q-0.09375 0.09375 -0.328125 0.09375l-5.8125 0q-0.234375 0 -0.34375 -0.09375q-0.09375 -0.09375 -0.09375 -0.234375q0 -0.15625 0.09375 -0.234375q0.109375 -0.09375 0.34375 -0.09375l2.578125 0l0 -5.453125l-1.921875 0q-0.234375 0 -0.34375 -0.09375q-0.09375 -0.09375 -0.09375 -0.234375q0 -0.140625 0.09375 -0.234375q0.109375 -0.09375 0.34375 -0.09375l2.578125 0zm7.1328125 0l0 0.984375q0.6875 -0.6875 1.234375 -0.953125q0.5625 -0.265625 1.25 -0.265625q0.75 0 1.375 0.3125q0.4375 0.234375 0.78125 0.78125q0.359375 0.546875 0.359375 1.109375l0 4.140625l0.5625 0q0.234375 0 0.328125 0.09375q0.109375 0.078125 0.109375 0.234375q0 0.140625 -0.109375 0.234375q-0.09375 0.09375 -0.328125 0.09375l-1.765625 0q-0.234375 0 -0.34375 -0.09375q-0.09375 -0.09375 -0.09375 -0.234375q0 -0.15625 0.09375 -0.234375q0.109375 -0.09375 0.34375 -0.09375l0.546875 0l0 -4.03125q0 -0.6875 -0.515625 -1.171875q-0.5 -0.484375 -1.34375 -0.484375q-0.65625 0 -1.140625 0.265625q-0.46875 0.265625 -1.34375 1.296875l0 4.125l0.734375 0q0.234375 0 0.328125 0.09375q0.109375 0.078125 0.109375 0.234375q0 0.140625 -0.109375 0.234375q-0.09375 0.09375 -0.328125 0.09375l-2.140625 0q-0.234375 0 -0.34375 -0.09375q-0.09375 -0.09375 -0.09375 -0.234375q0 -0.15625 0.09375 -0.234375q0.109375 -0.09375 0.34375 -0.09375l0.75 0l0 -5.453125l-0.5625 0q-0.234375 0 -0.34375 -0.09375q-0.09375 -0.09375 -0.09375 -0.234375q0 -0.140625 0.09375 -0.234375q0.109375 -0.09375 0.34375 -0.09375l1.21875 0zm13.9609375 6.765625l0 -0.96875q-1.34375 1.234375 -2.90625 1.234375q-0.953125 0 -1.453125 -0.53125q-0.65625 -0.6875 -0.65625 -1.609375l0 -4.234375l-0.875 0q-0.234375 0 -0.34375 -0.09375q-0.09375 -0.09375 -0.09375 -0.234375q0 -0.140625 0.09375 -0.234375q0.109375 -0.09375 0.34375 -0.09375l1.53125 0l0 4.890625q0 0.640625 0.40625 1.0625q0.40625 0.40625 1.015625 0.40625q1.609375 0 2.9375 -1.46875l0 -4.234375l-1.203125 0q-0.234375 0 -0.34375 -0.09375q-0.09375 -0.09375 -0.09375 -0.234375q0 -0.140625 0.09375 -0.234375q0.109375 -0.09375 0.34375 -0.09375l1.859375 0l0 6.109375l0.5625 0q0.234375 0 0.328125 0.09375q0.109375 0.078125 0.109375 0.234375q0 0.140625 -0.109375 0.234375q-0.09375 0.09375 -0.328125 0.09375l-1.21875 0zm9.5234375 -6.34375q0 -0.21875 0.09375 -0.3125q0.09375 -0.109375 0.234375 -0.109375q0.15625 0 0.25 0.109375q0.09375 0.09375 0.09375 0.328125l0 1.125q0 0.234375 -0.09375 0.34375q-0.09375 0.09375 -0.25 0.09375q-0.125 0 -0.21875 -0.078125q-0.09375 -0.09375 -0.109375 -0.28125q-0.046875 -0.46875 -0.484375 -0.78125q-0.640625 -0.4375 -1.6875 -0.4375q-1.109375 0 -1.71875 0.453125q-0.453125 0.328125 -0.453125 0.75q0 0.46875 0.546875 0.78125q0.375 0.21875 1.421875 0.328125q1.359375 0.15625 1.890625 0.34375q0.765625 0.265625 1.125 0.75q0.375 0.484375 0.375 1.046875q0 0.84375 -0.8125 1.5q-0.796875 0.65625 -2.34375 0.65625q-1.5625 0 -2.546875 -0.796875q0 0.265625 -0.03125 0.34375q-0.03125 0.078125 -0.125 0.140625q-0.078125 0.046875 -0.171875 0.046875q-0.140625 0 -0.234375 -0.09375q-0.09375 -0.109375 -0.09375 -0.34375l0 -1.359375q0 -0.234375 0.078125 -0.328125q0.09375 -0.109375 0.25 -0.109375q0.140625 0 0.234375 0.109375q0.09375 0.09375 0.09375 0.25q0 0.359375 0.1875 0.609375q0.265625 0.375 0.859375 0.625q0.609375 0.234375 1.46875 0.234375q1.28125 0 1.90625 -0.46875q0.625 -0.484375 0.625 -1.015625q0 -0.609375 -0.625 -0.96875q-0.640625 -0.375 -1.875 -0.5q-1.21875 -0.125 -1.75 -0.328125q-0.53125 -0.203125 -0.828125 -0.609375q-0.296875 -0.40625 -0.296875 -0.875q0 -0.84375 0.828125 -1.328125q0.828125 -0.5 1.984375 -0.5q1.359375 0 2.203125 0.65625z" fill-rule="nonzero"></path><path fill="#3d85c6" d="m181.78352 95.23336l102.23622 0l0 24.18898l-102.23622 0z" fill-rule="nonzero"></path><path fill="#3d85c6" d="m290.95288 95.23188l62.519684 0l0 24.188972l-62.519684 0z" fill-rule="nonzero"></path><path fill="#000000" fill-opacity="0.0" d="m182.04344 96.690056l102.23622 0l0 21.543304l-102.23622 0z" fill-rule="nonzero"></path><path fill="#000000" d="m210.97015 106.55608l0 0.65625q0.84375 -0.890625 1.6875 -0.890625q0.5 0 0.875 0.265625q0.390625 0.265625 0.65625 0.8125q0.4375 -0.546875 0.875 -0.8125q0.453125 -0.265625 0.90625 -0.265625q0.71875 0 1.140625 0.453125q0.546875 0.59375 0.546875 1.296875l0 4.59375l0.5625 0q0.234375 0 0.328125 0.09375q0.109375 0.078125 0.109375 0.234375q0 0.140625 -0.109375 0.234375q-0.09375 0.09375 -0.328125 0.09375l-1.21875 0l0 -5.1875q0 -0.5 -0.3125 -0.828125q-0.296875 -0.328125 -0.6875 -0.328125q-0.359375 0 -0.765625 0.28125q-0.390625 0.265625 -0.90625 1.046875l0 4.359375l0.546875 0q0.234375 0 0.328125 0.09375q0.109375 0.078125 0.109375 0.234375q0 0.140625 -0.109375 0.234375q-0.09375 0.09375 -0.328125 0.09375l-1.203125 0l0 -5.140625q0 -0.515625 -0.3125 -0.859375q-0.3125 -0.34375 -0.6875 -0.34375q-0.359375 0 -0.703125 0.234375q-0.46875 0.3125 -1.0 1.09375l0 4.359375l0.5625 0q0.234375 0 0.328125 0.09375q0.109375 0.078125 0.109375 0.234375q0 0.140625 -0.109375 0.234375q-0.09375 0.09375 -0.328125 0.09375l-1.765625 0q-0.234375 0 -0.34375 -0.09375q-0.09375 -0.09375 -0.09375 -0.234375q0 -0.15625 0.09375 -0.234375q0.109375 -0.09375 0.34375 -0.09375l0.546875 0l0 -5.453125l-0.546875 0q-0.234375 0 -0.34375 -0.09375q-0.09375 -0.09375 -0.09375 -0.234375q0 -0.140625 0.09375 -0.234375q0.109375 -0.09375 0.34375 -0.09375l1.203125 0zm12.9140625 -3.375l0 1.703125l-0.96875 0l0 -1.703125l0.96875 0zm0.03125 3.375l0 6.109375l2.578125 0q0.234375 0 0.328125 0.09375q0.109375 0.078125 0.109375 0.234375q0 0.140625 -0.109375 0.234375q-0.09375 0.09375 -0.328125 0.09375l-5.8125 0q-0.234375 0 -0.34375 -0.09375q-0.09375 -0.09375 -0.09375 -0.234375q0 -0.15625 0.09375 -0.234375q0.109375 -0.09375 0.34375 -0.09375l2.578125 0l0 -5.453125l-1.921875 0q-0.234375 0 -0.34375 -0.09375q-0.09375 -0.09375 -0.09375 -0.234375q0 -0.140625 0.09375 -0.234375q0.109375 -0.09375 0.34375 -0.09375l2.578125 0zm7.1328125 0l0 0.984375q0.6875 -0.6875 1.234375 -0.953125q0.5625 -0.265625 1.25 -0.265625q0.75 0 1.375 0.3125q0.4375 0.234375 0.78125 0.78125q0.359375 0.546875 0.359375 1.109375l0 4.140625l0.5625 0q0.234375 0 0.328125 0.09375q0.109375 0.078125 0.109375 0.234375q0 0.140625 -0.109375 0.234375q-0.09375 0.09375 -0.328125 0.09375l-1.765625 0q-0.234375 0 -0.34375 -0.09375q-0.09375 -0.09375 -0.09375 -0.234375q0 -0.15625 0.09375 -0.234375q0.109375 -0.09375 0.34375 -0.09375l0.546875 0l0 -4.03125q0 -0.6875 -0.515625 -1.171875q-0.5 -0.484375 -1.34375 -0.484375q-0.65625 0 -1.140625 0.265625q-0.46875 0.265625 -1.34375 1.296875l0 4.125l0.734375 0q0.234375 0 0.328125 0.09375q0.109375 0.078125 0.109375 0.234375q0 0.140625 -0.109375 0.234375q-0.09375 0.09375 -0.328125 0.09375l-2.140625 0q-0.234375 0 -0.34375 -0.09375q-0.09375 -0.09375 -0.09375 -0.234375q0 -0.15625 0.09375 -0.234375q0.109375 -0.09375 0.34375 -0.09375l0.75 0l0 -5.453125l-0.5625 0q-0.234375 0 -0.34375 -0.09375q-0.09375 -0.09375 -0.09375 -0.234375q0 -0.140625 0.09375 -0.234375q0.109375 -0.09375 0.34375 -0.09375l1.21875 0zm13.9609375 6.765625l0 -0.96875q-1.34375 1.234375 -2.90625 1.234375q-0.953125 0 -1.453125 -0.53125q-0.65625 -0.6875 -0.65625 -1.609375l0 -4.234375l-0.875 0q-0.234375 0 -0.34375 -0.09375q-0.09375 -0.09375 -0.09375 -0.234375q0 -0.140625 0.09375 -0.234375q0.109375 -0.09375 0.34375 -0.09375l1.53125 0l0 4.890625q0 0.640625 0.40625 1.0625q0.40625 0.40625 1.015625 0.40625q1.609375 0 2.9375 -1.46875l0 -4.234375l-1.203125 0q-0.234375 0 -0.34375 -0.09375q-0.09375 -0.09375 -0.09375 -0.234375q0 -0.140625 0.09375 -0.234375q0.109375 -0.09375 0.34375 -0.09375l1.859375 0l0 6.109375l0.5625 0q0.234375 0 0.328125 0.09375q0.109375 0.078125 0.109375 0.234375q0 0.140625 -0.109375 0.234375q-0.09375 0.09375 -0.328125 0.09375l-1.21875 0zm9.5234375 -6.34375q0 -0.21875 0.09375 -0.3125q0.09375 -0.109375 0.234375 -0.109375q0.15625 0 0.25 0.109375q0.09375 0.09375 0.09375 0.328125l0 1.125q0 0.234375 -0.09375 0.34375q-0.09375 0.09375 -0.25 0.09375q-0.125 0 -0.21875 -0.078125q-0.09375 -0.09375 -0.109375 -0.28125q-0.046875 -0.46875 -0.484375 -0.78125q-0.640625 -0.4375 -1.6875 -0.4375q-1.109375 0 -1.71875 0.453125q-0.453125 0.328125 -0.453125 0.75q0 0.46875 0.546875 0.78125q0.375 0.21875 1.421875 0.328125q1.359375 0.15625 1.890625 0.34375q0.765625 0.265625 1.125 0.75q0.375 0.484375 0.375 1.046875q0 0.84375 -0.8125 1.5q-0.796875 0.65625 -2.34375 0.65625q-1.5625 0 -2.546875 -0.796875q0 0.265625 -0.03125 0.34375q-0.03125 0.078125 -0.125 0.140625q-0.078125 0.046875 -0.171875 0.046875q-0.140625 0 -0.234375 -0.09375q-0.09375 -0.109375 -0.09375 -0.34375l0 -1.359375q0 -0.234375 0.078125 -0.328125q0.09375 -0.109375 0.25 -0.109375q0.140625 0 0.234375 0.109375q0.09375 0.09375 0.09375 0.25q0 0.359375 0.1875 0.609375q0.265625 0.375 0.859375 0.625q0.609375 0.234375 1.46875 0.234375q1.28125 0 1.90625 -0.46875q0.625 -0.484375 0.625 -1.015625q0 -0.609375 -0.625 -0.96875q-0.640625 -0.375 -1.875 -0.5q-1.21875 -0.125 -1.75 -0.328125q-0.53125 -0.203125 -0.828125 -0.609375q-0.296875 -0.40625 -0.296875 -0.875q0 -0.84375 0.828125 -1.328125q0.828125 -0.5 1.984375 -0.5q1.359375 0 2.203125 0.65625z" fill-rule="nonzero"></path><path fill="#3d85c6" d="m110.953514 95.23188l63.1811 0l0 24.188972l-63.1811 0z" fill-rule="nonzero"></path><path fill="#000000" fill-opacity="0.0" d="m104.5218 96.61051l76.125984 0l0 21.543312l-76.125984 0z" fill-rule="nonzero"></path><path fill="#000000" d="m122.034004 106.47654l3.5625 0q0.234375 0 0.328125 0.09375q0.109375 0.09375 0.109375 0.234375q0 0.140625 -0.109375 0.234375q-0.09375 0.09375 -0.328125 0.09375l-3.5625 0l0 4.375q0 0.5625 0.453125 0.953125q0.46875 0.375 1.34375 0.375q0.671875 0 1.4375 -0.1875q0.78125 -0.203125 1.203125 -0.453125q0.15625 -0.109375 0.265625 -0.109375q0.125 0 0.21875 0.109375q0.09375 0.09375 0.09375 0.21875q0 0.125 -0.109375 0.21875q-0.25 0.265625 -1.21875 0.578125q-0.953125 0.296875 -1.84375 0.296875q-1.140625 0 -1.828125 -0.546875q-0.671875 -0.546875 -0.671875 -1.453125l0 -4.375l-1.21875 0q-0.234375 0 -0.34375 -0.09375q-0.09375 -0.09375 -0.09375 -0.234375q0 -0.140625 0.09375 -0.234375q0.109375 -0.09375 0.34375 -0.09375l1.21875 0l0 -1.9375q0 -0.234375 0.09375 -0.328125q0.09375 -0.109375 0.234375 -0.109375q0.140625 0 0.234375 0.109375q0.09375 0.09375 0.09375 0.328125l0 1.9375zm8.78907 -3.046875l0 4.046875q0.625 -0.6875 1.203125 -0.953125q0.578125 -0.28125 1.28125 -0.28125q0.765625 0 1.296875 0.265625q0.546875 0.265625 0.90625 0.828125q0.359375 0.5625 0.359375 1.171875l0 4.078125l0.734375 0q0.234375 0 0.328125 0.09375q0.109375 0.078125 0.109375 0.234375q0 0.140625 -0.109375 0.234375q-0.09375 0.09375 -0.328125 0.09375l-2.140625 0q-0.234375 0 -0.34375 -0.09375q-0.09375 -0.09375 -0.09375 -0.234375q0 -0.15625 0.09375 -0.234375q0.109375 -0.09375 0.34375 -0.09375l0.734375 0l0 -4.03125q0 -0.703125 -0.515625 -1.171875q-0.5 -0.484375 -1.421875 -0.484375q-0.71875 0 -1.21875 0.34375q-0.375 0.25 -1.21875 1.1875l0 4.15625l0.75 0q0.234375 0 0.328125 0.09375q0.109375 0.078125 0.109375 0.234375q0 0.140625 -0.109375 0.234375q-0.09375 0.09375 -0.328125 0.09375l-2.140625 0q-0.234375 0 -0.34375 -0.09375q-0.09375 -0.09375 -0.09375 -0.234375q0 -0.15625 0.09375 -0.234375q0.109375 -0.09375 0.34375 -0.09375l0.734375 0l0 -8.484375l-0.875 0q-0.234375 0 -0.34375 -0.09375q-0.09375 -0.09375 -0.09375 -0.25q0 -0.140625 0.09375 -0.234375q0.109375 -0.09375 0.34375 -0.09375l1.53125 0zm10.9765625 3.046875l0 1.65625q1.28125 -1.15625 1.921875 -1.484375q0.640625 -0.34375 1.171875 -0.34375q0.59375 0 1.09375 0.40625q0.5 0.390625 0.5 0.59375q0 0.140625 -0.09375 0.25q-0.09375 0.09375 -0.25 0.09375q-0.078125 0 -0.140625 -0.03125q-0.046875 -0.03125 -0.1875 -0.171875q-0.28125 -0.28125 -0.484375 -0.375q-0.203125 -0.109375 -0.390625 -0.109375q-0.4375 0 -1.046875 0.34375q-0.59375 0.34375 -2.09375 1.6875l0 3.59375l2.90625 0q0.25 0 0.34375 0.09375q0.109375 0.078125 0.109375 0.234375q0 0.140625 -0.109375 0.234375q-0.09375 0.09375 -0.34375 0.09375l-5.140625 0q-0.234375 0 -0.34375 -0.09375q-0.09375 -0.09375 -0.09375 -0.234375q0 -0.125 0.09375 -0.21875q0.09375 -0.09375 0.34375 -0.09375l1.578125 0l0 -5.46875l-1.203125 0q-0.234375 0 -0.34375 -0.09375q-0.09375 -0.09375 -0.09375 -0.234375q0 -0.140625 0.09375 -0.234375q0.09375 -0.09375 0.34375 -0.09375l1.859375 0zm13.9453125 3.53125l-6.6875 0q0.171875 1.28125 1.0625 2.0625q0.890625 0.765625 2.21875 0.765625q0.734375 0 1.53125 -0.234375q0.8125 -0.25 1.3125 -0.640625q0.15625 -0.125 0.265625 -0.125q0.125 0 0.21875 0.109375q0.09375 0.09375 0.09375 0.21875q0 0.140625 -0.125 0.265625q-0.375 0.390625 -1.34375 0.734375q-0.953125 0.34375 -1.953125 0.34375q-1.6875 0 -2.828125 -1.109375q-1.125 -1.109375 -1.125 -2.6875q0 -1.421875 1.0625 -2.4375q1.0625 -1.03125 2.625 -1.03125q1.609375 0 2.640625 1.046875q1.046875 1.046875 1.03125 2.71875zm-0.671875 -0.65625q-0.1875 -1.09375 -1.03125 -1.765625q-0.828125 -0.6875 -1.96875 -0.6875q-1.15625 0 -1.984375 0.671875q-0.828125 0.671875 -1.03125 1.78125l6.015625 0zm10.2734375 0.65625l-6.6875 0q0.171875 1.28125 1.0625 2.0625q0.890625 0.765625 2.21875 0.765625q0.734375 0 1.53125 -0.234375q0.8125 -0.25 1.3125 -0.640625q0.15625 -0.125 0.265625 -0.125q0.125 0 0.21875 0.109375q0.09375 0.09375 0.09375 0.21875q0 0.140625 -0.125 0.265625q-0.375 0.390625 -1.34375 0.734375q-0.953125 0.34375 -1.953125 0.34375q-1.6875 0 -2.828125 -1.109375q-1.125 -1.109375 -1.125 -2.6875q0 -1.421875 1.0625 -2.4375q1.0625 -1.03125 2.625 -1.03125q1.609375 0 2.640625 1.046875q1.046875 1.046875 1.03125 2.71875zm-0.671875 -0.65625q-0.1875 -1.09375 -1.03125 -1.765625q-0.828125 -0.6875 -1.96875 -0.6875q-1.15625 0 -1.984375 0.671875q-0.828125 0.671875 -1.03125 1.78125l6.015625 0z" fill-rule="nonzero"></path><path fill="#000000" fill-opacity="0.0" d="m282.68848 96.61051l76.12598 0l0 21.543312l-76.12598 0z" fill-rule="nonzero"></path><path fill="#000000" d="m309.80225 106.47654l3.5625 0q0.234375 0 0.328125 0.09375q0.109375 0.09375 0.109375 0.234375q0 0.140625 -0.109375 0.234375q-0.09375 0.09375 -0.328125 0.09375l-3.5625 0l0 4.375q0 0.5625 0.453125 0.953125q0.46875 0.375 1.34375 0.375q0.671875 0 1.4375 -0.1875q0.78125 -0.203125 1.203125 -0.453125q0.15625 -0.109375 0.265625 -0.109375q0.125 0 0.21875 0.109375q0.09375 0.09375 0.09375 0.21875q0 0.125 -0.109375 0.21875q-0.25 0.265625 -1.21875 0.578125q-0.953125 0.296875 -1.84375 0.296875q-1.140625 0 -1.828125 -0.546875q-0.671875 -0.546875 -0.671875 -1.453125l0 -4.375l-1.21875 0q-0.234375 0 -0.34375 -0.09375q-0.09375 -0.09375 -0.09375 -0.234375q0 -0.140625 0.09375 -0.234375q0.109375 -0.09375 0.34375 -0.09375l1.21875 0l0 -1.9375q0 -0.234375 0.09375 -0.328125q0.09375 -0.109375 0.234375 -0.109375q0.140625 0 0.234375 0.109375q0.09375 0.09375 0.09375 0.328125l0 1.9375zm13.2109375 6.765625l-0.8125 0.015625l-1.4375 -4.234375l-1.4375 4.234375l-0.8125 -0.015625l-1.359375 -6.109375l-0.328125 0q-0.234375 0 -0.34375 -0.09375q-0.09375 -0.09375 -0.09375 -0.234375q0 -0.140625 0.09375 -0.234375q0.109375 -0.09375 0.34375 -0.09375l1.8125 0q0.234375 0 0.328125 0.09375q0.109375 0.09375 0.109375 0.234375q0 0.140625 -0.109375 0.234375q-0.09375 0.09375 -0.328125 0.09375l-0.84375 0l1.171875 5.203125l1.390625 -4.15625l0.78125 0l1.4375 4.15625l1.125 -5.203125l-0.828125 0q-0.234375 0 -0.34375 -0.09375q-0.109375 -0.09375 -0.109375 -0.234375q0 -0.140625 0.09375 -0.234375q0.109375 -0.09375 0.359375 -0.09375l1.796875 0q0.234375 0 0.328125 0.09375q0.109375 0.09375 0.109375 0.234375q0 0.140625 -0.109375 0.234375q-0.09375 0.09375 -0.328125 0.09375l-0.3125 0l-1.34375 6.109375zm11.0078125 -3.375q0 1.5 -1.078125 2.578125q-1.0625 1.0625 -2.578125 1.0625q-1.53125 0 -2.609375 -1.0625q-1.0625 -1.078125 -1.0625 -2.578125q0 -1.5 1.0625 -2.5625q1.078125 -1.0625 2.609375 -1.0625q1.515625 0 2.578125 1.0625q1.078125 1.0625 1.078125 2.5625zm-0.65625 0q0 -1.234375 -0.890625 -2.09375q-0.875 -0.875 -2.125 -0.875q-1.25 0 -2.125 0.875q-0.875 0.875 -0.875 2.09375q0 1.21875 0.875 2.09375q0.875 0.875 2.125 0.875q1.25 0 2.125 -0.859375q0.890625 -0.875 0.890625 -2.109375z" fill-rule="nonzero"></path><path fill="#000000" fill-opacity="0.0" d="m5.9884353 23.414467l347.46457 0" fill-rule="nonzero"></path><path stroke="#000000" stroke-width="1.0" stroke-linejoin="round" stroke-linecap="butt" d="m5.9884353 23.414467l347.46457 0" fill-rule="nonzero"></path><path fill="#000000" fill-opacity="0.0" d="m-5.761668 72.35147l122.173225 0l0 21.543312l-122.173225 0z" fill-rule="nonzero"></path><path fill="#000000" d="m19.309319 79.62375l0 -0.828125q0 -0.25 0.078125 -0.34375q0.09375 -0.109375 0.25 -0.109375q0.140625 0 0.234375 0.109375q0.09375 0.09375 0.09375 0.34375l0 0.828125q0.53125 0.046875 0.875 0.171875q0.34375 0.109375 0.8125 0.421875q0 -0.1875 0.09375 -0.28125q0.09375 -0.09375 0.234375 -0.09375q0.140625 0 0.234375 0.109375q0.09375 0.09375 0.09375 0.328125l0 0.96875q0 0.234375 -0.09375 0.34375q-0.09375 0.09375 -0.234375 0.09375q-0.125 0 -0.21875 -0.078125q-0.078125 -0.078125 -0.109375 -0.28125q-0.046875 -0.359375 -0.484375 -0.65625q-0.640625 -0.421875 -1.515625 -0.421875q-0.875 0 -1.453125 0.515625q-0.578125 0.515625 -0.578125 1.15625q0 0.65625 0.515625 1.0q0.375 0.265625 1.609375 0.5q1.234375 0.21875 1.671875 0.421875q0.625 0.28125 0.921875 0.75q0.3125 0.46875 0.3125 1.125q0 0.890625 -0.703125 1.578125q-0.6875 0.671875 -1.984375 0.796875l0 1.9375q0 0.25 -0.09375 0.34375q-0.09375 0.109375 -0.234375 0.109375q-0.15625 0 -0.25 -0.109375q-0.078125 -0.09375 -0.078125 -0.34375l0 -1.9375q-1.203125 -0.078125 -2.03125 -0.78125q0 0.34375 -0.03125 0.421875q-0.015625 0.078125 -0.109375 0.140625q-0.078125 0.046875 -0.1875 0.046875q-0.140625 0 -0.234375 -0.09375q-0.09375 -0.109375 -0.09375 -0.34375l0 -1.28125q0 -0.234375 0.09375 -0.328125q0.09375 -0.109375 0.234375 -0.109375q0.140625 0 0.25 0.09375q0.0625 0.078125 0.078125 0.3125q0.046875 0.421875 0.671875 0.859375q0.625 0.421875 1.6875 0.421875q1.09375 0 1.71875 -0.515625q0.640625 -0.53125 0.640625 -1.21875q0 -0.46875 -0.234375 -0.796875q-0.234375 -0.328125 -0.734375 -0.53125q-0.328125 -0.140625 -1.375 -0.328125q-1.515625 -0.296875 -2.09375 -0.765625q-0.59375 -0.46875 -0.59375 -1.375q0 -0.84375 0.640625 -1.5q0.640625 -0.671875 1.703125 -0.796875zm13.1171875 0.875l0 5.484375q0 1.375 -0.921875 2.328125q-0.921875 0.9375 -2.234375 0.9375q-0.875 0 -1.5625 -0.390625q-0.671875 -0.390625 -1.15625 -1.15625q-0.46875 -0.78125 -0.46875 -1.71875l0 -5.484375l-0.546875 0q-0.234375 0 -0.34375 -0.09375q-0.09375 -0.09375 -0.09375 -0.234375q0 -0.15625 0.109375 -0.25q0.09375 -0.078125 0.328125 -0.078125l2.421875 0q0.234375 0 0.328125 0.09375q0.109375 0.078125 0.109375 0.234375q0 0.140625 -0.109375 0.234375q-0.09375 0.09375 -0.328125 0.09375l-1.21875 0l0 5.484375q0 1.078125 0.734375 1.84375q0.75 0.75 1.765625 0.75q0.65625 0 1.1875 -0.296875q0.53125 -0.296875 0.9375 -0.90625q0.40625 -0.625 0.40625 -1.390625l0 -5.484375l-1.21875 0q-0.234375 0 -0.34375 -0.09375q-0.09375 -0.09375 -0.09375 -0.234375q0 -0.15625 0.09375 -0.234375q0.109375 -0.09375 0.34375 -0.09375l2.421875 0q0.234375 0 0.328125 0.09375q0.109375 0.078125 0.109375 0.234375q0 0.140625 -0.109375 0.234375q-0.09375 0.09375 -0.328125 0.09375l-0.546875 0zm4.3046875 1.71875l0 0.984375q0.6875 -0.6875 1.234375 -0.953125q0.5625 -0.265625 1.25 -0.265625q0.75 0 1.375 0.3125q0.4375 0.234375 0.78125 0.78125q0.359375 0.546875 0.359375 1.109375l0 4.140625l0.5625 0q0.234375 0 0.328125 0.09375q0.109375 0.078125 0.109375 0.234375q0 0.140625 -0.109375 0.234375q-0.09375 0.09375 -0.328125 0.09375l-1.765625 0q-0.234375 0 -0.34375 -0.09375q-0.09375 -0.09375 -0.09375 -0.234375q0 -0.15625 0.09375 -0.234375q0.109375 -0.09375 0.34375 -0.09375l0.546875 0l0 -4.03125q0 -0.6875 -0.515625 -1.171875q-0.5 -0.484375 -1.34375 -0.484375q-0.65625 0 -1.140625 0.265625q-0.46875 0.265625 -1.34375 1.296875l0 4.125l0.734375 0q0.234375 0 0.328125 0.09375q0.109375 0.078125 0.109375 0.234375q0 0.140625 -0.109375 0.234375q-0.09375 0.09375 -0.328125 0.09375l-2.140625 0q-0.234375 0 -0.34375 -0.09375q-0.09375 -0.09375 -0.09375 -0.234375q0 -0.15625 0.09375 -0.234375q0.109375 -0.09375 0.34375 -0.09375l0.75 0l0 -5.453125l-0.5625 0q-0.234375 0 -0.34375 -0.09375q-0.09375 -0.09375 -0.09375 -0.234375q0 -0.140625 0.09375 -0.234375q0.109375 -0.09375 0.34375 -0.09375l1.21875 0zm15.7265625 2.21875q0 1.3125 -0.53125 2.4375q-0.53125 1.109375 -1.46875 1.75q-0.921875 0.625 -2.0 0.625q-1.578125 0 -2.796875 -1.34375q-1.203125 -1.359375 -1.203125 -3.46875q0 -2.125 1.203125 -3.46875q1.21875 -1.34375 2.796875 -1.34375q1.078125 0 2.0 0.625q0.9375 0.625 1.46875 1.75q0.53125 1.109375 0.53125 2.4375zm-0.65625 0q0 -1.609375 -0.9375 -2.875q-0.921875 -1.28125 -2.40625 -1.28125q-1.375 0 -2.359375 1.21875q-0.984375 1.21875 -0.984375 2.9375q0 1.828125 1.03125 2.984375q1.03125 1.15625 2.3125 1.15625q1.484375 0 2.40625 -1.265625q0.9375 -1.265625 0.9375 -2.875zm3.7734375 -2.21875l0 1.1875q0.59375 -0.703125 1.265625 -1.0625q0.671875 -0.359375 1.5781212 -0.359375q0.96875 0 1.78125 0.453125q0.828125 0.453125 1.28125 1.265625q0.453125 0.796875 0.453125 1.6875q0 1.421875 -1.015625 2.421875q-1.015625 1.0 -2.484375 1.0q-1.7656212 0 -2.8593712 -1.421875l0 3.953125l1.59375 0q0.234375 0 0.328125 0.09375q0.109375 0.09375 0.109375 0.234375q0 0.140625 -0.109375 0.234375q-0.09375 0.09375 -0.328125 0.09375l-3.125 0q-0.234375 0 -0.34375 -0.09375q-0.09375 -0.078125 -0.09375 -0.234375q0 -0.140625 0.09375 -0.234375q0.109375 -0.09375 0.34375 -0.09375l0.875 0l0 -8.46875l-0.875 0q-0.234375 0 -0.34375 -0.09375q-0.09375 -0.09375 -0.09375 -0.234375q0 -0.140625 0.09375 -0.234375q0.109375 -0.09375 0.34375 -0.09375l1.53125 0zm5.687496 3.171875q0 -1.125 -0.828125 -1.9375q-0.8125 -0.8125 -2.0 -0.8125q-1.2031212 0 -2.0312462 0.8125q-0.828125 0.8125 -0.828125 1.9375q0 1.140625 0.828125 1.953125q0.828125 0.8125 2.0312462 0.8125q1.171875 0 2.0 -0.8125q0.828125 -0.8125 0.828125 -1.953125z" fill-rule="nonzero"></path><path fill="#000000" d="m72.145256 79.8425l0 10.515625l1.59375 0q0.234375 0 0.328125 0.078125q0.109375 0.09375 0.109375 0.25q0 0.140625 -0.109375 0.234375q-0.09375 0.09375 -0.328125 0.09375l-2.25 0l0 -11.84375l2.25 0q0.234375 0 0.328125 0.09375q0.109375 0.09375 0.109375 0.25q0 0.140625 -0.109375 0.234375q-0.09375 0.09375 -0.328125 0.09375l-1.59375 0zm12.3046875 3.921875q0.125 0 0.21875 0.09375q0.09375 0.09375 0.09375 0.21875q0 0.265625 -0.6875 0.90625q-0.671875 0.625 -1.25 0.625q-0.34375 0 -0.703125 -0.203125q-0.359375 -0.203125 -1.03125 -0.828125q-0.4375 -0.421875 -0.671875 -0.546875q-0.234375 -0.140625 -0.421875 -0.140625q-0.21875 0 -0.421875 0.125q-0.28125 0.15625 -0.75 0.71875q-0.234375 0.25 -0.296875 0.296875q-0.0625 0.03125 -0.140625 0.03125q-0.140625 0 -0.234375 -0.078125q-0.078125 -0.09375 -0.078125 -0.234375q0 -0.125 0.203125 -0.375q0.515625 -0.640625 0.921875 -0.890625q0.40625 -0.25 0.78125 -0.25q0.328125 0 0.640625 0.15625q0.3125 0.15625 0.796875 0.59375q0.796875 0.734375 0.984375 0.84375q0.1875 0.109375 0.375 0.109375q0.5625 0 1.1875 -0.796875q0.21875 -0.28125 0.296875 -0.328125q0.078125 -0.046875 0.1875 -0.046875zm6.2578125 6.59375l0 -10.515625l-1.59375 0q-0.234375 0 -0.34375 -0.09375q-0.09375 -0.09375 -0.09375 -0.234375q0 -0.15625 0.09375 -0.25q0.109375 -0.09375 0.34375 -0.09375l2.25 0l0 11.84375l-2.25 0q-0.234375 0 -0.34375 -0.09375q-0.09375 -0.09375 -0.09375 -0.234375q0 -0.140625 0.09375 -0.234375q0.109375 -0.09375 0.34375 -0.09375l1.59375 0z" fill-rule="nonzero"></path><path fill="#000000" fill-opacity="0.0" d="m169.48701 72.61132l128.25197 0l0 21.543304l-128.25197 0z" fill-rule="nonzero"></path><path fill="#000000" d="m192.7966 79.8836l0 -0.828125q0 -0.25 0.078125 -0.34375q0.09375 -0.109375 0.25 -0.109375q0.140625 0 0.234375 0.109375q0.09375 0.09375 0.09375 0.34375l0 0.828125q0.53125 0.046875 0.875 0.171875q0.34375 0.109375 0.8125 0.421875q0 -0.1875 0.09375 -0.28125q0.09375 -0.09375 0.234375 -0.09375q0.140625 0 0.234375 0.109375q0.09375 0.09375 0.09375 0.328125l0 0.96875q0 0.234375 -0.09375 0.34375q-0.09375 0.09375 -0.234375 0.09375q-0.125 0 -0.21875 -0.078125q-0.078125 -0.078125 -0.109375 -0.28125q-0.046875 -0.359375 -0.484375 -0.65625q-0.640625 -0.421875 -1.515625 -0.421875q-0.875 0 -1.453125 0.515625q-0.578125 0.515625 -0.578125 1.15625q0 0.65625 0.515625 1.0q0.375 0.265625 1.609375 0.5q1.234375 0.21875 1.671875 0.421875q0.625 0.28125 0.921875 0.75q0.3125 0.46875 0.3125 1.125q0 0.890625 -0.703125 1.578125q-0.6875 0.671875 -1.984375 0.796875l0 1.9375q0 0.25 -0.09375 0.34375q-0.09375 0.109375 -0.234375 0.109375q-0.15625 0 -0.25 -0.109375q-0.078125 -0.09375 -0.078125 -0.34375l0 -1.9375q-1.203125 -0.078125 -2.03125 -0.78125q0 0.34375 -0.03125 0.421875q-0.015625 0.078125 -0.109375 0.140625q-0.078125 0.046875 -0.1875 0.046875q-0.140625 0 -0.234375 -0.09375q-0.09375 -0.109375 -0.09375 -0.34375l0 -1.28125q0 -0.234375 0.09375 -0.328125q0.09375 -0.109375 0.234375 -0.109375q0.140625 0 0.25 0.09375q0.0625 0.078125 0.078125 0.3125q0.046875 0.421875 0.671875 0.859375q0.625 0.421875 1.6875 0.421875q1.09375 0 1.71875 -0.515625q0.640625 -0.53125 0.640625 -1.21875q0 -0.46875 -0.234375 -0.796875q-0.234375 -0.328125 -0.734375 -0.53125q-0.328125 -0.140625 -1.375 -0.328125q-1.515625 -0.296875 -2.09375 -0.765625q-0.59375 -0.46875 -0.59375 -1.375q0 -0.84375 0.640625 -1.5q0.640625 -0.671875 1.703125 -0.796875zm7.1328125 8.703125l0 -7.828125l-0.875 0q-0.234375 0 -0.34375 -0.09375q-0.09375 -0.09375 -0.09375 -0.234375q0 -0.15625 0.09375 -0.234375q0.109375 -0.09375 0.34375 -0.09375l4.125 0q1.21875 0 1.984375 0.703125q0.78125 0.703125 0.78125 1.65625q0 1.203125 -1.296875 1.953125q1.03125 0.359375 1.5 0.96875q0.484375 0.609375 0.484375 1.34375q0 0.65625 -0.3125 1.203125q-0.3125 0.546875 -0.96875 0.9375q-0.640625 0.375 -1.390625 0.375l-4.90625 0q-0.234375 0 -0.34375 -0.09375q-0.09375 -0.09375 -0.09375 -0.234375q0 -0.15625 0.09375 -0.234375q0.109375 -0.09375 0.34375 -0.09375l0.875 0zm0.65625 -4.421875l2.328125 0q0.734375 0 1.359375 -0.28125q0.46875 -0.21875 0.734375 -0.625q0.265625 -0.421875 0.265625 -0.84375q0 -0.625 -0.578125 -1.140625q-0.578125 -0.515625 -1.5 -0.515625l-2.609375 0l0 3.40625zm0 4.421875l3.328125 0q0.625 0 1.09375 -0.28125q0.46875 -0.28125 0.703125 -0.6875q0.25 -0.421875 0.25 -0.875q0 -0.5 -0.34375 -0.96875q-0.34375 -0.46875 -0.96875 -0.703125q-0.609375 -0.25 -1.703125 -0.25l-2.359375 0l0 3.765625zm12.0703125 -9.484375l0 1.703125l-0.96875 0l0 -1.703125l0.96875 0zm0.03125 3.375l0 6.109375l2.578125 0q0.234375 0 0.328125 0.09375q0.109375 0.078125 0.109375 0.234375q0 0.140625 -0.109375 0.234375q-0.09375 0.09375 -0.328125 0.09375l-5.8125 0q-0.234375 0 -0.34375 -0.09375q-0.09375 -0.09375 -0.09375 -0.234375q0 -0.15625 0.09375 -0.234375q0.109375 -0.09375 0.34375 -0.09375l2.578125 0l0 -5.453125l-1.921875 0q-0.234375 0 -0.34375 -0.09375q-0.09375 -0.09375 -0.09375 -0.234375q0 -0.140625 0.09375 -0.234375q0.109375 -0.09375 0.34375 -0.09375l2.578125 0zm7.1328125 0l0 0.984375q0.6875 -0.6875 1.234375 -0.953125q0.5625 -0.265625 1.25 -0.265625q0.75 0 1.375 0.3125q0.4375 0.234375 0.78125 0.78125q0.359375 0.546875 0.359375 1.109375l0 4.140625l0.5625 0q0.234375 0 0.328125 0.09375q0.109375 0.078125 0.109375 0.234375q0 0.140625 -0.109375 0.234375q-0.09375 0.09375 -0.328125 0.09375l-1.765625 0q-0.234375 0 -0.34375 -0.09375q-0.09375 -0.09375 -0.09375 -0.234375q0 -0.15625 0.09375 -0.234375q0.109375 -0.09375 0.34375 -0.09375l0.546875 0l0 -4.03125q0 -0.6875 -0.515625 -1.171875q-0.5 -0.484375 -1.34375 -0.484375q-0.65625 0 -1.140625 0.265625q-0.46875 0.265625 -1.34375 1.296875l0 4.125l0.734375 0q0.234375 0 0.328125 0.09375q0.109375 0.078125 0.109375 0.234375q0 0.140625 -0.109375 0.234375q-0.09375 0.09375 -0.328125 0.09375l-2.140625 0q-0.234375 0 -0.34375 -0.09375q-0.09375 -0.09375 -0.09375 -0.234375q0 -0.15625 0.09375 -0.234375q0.109375 -0.09375 0.34375 -0.09375l0.75 0l0 -5.453125l-0.5625 0q-0.234375 0 -0.34375 -0.09375q-0.09375 -0.09375 -0.09375 -0.234375q0 -0.140625 0.09375 -0.234375q0.109375 -0.09375 0.34375 -0.09375l1.21875 0zm15.7265625 2.21875q0 1.3125 -0.53125 2.4375q-0.53125 1.109375 -1.46875 1.75q-0.921875 0.625 -2.0 0.625q-1.578125 0 -2.796875 -1.34375q-1.203125 -1.359375 -1.203125 -3.46875q0 -2.125 1.203125 -3.46875q1.21875 -1.34375 2.796875 -1.34375q1.078125 0 2.0 0.625q0.9375 0.625 1.46875 1.75q0.53125 1.109375 0.53125 2.4375zm-0.65625 0q0 -1.609375 -0.9375 -2.875q-0.921875 -1.28125 -2.40625 -1.28125q-1.375 0 -2.359375 1.21875q-0.984375 1.21875 -0.984375 2.9375q0 1.828125 1.03125 2.984375q1.03125 1.15625 2.3125 1.15625q1.484375 0 2.40625 -1.265625q0.9375 -1.265625 0.9375 -2.875zm3.7734375 -2.21875l0 1.1875q0.59375 -0.703125 1.265625 -1.0625q0.671875 -0.359375 1.578125 -0.359375q0.96875 0 1.78125 0.453125q0.828125 0.453125 1.28125 1.265625q0.453125 0.796875 0.453125 1.6875q0 1.421875 -1.015625 2.421875q-1.015625 1.0 -2.484375 1.0q-1.765625 0 -2.859375 -1.421875l0 3.953125l1.59375 0q0.234375 0 0.328125 0.09375q0.109375 0.09375 0.109375 0.234375q0 0.140625 -0.109375 0.234375q-0.09375 0.09375 -0.328125 0.09375l-3.125 0q-0.234375 0 -0.34375 -0.09375q-0.09375 -0.078125 -0.09375 -0.234375q0 -0.140625 0.09375 -0.234375q0.109375 -0.09375 0.34375 -0.09375l0.875 0l0 -8.46875l-0.875 0q-0.234375 0 -0.34375 -0.09375q-0.09375 -0.09375 -0.09375 -0.234375q0 -0.140625 0.09375 -0.234375q0.109375 -0.09375 0.34375 -0.09375l1.53125 0zm5.6875 3.171875q0 -1.125 -0.828125 -1.9375q-0.8125 -0.8125 -2.0 -0.8125q-1.203125 0 -2.03125 0.8125q-0.828125 0.8125 -0.828125 1.9375q0 1.140625 0.828125 1.953125q0.828125 0.8125 2.03125 0.8125q1.171875 0 2.0 -0.8125q0.828125 -0.8125 0.828125 -1.953125z" fill-rule="nonzero"></path><path fill="#000000" d="m255.2341 80.10235l0 10.515625l1.59375 0q0.234375 0 0.328125 0.078125q0.109375 0.09375 0.109375 0.25q0 0.140625 -0.109375 0.234375q-0.09375 0.09375 -0.328125 0.09375l-2.25 0l0 -11.84375l2.25 0q0.234375 0 0.328125 0.09375q0.109375 0.09375 0.109375 0.25q0 0.140625 -0.109375 0.234375q-0.09375 0.09375 -0.328125 0.09375l-1.59375 0zm12.6171875 4.140625l0 0.9375l-6.703125 0l0 -0.9375l6.703125 0zm5.9453125 6.375l0 -10.515625l-1.59375 0q-0.234375 0 -0.34375 -0.09375q-0.09375 -0.09375 -0.09375 -0.234375q0 -0.15625 0.09375 -0.25q0.109375 -0.09375 0.34375 -0.09375l2.25 0l0 11.84375l-2.25 0q-0.234375 0 -0.34375 -0.09375q-0.09375 -0.09375 -0.09375 -0.234375q0 -0.140625 0.09375 -0.234375q0.109375 -0.09375 0.34375 -0.09375l1.59375 0z" fill-rule="nonzero"></path><path fill="#000000" fill-opacity="0.0" d="m104.5218 72.61001l76.125984 0l0 21.543304l-76.125984 0z" fill-rule="nonzero"></path><path fill="#000000" d="m120.971504 79.882286l0 -0.828125q0 -0.25 0.078125 -0.34375q0.09375 -0.109375 0.25 -0.109375q0.140625 0 0.234375 0.109375q0.09375 0.09375 0.09375 0.34375l0 0.828125q0.53125 0.046875 0.875 0.171875q0.34375 0.109375 0.8125 0.421875q0 -0.1875 0.09375 -0.28125q0.09375 -0.09375 0.234375 -0.09375q0.140625 0 0.234375 0.109375q0.09375 0.09375 0.09375 0.328125l0 0.96875q0 0.234375 -0.09375 0.34375q-0.09375 0.09375 -0.234375 0.09375q-0.125 0 -0.21875 -0.078125q-0.078125 -0.078125 -0.109375 -0.28125q-0.046875 -0.359375 -0.484375 -0.65625q-0.640625 -0.421875 -1.515625 -0.421875q-0.875 0 -1.453125 0.515625q-0.578125 0.515625 -0.578125 1.15625q0 0.65625 0.515625 1.0q0.375 0.265625 1.609375 0.5q1.234375 0.21875 1.671875 0.421875q0.625 0.28125 0.921875 0.75q0.3125 0.46875 0.3125 1.125q0 0.890625 -0.703125 1.578125q-0.6875 0.671875 -1.984375 0.796875l0 1.9375q0 0.25 -0.09375 0.34375q-0.09375 0.109375 -0.234375 0.109375q-0.15625 0 -0.25 -0.109375q-0.078125 -0.09375 -0.078125 -0.34375l0 -1.9375q-1.203125 -0.078125 -2.03125 -0.78125q0 0.34375 -0.03125 0.421875q-0.015625 0.078125 -0.109375 0.140625q-0.078125 0.046875 -0.1875 0.046875q-0.140625 0 -0.234375 -0.09375q-0.09375 -0.109375 -0.09375 -0.34375l0 -1.28125q0 -0.234375 0.09375 -0.328125q0.09375 -0.109375 0.234375 -0.109375q0.140625 0 0.25 0.09375q0.0625 0.078125 0.078125 0.3125q0.046875 0.421875 0.671875 0.859375q0.625 0.421875 1.6875 0.421875q1.09375 0 1.71875 -0.515625q0.640625 -0.53125 0.640625 -1.21875q0 -0.46875 -0.234375 -0.796875q-0.234375 -0.328125 -0.734375 -0.53125q-0.328125 -0.140625 -1.375 -0.328125q-1.515625 -0.296875 -2.09375 -0.765625q-0.59375 -0.46875 -0.59375 -1.375q0 -0.84375 0.640625 -1.5q0.640625 -0.671875 1.703125 -0.796875zm7.804695 4.9375l0 3.765625l5.046875 0l0 -1.9375q0 -0.234375 0.078125 -0.328125q0.09375 -0.109375 0.25 -0.109375q0.140625 0 0.234375 0.109375q0.09375 0.09375 0.09375 0.328125l0 2.59375l-7.2500076 0q-0.234375 0 -0.34375 -0.09375q-0.09375 -0.09375 -0.09375 -0.234375q0 -0.15625 0.09375 -0.234375q0.109375 -0.09375 0.34375 -0.09375l0.8906326 0l0 -7.828125l-0.8906326 0q-0.234375 0 -0.34375 -0.09375q-0.09375 -0.09375 -0.09375 -0.234375q0 -0.15625 0.09375 -0.234375q0.109375 -0.09375 0.34375 -0.09375l6.9062576 0l0 2.25q0 0.234375 -0.09375 0.34375q-0.09375 0.09375 -0.234375 0.09375q-0.15625 0 -0.25 -0.09375q-0.078125 -0.109375 -0.078125 -0.34375l0 -1.59375l-4.703125 0l0 3.40625l2.34375 0l0 -0.734375q0 -0.234375 0.09375 -0.328125q0.09375 -0.109375 0.25 -0.109375q0.140625 0 0.234375 0.109375q0.09375 0.09375 0.09375 0.328125l0 2.140625q0 0.234375 -0.09375 0.34375q-0.09375 0.09375 -0.234375 0.09375q-0.15625 0 -0.25 -0.09375q-0.09375 -0.109375 -0.09375 -0.34375l0 -0.75l-2.34375 0z" fill-rule="nonzero"></path><path fill="#000000" d="m145.00276 80.101036l0 10.515625l1.59375 0q0.234375 0 0.328125 0.078125q0.109375 0.09375 0.109375 0.25q0 0.140625 -0.109375 0.234375q-0.09375 0.09375 -0.328125 0.09375l-2.25 0l0 -11.84375l2.25 0q0.234375 0 0.328125 0.09375q0.109375 0.09375 0.109375 0.25q0 0.140625 -0.109375 0.234375q-0.09375 0.09375 -0.328125 0.09375l-1.59375 0zm10.6171875 3.796875q0.90625 0.40625 1.375 1.125q0.484375 0.703125 0.484375 1.46875q0 1.171875 -0.96875 2.078125q-0.953125 0.90625 -2.390625 0.90625q-0.84375 0 -1.75 -0.359375q-0.90625 -0.359375 -1.265625 -0.734375q-0.109375 -0.125 -0.109375 -0.265625q0 -0.125 0.078125 -0.21875q0.09375 -0.09375 0.21875 -0.09375q0.125 0 0.28125 0.109375q1.21875 0.90625 2.5625 0.90625q1.140625 0 1.90625 -0.71875q0.78125 -0.71875 0.78125 -1.59375q0 -0.578125 -0.390625 -1.140625q-0.375 -0.5625 -1.09375 -0.890625q-0.703125 -0.328125 -1.421875 -0.328125q-0.234375 0 -0.34375 -0.078125q-0.09375 -0.09375 -0.09375 -0.25q0 -0.140625 0.09375 -0.234375q0.09375 -0.09375 0.296875 -0.09375l0.5625 0.015625q0.875 0 1.453125 -0.53125q0.578125 -0.546875 0.578125 -1.265625q0 -0.734375 -0.609375 -1.296875q-0.59375 -0.5625 -1.5625 -0.5625q-0.6875 0 -1.265625 0.234375q-0.5625 0.234375 -0.90625 0.640625q-0.125 0.15625 -0.1875 0.203125q-0.0625 0.03125 -0.15625 0.03125q-0.125 0 -0.21875 -0.09375q-0.09375 -0.09375 -0.09375 -0.21875q0 -0.3125 0.671875 -0.78125q0.953125 -0.671875 2.15625 -0.671875q1.234375 0 2.03125 0.75q0.796875 0.75 0.796875 1.78125q0 0.65625 -0.390625 1.25q-0.375 0.578125 -1.109375 0.921875zm7.9453125 6.71875l0 -10.515625l-1.59375 0q-0.234375 0 -0.34375 -0.09375q-0.09375 -0.09375 -0.09375 -0.234375q0 -0.15625 0.09375 -0.25q0.109375 -0.09375 0.34375 -0.09375l2.25 0l0 11.84375l-2.25 0q-0.234375 0 -0.34375 -0.09375q-0.09375 -0.09375 -0.09375 -0.234375q0 -0.140625 0.09375 -0.234375q0.109375 -0.09375 0.34375 -0.09375l1.59375 0z" fill-rule="nonzero"></path><path fill="#000000" fill-opacity="0.0" d="m282.68848 72.61001l76.12598 0l0 21.543304l-76.12598 0z" fill-rule="nonzero"></path><path fill="#000000" d="m299.13818 79.882286l0 -0.828125q0 -0.25 0.078125 -0.34375q0.09375 -0.109375 0.25 -0.109375q0.140625 0 0.234375 0.109375q0.09375 0.09375 0.09375 0.34375l0 0.828125q0.53125 0.046875 0.875 0.171875q0.34375 0.109375 0.8125 0.421875q0 -0.1875 0.09375 -0.28125q0.09375 -0.09375 0.234375 -0.09375q0.140625 0 0.234375 0.109375q0.09375 0.09375 0.09375 0.328125l0 0.96875q0 0.234375 -0.09375 0.34375q-0.09375 0.09375 -0.234375 0.09375q-0.125 0 -0.21875 -0.078125q-0.078125 -0.078125 -0.109375 -0.28125q-0.046875 -0.359375 -0.484375 -0.65625q-0.640625 -0.421875 -1.515625 -0.421875q-0.875 0 -1.453125 0.515625q-0.578125 0.515625 -0.578125 1.15625q0 0.65625 0.515625 1.0q0.375 0.265625 1.609375 0.5q1.234375 0.21875 1.671875 0.421875q0.625 0.28125 0.921875 0.75q0.3125 0.46875 0.3125 1.125q0 0.890625 -0.703125 1.578125q-0.6875 0.671875 -1.984375 0.796875l0 1.9375q0 0.25 -0.09375 0.34375q-0.09375 0.109375 -0.234375 0.109375q-0.15625 0 -0.25 -0.109375q-0.078125 -0.09375 -0.078125 -0.34375l0 -1.9375q-1.203125 -0.078125 -2.03125 -0.78125q0 0.34375 -0.03125 0.421875q-0.015625 0.078125 -0.109375 0.140625q-0.078125 0.046875 -0.1875 0.046875q-0.140625 0 -0.234375 -0.09375q-0.09375 -0.109375 -0.09375 -0.34375l0 -1.28125q0 -0.234375 0.09375 -0.328125q0.09375 -0.109375 0.234375 -0.109375q0.140625 0 0.25 0.09375q0.0625 0.078125 0.078125 0.3125q0.046875 0.421875 0.671875 0.859375q0.625 0.421875 1.6875 0.421875q1.09375 0 1.71875 -0.515625q0.640625 -0.53125 0.640625 -1.21875q0 -0.46875 -0.234375 -0.796875q-0.234375 -0.328125 -0.734375 -0.53125q-0.328125 -0.140625 -1.375 -0.328125q-1.515625 -0.296875 -2.09375 -0.765625q-0.59375 -0.46875 -0.59375 -1.375q0 -0.84375 0.640625 -1.5q0.640625 -0.671875 1.703125 -0.796875zm7.8046875 4.9375l0 3.765625l5.046875 0l0 -1.9375q0 -0.234375 0.078125 -0.328125q0.09375 -0.109375 0.25 -0.109375q0.140625 0 0.234375 0.109375q0.09375 0.09375 0.09375 0.328125l0 2.59375l-7.25 0q-0.234375 0 -0.34375 -0.09375q-0.09375 -0.09375 -0.09375 -0.234375q0 -0.15625 0.09375 -0.234375q0.109375 -0.09375 0.34375 -0.09375l0.890625 0l0 -7.828125l-0.890625 0q-0.234375 0 -0.34375 -0.09375q-0.09375 -0.09375 -0.09375 -0.234375q0 -0.15625 0.09375 -0.234375q0.109375 -0.09375 0.34375 -0.09375l6.90625 0l0 2.25q0 0.234375 -0.09375 0.34375q-0.09375 0.09375 -0.234375 0.09375q-0.15625 0 -0.25 -0.09375q-0.078125 -0.109375 -0.078125 -0.34375l0 -1.59375l-4.703125 0l0 3.40625l2.34375 0l0 -0.734375q0 -0.234375 0.09375 -0.328125q0.09375 -0.109375 0.25 -0.109375q0.140625 0 0.234375 0.109375q0.09375 0.09375 0.09375 0.328125l0 2.140625q0 0.234375 -0.09375 0.34375q-0.09375 0.09375 -0.234375 0.09375q-0.15625 0 -0.25 -0.09375q-0.09375 -0.109375 -0.09375 -0.34375l0 -0.75l-2.34375 0z" fill-rule="nonzero"></path><path fill="#000000" d="m323.16943 80.101036l0 10.515625l1.59375 0q0.234375 0 0.328125 0.078125q0.109375 0.09375 0.109375 0.25q0 0.140625 -0.109375 0.234375q-0.09375 0.09375 -0.328125 0.09375l-2.25 0l0 -11.84375l2.25 0q0.234375 0 0.328125 0.09375q0.109375 0.09375 0.109375 0.25q0 0.140625 -0.109375 0.234375q-0.09375 0.09375 -0.328125 0.09375l-1.59375 0zm6.4453125 8.484375l5.03125 0l0 -0.265625q0 -0.234375 0.09375 -0.328125q0.09375 -0.109375 0.25 -0.109375q0.140625 0 0.234375 0.109375q0.09375 0.09375 0.09375 0.328125l0 0.921875l-6.34375 0l0 -0.96875q2.0 -1.796875 3.890625 -3.65625q0.875 -0.875 1.203125 -1.28125q0.328125 -0.40625 0.453125 -0.703125q0.125 -0.3125 0.125 -0.625q0 -0.84375 -0.6875 -1.484375q-0.671875 -0.65625 -1.640625 -0.65625q-0.859375 0 -1.53125 0.5q-0.65625 0.484375 -0.84375 1.203125q-0.046875 0.1875 -0.125 0.25q-0.09375 0.078125 -0.21875 0.078125q-0.125 0 -0.21875 -0.09375q-0.09375 -0.09375 -0.09375 -0.21875q0 -0.375 0.40625 -1.015625q0.421875 -0.640625 1.140625 -1.0q0.71875 -0.375 1.484375 -0.375q1.21875 0 2.09375 0.859375q0.890625 0.84375 0.890625 1.921875q0 0.453125 -0.15625 0.84375q-0.140625 0.375 -0.5 0.828125q-0.34375 0.4375 -1.265625 1.34375q-2.3125 2.28125 -3.765625 3.546875l0 0.046875zm12.1171875 2.03125l0 -10.515625l-1.59375 0q-0.234375 0 -0.34375 -0.09375q-0.09375 -0.09375 -0.09375 -0.234375q0 -0.15625 0.09375 -0.25q0.109375 -0.09375 0.34375 -0.09375l2.25 0l0 11.84375l-2.25 0q-0.234375 0 -0.34375 -0.09375q-0.09375 -0.09375 -0.09375 -0.234375q0 -0.140625 0.09375 -0.234375q0.109375 -0.09375 0.34375 -0.09375l1.59375 0z" fill-rule="nonzero"></path><path fill="#000000" fill-opacity="0.0" d="m6.204081 95.15298l98.20473 0" fill-rule="nonzero"></path><path stroke="#000000" stroke-width="1.0" stroke-linejoin="round" stroke-linecap="butt" d="m6.204081 95.15298l98.20473 0" fill-rule="nonzero"></path><path fill="#000000" fill-opacity="0.0" d="m110.95079 95.41298l63.2126 0" fill-rule="nonzero"></path><path stroke="#000000" stroke-width="1.0" stroke-linejoin="round" stroke-linecap="butt" d="m110.95079 95.41298l63.2126 0" fill-rule="nonzero"></path><path fill="#000000" fill-opacity="0.0" d="m6.1484365 71.571945l168.0 0" fill-rule="nonzero"></path><path stroke="#000000" stroke-width="1.0" stroke-linejoin="round" stroke-linecap="butt" d="m6.1484365 71.571945l168.0 0" fill-rule="nonzero"></path><path fill="#000000" fill-opacity="0.0" d="m5.988332 48.611317l167.81104 0l0 21.543308l-167.81104 0z" fill-rule="nonzero"></path><path fill="#000000" d="m46.35478 55.883595l0 -0.828125q0 -0.25 0.078125 -0.34375q0.09375 -0.109375 0.25 -0.109375q0.140625 0 0.234375 0.109375q0.09375 0.09375 0.09375 0.34375l0 0.828125q0.53125 0.046875 0.875 0.171875q0.34375 0.109375 0.8125 0.421875q0 -0.1875 0.09375 -0.28125q0.09375 -0.09375 0.234375 -0.09375q0.140625 0 0.234375 0.109375q0.09375 0.09375 0.09375 0.328125l0 0.96875q0 0.234375 -0.09375 0.34375q-0.09375 0.09375 -0.234375 0.09375q-0.125 0 -0.21875 -0.078125q-0.078125 -0.078125 -0.109375 -0.28125q-0.046875 -0.359375 -0.484375 -0.65625q-0.640625 -0.421875 -1.515625 -0.421875q-0.875 0 -1.453125 0.515625q-0.578125 0.515625 -0.578125 1.15625q0 0.65625 0.515625 1.0q0.375 0.265625 1.609375 0.5q1.234375 0.21875 1.671875 0.421875q0.625 0.28125 0.921875 0.75q0.3125 0.46875 0.3125 1.125q0 0.890625 -0.703125 1.578125q-0.6875 0.6718788 -1.984375 0.7968788l0 1.9375q0 0.25 -0.09375 0.34375q-0.09375 0.109375 -0.234375 0.109375q-0.15625 0 -0.25 -0.109375q-0.078125 -0.09375 -0.078125 -0.34375l0 -1.9375q-1.203125 -0.078125 -2.03125 -0.7812538q0 0.34375 -0.03125 0.421875q-0.015625 0.078128815 -0.109375 0.14062881q-0.078125 0.046875 -0.1875 0.046875q-0.140625 0 -0.234375 -0.09375q-0.09375 -0.109378815 -0.09375 -0.3437538l0 -1.28125q0 -0.234375 0.09375 -0.328125q0.09375 -0.109375 0.234375 -0.109375q0.140625 0 0.25 0.09375q0.0625 0.078125 0.078125 0.3125q0.046875 0.421875 0.671875 0.859375q0.625 0.421875 1.6875 0.421875q1.09375 0 1.71875 -0.515625q0.640625 -0.53125 0.640625 -1.21875q0 -0.46875 -0.234375 -0.796875q-0.234375 -0.328125 -0.734375 -0.53125q-0.328125 -0.140625 -1.375 -0.328125q-1.515625 -0.296875 -2.09375 -0.765625q-0.59375 -0.46875 -0.59375 -1.375q0 -0.84375 0.640625 -1.5q0.640625 -0.671875 1.703125 -0.796875zm7.8046875 4.9375l0 3.7656288l5.046875 0l0 -1.9375038q0 -0.234375 0.078125 -0.328125q0.09375 -0.109375 0.25 -0.109375q0.140625 0 0.234375 0.109375q0.09375 0.09375 0.09375 0.328125l0 2.5937538l-7.25 0q-0.234375 0 -0.34375 -0.09375q-0.09375 -0.09375 -0.09375 -0.234375q0 -0.15625 0.09375 -0.234375q0.109375 -0.09375 0.34375 -0.09375l0.890625 0l0 -7.828129l-0.890625 0q-0.234375 0 -0.34375 -0.09375q-0.09375 -0.09375 -0.09375 -0.234375q0 -0.15625 0.09375 -0.234375q0.109375 -0.09375 0.34375 -0.09375l6.90625 0l0 2.25q0 0.234375 -0.09375 0.34375q-0.09375 0.09375 -0.234375 0.09375q-0.15625 0 -0.25 -0.09375q-0.078125 -0.109375 -0.078125 -0.34375l0 -1.59375l-4.703125 0l0 3.40625l2.34375 0l0 -0.734375q0 -0.234375 0.09375 -0.328125q0.09375 -0.109375 0.25 -0.109375q0.140625 0 0.234375 0.109375q0.09375 0.09375 0.09375 0.328125l0 2.140625q0 0.234375 -0.09375 0.34375q-0.09375 0.09375 -0.234375 0.09375q-0.15625 0 -0.25 -0.09375q-0.09375 -0.109375 -0.09375 -0.34375l0 -0.75l-2.34375 0zm21.671879 -4.71875l0 10.515629l1.59375 0q0.234375 0 0.328125 0.078125q0.109375 0.09375 0.109375 0.25q0 0.140625 -0.109375 0.234375q-0.09375 0.09375 -0.328125 0.09375l-2.25 0l0 -11.843754l2.25 0q0.234375 0 0.328125 0.09375q0.109375 0.09375 0.109375 0.25q0 0.140625 -0.109375 0.234375q-0.09375 0.09375 -0.328125 0.09375l-1.59375 0zm9.1953125 5.25q0 -0.90625 0.234375 -1.90625q0.234375 -1.015625 0.890625 -2.328125q0.671875 -1.328125 0.96875 -1.59375q0.09375 -0.09375 0.203125 -0.09375q0.140625 0 0.234375 0.09375q0.109375 0.09375 0.109375 0.234375q0 0.078125 -0.0625 0.171875q-0.859375 1.578125 -1.234375 2.859375q-0.359375 1.28125 -0.359375 2.5625q0 1.28125 0.359375 2.5625q0.375 1.2812538 1.234375 2.8593788q0.0625 0.09375 0.0625 0.171875q0 0.140625 -0.109375 0.234375q-0.09375 0.09375 -0.234375 0.09375q-0.109375 0 -0.203125 -0.078125q-0.28125 -0.265625 -0.9375 -1.5625q-0.65625 -1.296875 -0.90625 -2.2812538q-0.25 -1.0 -0.25 -2.0zm12.7109375 -1.328125q0.125 0 0.21875 0.09375q0.09375 0.09375 0.09375 0.21875q0 0.265625 -0.6875 0.90625q-0.671875 0.625 -1.25 0.625q-0.34375 0 -0.703125 -0.203125q-0.359375 -0.203125 -1.03125 -0.828125q-0.4375 -0.421875 -0.671875 -0.546875q-0.234375 -0.140625 -0.421875 -0.140625q-0.21875 0 -0.421875 0.125q-0.28125 0.15625 -0.75 0.71875q-0.234375 0.25 -0.296875 0.296875q-0.0625 0.03125 -0.140625 0.03125q-0.140625 0 -0.234375 -0.078125q-0.078125 -0.09375 -0.078125 -0.234375q0 -0.125 0.203125 -0.375q0.515625 -0.640625 0.921875 -0.890625q0.40625 -0.25 0.78125 -0.25q0.328125 0 0.640625 0.15625q0.3125 0.15625 0.796875 0.59375q0.796875 0.734375 0.984375 0.84375q0.1875 0.109375 0.375 0.109375q0.5625 0 1.1875 -0.796875q0.21875 -0.28125 0.296875 -0.328125q0.078125 -0.046875 0.1875 -0.046875zm17.515625 -0.125q0.90625 0.40625 1.375 1.125q0.484375 0.703125 0.484375 1.46875q0 1.171875 -0.96875 2.0781288q-0.953125 0.90625 -2.390625 0.90625q-0.84375 0 -1.75 -0.359375q-0.90625 -0.359375 -1.265625 -0.734375q-0.109375 -0.125 -0.109375 -0.265625q0 -0.12500381 0.078125 -0.21875381q0.09375 -0.09375 0.21875 -0.09375q0.125 0 0.28125 0.109375q1.21875 0.9062538 2.5625 0.9062538q1.140625 0 1.90625 -0.71875q0.78125 -0.7187538 0.78125 -1.5937538q0 -0.578125 -0.390625 -1.140625q-0.375 -0.5625 -1.09375 -0.890625q-0.703125 -0.328125 -1.421875 -0.328125q-0.234375 0 -0.34375 -0.078125q-0.09375 -0.09375 -0.09375 -0.25q0 -0.140625 0.09375 -0.234375q0.09375 -0.09375 0.296875 -0.09375l0.5625 0.015625q0.875 0 1.453125 -0.53125q0.578125 -0.546875 0.578125 -1.265625q0 -0.734375 -0.609375 -1.296875q-0.59375 -0.5625 -1.5625 -0.5625q-0.6875 0 -1.265625 0.234375q-0.5625 0.234375 -0.90625 0.640625q-0.125 0.15625 -0.1875 0.203125q-0.0625 0.03125 -0.15625 0.03125q-0.125 0 -0.21875 -0.09375q-0.09375 -0.09375 -0.09375 -0.21875q0 -0.3125 0.671875 -0.78125q0.953125 -0.671875 2.15625 -0.671875q1.234375 0 2.03125 0.75q0.796875 0.75 0.796875 1.78125q0 0.65625 -0.390625 1.25q-0.375 0.578125 -1.109375 0.921875zm8.4453125 1.453125q0 0.90625 -0.234375 1.90625q-0.234375 1.0000038 -0.90625 2.3281288q-0.65625 1.328125 -0.96875 1.59375q-0.09375 0.09375 -0.203125 0.09375q-0.140625 0 -0.234375 -0.09375q-0.09375 -0.09375 -0.09375 -0.234375q0 -0.078125 0.046875 -0.171875q0.859375 -1.578125 1.21875 -2.8593788q0.375 -1.28125 0.375 -2.5625q0 -1.28125 -0.375 -2.5625q-0.359375 -1.28125 -1.21875 -2.859375q-0.046875 -0.09375 -0.046875 -0.171875q0 -0.140625 0.09375 -0.234375q0.09375 -0.09375 0.234375 -0.09375q0.109375 0 0.203125 0.09375q0.296875 0.265625 0.953125 1.5625q0.65625 1.28125 0.90625 2.28125q0.25 0.984375 0.25 1.984375zm9.1015625 5.265629l0 -10.515629l-1.59375 0q-0.234375 0 -0.34375 -0.09375q-0.09375 -0.09375 -0.09375 -0.234375q0 -0.15625 0.09375 -0.25q0.109375 -0.09375 0.34375 -0.09375l2.25 0l0 11.843754l-2.25 0q-0.234375 0 -0.34375 -0.09375q-0.09375 -0.09375 -0.09375 -0.234375q0 -0.140625 0.09375 -0.234375q0.109375 -0.09375 0.34375 -0.09375l1.59375 0z" fill-rule="nonzero"></path><path fill="#000000" fill-opacity="0.0" d="m181.636 95.42103l102.267715 0" fill-rule="nonzero"></path><path stroke="#000000" stroke-width="1.0" stroke-linejoin="round" stroke-linecap="butt" d="m181.636 95.42103l102.267715 0" fill-rule="nonzero"></path><path fill="#000000" fill-opacity="0.0" d="m290.95026 95.41298l62.48819 0" fill-rule="nonzero"></path><path stroke="#000000" stroke-width="1.0" stroke-linejoin="round" stroke-linecap="butt" d="m290.95026 95.41298l62.48819 0" fill-rule="nonzero"></path><path fill="#000000" fill-opacity="0.0" d="m5.989854 0.6113168l347.46454 0l0 21.543306l-347.46454 0z" fill-rule="nonzero"></path><path fill="#000000" d="m107.37839 7.8835945l0 -0.828125q0 -0.25 0.078125 -0.34375q0.09375 -0.109375 0.25 -0.109375q0.140625 0 0.234375 0.109375q0.09375 0.09375 0.09375 0.34375l0 0.828125q0.53125 0.046875 0.875 0.171875q0.34375 0.109375 0.8125 0.421875q0 -0.1875 0.09375 -0.28125q0.09375 -0.09375 0.234375 -0.09375q0.140625 0 0.234375 0.109375q0.09375 0.09375 0.09375 0.328125l0 0.96875q0 0.234375 -0.09375 0.34375q-0.09375 0.09375 -0.234375 0.09375q-0.125 0 -0.21875 -0.078125q-0.078125 -0.078125 -0.109375 -0.28125q-0.046875 -0.359375 -0.484375 -0.65625q-0.640625 -0.421875 -1.515625 -0.421875q-0.875 0 -1.453125 0.515625q-0.578125 0.515625 -0.578125 1.15625q0 0.65625 0.515625 1.0q0.375 0.265625 1.609375 0.5q1.234375 0.21875 1.671875 0.421875q0.625 0.28125 0.921875 0.75q0.3125 0.46875 0.3125 1.125q0 0.890625 -0.703125 1.578125q-0.6875 0.671875 -1.984375 0.796875l0 1.9375q0 0.25 -0.09375 0.34375q-0.09375 0.109375 -0.234375 0.109375q-0.15625 0 -0.25 -0.109375q-0.078125 -0.09375 -0.078125 -0.34375l0 -1.9375q-1.203125 -0.078125 -2.03125 -0.78125q0 0.34375 -0.03125 0.421875q-0.015625 0.078125 -0.109375 0.140625q-0.078125 0.046875 -0.1875 0.046875q-0.140625 0 -0.234375 -0.09375q-0.09375 -0.109375 -0.09375 -0.34375l0 -1.28125q0 -0.234375 0.09375 -0.328125q0.09375 -0.109375 0.234375 -0.109375q0.140625 0 0.25 0.09375q0.0625 0.078125 0.078125 0.3125q0.046875 0.421875 0.671875 0.859375q0.625 0.421875 1.6875 0.421875q1.09375 0 1.71875 -0.515625q0.640625 -0.53125 0.640625 -1.21875q0 -0.46875 -0.234375 -0.796875q-0.234375 -0.328125 -0.734375 -0.53125q-0.328125 -0.140625 -1.375 -0.328125q-1.515625 -0.296875 -2.09375 -0.765625q-0.59375 -0.46875 -0.59375 -1.375q0 -0.84375 0.640625 -1.5q0.640625 -0.671875 1.703125 -0.796875zm7.8046875 4.9375l0 3.765625l5.046875 0l0 -1.9375q0 -0.234375 0.078125 -0.328125q0.09375 -0.109375 0.25 -0.109375q0.140625 0 0.234375 0.109375q0.09375 0.09375 0.09375 0.328125l0 2.59375l-7.25 0q-0.234375 0 -0.34375 -0.09375q-0.09375 -0.09375 -0.09375 -0.234375q0 -0.15625 0.09375 -0.234375q0.109375 -0.09375 0.34375 -0.09375l0.890625 0l0 -7.828125l-0.890625 0q-0.234375 0 -0.34375 -0.09375q-0.09375 -0.09375 -0.09375 -0.234375q0 -0.15625 0.09375 -0.234375q0.109375 -0.09375 0.34375 -0.09375l6.90625 0l0 2.25q0 0.234375 -0.09375 0.34375q-0.09375 0.09375 -0.234375 0.09375q-0.15625 0 -0.25 -0.09375q-0.078125 -0.109375 -0.078125 -0.34375l0 -1.59375l-4.703125 0l0 3.40625l2.34375 0l0 -0.734375q0 -0.234375 0.09375 -0.328125q0.09375 -0.109375 0.25 -0.109375q0.140625 0 0.234375 0.109375q0.09375 0.09375 0.09375 0.328125l0 2.140625q0 0.234375 -0.09375 0.34375q-0.09375 0.09375 -0.234375 0.09375q-0.15625 0 -0.25 -0.09375q-0.09375 -0.109375 -0.09375 -0.34375l0 -0.75l-2.34375 0zm21.671875 -4.71875l0 10.515625l1.59375 0q0.234375 0 0.328125 0.078125q0.109375 0.09375 0.109375 0.25q0 0.140625 -0.109375 0.234375q-0.09375 0.09375 -0.328125 0.09375l-2.25 0l0 -11.84375l2.25 0q0.234375 0 0.328125 0.09375q0.109375 0.09375 0.109375 0.25q0 0.140625 -0.109375 0.234375q-0.09375 0.09375 -0.328125 0.09375l-1.59375 0zm9.1953125 5.25q0 -0.90625 0.234375 -1.90625q0.234375 -1.015625 0.890625 -2.328125q0.671875 -1.328125 0.96875 -1.59375q0.09375 -0.09375 0.203125 -0.09375q0.140625 0 0.234375 0.09375q0.109375 0.09375 0.109375 0.234375q0 0.078125 -0.0625 0.171875q-0.859375 1.578125 -1.234375 2.859375q-0.359375 1.28125 -0.359375 2.5625q0 1.28125 0.359375 2.5625q0.375 1.28125 1.234375 2.859375q0.0625 0.09375 0.0625 0.171875q0 0.140625 -0.109375 0.234375q-0.09375 0.09375 -0.234375 0.09375q-0.109375 0 -0.203125 -0.078125q-0.28125 -0.265625 -0.9375 -1.5625q-0.65625 -1.296875 -0.90625 -2.28125q-0.25 -1.0 -0.25 -2.0zm13.0234375 -1.109375l0 0.9375l-6.703125 0l0 -0.9375l6.703125 0zm15.78125 1.109375q0 -0.90625 0.234375 -1.90625q0.234375 -1.015625 0.890625 -2.328125q0.671875 -1.328125 0.96875 -1.59375q0.09375 -0.09375 0.203125 -0.09375q0.140625 0 0.234375 0.09375q0.109375 0.09375 0.109375 0.234375q0 0.078125 -0.0625 0.171875q-0.859375 1.578125 -1.234375 2.859375q-0.359375 1.28125 -0.359375 2.5625q0 1.28125 0.359375 2.5625q0.375 1.28125 1.234375 2.859375q0.0625 0.09375 0.0625 0.171875q0 0.140625 -0.109375 0.234375q-0.09375 0.09375 -0.234375 0.09375q-0.109375 0 -0.203125 -0.078125q-0.28125 -0.265625 -0.9375 -1.5625q-0.65625 -1.296875 -0.90625 -2.28125q-0.25 -1.0 -0.25 -2.0zm12.7109375 -1.328125q0.125 0 0.21875 0.09375q0.09375 0.09375 0.09375 0.21875q0 0.265625 -0.6875 0.90625q-0.671875 0.625 -1.25 0.625q-0.34375 0 -0.703125 -0.203125q-0.359375 -0.203125 -1.03125 -0.828125q-0.4375 -0.421875 -0.671875 -0.546875q-0.234375 -0.140625 -0.421875 -0.140625q-0.21875 0 -0.421875 0.125q-0.28125 0.15625 -0.75 0.71875q-0.234375 0.25 -0.296875 0.296875q-0.0625 0.03125 -0.140625 0.03125q-0.140625 0 -0.234375 -0.078125q-0.078125 -0.09375 -0.078125 -0.234375q0 -0.125 0.203125 -0.375q0.515625 -0.640625 0.921875 -0.890625q0.40625 -0.25 0.78125 -0.25q0.328125 0 0.640625 0.15625q0.3125 0.15625 0.796875 0.59375q0.796875 0.734375 0.984375 0.84375q0.1875 0.109375 0.375 0.109375q0.5625 0 1.1875 -0.796875q0.21875 -0.28125 0.296875 -0.328125q0.078125 -0.046875 0.1875 -0.046875zm17.515625 -0.125q0.90625 0.40625 1.375 1.125q0.484375 0.703125 0.484375 1.46875q0 1.171875 -0.96875 2.078125q-0.953125 0.90625 -2.390625 0.90625q-0.84375 0 -1.75 -0.359375q-0.90625 -0.359375 -1.265625 -0.734375q-0.109375 -0.125 -0.109375 -0.265625q0 -0.125 0.078125 -0.21875q0.09375 -0.09375 0.21875 -0.09375q0.125 0 0.28125 0.109375q1.21875 0.90625 2.5625 0.90625q1.140625 0 1.90625 -0.71875q0.78125 -0.71875 0.78125 -1.59375q0 -0.578125 -0.390625 -1.140625q-0.375 -0.5625 -1.09375 -0.890625q-0.703125 -0.328125 -1.421875 -0.328125q-0.234375 0 -0.34375 -0.078125q-0.09375 -0.09375 -0.09375 -0.25q0 -0.140625 0.09375 -0.234375q0.09375 -0.09375 0.296875 -0.09375l0.5625 0.015625q0.875 0 1.453125 -0.53125q0.578125 -0.546875 0.578125 -1.265625q0 -0.734375 -0.609375 -1.296875q-0.59375 -0.5625 -1.5625 -0.5625q-0.6875 0 -1.265625 0.234375q-0.5625 0.234375 -0.90625 0.640625q-0.125 0.15625 -0.1875 0.203125q-0.0625 0.03125 -0.15625 0.03125q-0.125 0 -0.21875 -0.09375q-0.09375 -0.09375 -0.09375 -0.21875q0 -0.3125 0.671875 -0.78125q0.953125 -0.671875 2.15625 -0.671875q1.234375 0 2.03125 0.75q0.796875 0.75 0.796875 1.78125q0 0.65625 -0.390625 1.25q-0.375 0.578125 -1.109375 0.921875zm8.4453125 1.453125q0 0.90625 -0.234375 1.90625q-0.234375 1.0 -0.90625 2.328125q-0.65625 1.328125 -0.96875 1.59375q-0.09375 0.09375 -0.203125 0.09375q-0.140625 0 -0.234375 -0.09375q-0.09375 -0.09375 -0.09375 -0.234375q0 -0.078125 0.046875 -0.171875q0.859375 -1.578125 1.21875 -2.859375q0.375 -1.28125 0.375 -2.5625q0 -1.28125 -0.375 -2.5625q-0.359375 -1.28125 -1.21875 -2.859375q-0.046875 -0.09375 -0.046875 -0.171875q0 -0.140625 0.09375 -0.234375q0.09375 -0.09375 0.234375 -0.09375q0.109375 0 0.203125 0.09375q0.296875 0.265625 0.953125 1.5625q0.65625 1.28125 0.90625 2.28125q0.25 0.984375 0.25 1.984375zm16.1875 3.234375l5.03125 0l0 -0.265625q0 -0.234375 0.09375 -0.328125q0.09375 -0.109375 0.25 -0.109375q0.140625 0 0.234375 0.109375q0.09375 0.09375 0.09375 0.328125l0 0.921875l-6.34375 0l0 -0.96875q2.0 -1.796875 3.890625 -3.65625q0.875 -0.875 1.203125 -1.28125q0.328125 -0.40625 0.453125 -0.703125q0.125 -0.3125 0.125 -0.625q0 -0.84375 -0.6875 -1.484375q-0.671875 -0.65625 -1.640625 -0.65625q-0.859375 0 -1.53125 0.5q-0.65625 0.484375 -0.84375 1.203125q-0.046875 0.1875 -0.125 0.25q-0.09375 0.078125 -0.21875 0.078125q-0.125 0 -0.21875 -0.09375q-0.09375 -0.09375 -0.09375 -0.21875q0 -0.375 0.40625 -1.015625q0.421875 -0.640625 1.140625 -1.0q0.71875 -0.375 1.484375 -0.375q1.21875 0 2.09375 0.859375q0.890625 0.84375 0.890625 1.921875q0 0.453125 -0.15625 0.84375q-0.140625 0.375 -0.5 0.828125q-0.34375 0.4375 -1.265625 1.34375q-2.3125 2.28125 -3.765625 3.546875l0 0.046875zm12.6171875 -3.234375q0 0.90625 -0.234375 1.90625q-0.234375 1.0 -0.90625 2.328125q-0.65625 1.328125 -0.96875 1.59375q-0.09375 0.09375 -0.203125 0.09375q-0.140625 0 -0.234375 -0.09375q-0.09375 -0.09375 -0.09375 -0.234375q0 -0.078125 0.046875 -0.171875q0.859375 -1.578125 1.21875 -2.859375q0.375 -1.28125 0.375 -2.5625q0 -1.28125 -0.375 -2.5625q-0.359375 -1.28125 -1.21875 -2.859375q-0.046875 -0.09375 -0.046875 -0.171875q0 -0.140625 0.09375 -0.234375q0.09375 -0.09375 0.234375 -0.09375q0.109375 0 0.203125 0.09375q0.296875 0.265625 0.953125 1.5625q0.65625 1.28125 0.90625 2.28125q0.25 0.984375 0.25 1.984375zm9.1015625 5.265625l0 -10.515625l-1.59375 0q-0.234375 0 -0.34375 -0.09375q-0.09375 -0.09375 -0.09375 -0.234375q0 -0.15625 0.09375 -0.25q0.109375 -0.09375 0.34375 -0.09375l2.25 0l0 11.84375l-2.25 0q-0.234375 0 -0.34375 -0.09375q-0.09375 -0.09375 -0.09375 -0.234375q0 -0.140625 0.09375 -0.234375q0.109375 -0.09375 0.34375 -0.09375l1.59375 0z" fill-rule="nonzero"></path><path fill="#000000" fill-opacity="0.0" d="m6.1484365 47.571945l278.01575 0" fill-rule="nonzero"></path><path stroke="#000000" stroke-width="1.0" stroke-linejoin="round" stroke-linecap="butt" d="m6.1484365 47.571945l278.01575 0" fill-rule="nonzero"></path><path fill="#000000" fill-opacity="0.0" d="m5.988332 24.611317l278.01575 0l0 21.543308l-278.01575 0z" fill-rule="nonzero"></path><path fill="#000000" d="m72.65246 31.883595l0 -0.828125q0 -0.25 0.078125 -0.34375q0.09375 -0.109375 0.25 -0.109375q0.140625 0 0.234375 0.109375q0.09375 0.09375 0.09375 0.34375l0 0.828125q0.53125 0.046875 0.875 0.171875q0.34375 0.109375 0.8125 0.421875q0 -0.1875 0.09375 -0.28125q0.09375 -0.09375 0.234375 -0.09375q0.140625 0 0.234375 0.109375q0.09375 0.09375 0.09375 0.328125l0 0.96875q0 0.234375 -0.09375 0.34375q-0.09375 0.09375 -0.234375 0.09375q-0.125 0 -0.21875 -0.078125q-0.078125 -0.078125 -0.109375 -0.28125q-0.046875 -0.359375 -0.484375 -0.65625q-0.640625 -0.421875 -1.515625 -0.421875q-0.875 0 -1.453125 0.515625q-0.578125 0.515625 -0.578125 1.15625q0 0.65625 0.515625 1.0q0.375 0.265625 1.609375 0.5q1.234375 0.21875 1.671875 0.421875q0.625 0.28125 0.921875 0.75q0.3125 0.46875 0.3125 1.125q0 0.890625 -0.703125 1.578125q-0.6875 0.671875 -1.984375 0.796875l0 1.9375q0 0.25 -0.09375 0.34375q-0.09375 0.109375 -0.234375 0.109375q-0.15625 0 -0.25 -0.109375q-0.078125 -0.09375 -0.078125 -0.34375l0 -1.9375q-1.203125 -0.078125 -2.03125 -0.78125q0 0.34375 -0.03125 0.421875q-0.015625 0.078125 -0.109375 0.140625q-0.078125 0.046875 -0.1875 0.046875q-0.140625 0 -0.234375 -0.09375q-0.09375 -0.109375 -0.09375 -0.34375l0 -1.28125q0 -0.234375 0.09375 -0.328125q0.09375 -0.109375 0.234375 -0.109375q0.140625 0 0.25 0.09375q0.0625 0.078125 0.078125 0.3125q0.046875 0.421875 0.671875 0.859375q0.625 0.421875 1.6875 0.421875q1.09375 0 1.71875 -0.515625q0.640625 -0.53125 0.640625 -1.21875q0 -0.46875 -0.234375 -0.796875q-0.234375 -0.328125 -0.734375 -0.53125q-0.328125 -0.140625 -1.375 -0.328125q-1.515625 -0.296875 -2.09375 -0.765625q-0.59375 -0.46875 -0.59375 -1.375q0 -0.84375 0.640625 -1.5q0.640625 -0.671875 1.703125 -0.796875zm7.8046875 4.9375l0 3.765625l5.046875 0l0 -1.9375q0 -0.234375 0.078125 -0.328125q0.09375 -0.109375 0.25 -0.109375q0.140625 0 0.234375 0.109375q0.09375 0.09375 0.09375 0.328125l0 2.59375l-7.25 0q-0.234375 0 -0.34375 -0.09375q-0.09375 -0.09375 -0.09375 -0.234375q0 -0.15625 0.09375 -0.234375q0.109375 -0.09375 0.34375 -0.09375l0.890625 0l0 -7.828125l-0.890625 0q-0.234375 0 -0.34375 -0.09375q-0.09375 -0.09375 -0.09375 -0.234375q0 -0.15625 0.09375 -0.234375q0.109375 -0.09375 0.34375 -0.09375l6.90625 0l0 2.25q0 0.234375 -0.09375 0.34375q-0.09375 0.09375 -0.234375 0.09375q-0.15625 0 -0.25 -0.09375q-0.078125 -0.109375 -0.078125 -0.34375l0 -1.59375l-4.703125 0l0 3.40625l2.34375 0l0 -0.734375q0 -0.234375 0.09375 -0.328125q0.09375 -0.109375 0.25 -0.109375q0.140625 0 0.234375 0.109375q0.09375 0.09375 0.09375 0.328125l0 2.140625q0 0.234375 -0.09375 0.34375q-0.09375 0.09375 -0.234375 0.09375q-0.15625 0 -0.25 -0.09375q-0.09375 -0.109375 -0.09375 -0.34375l0 -0.75l-2.34375 0zm8.9296875 3.765625l0 -7.828125l-0.875 0q-0.234375 0 -0.34375 -0.09375q-0.09375 -0.09375 -0.09375 -0.234375q0 -0.15625 0.09375 -0.234375q0.109375 -0.09375 0.34375 -0.09375l4.125 0q1.21875 0 1.984375 0.703125q0.78125 0.703125 0.78125 1.65625q0 1.203125 -1.296875 1.953125q1.03125 0.359375 1.5 0.96875q0.484375 0.609375 0.484375 1.34375q0 0.65625 -0.3125 1.203125q-0.3125 0.546875 -0.96875 0.9375q-0.640625 0.375 -1.390625 0.375l-4.90625 0q-0.234375 0 -0.34375 -0.09375q-0.09375 -0.09375 -0.09375 -0.234375q0 -0.15625 0.09375 -0.234375q0.109375 -0.09375 0.34375 -0.09375l0.875 0zm0.65625 -4.421875l2.328125 0q0.734375 0 1.359375 -0.28125q0.46875 -0.21875 0.734375 -0.625q0.265625 -0.421875 0.265625 -0.84375q0 -0.625 -0.578125 -1.140625q-0.578125 -0.515625 -1.5 -0.515625l-2.609375 0l0 3.40625zm0 4.421875l3.328125 0q0.625 0 1.09375 -0.28125q0.46875 -0.28125 0.703125 -0.6875q0.25 -0.421875 0.25 -0.875q0 -0.5 -0.34375 -0.96875q-0.34375 -0.46875 -0.96875 -0.703125q-0.609375 -0.25 -1.703125 -0.25l-2.359375 0l0 3.765625zm15.7578125 -3.890625q0 1.3125 -0.53125 2.4375q-0.53125 1.109375 -1.46875 1.75q-0.921875 0.625 -2.0 0.625q-1.578125 0 -2.796875 -1.34375q-1.203125 -1.359375 -1.203125 -3.46875q0 -2.125 1.203125 -3.46875q1.21875 -1.34375 2.796875 -1.34375q1.078125 0 2.0 0.625q0.9375 0.625 1.46875 1.75q0.53125 1.109375 0.53125 2.4375zm-0.65625 0q0 -1.609375 -0.9375 -2.875q-0.921875 -1.28125 -2.40625 -1.28125q-1.375 0 -2.359375 1.21875q-0.984375 1.21875 -0.984375 2.9375q0 1.828125 1.03125 2.984375q1.03125 1.15625 2.3125 1.15625q1.484375 0 2.40625 -1.265625q0.9375 -1.265625 0.9375 -2.875zm16.1875 -4.59375l0 10.515625l1.59375 0q0.234375 0 0.328125 0.078125q0.109375 0.09375 0.109375 0.25q0 0.140625 -0.109375 0.234375q-0.09375 0.09375 -0.328125 0.09375l-2.25 0l0 -11.84375l2.25 0q0.234375 0 0.328125 0.09375q0.109375 0.09375 0.109375 0.25q0 0.140625 -0.109375 0.234375q-0.09375 0.09375 -0.328125 0.09375l-1.59375 0zm9.195305 5.25q0 -0.90625 0.234375 -1.90625q0.234375 -1.015625 0.890625 -2.328125q0.671875 -1.328125 0.96875 -1.59375q0.09375 -0.09375 0.203125 -0.09375q0.140625 0 0.234375 0.09375q0.109375 0.09375 0.109375 0.234375q0 0.078125 -0.0625 0.171875q-0.859375 1.578125 -1.234375 2.859375q-0.359375 1.28125 -0.359375 2.5625q0 1.28125 0.359375 2.5625q0.375 1.28125 1.234375 2.859375q0.0625 0.09375 0.0625 0.171875q0 0.140625 -0.109375 0.234375q-0.09375 0.09375 -0.234375 0.09375q-0.109375 0 -0.203125 -0.078125q-0.28125 -0.265625 -0.9375 -1.5625q-0.65625 -1.296875 -0.90625 -2.28125q-0.25 -1.0 -0.25 -2.0zm13.0234375 -1.109375l0 0.9375l-6.703125 0l0 -0.9375l6.703125 0zm15.78125 1.109375q0 -0.90625 0.234375 -1.90625q0.234375 -1.015625 0.890625 -2.328125q0.671875 -1.328125 0.96875 -1.59375q0.09375 -0.09375 0.203125 -0.09375q0.140625 0 0.234375 0.09375q0.109375 0.09375 0.109375 0.234375q0 0.078125 -0.0625 0.171875q-0.859375 1.578125 -1.234375 2.859375q-0.359375 1.28125 -0.359375 2.5625q0 1.28125 0.359375 2.5625q0.375 1.28125 1.234375 2.859375q0.0625 0.09375 0.0625 0.171875q0 0.140625 -0.109375 0.234375q-0.09375 0.09375 -0.234375 0.09375q-0.109375 0 -0.203125 -0.078125q-0.28125 -0.265625 -0.9375 -1.5625q-0.65625 -1.296875 -0.90625 -2.28125q-0.25 -1.0 -0.25 -2.0zm12.7109375 -1.328125q0.125 0 0.21875 0.09375q0.09375 0.09375 0.09375 0.21875q0 0.265625 -0.6875 0.90625q-0.671875 0.625 -1.25 0.625q-0.34375 0 -0.703125 -0.203125q-0.359375 -0.203125 -1.03125 -0.828125q-0.4375 -0.421875 -0.671875 -0.546875q-0.234375 -0.140625 -0.421875 -0.140625q-0.21875 0 -0.421875 0.125q-0.28125 0.15625 -0.75 0.71875q-0.234375 0.25 -0.296875 0.296875q-0.0625 0.03125 -0.140625 0.03125q-0.140625 0 -0.234375 -0.078125q-0.078125 -0.09375 -0.078125 -0.234375q0 -0.125 0.203125 -0.375q0.515625 -0.640625 0.921875 -0.890625q0.40625 -0.25 0.78125 -0.25q0.328125 0 0.640625 0.15625q0.3125 0.15625 0.796875 0.59375q0.796875 0.734375 0.984375 0.84375q0.1875 0.109375 0.375 0.109375q0.5625 0 1.1875 -0.796875q0.21875 -0.28125 0.296875 -0.328125q0.078125 -0.046875 0.1875 -0.046875zm17.515625 -0.125q0.90625 0.40625 1.375 1.125q0.484375 0.703125 0.484375 1.46875q0 1.171875 -0.96875 2.078125q-0.953125 0.90625 -2.390625 0.90625q-0.84375 0 -1.75 -0.359375q-0.90625 -0.359375 -1.265625 -0.734375q-0.109375 -0.125 -0.109375 -0.265625q0 -0.125 0.078125 -0.21875q0.09375 -0.09375 0.21875 -0.09375q0.125 0 0.28125 0.109375q1.21875 0.90625 2.5625 0.90625q1.140625 0 1.90625 -0.71875q0.78125 -0.71875 0.78125 -1.59375q0 -0.578125 -0.390625 -1.140625q-0.375 -0.5625 -1.09375 -0.890625q-0.703125 -0.328125 -1.421875 -0.328125q-0.234375 0 -0.34375 -0.078125q-0.09375 -0.09375 -0.09375 -0.25q0 -0.140625 0.09375 -0.234375q0.09375 -0.09375 0.296875 -0.09375l0.5625 0.015625q0.875 0 1.453125 -0.53125q0.578125 -0.546875 0.578125 -1.265625q0 -0.734375 -0.609375 -1.296875q-0.59375 -0.5625 -1.5625 -0.5625q-0.6875 0 -1.265625 0.234375q-0.5625 0.234375 -0.90625 0.640625q-0.125 0.15625 -0.1875 0.203125q-0.0625 0.03125 -0.15625 0.03125q-0.125 0 -0.21875 -0.09375q-0.09375 -0.09375 -0.09375 -0.21875q0 -0.3125 0.671875 -0.78125q0.953125 -0.671875 2.15625 -0.671875q1.234375 0 2.03125 0.75q0.796875 0.75 0.796875 1.78125q0 0.65625 -0.390625 1.25q-0.375 0.578125 -1.109375 0.921875zm8.4453125 1.453125q0 0.90625 -0.234375 1.90625q-0.234375 1.0 -0.90625 2.328125q-0.65625 1.328125 -0.96875 1.59375q-0.09375 0.09375 -0.203125 0.09375q-0.140625 0 -0.234375 -0.09375q-0.09375 -0.09375 -0.09375 -0.234375q0 -0.078125 0.046875 -0.171875q0.859375 -1.578125 1.21875 -2.859375q0.375 -1.28125 0.375 -2.5625q0 -1.28125 -0.375 -2.5625q-0.359375 -1.28125 -1.21875 -2.859375q-0.046875 -0.09375 -0.046875 -0.171875q0 -0.140625 0.09375 -0.234375q0.09375 -0.09375 0.234375 -0.09375q0.109375 0 0.203125 0.09375q0.296875 0.265625 0.953125 1.5625q0.65625 1.28125 0.90625 2.28125q0.25 0.984375 0.25 1.984375zm9.6015625 0q0 0.90625 -0.234375 1.90625q-0.234375 1.0 -0.90625 2.328125q-0.65625 1.328125 -0.96875 1.59375q-0.09375 0.09375 -0.203125 0.09375q-0.140625 0 -0.234375 -0.09375q-0.09375 -0.09375 -0.09375 -0.234375q0 -0.078125 0.046875 -0.171875q0.859375 -1.578125 1.21875 -2.859375q0.375 -1.28125 0.375 -2.5625q0 -1.28125 -0.375 -2.5625q-0.359375 -1.28125 -1.21875 -2.859375q-0.046875 -0.09375 -0.046875 -0.171875q0 -0.140625 0.09375 -0.234375q0.09375 -0.09375 0.234375 -0.09375q0.109375 0 0.203125 0.09375q0.296875 0.265625 0.953125 1.5625q0.65625 1.28125 0.90625 2.28125q0.25 0.984375 0.25 1.984375zm9.1015625 5.265625l0 -10.515625l-1.59375 0q-0.234375 0 -0.34375 -0.09375q-0.09375 -0.09375 -0.09375 -0.234375q0 -0.15625 0.09375 -0.25q0.109375 -0.09375 0.34375 -0.09375l2.25 0l0 11.84375l-2.25 0q-0.234375 0 -0.34375 -0.09375q-0.09375 -0.09375 -0.09375 -0.234375q0 -0.140625 0.09375 -0.234375q0.109375 -0.09375 0.34375 -0.09375l1.59375 0z" fill-rule="nonzero"></path></g></svg>

