<?xml version="1.0" standalone="yes"?>

<svg version="1.1" viewBox="0.0 0.0 365.37007874015745 127.95538057742782" fill="none" stroke="none" stroke-linecap="square" stroke-miterlimit="10" xmlns="http://www.w3.org/2000/svg" xmlns:xlink="http://www.w3.org/1999/xlink"><clipPath id="p.0"><path d="m0 0l365.3701 0l0 127.95538l-365.3701 0l0 -127.95538z" clip-rule="nonzero"></path></clipPath><g clip-path="url(#p.0)"><path fill="#000000" fill-opacity="0.0" d="m0 0l365.3701 0l0 127.95538l-365.3701 0z" fill-rule="nonzero"></path><path fill="#cfe2f3" d="m9.342631 23.059944l347.46457 0l0 96.0l-347.46457 0z" fill-rule="nonzero"></path><path fill="#9fc5e8" d="m9.56047 47.50089l278.07877 0l0 71.30708l-278.07877 0z" fill-rule="nonzero"></path><path fill="#6fa8dc" d="m9.712709 71.06782l167.81102 0l0 48.0l-167.81102 0z" fill-rule="nonzero"></path><path fill="#3d85c6" d="m9.560484 94.61638l97.95275 0l0 24.188972l-97.95275 0z" fill-rule="nonzero"></path><path fill="#000000" fill-opacity="0.0" d="m9.781608 95.996956l97.79527 0l0 21.543304l-97.79527 0z" fill-rule="nonzero"></path><path fill="#000000" d="m36.48784 105.86298l0 0.65625q0.84375 -0.890625 1.6875 -0.890625q0.5 0 0.875 0.265625q0.390625 0.265625 0.65625 0.8125q0.4375 -0.546875 0.875 -0.8125q0.453125 -0.265625 0.90625 -0.265625q0.71875 0 1.140625 0.453125q0.546875 0.59375 0.546875 1.296875l0 4.59375l0.5625 0q0.234375 0 0.328125 0.09375q0.109375 0.078125 0.109375 0.234375q0 0.140625 -0.109375 0.234375q-0.09375 0.09375 -0.328125 0.09375l-1.21875 0l0 -5.1875q0 -0.5 -0.3125 -0.828125q-0.296875 -0.328125 -0.6875 -0.328125q-0.359375 0 -0.765625 0.28125q-0.390625 0.265625 -0.90625 1.046875l0 4.359375l0.546875 0q0.234375 0 0.328125 0.09375q0.109375 0.078125 0.109375 0.234375q0 0.140625 -0.109375 0.234375q-0.09375 0.09375 -0.328125 0.09375l-1.203125 0l0 -5.140625q0 -0.515625 -0.3125 -0.859375q-0.3125 -0.34375 -0.6875 -0.34375q-0.359375 0 -0.703125 0.234375q-0.46875 0.3125 -1.0 1.09375l0 4.359375l0.5625 0q0.234375 0 0.328125 0.09375q0.109375 0.078125 0.109375 0.234375q0 0.140625 -0.109375 0.234375q-0.09375 0.09375 -0.328125 0.09375l-1.765625 0q-0.234375 0 -0.34375 -0.09375q-0.09375 -0.09375 -0.09375 -0.234375q0 -0.15625 0.09375 -0.234375q0.109375 -0.09375 0.34375 -0.09375l0.546875 0l0 -5.453125l-0.546875 0q-0.234375 0 -0.34375 -0.09375q-0.09375 -0.09375 -0.09375 -0.234375q0 -0.140625 0.09375 -0.234375q0.109375 -0.09375 0.34375 -0.09375l1.203125 0zm12.9140625 -3.375l0 1.703125l-0.96875 0l0 -1.703125l0.96875 0zm0.03125 3.375l0 6.109375l2.578125 0q0.234375 0 0.328125 0.09375q0.109375 0.078125 0.109375 0.234375q0 0.140625 -0.109375 0.234375q-0.09375 0.09375 -0.328125 0.09375l-5.8125 0q-0.234375 0 -0.34375 -0.09375q-0.09375 -0.09375 -0.09375 -0.234375q0 -0.15625 0.09375 -0.234375q0.109375 -0.09375 0.34375 -0.09375l2.578125 0l0 -5.453125l-1.921875 0q-0.234375 0 -0.34375 -0.09375q-0.09375 -0.09375 -0.09375 -0.234375q0 -0.140625 0.09375 -0.234375q0.109375 -0.09375 0.34375 -0.09375l2.578125 0zm7.1328125 0l0 0.984375q0.6875 -0.6875 1.234375 -0.953125q0.5625 -0.265625 1.25 -0.265625q0.75 0 1.375 0.3125q0.4375 0.234375 0.78125 0.78125q0.359375 0.546875 0.359375 1.109375l0 4.140625l0.5625 0q0.234375 0 0.328125 0.09375q0.109375 0.078125 0.109375 0.234375q0 0.140625 -0.109375 0.234375q-0.09375 0.09375 -0.328125 0.09375l-1.765625 0q-0.234375 0 -0.34375 -0.09375q-0.09375 -0.09375 -0.09375 -0.234375q0 -0.15625 0.09375 -0.234375q0.109375 -0.09375 0.34375 -0.09375l0.546875 0l0 -4.03125q0 -0.6875 -0.515625 -1.171875q-0.5 -0.484375 -1.34375 -0.484375q-0.65625 0 -1.140625 0.265625q-0.46875 0.265625 -1.34375 1.296875l0 4.125l0.734375 0q0.234375 0 0.328125 0.09375q0.109375 0.078125 0.109375 0.234375q0 0.140625 -0.109375 0.234375q-0.09375 0.09375 -0.328125 0.09375l-2.140625 0q-0.234375 0 -0.34375 -0.09375q-0.09375 -0.09375 -0.09375 -0.234375q0 -0.15625 0.09375 -0.234375q0.109375 -0.09375 0.34375 -0.09375l0.75 0l0 -5.453125l-0.5625 0q-0.234375 0 -0.34375 -0.09375q-0.09375 -0.09375 -0.09375 -0.234375q0 -0.140625 0.09375 -0.234375q0.109375 -0.09375 0.34375 -0.09375l1.21875 0zm13.9609375 6.765625l0 -0.96875q-1.34375 1.234375 -2.90625 1.234375q-0.953125 0 -1.453125 -0.53125q-0.65625 -0.6875 -0.65625 -1.609375l0 -4.234375l-0.875 0q-0.234375 0 -0.34375 -0.09375q-0.09375 -0.09375 -0.09375 -0.234375q0 -0.140625 0.09375 -0.234375q0.109375 -0.09375 0.34375 -0.09375l1.53125 0l0 4.890625q0 0.640625 0.40625 1.0625q0.40625 0.40625 1.015625 0.40625q1.609375 0 2.9375 -1.46875l0 -4.234375l-1.203125 0q-0.234375 0 -0.34375 -0.09375q-0.09375 -0.09375 -0.09375 -0.234375q0 -0.140625 0.09375 -0.234375q0.109375 -0.09375 0.34375 -0.09375l1.859375 0l0 6.109375l0.5625 0q0.234375 0 0.328125 0.09375q0.109375 0.078125 0.109375 0.234375q0 0.140625 -0.109375 0.234375q-0.09375 0.09375 -0.328125 0.09375l-1.21875 0zm9.5234375 -6.34375q0 -0.21875 0.09375 -0.3125q0.09375 -0.109375 0.234375 -0.109375q0.15625 0 0.25 0.109375q0.09375 0.09375 0.09375 0.328125l0 1.125q0 0.234375 -0.09375 0.34375q-0.09375 0.09375 -0.25 0.09375q-0.125 0 -0.21875 -0.078125q-0.09375 -0.09375 -0.109375 -0.28125q-0.046875 -0.46875 -0.484375 -0.78125q-0.640625 -0.4375 -1.6875 -0.4375q-1.109375 0 -1.71875 0.453125q-0.453125 0.328125 -0.453125 0.75q0 0.46875 0.546875 0.78125q0.375 0.21875 1.421875 0.328125q1.359375 0.15625 1.890625 0.34375q0.765625 0.265625 1.125 0.75q0.375 0.484375 0.375 1.046875q0 0.84375 -0.8125 1.5q-0.796875 0.65625 -2.34375 0.65625q-1.5625 0 -2.546875 -0.796875q0 0.265625 -0.03125 0.34375q-0.03125 0.078125 -0.125 0.140625q-0.078125 0.046875 -0.171875 0.046875q-0.140625 0 -0.234375 -0.09375q-0.09375 -0.109375 -0.09375 -0.34375l0 -1.359375q0 -0.234375 0.078125 -0.328125q0.09375 -0.109375 0.25 -0.109375q0.140625 0 0.234375 0.109375q0.09375 0.09375 0.09375 0.25q0 0.359375 0.1875 0.609375q0.265625 0.375 0.859375 0.625q0.609375 0.234375 1.46875 0.234375q1.28125 0 1.90625 -0.46875q0.625 -0.484375 0.625 -1.015625q0 -0.609375 -0.625 -0.96875q-0.640625 -0.375 -1.875 -0.5q-1.21875 -0.125 -1.75 -0.328125q-0.53125 -0.203125 -0.828125 -0.609375q-0.296875 -0.40625 -0.296875 -0.875q0 -0.84375 0.828125 -1.328125q0.828125 -0.5 1.984375 -0.5q1.359375 0 2.203125 0.65625z" fill-rule="nonzero"></path><path fill="#3d85c6" d="m185.13783 94.878845l102.23622 0l0 24.188972l-102.23622 0z" fill-rule="nonzero"></path><path fill="#3d85c6" d="m294.30716 94.87736l62.519684 0l0 24.188972l-62.519684 0z" fill-rule="nonzero"></path><path fill="#000000" fill-opacity="0.0" d="m185.39775 96.33553l102.23622 0l0 21.543312l-102.23622 0z" fill-rule="nonzero"></path><path fill="#000000" d="m214.32445 106.20156l0 0.65625q0.84375 -0.890625 1.6875 -0.890625q0.5 0 0.875 0.265625q0.390625 0.265625 0.65625 0.8125q0.4375 -0.546875 0.875 -0.8125q0.453125 -0.265625 0.90625 -0.265625q0.71875 0 1.140625 0.453125q0.546875 0.59375 0.546875 1.296875l0 4.59375l0.5625 0q0.234375 0 0.328125 0.09375q0.109375 0.078125 0.109375 0.234375q0 0.140625 -0.109375 0.234375q-0.09375 0.09375 -0.328125 0.09375l-1.21875 0l0 -5.1875q0 -0.5 -0.3125 -0.828125q-0.296875 -0.328125 -0.6875 -0.328125q-0.359375 0 -0.765625 0.28125q-0.390625 0.265625 -0.90625 1.046875l0 4.359375l0.546875 0q0.234375 0 0.328125 0.09375q0.109375 0.078125 0.109375 0.234375q0 0.140625 -0.109375 0.234375q-0.09375 0.09375 -0.328125 0.09375l-1.203125 0l0 -5.140625q0 -0.515625 -0.3125 -0.859375q-0.3125 -0.34375 -0.6875 -0.34375q-0.359375 0 -0.703125 0.234375q-0.46875 0.3125 -1.0 1.09375l0 4.359375l0.5625 0q0.234375 0 0.328125 0.09375q0.109375 0.078125 0.109375 0.234375q0 0.140625 -0.109375 0.234375q-0.09375 0.09375 -0.328125 0.09375l-1.765625 0q-0.234375 0 -0.34375 -0.09375q-0.09375 -0.09375 -0.09375 -0.234375q0 -0.15625 0.09375 -0.234375q0.109375 -0.09375 0.34375 -0.09375l0.546875 0l0 -5.453125l-0.546875 0q-0.234375 0 -0.34375 -0.09375q-0.09375 -0.09375 -0.09375 -0.234375q0 -0.140625 0.09375 -0.234375q0.109375 -0.09375 0.34375 -0.09375l1.203125 0zm12.9140625 -3.375l0 1.703125l-0.96875 0l0 -1.703125l0.96875 0zm0.03125 3.375l0 6.109375l2.578125 0q0.234375 0 0.328125 0.09375q0.109375 0.078125 0.109375 0.234375q0 0.140625 -0.109375 0.234375q-0.09375 0.09375 -0.328125 0.09375l-5.8125 0q-0.234375 0 -0.34375 -0.09375q-0.09375 -0.09375 -0.09375 -0.234375q0 -0.15625 0.09375 -0.234375q0.109375 -0.09375 0.34375 -0.09375l2.578125 0l0 -5.453125l-1.921875 0q-0.234375 0 -0.34375 -0.09375q-0.09375 -0.09375 -0.09375 -0.234375q0 -0.140625 0.09375 -0.234375q0.109375 -0.09375 0.34375 -0.09375l2.578125 0zm7.1328125 0l0 0.984375q0.6875 -0.6875 1.234375 -0.953125q0.5625 -0.265625 1.25 -0.265625q0.75 0 1.375 0.3125q0.4375 0.234375 0.78125 0.78125q0.359375 0.546875 0.359375 1.109375l0 4.140625l0.5625 0q0.234375 0 0.328125 0.09375q0.109375 0.078125 0.109375 0.234375q0 0.140625 -0.109375 0.234375q-0.09375 0.09375 -0.328125 0.09375l-1.765625 0q-0.234375 0 -0.34375 -0.09375q-0.09375 -0.09375 -0.09375 -0.234375q0 -0.15625 0.09375 -0.234375q0.109375 -0.09375 0.34375 -0.09375l0.546875 0l0 -4.03125q0 -0.6875 -0.515625 -1.171875q-0.5 -0.484375 -1.34375 -0.484375q-0.65625 0 -1.140625 0.265625q-0.46875 0.265625 -1.34375 1.296875l0 4.125l0.734375 0q0.234375 0 0.328125 0.09375q0.109375 0.078125 0.109375 0.234375q0 0.140625 -0.109375 0.234375q-0.09375 0.09375 -0.328125 0.09375l-2.140625 0q-0.234375 0 -0.34375 -0.09375q-0.09375 -0.09375 -0.09375 -0.234375q0 -0.15625 0.09375 -0.234375q0.109375 -0.09375 0.34375 -0.09375l0.75 0l0 -5.453125l-0.5625 0q-0.234375 0 -0.34375 -0.09375q-0.09375 -0.09375 -0.09375 -0.234375q0 -0.140625 0.09375 -0.234375q0.109375 -0.09375 0.34375 -0.09375l1.21875 0zm13.9609375 6.765625l0 -0.96875q-1.34375 1.234375 -2.90625 1.234375q-0.953125 0 -1.453125 -0.53125q-0.65625 -0.6875 -0.65625 -1.609375l0 -4.234375l-0.875 0q-0.234375 0 -0.34375 -0.09375q-0.09375 -0.09375 -0.09375 -0.234375q0 -0.140625 0.09375 -0.234375q0.109375 -0.09375 0.34375 -0.09375l1.53125 0l0 4.890625q0 0.640625 0.40625 1.0625q0.40625 0.40625 1.015625 0.40625q1.609375 0 2.9375 -1.46875l0 -4.234375l-1.203125 0q-0.234375 0 -0.34375 -0.09375q-0.09375 -0.09375 -0.09375 -0.234375q0 -0.140625 0.09375 -0.234375q0.109375 -0.09375 0.34375 -0.09375l1.859375 0l0 6.109375l0.5625 0q0.234375 0 0.328125 0.09375q0.109375 0.078125 0.109375 0.234375q0 0.140625 -0.109375 0.234375q-0.09375 0.09375 -0.328125 0.09375l-1.21875 0zm9.523453 -6.34375q0 -0.21875 0.09375 -0.3125q0.09375 -0.109375 0.234375 -0.109375q0.15625 0 0.25 0.109375q0.09375 0.09375 0.09375 0.328125l0 1.125q0 0.234375 -0.09375 0.34375q-0.09375 0.09375 -0.25 0.09375q-0.125 0 -0.21875 -0.078125q-0.09375 -0.09375 -0.109375 -0.28125q-0.046875 -0.46875 -0.484375 -0.78125q-0.640625 -0.4375 -1.6875153 -0.4375q-1.109375 0 -1.71875 0.453125q-0.453125 0.328125 -0.453125 0.75q0 0.46875 0.546875 0.78125q0.375 0.21875 1.421875 0.328125q1.3593903 0.15625 1.8906403 0.34375q0.765625 0.265625 1.125 0.75q0.375 0.484375 0.375 1.046875q0 0.84375 -0.8125 1.5q-0.796875 0.65625 -2.3437653 0.65625q-1.5625 0 -2.546875 -0.796875q0 0.265625 -0.03125 0.34375q-0.03125 0.078125 -0.125 0.140625q-0.078125 0.046875 -0.171875 0.046875q-0.140625 0 -0.234375 -0.09375q-0.09375 -0.109375 -0.09375 -0.34375l0 -1.359375q0 -0.234375 0.078125 -0.328125q0.09375 -0.109375 0.25 -0.109375q0.140625 0 0.234375 0.109375q0.09375 0.09375 0.09375 0.25q0 0.359375 0.1875 0.609375q0.265625 0.375 0.859375 0.625q0.609375 0.234375 1.46875 0.234375q1.2812653 0 1.9062653 -0.46875q0.625 -0.484375 0.625 -1.015625q0 -0.609375 -0.625 -0.96875q-0.640625 -0.375 -1.8750153 -0.5q-1.21875 -0.125 -1.75 -0.328125q-0.53125 -0.203125 -0.828125 -0.609375q-0.296875 -0.40625 -0.296875 -0.875q0 -0.84375 0.828125 -1.328125q0.828125 -0.5 1.984375 -0.5q1.3593903 0 2.2031403 0.65625z" fill-rule="nonzero"></path><path fill="#3d85c6" d="m114.307816 94.87736l63.181107 0l0 24.188972l-63.181107 0z" fill-rule="nonzero"></path><path fill="#000000" fill-opacity="0.0" d="m107.8761 96.256l76.12598 0l0 21.543304l-76.12598 0z" fill-rule="nonzero"></path><path fill="#000000" d="m125.388306 106.122025l3.5625 0q0.234375 0 0.328125 0.09375q0.109375 0.09375 0.109375 0.234375q0 0.140625 -0.109375 0.234375q-0.09375 0.09375 -0.328125 0.09375l-3.5625 0l0 4.375q0 0.5625 0.453125 0.953125q0.46875 0.375 1.34375 0.375q0.671875 0 1.4375 -0.1875q0.78125 -0.203125 1.203125 -0.453125q0.15625 -0.109375 0.265625 -0.109375q0.125 0 0.21875 0.109375q0.09375 0.09375 0.09375 0.21875q0 0.125 -0.109375 0.21875q-0.25 0.265625 -1.21875 0.578125q-0.953125 0.296875 -1.84375 0.296875q-1.140625 0 -1.828125 -0.546875q-0.671875 -0.546875 -0.671875 -1.453125l0 -4.375l-1.21875 0q-0.234375 0 -0.34375 -0.09375q-0.09375 -0.09375 -0.09375 -0.234375q0 -0.140625 0.09375 -0.234375q0.109375 -0.09375 0.34375 -0.09375l1.21875 0l0 -1.9375q0 -0.234375 0.09375 -0.328125q0.09375 -0.109375 0.234375 -0.109375q0.140625 0 0.234375 0.109375q0.09375 0.09375 0.09375 0.328125l0 1.9375zm8.7890625 -3.046875l0 4.046875q0.625 -0.6875 1.203125 -0.953125q0.578125 -0.28125 1.28125 -0.28125q0.765625 0 1.296875 0.265625q0.546875 0.265625 0.90625 0.828125q0.359375 0.5625 0.359375 1.171875l0 4.078125l0.734375 0q0.234375 0 0.328125 0.09375q0.109375 0.078125 0.109375 0.234375q0 0.140625 -0.109375 0.234375q-0.09375 0.09375 -0.328125 0.09375l-2.140625 0q-0.234375 0 -0.34375 -0.09375q-0.09375 -0.09375 -0.09375 -0.234375q0 -0.15625 0.09375 -0.234375q0.109375 -0.09375 0.34375 -0.09375l0.734375 0l0 -4.03125q0 -0.703125 -0.515625 -1.171875q-0.5 -0.484375 -1.421875 -0.484375q-0.71875 0 -1.21875 0.34375q-0.375 0.25 -1.21875 1.1875l0 4.15625l0.75 0q0.234375 0 0.328125 0.09375q0.109375 0.078125 0.109375 0.234375q0 0.140625 -0.109375 0.234375q-0.09375 0.09375 -0.328125 0.09375l-2.140625 0q-0.234375 0 -0.34375 -0.09375q-0.09375 -0.09375 -0.09375 -0.234375q0 -0.15625 0.09375 -0.234375q0.109375 -0.09375 0.34375 -0.09375l0.734375 0l0 -8.484375l-0.875 0q-0.234375 0 -0.34375 -0.09375q-0.09375 -0.09375 -0.09375 -0.25q0 -0.140625 0.09375 -0.234375q0.109375 -0.09375 0.34375 -0.09375l1.53125 0zm10.9765625 3.046875l0 1.65625q1.28125 -1.15625 1.921875 -1.484375q0.640625 -0.34375 1.171875 -0.34375q0.59375 0 1.09375 0.40625q0.5 0.390625 0.5 0.59375q0 0.140625 -0.09375 0.25q-0.09375 0.09375 -0.25 0.09375q-0.078125 0 -0.140625 -0.03125q-0.046875 -0.03125 -0.1875 -0.171875q-0.28125 -0.28125 -0.484375 -0.375q-0.203125 -0.109375 -0.390625 -0.109375q-0.4375 0 -1.046875 0.34375q-0.59375 0.34375 -2.09375 1.6875l0 3.59375l2.90625 0q0.25 0 0.34375 0.09375q0.109375 0.078125 0.109375 0.234375q0 0.140625 -0.109375 0.234375q-0.09375 0.09375 -0.34375 0.09375l-5.140625 0q-0.234375 0 -0.34375 -0.09375q-0.09375 -0.09375 -0.09375 -0.234375q0 -0.125 0.09375 -0.21875q0.09375 -0.09375 0.34375 -0.09375l1.578125 0l0 -5.46875l-1.203125 0q-0.234375 0 -0.34375 -0.09375q-0.09375 -0.09375 -0.09375 -0.234375q0 -0.140625 0.09375 -0.234375q0.09375 -0.09375 0.34375 -0.09375l1.859375 0zm13.9453125 3.53125l-6.6875 0q0.171875 1.28125 1.0625 2.0625q0.890625 0.765625 2.21875 0.765625q0.734375 0 1.53125 -0.234375q0.8125 -0.25 1.3125 -0.640625q0.15625 -0.125 0.265625 -0.125q0.125 0 0.21875 0.109375q0.09375 0.09375 0.09375 0.21875q0 0.140625 -0.125 0.265625q-0.375 0.390625 -1.34375 0.734375q-0.953125 0.34375 -1.953125 0.34375q-1.6875 0 -2.828125 -1.109375q-1.125 -1.109375 -1.125 -2.6875q0 -1.421875 1.0625 -2.4375q1.0625 -1.03125 2.625 -1.03125q1.609375 0 2.640625 1.046875q1.046875 1.046875 1.03125 2.71875zm-0.671875 -0.65625q-0.1875 -1.09375 -1.03125 -1.765625q-0.828125 -0.6875 -1.96875 -0.6875q-1.15625 0 -1.984375 0.671875q-0.828125 0.671875 -1.03125 1.78125l6.015625 0zm10.2734375 0.65625l-6.6875 0q0.171875 1.28125 1.0625 2.0625q0.890625 0.765625 2.21875 0.765625q0.734375 0 1.53125 -0.234375q0.8125 -0.25 1.3125 -0.640625q0.15625 -0.125 0.265625 -0.125q0.125 0 0.21875 0.109375q0.09375 0.09375 0.09375 0.21875q0 0.140625 -0.125 0.265625q-0.375 0.390625 -1.34375 0.734375q-0.953125 0.34375 -1.953125 0.34375q-1.6875 0 -2.828125 -1.109375q-1.125 -1.109375 -1.125 -2.6875q0 -1.421875 1.0625 -2.4375q1.0625 -1.03125 2.625 -1.03125q1.609375 0 2.640625 1.046875q1.046875 1.046875 1.03125 2.71875zm-0.671875 -0.65625q-0.1875 -1.09375 -1.03125 -1.765625q-0.828125 -0.6875 -1.96875 -0.6875q-1.15625 0 -1.984375 0.671875q-0.828125 0.671875 -1.03125 1.78125l6.015625 0z" fill-rule="nonzero"></path><path fill="#000000" fill-opacity="0.0" d="m286.04276 96.256l76.12598 0l0 21.543304l-76.12598 0z" fill-rule="nonzero"></path><path fill="#000000" d="m313.15652 106.122025l3.5625 0q0.234375 0 0.328125 0.09375q0.109375 0.09375 0.109375 0.234375q0 0.140625 -0.109375 0.234375q-0.09375 0.09375 -0.328125 0.09375l-3.5625 0l0 4.375q0 0.5625 0.453125 0.953125q0.46875 0.375 1.34375 0.375q0.671875 0 1.4375 -0.1875q0.78125 -0.203125 1.203125 -0.453125q0.15625 -0.109375 0.265625 -0.109375q0.125 0 0.21875 0.109375q0.09375 0.09375 0.09375 0.21875q0 0.125 -0.109375 0.21875q-0.25 0.265625 -1.21875 0.578125q-0.953125 0.296875 -1.84375 0.296875q-1.140625 0 -1.828125 -0.546875q-0.671875 -0.546875 -0.671875 -1.453125l0 -4.375l-1.21875 0q-0.234375 0 -0.34375 -0.09375q-0.09375 -0.09375 -0.09375 -0.234375q0 -0.140625 0.09375 -0.234375q0.109375 -0.09375 0.34375 -0.09375l1.21875 0l0 -1.9375q0 -0.234375 0.09375 -0.328125q0.09375 -0.109375 0.234375 -0.109375q0.140625 0 0.234375 0.109375q0.09375 0.09375 0.09375 0.328125l0 1.9375zm13.2109375 6.765625l-0.8125 0.015625l-1.4375 -4.234375l-1.4375 4.234375l-0.8125 -0.015625l-1.359375 -6.109375l-0.328125 0q-0.234375 0 -0.34375 -0.09375q-0.09375 -0.09375 -0.09375 -0.234375q0 -0.140625 0.09375 -0.234375q0.109375 -0.09375 0.34375 -0.09375l1.8125 0q0.234375 0 0.328125 0.09375q0.109375 0.09375 0.109375 0.234375q0 0.140625 -0.109375 0.234375q-0.09375 0.09375 -0.328125 0.09375l-0.84375 0l1.171875 5.203125l1.390625 -4.15625l0.78125 0l1.4375 4.15625l1.125 -5.203125l-0.828125 0q-0.234375 0 -0.34375 -0.09375q-0.109375 -0.09375 -0.109375 -0.234375q0 -0.140625 0.09375 -0.234375q0.109375 -0.09375 0.359375 -0.09375l1.796875 0q0.234375 0 0.328125 0.09375q0.109375 0.09375 0.109375 0.234375q0 0.140625 -0.109375 0.234375q-0.09375 0.09375 -0.328125 0.09375l-0.3125 0l-1.34375 6.109375zm11.0078125 -3.375q0 1.5 -1.078125 2.578125q-1.0625 1.0625 -2.578125 1.0625q-1.53125 0 -2.609375 -1.0625q-1.0625 -1.078125 -1.0625 -2.578125q0 -1.5 1.0625 -2.5625q1.078125 -1.0625 2.609375 -1.0625q1.515625 0 2.578125 1.0625q1.078125 1.0625 1.078125 2.5625zm-0.65625 0q0 -1.234375 -0.890625 -2.09375q-0.875 -0.875 -2.125 -0.875q-1.25 0 -2.125 0.875q-0.875 0.875 -0.875 2.09375q0 1.21875 0.875 2.09375q0.875 0.875 2.125 0.875q1.25 0 2.125 -0.859375q0.890625 -0.875 0.890625 -2.109375z" fill-rule="nonzero"></path><path fill="#000000" fill-opacity="0.0" d="m9.342734 23.059944l347.46457 0" fill-rule="nonzero"></path><path stroke="#000000" stroke-width="1.0" stroke-linejoin="round" stroke-linecap="butt" d="m9.342734 23.059944l347.46457 0" fill-rule="nonzero"></path><path fill="#000000" fill-opacity="0.0" d="m-2.4073691 71.996956l122.17323 0l0 21.543304l-122.17323 0z" fill-rule="nonzero"></path><path fill="#000000" d="m22.663618 79.26923l0 -0.828125q0 -0.25 0.078125 -0.34375q0.09375 -0.109375 0.25 -0.109375q0.140625 0 0.234375 0.109375q0.09375 0.09375 0.09375 0.34375l0 0.828125q0.53125 0.046875 0.875 0.171875q0.34375 0.109375 0.8125 0.421875q0 -0.1875 0.09375 -0.28125q0.09375 -0.09375 0.234375 -0.09375q0.140625 0 0.234375 0.109375q0.09375 0.09375 0.09375 0.328125l0 0.96875q0 0.234375 -0.09375 0.34375q-0.09375 0.09375 -0.234375 0.09375q-0.125 0 -0.21875 -0.078125q-0.078125 -0.078125 -0.109375 -0.28125q-0.046875 -0.359375 -0.484375 -0.65625q-0.640625 -0.421875 -1.515625 -0.421875q-0.875 0 -1.453125 0.515625q-0.578125 0.515625 -0.578125 1.15625q0 0.65625 0.515625 1.0q0.375 0.265625 1.609375 0.5q1.234375 0.21875 1.671875 0.421875q0.625 0.28125 0.921875 0.75q0.3125 0.46875 0.3125 1.125q0 0.890625 -0.703125 1.578125q-0.6875 0.671875 -1.984375 0.796875l0 1.9375q0 0.25 -0.09375 0.34375q-0.09375 0.109375 -0.234375 0.109375q-0.15625 0 -0.25 -0.109375q-0.078125 -0.09375 -0.078125 -0.34375l0 -1.9375q-1.203125 -0.078125 -2.03125 -0.78125q0 0.34375 -0.03125 0.421875q-0.015625 0.078125 -0.109375 0.140625q-0.078125 0.046875 -0.1875 0.046875q-0.140625 0 -0.234375 -0.09375q-0.09375 -0.109375 -0.09375 -0.34375l0 -1.28125q0 -0.234375 0.09375 -0.328125q0.09375 -0.109375 0.234375 -0.109375q0.140625 0 0.25 0.09375q0.0625 0.078125 0.078125 0.3125q0.046875 0.421875 0.671875 0.859375q0.625 0.421875 1.6875 0.421875q1.09375 0 1.71875 -0.515625q0.640625 -0.53125 0.640625 -1.21875q0 -0.46875 -0.234375 -0.796875q-0.234375 -0.328125 -0.734375 -0.53125q-0.328125 -0.140625 -1.375 -0.328125q-1.515625 -0.296875 -2.09375 -0.765625q-0.59375 -0.46875 -0.59375 -1.375q0 -0.84375 0.640625 -1.5q0.640625 -0.671875 1.703125 -0.796875zm13.117189 0.875l0 5.484375q0 1.375 -0.921875 2.328125q-0.921875 0.9375 -2.234375 0.9375q-0.8750019 0 -1.5625019 -0.390625q-0.671875 -0.390625 -1.15625 -1.15625q-0.46875 -0.78125 -0.46875 -1.71875l0 -5.484375l-0.546875 0q-0.234375 0 -0.34375 -0.09375q-0.09375 -0.09375 -0.09375 -0.234375q0 -0.15625 0.109375 -0.25q0.09375 -0.078125 0.328125 -0.078125l2.421875 0q0.234375 0 0.328125 0.09375q0.109375 0.078125 0.109375 0.234375q0 0.140625 -0.109375 0.234375q-0.09375 0.09375 -0.328125 0.09375l-1.21875 0l0 5.484375q0 1.078125 0.734375 1.84375q0.75 0.75 1.7656269 0.75q0.65625 0 1.1875 -0.296875q0.53125 -0.296875 0.9375 -0.90625q0.40625 -0.625 0.40625 -1.390625l0 -5.484375l-1.21875 0q-0.234375 0 -0.34375 -0.09375q-0.09375 -0.09375 -0.09375 -0.234375q0 -0.15625 0.09375 -0.234375q0.109375 -0.09375 0.34375 -0.09375l2.421875 0q0.234375 0 0.328125 0.09375q0.109375 0.078125 0.109375 0.234375q0 0.140625 -0.109375 0.234375q-0.09375 0.09375 -0.328125 0.09375l-0.546875 0zm4.3046875 1.71875l0 0.984375q0.6875 -0.6875 1.234375 -0.953125q0.5625 -0.265625 1.25 -0.265625q0.75 0 1.375 0.3125q0.4375 0.234375 0.78125 0.78125q0.359375 0.546875 0.359375 1.109375l0 4.140625l0.5625 0q0.234375 0 0.328125 0.09375q0.109375 0.078125 0.109375 0.234375q0 0.140625 -0.109375 0.234375q-0.09375 0.09375 -0.328125 0.09375l-1.765625 0q-0.234375 0 -0.34375 -0.09375q-0.09375 -0.09375 -0.09375 -0.234375q0 -0.15625 0.09375 -0.234375q0.109375 -0.09375 0.34375 -0.09375l0.546875 0l0 -4.03125q0 -0.6875 -0.515625 -1.171875q-0.5 -0.484375 -1.34375 -0.484375q-0.65625 0 -1.140625 0.265625q-0.46875 0.265625 -1.34375 1.296875l0 4.125l0.734375 0q0.234375 0 0.328125 0.09375q0.109375 0.078125 0.109375 0.234375q0 0.140625 -0.109375 0.234375q-0.09375 0.09375 -0.328125 0.09375l-2.140625 0q-0.234375 0 -0.34375 -0.09375q-0.09375 -0.09375 -0.09375 -0.234375q0 -0.15625 0.09375 -0.234375q0.109375 -0.09375 0.34375 -0.09375l0.75 0l0 -5.453125l-0.5625 0q-0.234375 0 -0.34375 -0.09375q-0.09375 -0.09375 -0.09375 -0.234375q0 -0.140625 0.09375 -0.234375q0.109375 -0.09375 0.34375 -0.09375l1.21875 0zm15.7265625 2.21875q0 1.3125 -0.53125 2.4375q-0.53125 1.109375 -1.46875 1.75q-0.921875 0.625 -2.0 0.625q-1.578125 0 -2.796875 -1.34375q-1.203125 -1.359375 -1.203125 -3.46875q0 -2.125 1.203125 -3.46875q1.21875 -1.34375 2.796875 -1.34375q1.078125 0 2.0 0.625q0.9375 0.625 1.46875 1.75q0.53125 1.109375 0.53125 2.4375zm-0.65625 0q0 -1.609375 -0.9375 -2.875q-0.921875 -1.28125 -2.40625 -1.28125q-1.375 0 -2.359375 1.21875q-0.984375 1.21875 -0.984375 2.9375q0 1.828125 1.03125 2.984375q1.03125 1.15625 2.3125 1.15625q1.484375 0 2.40625 -1.265625q0.9375 -1.265625 0.9375 -2.875zm3.7734375 -2.21875l0 1.1875q0.59375 -0.703125 1.265625 -1.0625q0.671875 -0.359375 1.5781212 -0.359375q0.96875 0 1.78125 0.453125q0.8281212 0.453125 1.2812462 1.265625q0.453125 0.796875 0.453125 1.6875q0 1.421875 -1.015625 2.421875q-1.0156212 1.0 -2.4843712 1.0q-1.7656212 0 -2.8593712 -1.421875l0 3.953125l1.59375 0q0.234375 0 0.328125 0.09375q0.109375 0.09375 0.109375 0.234375q0 0.140625 -0.109375 0.234375q-0.09375 0.09375 -0.328125 0.09375l-3.125 0q-0.234375 0 -0.34375 -0.09375q-0.09375 -0.078125 -0.09375 -0.234375q0 -0.140625 0.09375 -0.234375q0.109375 -0.09375 0.34375 -0.09375l0.875 0l0 -8.46875l-0.875 0q-0.234375 0 -0.34375 -0.09375q-0.09375 -0.09375 -0.09375 -0.234375q0 -0.140625 0.09375 -0.234375q0.109375 -0.09375 0.34375 -0.09375l1.53125 0zm5.6874924 3.171875q0 -1.125 -0.8281212 -1.9375q-0.8125 -0.8125 -2.0 -0.8125q-1.2031212 0 -2.0312462 0.8125q-0.828125 0.8125 -0.828125 1.9375q0 1.140625 0.828125 1.953125q0.828125 0.8125 2.0312462 0.8125q1.171875 0 2.0 -0.8125q0.8281212 -0.8125 0.8281212 -1.953125z" fill-rule="nonzero"></path><path fill="#000000" d="m75.49955 79.48798l0 10.515625l1.59375 0q0.234375 0 0.328125 0.078125q0.109375 0.09375 0.109375 0.25q0 0.140625 -0.109375 0.234375q-0.09375 0.09375 -0.328125 0.09375l-2.25 0l0 -11.84375l2.25 0q0.234375 0 0.328125 0.09375q0.109375 0.09375 0.109375 0.25q0 0.140625 -0.109375 0.234375q-0.09375 0.09375 -0.328125 0.09375l-1.59375 0zm12.3046875 3.921875q0.125 0 0.21875 0.09375q0.09375 0.09375 0.09375 0.21875q0 0.265625 -0.6875 0.90625q-0.671875 0.625 -1.25 0.625q-0.34375 0 -0.703125 -0.203125q-0.359375 -0.203125 -1.03125 -0.828125q-0.4375 -0.421875 -0.671875 -0.546875q-0.234375 -0.140625 -0.421875 -0.140625q-0.21875 0 -0.421875 0.125q-0.28125 0.15625 -0.75 0.71875q-0.234375 0.25 -0.296875 0.296875q-0.0625 0.03125 -0.140625 0.03125q-0.140625 0 -0.234375 -0.078125q-0.078125 -0.09375 -0.078125 -0.234375q0 -0.125 0.203125 -0.375q0.515625 -0.640625 0.921875 -0.890625q0.40625 -0.25 0.78125 -0.25q0.328125 0 0.640625 0.15625q0.3125 0.15625 0.796875 0.59375q0.796875 0.734375 0.984375 0.84375q0.1875 0.109375 0.375 0.109375q0.5625 0 1.1875 -0.796875q0.21875 -0.28125 0.296875 -0.328125q0.078125 -0.046875 0.1875 -0.046875zm6.2578125 6.59375l0 -10.515625l-1.59375 0q-0.234375 0 -0.34375 -0.09375q-0.09375 -0.09375 -0.09375 -0.234375q0 -0.15625 0.09375 -0.25q0.109375 -0.09375 0.34375 -0.09375l2.25 0l0 11.84375l-2.25 0q-0.234375 0 -0.34375 -0.09375q-0.09375 -0.09375 -0.09375 -0.234375q0 -0.140625 0.09375 -0.234375q0.109375 -0.09375 0.34375 -0.09375l1.59375 0z" fill-rule="nonzero"></path><path fill="#000000" fill-opacity="0.0" d="m172.84132 72.2568l128.25197 0l0 21.543304l-128.25197 0z" fill-rule="nonzero"></path><path fill="#000000" d="m196.1509 79.529076l0 -0.828125q0 -0.25 0.078125 -0.34375q0.09375 -0.109375 0.25 -0.109375q0.140625 0 0.234375 0.109375q0.09375 0.09375 0.09375 0.34375l0 0.828125q0.53125 0.046875 0.875 0.171875q0.34375 0.109375 0.8125 0.421875q0 -0.1875 0.09375 -0.28125q0.09375 -0.09375 0.234375 -0.09375q0.140625 0 0.234375 0.109375q0.09375 0.09375 0.09375 0.328125l0 0.96875q0 0.234375 -0.09375 0.34375q-0.09375 0.09375 -0.234375 0.09375q-0.125 0 -0.21875 -0.078125q-0.078125 -0.078125 -0.109375 -0.28125q-0.046875 -0.359375 -0.484375 -0.65625q-0.640625 -0.421875 -1.515625 -0.421875q-0.875 0 -1.453125 0.515625q-0.578125 0.515625 -0.578125 1.15625q0 0.65625 0.515625 1.0q0.375 0.265625 1.609375 0.5q1.234375 0.21875 1.671875 0.421875q0.625 0.28125 0.921875 0.75q0.3125 0.46875 0.3125 1.125q0 0.890625 -0.703125 1.578125q-0.6875 0.671875 -1.984375 0.796875l0 1.9375q0 0.25 -0.09375 0.34375q-0.09375 0.109375 -0.234375 0.109375q-0.15625 0 -0.25 -0.109375q-0.078125 -0.09375 -0.078125 -0.34375l0 -1.9375q-1.203125 -0.078125 -2.03125 -0.78125q0 0.34375 -0.03125 0.421875q-0.015625 0.078125 -0.109375 0.140625q-0.078125 0.046875 -0.1875 0.046875q-0.140625 0 -0.234375 -0.09375q-0.09375 -0.109375 -0.09375 -0.34375l0 -1.28125q0 -0.234375 0.09375 -0.328125q0.09375 -0.109375 0.234375 -0.109375q0.140625 0 0.25 0.09375q0.0625 0.078125 0.078125 0.3125q0.046875 0.421875 0.671875 0.859375q0.625 0.421875 1.6875 0.421875q1.09375 0 1.71875 -0.515625q0.640625 -0.53125 0.640625 -1.21875q0 -0.46875 -0.234375 -0.796875q-0.234375 -0.328125 -0.734375 -0.53125q-0.328125 -0.140625 -1.375 -0.328125q-1.515625 -0.296875 -2.09375 -0.765625q-0.59375 -0.46875 -0.59375 -1.375q0 -0.84375 0.640625 -1.5q0.640625 -0.671875 1.703125 -0.796875zm7.1328125 8.703125l0 -7.828125l-0.875 0q-0.234375 0 -0.34375 -0.09375q-0.09375 -0.09375 -0.09375 -0.234375q0 -0.15625 0.09375 -0.234375q0.109375 -0.09375 0.34375 -0.09375l4.125 0q1.21875 0 1.984375 0.703125q0.78125 0.703125 0.78125 1.65625q0 1.203125 -1.296875 1.953125q1.03125 0.359375 1.5 0.96875q0.484375 0.609375 0.484375 1.34375q0 0.65625 -0.3125 1.203125q-0.3125 0.546875 -0.96875 0.9375q-0.640625 0.375 -1.390625 0.375l-4.90625 0q-0.234375 0 -0.34375 -0.09375q-0.09375 -0.09375 -0.09375 -0.234375q0 -0.15625 0.09375 -0.234375q0.109375 -0.09375 0.34375 -0.09375l0.875 0zm0.65625 -4.421875l2.328125 0q0.734375 0 1.359375 -0.28125q0.46875 -0.21875 0.734375 -0.625q0.265625 -0.421875 0.265625 -0.84375q0 -0.625 -0.578125 -1.140625q-0.578125 -0.515625 -1.5 -0.515625l-2.609375 0l0 3.40625zm0 4.421875l3.328125 0q0.625 0 1.09375 -0.28125q0.46875 -0.28125 0.703125 -0.6875q0.25 -0.421875 0.25 -0.875q0 -0.5 -0.34375 -0.96875q-0.34375 -0.46875 -0.96875 -0.703125q-0.609375 -0.25 -1.703125 -0.25l-2.359375 0l0 3.765625zm12.0703125 -9.484375l0 1.703125l-0.96875 0l0 -1.703125l0.96875 0zm0.03125 3.375l0 6.109375l2.578125 0q0.234375 0 0.328125 0.09375q0.109375 0.078125 0.109375 0.234375q0 0.140625 -0.109375 0.234375q-0.09375 0.09375 -0.328125 0.09375l-5.8125 0q-0.234375 0 -0.34375 -0.09375q-0.09375 -0.09375 -0.09375 -0.234375q0 -0.15625 0.09375 -0.234375q0.109375 -0.09375 0.34375 -0.09375l2.578125 0l0 -5.453125l-1.921875 0q-0.234375 0 -0.34375 -0.09375q-0.09375 -0.09375 -0.09375 -0.234375q0 -0.140625 0.09375 -0.234375q0.109375 -0.09375 0.34375 -0.09375l2.578125 0zm7.1328125 0l0 0.984375q0.6875 -0.6875 1.234375 -0.953125q0.5625 -0.265625 1.25 -0.265625q0.75 0 1.375 0.3125q0.4375 0.234375 0.78125 0.78125q0.359375 0.546875 0.359375 1.109375l0 4.140625l0.5625 0q0.234375 0 0.328125 0.09375q0.109375 0.078125 0.109375 0.234375q0 0.140625 -0.109375 0.234375q-0.09375 0.09375 -0.328125 0.09375l-1.765625 0q-0.234375 0 -0.34375 -0.09375q-0.09375 -0.09375 -0.09375 -0.234375q0 -0.15625 0.09375 -0.234375q0.109375 -0.09375 0.34375 -0.09375l0.546875 0l0 -4.03125q0 -0.6875 -0.515625 -1.171875q-0.5 -0.484375 -1.34375 -0.484375q-0.65625 0 -1.140625 0.265625q-0.46875 0.265625 -1.34375 1.296875l0 4.125l0.734375 0q0.234375 0 0.328125 0.09375q0.109375 0.078125 0.109375 0.234375q0 0.140625 -0.109375 0.234375q-0.09375 0.09375 -0.328125 0.09375l-2.140625 0q-0.234375 0 -0.34375 -0.09375q-0.09375 -0.09375 -0.09375 -0.234375q0 -0.15625 0.09375 -0.234375q0.109375 -0.09375 0.34375 -0.09375l0.75 0l0 -5.453125l-0.5625 0q-0.234375 0 -0.34375 -0.09375q-0.09375 -0.09375 -0.09375 -0.234375q0 -0.140625 0.09375 -0.234375q0.109375 -0.09375 0.34375 -0.09375l1.21875 0zm15.7265625 2.21875q0 1.3125 -0.53125 2.4375q-0.53125 1.109375 -1.46875 1.75q-0.921875 0.625 -2.0 0.625q-1.578125 0 -2.796875 -1.34375q-1.203125 -1.359375 -1.203125 -3.46875q0 -2.125 1.203125 -3.46875q1.21875 -1.34375 2.796875 -1.34375q1.078125 0 2.0 0.625q0.9375 0.625 1.46875 1.75q0.53125 1.109375 0.53125 2.4375zm-0.65625 0q0 -1.609375 -0.9375 -2.875q-0.921875 -1.28125 -2.40625 -1.28125q-1.375 0 -2.359375 1.21875q-0.984375 1.21875 -0.984375 2.9375q0 1.828125 1.03125 2.984375q1.03125 1.15625 2.3125 1.15625q1.484375 0 2.40625 -1.265625q0.9375 -1.265625 0.9375 -2.875zm3.7734375 -2.21875l0 1.1875q0.59375 -0.703125 1.265625 -1.0625q0.671875 -0.359375 1.578125 -0.359375q0.96875 0 1.78125 0.453125q0.828125 0.453125 1.28125 1.265625q0.453125 0.796875 0.453125 1.6875q0 1.421875 -1.015625 2.421875q-1.015625 1.0 -2.484375 1.0q-1.765625 0 -2.859375 -1.421875l0 3.953125l1.59375 0q0.234375 0 0.328125 0.09375q0.109375 0.09375 0.109375 0.234375q0 0.140625 -0.109375 0.234375q-0.09375 0.09375 -0.328125 0.09375l-3.125 0q-0.234375 0 -0.34375 -0.09375q-0.09375 -0.078125 -0.09375 -0.234375q0 -0.140625 0.09375 -0.234375q0.109375 -0.09375 0.34375 -0.09375l0.875 0l0 -8.46875l-0.875 0q-0.234375 0 -0.34375 -0.09375q-0.09375 -0.09375 -0.09375 -0.234375q0 -0.140625 0.09375 -0.234375q0.109375 -0.09375 0.34375 -0.09375l1.53125 0zm5.6875 3.171875q0 -1.125 -0.828125 -1.9375q-0.8125 -0.8125 -2.0 -0.8125q-1.203125 0 -2.03125 0.8125q-0.828125 0.8125 -0.828125 1.9375q0 1.140625 0.828125 1.953125q0.828125 0.8125 2.03125 0.8125q1.171875 0 2.0 -0.8125q0.828125 -0.8125 0.828125 -1.953125z" fill-rule="nonzero"></path><path fill="#000000" d="m258.5884 79.747826l0 10.515625l1.59375 0q0.234375 0 0.328125 0.078125q0.109375 0.09375 0.109375 0.25q0 0.140625 -0.109375 0.234375q-0.09375 0.09375 -0.328125 0.09375l-2.25 0l0 -11.84375l2.25 0q0.234375 0 0.328125 0.09375q0.109375 0.09375 0.109375 0.25q0 0.140625 -0.109375 0.234375q-0.09375 0.09375 -0.328125 0.09375l-1.59375 0zm12.6171875 4.140625l0 0.9375l-6.703125 0l0 -0.9375l6.703125 0zm5.9453125 6.375l0 -10.515625l-1.59375 0q-0.234375 0 -0.34375 -0.09375q-0.09375 -0.09375 -0.09375 -0.234375q0 -0.15625 0.09375 -0.25q0.109375 -0.09375 0.34375 -0.09375l2.25 0l0 11.84375l-2.25 0q-0.234375 0 -0.34375 -0.09375q-0.09375 -0.09375 -0.09375 -0.234375q0 -0.140625 0.09375 -0.234375q0.109375 -0.09375 0.34375 -0.09375l1.59375 0z" fill-rule="nonzero"></path><path fill="#000000" fill-opacity="0.0" d="m107.8761 72.255486l76.12598 0l0 21.543304l-76.12598 0z" fill-rule="nonzero"></path><path fill="#000000" d="m124.325806 79.52776l0 -0.828125q0 -0.25 0.078125 -0.34375q0.09375 -0.109375 0.25 -0.109375q0.140625 0 0.234375 0.109375q0.09375 0.09375 0.09375 0.34375l0 0.828125q0.53125 0.046875 0.875 0.171875q0.34375 0.109375 0.8125 0.421875q0 -0.1875 0.09375 -0.28125q0.09375 -0.09375 0.234375 -0.09375q0.140625 0 0.234375 0.109375q0.09375 0.09375 0.09375 0.328125l0 0.96875q0 0.234375 -0.09375 0.34375q-0.09375 0.09375 -0.234375 0.09375q-0.125 0 -0.21875 -0.078125q-0.078125 -0.078125 -0.109375 -0.28125q-0.046875 -0.359375 -0.484375 -0.65625q-0.640625 -0.421875 -1.515625 -0.421875q-0.875 0 -1.453125 0.515625q-0.578125 0.515625 -0.578125 1.15625q0 0.65625 0.515625 1.0q0.375 0.265625 1.609375 0.5q1.234375 0.21875 1.671875 0.421875q0.625 0.28125 0.921875 0.75q0.3125 0.46875 0.3125 1.125q0 0.890625 -0.703125 1.578125q-0.6875 0.671875 -1.984375 0.796875l0 1.9375q0 0.25 -0.09375 0.34375q-0.09375 0.109375 -0.234375 0.109375q-0.15625 0 -0.25 -0.109375q-0.078125 -0.09375 -0.078125 -0.34375l0 -1.9375q-1.203125 -0.078125 -2.03125 -0.78125q0 0.34375 -0.03125 0.421875q-0.015625 0.078125 -0.109375 0.140625q-0.078125 0.046875 -0.1875 0.046875q-0.140625 0 -0.234375 -0.09375q-0.09375 -0.109375 -0.09375 -0.34375l0 -1.28125q0 -0.234375 0.09375 -0.328125q0.09375 -0.109375 0.234375 -0.109375q0.140625 0 0.25 0.09375q0.0625 0.078125 0.078125 0.3125q0.046875 0.421875 0.671875 0.859375q0.625 0.421875 1.6875 0.421875q1.09375 0 1.71875 -0.515625q0.640625 -0.53125 0.640625 -1.21875q0 -0.46875 -0.234375 -0.796875q-0.234375 -0.328125 -0.734375 -0.53125q-0.328125 -0.140625 -1.375 -0.328125q-1.515625 -0.296875 -2.09375 -0.765625q-0.59375 -0.46875 -0.59375 -1.375q0 -0.84375 0.640625 -1.5q0.640625 -0.671875 1.703125 -0.796875zm7.8046875 4.9375l0 3.765625l5.046875 0l0 -1.9375q0 -0.234375 0.078125 -0.328125q0.09375 -0.109375 0.25 -0.109375q0.140625 0 0.234375 0.109375q0.09375 0.09375 0.09375 0.328125l0 2.59375l-7.25 0q-0.234375 0 -0.34375 -0.09375q-0.09375 -0.09375 -0.09375 -0.234375q0 -0.15625 0.09375 -0.234375q0.109375 -0.09375 0.34375 -0.09375l0.890625 0l0 -7.828125l-0.890625 0q-0.234375 0 -0.34375 -0.09375q-0.09375 -0.09375 -0.09375 -0.234375q0 -0.15625 0.09375 -0.234375q0.109375 -0.09375 0.34375 -0.09375l6.90625 0l0 2.25q0 0.234375 -0.09375 0.34375q-0.09375 0.09375 -0.234375 0.09375q-0.15625 0 -0.25 -0.09375q-0.078125 -0.109375 -0.078125 -0.34375l0 -1.59375l-4.703125 0l0 3.40625l2.34375 0l0 -0.734375q0 -0.234375 0.09375 -0.328125q0.09375 -0.109375 0.25 -0.109375q0.140625 0 0.234375 0.109375q0.09375 0.09375 0.09375 0.328125l0 2.140625q0 0.234375 -0.09375 0.34375q-0.09375 0.09375 -0.234375 0.09375q-0.15625 0 -0.25 -0.09375q-0.09375 -0.109375 -0.09375 -0.34375l0 -0.75l-2.34375 0z" fill-rule="nonzero"></path><path fill="#000000" d="m148.35706 79.74651l0 10.515625l1.59375 0q0.234375 0 0.328125 0.078125q0.109375 0.09375 0.109375 0.25q0 0.140625 -0.109375 0.234375q-0.09375 0.09375 -0.328125 0.09375l-2.25 0l0 -11.84375l2.25 0q0.234375 0 0.328125 0.09375q0.109375 0.09375 0.109375 0.25q0 0.140625 -0.109375 0.234375q-0.09375 0.09375 -0.328125 0.09375l-1.59375 0zm10.6171875 3.796875q0.90625 0.40625 1.375 1.125q0.484375 0.703125 0.484375 1.46875q0 1.171875 -0.96875 2.078125q-0.953125 0.90625 -2.390625 0.90625q-0.84375 0 -1.75 -0.359375q-0.90625 -0.359375 -1.265625 -0.734375q-0.109375 -0.125 -0.109375 -0.265625q0 -0.125 0.078125 -0.21875q0.09375 -0.09375 0.21875 -0.09375q0.125 0 0.28125 0.109375q1.21875 0.90625 2.5625 0.90625q1.140625 0 1.90625 -0.71875q0.78125 -0.71875 0.78125 -1.59375q0 -0.578125 -0.390625 -1.140625q-0.375 -0.5625 -1.09375 -0.890625q-0.703125 -0.328125 -1.421875 -0.328125q-0.234375 0 -0.34375 -0.078125q-0.09375 -0.09375 -0.09375 -0.25q0 -0.140625 0.09375 -0.234375q0.09375 -0.09375 0.296875 -0.09375l0.5625 0.015625q0.875 0 1.453125 -0.53125q0.578125 -0.546875 0.578125 -1.265625q0 -0.734375 -0.609375 -1.296875q-0.59375 -0.5625 -1.5625 -0.5625q-0.6875 0 -1.265625 0.234375q-0.5625 0.234375 -0.90625 0.640625q-0.125 0.15625 -0.1875 0.203125q-0.0625 0.03125 -0.15625 0.03125q-0.125 0 -0.21875 -0.09375q-0.09375 -0.09375 -0.09375 -0.21875q0 -0.3125 0.671875 -0.78125q0.953125 -0.671875 2.15625 -0.671875q1.234375 0 2.03125 0.75q0.796875 0.75 0.796875 1.78125q0 0.65625 -0.390625 1.25q-0.375 0.578125 -1.109375 0.921875zm7.9453125 6.71875l0 -10.515625l-1.59375 0q-0.234375 0 -0.34375 -0.09375q-0.09375 -0.09375 -0.09375 -0.234375q0 -0.15625 0.09375 -0.25q0.109375 -0.09375 0.34375 -0.09375l2.25 0l0 11.84375l-2.25 0q-0.234375 0 -0.34375 -0.09375q-0.09375 -0.09375 -0.09375 -0.234375q0 -0.140625 0.09375 -0.234375q0.109375 -0.09375 0.34375 -0.09375l1.59375 0z" fill-rule="nonzero"></path><path fill="#000000" fill-opacity="0.0" d="m286.04276 72.255486l76.12598 0l0 21.543304l-76.12598 0z" fill-rule="nonzero"></path><path fill="#000000" d="m302.49246 79.52776l0 -0.828125q0 -0.25 0.078125 -0.34375q0.09375 -0.109375 0.25 -0.109375q0.140625 0 0.234375 0.109375q0.09375 0.09375 0.09375 0.34375l0 0.828125q0.53125 0.046875 0.875 0.171875q0.34375 0.109375 0.8125 0.421875q0 -0.1875 0.09375 -0.28125q0.09375 -0.09375 0.234375 -0.09375q0.140625 0 0.234375 0.109375q0.09375 0.09375 0.09375 0.328125l0 0.96875q0 0.234375 -0.09375 0.34375q-0.09375 0.09375 -0.234375 0.09375q-0.125 0 -0.21875 -0.078125q-0.078125 -0.078125 -0.109375 -0.28125q-0.046875 -0.359375 -0.484375 -0.65625q-0.640625 -0.421875 -1.515625 -0.421875q-0.875 0 -1.453125 0.515625q-0.578125 0.515625 -0.578125 1.15625q0 0.65625 0.515625 1.0q0.375 0.265625 1.609375 0.5q1.234375 0.21875 1.671875 0.421875q0.625 0.28125 0.921875 0.75q0.3125 0.46875 0.3125 1.125q0 0.890625 -0.703125 1.578125q-0.6875 0.671875 -1.984375 0.796875l0 1.9375q0 0.25 -0.09375 0.34375q-0.09375 0.109375 -0.234375 0.109375q-0.15625 0 -0.25 -0.109375q-0.078125 -0.09375 -0.078125 -0.34375l0 -1.9375q-1.203125 -0.078125 -2.03125 -0.78125q0 0.34375 -0.03125 0.421875q-0.015625 0.078125 -0.109375 0.140625q-0.078125 0.046875 -0.1875 0.046875q-0.140625 0 -0.234375 -0.09375q-0.09375 -0.109375 -0.09375 -0.34375l0 -1.28125q0 -0.234375 0.09375 -0.328125q0.09375 -0.109375 0.234375 -0.109375q0.140625 0 0.25 0.09375q0.0625 0.078125 0.078125 0.3125q0.046875 0.421875 0.671875 0.859375q0.625 0.421875 1.6875 0.421875q1.09375 0 1.71875 -0.515625q0.640625 -0.53125 0.640625 -1.21875q0 -0.46875 -0.234375 -0.796875q-0.234375 -0.328125 -0.734375 -0.53125q-0.328125 -0.140625 -1.375 -0.328125q-1.515625 -0.296875 -2.09375 -0.765625q-0.59375 -0.46875 -0.59375 -1.375q0 -0.84375 0.640625 -1.5q0.640625 -0.671875 1.703125 -0.796875zm7.8046875 4.9375l0 3.765625l5.046875 0l0 -1.9375q0 -0.234375 0.078125 -0.328125q0.09375 -0.109375 0.25 -0.109375q0.140625 0 0.234375 0.109375q0.09375 0.09375 0.09375 0.328125l0 2.59375l-7.25 0q-0.234375 0 -0.34375 -0.09375q-0.09375 -0.09375 -0.09375 -0.234375q0 -0.15625 0.09375 -0.234375q0.109375 -0.09375 0.34375 -0.09375l0.890625 0l0 -7.828125l-0.890625 0q-0.234375 0 -0.34375 -0.09375q-0.09375 -0.09375 -0.09375 -0.234375q0 -0.15625 0.09375 -0.234375q0.109375 -0.09375 0.34375 -0.09375l6.90625 0l0 2.25q0 0.234375 -0.09375 0.34375q-0.09375 0.09375 -0.234375 0.09375q-0.15625 0 -0.25 -0.09375q-0.078125 -0.109375 -0.078125 -0.34375l0 -1.59375l-4.703125 0l0 3.40625l2.34375 0l0 -0.734375q0 -0.234375 0.09375 -0.328125q0.09375 -0.109375 0.25 -0.109375q0.140625 0 0.234375 0.109375q0.09375 0.09375 0.09375 0.328125l0 2.140625q0 0.234375 -0.09375 0.34375q-0.09375 0.09375 -0.234375 0.09375q-0.15625 0 -0.25 -0.09375q-0.09375 -0.109375 -0.09375 -0.34375l0 -0.75l-2.34375 0z" fill-rule="nonzero"></path><path fill="#000000" d="m326.5237 79.74651l0 10.515625l1.59375 0q0.234375 0 0.328125 0.078125q0.109375 0.09375 0.109375 0.25q0 0.140625 -0.109375 0.234375q-0.09375 0.09375 -0.328125 0.09375l-2.25 0l0 -11.84375l2.25 0q0.234375 0 0.328125 0.09375q0.109375 0.09375 0.109375 0.25q0 0.140625 -0.109375 0.234375q-0.09375 0.09375 -0.328125 0.09375l-1.59375 0zm6.4453125 8.484375l5.03125 0l0 -0.265625q0 -0.234375 0.09375 -0.328125q0.09375 -0.109375 0.25 -0.109375q0.140625 0 0.234375 0.109375q0.09375 0.09375 0.09375 0.328125l0 0.921875l-6.34375 0l0 -0.96875q2.0 -1.796875 3.890625 -3.65625q0.875 -0.875 1.203125 -1.28125q0.328125 -0.40625 0.453125 -0.703125q0.125 -0.3125 0.125 -0.625q0 -0.84375 -0.6875 -1.484375q-0.671875 -0.65625 -1.640625 -0.65625q-0.859375 0 -1.53125 0.5q-0.65625 0.484375 -0.84375 1.203125q-0.046875 0.1875 -0.125 0.25q-0.09375 0.078125 -0.21875 0.078125q-0.125 0 -0.21875 -0.09375q-0.09375 -0.09375 -0.09375 -0.21875q0 -0.375 0.40625 -1.015625q0.421875 -0.640625 1.140625 -1.0q0.71875 -0.375 1.484375 -0.375q1.21875 0 2.09375 0.859375q0.890625 0.84375 0.890625 1.921875q0 0.453125 -0.15625 0.84375q-0.140625 0.375 -0.5 0.828125q-0.34375 0.4375 -1.265625 1.34375q-2.3125 2.28125 -3.765625 3.546875l0 0.046875zm12.1171875 2.03125l0 -10.515625l-1.59375 0q-0.234375 0 -0.34375 -0.09375q-0.09375 -0.09375 -0.09375 -0.234375q0 -0.15625 0.09375 -0.25q0.109375 -0.09375 0.34375 -0.09375l2.25 0l0 11.84375l-2.25 0q-0.234375 0 -0.34375 -0.09375q-0.09375 -0.09375 -0.09375 -0.234375q0 -0.140625 0.09375 -0.234375q0.109375 -0.09375 0.34375 -0.09375l1.59375 0z" fill-rule="nonzero"></path><path fill="#000000" fill-opacity="0.0" d="m9.55838 94.798454l98.20473 0" fill-rule="nonzero"></path><path stroke="#000000" stroke-width="1.0" stroke-linejoin="round" stroke-linecap="butt" d="m9.55838 94.798454l98.20473 0" fill-rule="nonzero"></path><path fill="#000000" fill-opacity="0.0" d="m114.30509 95.058464l63.212593 0" fill-rule="nonzero"></path><path stroke="#000000" stroke-width="1.0" stroke-linejoin="round" stroke-linecap="butt" d="m114.30509 95.058464l63.212593 0" fill-rule="nonzero"></path><path fill="#000000" fill-opacity="0.0" d="m9.502736 71.21742l168.0 0" fill-rule="nonzero"></path><path stroke="#000000" stroke-width="1.0" stroke-linejoin="round" stroke-linecap="butt" d="m9.502736 71.21742l168.0 0" fill-rule="nonzero"></path><path fill="#000000" fill-opacity="0.0" d="m9.342631 48.256794l167.81102 0l0 21.543308l-167.81102 0z" fill-rule="nonzero"></path><path fill="#000000" d="m49.70908 55.52907l0 -0.828125q0 -0.25 0.078125 -0.34375q0.09375 -0.109375 0.25 -0.109375q0.140625 0 0.234375 0.109375q0.09375 0.09375 0.09375 0.34375l0 0.828125q0.53125 0.046875 0.875 0.171875q0.34375 0.109375 0.8125 0.421875q0 -0.1875 0.09375 -0.28125q0.09375 -0.09375 0.234375 -0.09375q0.140625 0 0.234375 0.109375q0.09375 0.09375 0.09375 0.328125l0 0.96875q0 0.234375 -0.09375 0.34375q-0.09375 0.09375 -0.234375 0.09375q-0.125 0 -0.21875 -0.078125q-0.078125 -0.078125 -0.109375 -0.28125q-0.046875 -0.359375 -0.484375 -0.65625q-0.640625 -0.421875 -1.515625 -0.421875q-0.875 0 -1.453125 0.515625q-0.578125 0.515625 -0.578125 1.15625q0 0.65625 0.515625 1.0q0.375 0.265625 1.609375 0.5q1.234375 0.21875 1.671875 0.421875q0.625 0.28125 0.921875 0.75q0.3125 0.46875 0.3125 1.125q0 0.890625 -0.703125 1.578125q-0.6875 0.671875 -1.984375 0.796875l0 1.9375038q0 0.25 -0.09375 0.34375q-0.09375 0.109375 -0.234375 0.109375q-0.15625 0 -0.25 -0.109375q-0.078125 -0.09375 -0.078125 -0.34375l0 -1.9375038q-1.203125 -0.078125 -2.03125 -0.78125q0 0.34375 -0.03125 0.421875q-0.015625 0.078125 -0.109375 0.140625q-0.078125 0.046875 -0.1875 0.046875q-0.140625 0 -0.234375 -0.09375q-0.09375 -0.109375 -0.09375 -0.34375l0 -1.28125q0 -0.234375 0.09375 -0.328125q0.09375 -0.109375 0.234375 -0.109375q0.140625 0 0.25 0.09375q0.0625 0.078125 0.078125 0.3125q0.046875 0.421875 0.671875 0.859375q0.625 0.421875 1.6875 0.421875q1.09375 0 1.71875 -0.515625q0.640625 -0.53125 0.640625 -1.21875q0 -0.46875 -0.234375 -0.796875q-0.234375 -0.328125 -0.734375 -0.53125q-0.328125 -0.140625 -1.375 -0.328125q-1.515625 -0.296875 -2.09375 -0.765625q-0.59375 -0.46875 -0.59375 -1.375q0 -0.84375 0.640625 -1.5q0.640625 -0.671875 1.703125 -0.796875zm7.8046875 4.9375l0 3.7656288l5.046875 0l0 -1.9375038q0 -0.234375 0.078125 -0.328125q0.09375 -0.109375 0.25 -0.109375q0.140625 0 0.234375 0.109375q0.09375 0.09375 0.09375 0.328125l0 2.5937538l-7.25 0q-0.234375 0 -0.34375 -0.09375q-0.09375 -0.09375 -0.09375 -0.234375q0 -0.15625 0.09375 -0.234375q0.109375 -0.09375 0.34375 -0.09375l0.890625 0l0 -7.828129l-0.890625 0q-0.234375 0 -0.34375 -0.09375q-0.09375 -0.09375 -0.09375 -0.234375q0 -0.15625 0.09375 -0.234375q0.109375 -0.09375 0.34375 -0.09375l6.90625 0l0 2.25q0 0.234375 -0.09375 0.34375q-0.09375 0.09375 -0.234375 0.09375q-0.15625 0 -0.25 -0.09375q-0.078125 -0.109375 -0.078125 -0.34375l0 -1.59375l-4.703125 0l0 3.40625l2.34375 0l0 -0.734375q0 -0.234375 0.09375 -0.328125q0.09375 -0.109375 0.25 -0.109375q0.140625 0 0.234375 0.109375q0.09375 0.09375 0.09375 0.328125l0 2.140625q0 0.234375 -0.09375 0.34375q-0.09375 0.09375 -0.234375 0.09375q-0.15625 0 -0.25 -0.09375q-0.09375 -0.109375 -0.09375 -0.34375l0 -0.75l-2.34375 0zm21.671871 -4.71875l0 10.515629l1.59375 0q0.234375 0 0.328125 0.078125q0.109375 0.09375 0.109375 0.25q0 0.140625 -0.109375 0.234375q-0.09375 0.09375 -0.328125 0.09375l-2.25 0l0 -11.843754l2.25 0q0.234375 0 0.328125 0.09375q0.109375 0.09375 0.109375 0.25q0 0.140625 -0.109375 0.234375q-0.09375 0.09375 -0.328125 0.09375l-1.59375 0zm9.1953125 5.25q0 -0.90625 0.234375 -1.90625q0.234375 -1.015625 0.890625 -2.328125q0.671875 -1.328125 0.96875 -1.59375q0.09375 -0.09375 0.203125 -0.09375q0.140625 0 0.234375 0.09375q0.109375 0.09375 0.109375 0.234375q0 0.078125 -0.0625 0.171875q-0.859375 1.578125 -1.234375 2.859375q-0.359375 1.28125 -0.359375 2.5625q0 1.28125 0.359375 2.5625q0.375 1.2812538 1.234375 2.8593788q0.0625 0.09375 0.0625 0.171875q0 0.140625 -0.109375 0.234375q-0.09375 0.09375 -0.234375 0.09375q-0.109375 0 -0.203125 -0.078125q-0.28125 -0.265625 -0.9375 -1.5625q-0.65625 -1.2968788 -0.90625 -2.2812538q-0.25 -1.0 -0.25 -2.0zm12.7109375 -1.328125q0.125 0 0.21875 0.09375q0.09375 0.09375 0.09375 0.21875q0 0.265625 -0.6875 0.90625q-0.671875 0.625 -1.25 0.625q-0.34375 0 -0.703125 -0.203125q-0.359375 -0.203125 -1.03125 -0.828125q-0.4375 -0.421875 -0.671875 -0.546875q-0.234375 -0.140625 -0.421875 -0.140625q-0.21875 0 -0.421875 0.125q-0.28125 0.15625 -0.75 0.71875q-0.234375 0.25 -0.296875 0.296875q-0.0625 0.03125 -0.140625 0.03125q-0.140625 0 -0.234375 -0.078125q-0.078125 -0.09375 -0.078125 -0.234375q0 -0.125 0.203125 -0.375q0.515625 -0.640625 0.921875 -0.890625q0.40625 -0.25 0.78125 -0.25q0.328125 0 0.640625 0.15625q0.3125 0.15625 0.796875 0.59375q0.796875 0.734375 0.984375 0.84375q0.1875 0.109375 0.375 0.109375q0.5625 0 1.1875 -0.796875q0.21875 -0.28125 0.296875 -0.328125q0.078125 -0.046875 0.1875 -0.046875zm17.515625 -0.125q0.90625 0.40625 1.375 1.125q0.484375 0.703125 0.484375 1.46875q0 1.171875 -0.96875 2.0781288q-0.953125 0.90625 -2.390625 0.90625q-0.84375 0 -1.75 -0.359375q-0.90625 -0.359375 -1.265625 -0.734375q-0.109375 -0.12500381 -0.109375 -0.2656288q0 -0.125 0.078125 -0.21875q0.09375 -0.09375 0.21875 -0.09375q0.125 0 0.28125 0.109375q1.21875 0.9062538 2.5625 0.9062538q1.140625 0 1.90625 -0.7187538q0.78125 -0.71875 0.78125 -1.59375q0 -0.578125 -0.390625 -1.140625q-0.375 -0.5625 -1.09375 -0.890625q-0.703125 -0.328125 -1.421875 -0.328125q-0.234375 0 -0.34375 -0.078125q-0.09375 -0.09375 -0.09375 -0.25q0 -0.140625 0.09375 -0.234375q0.09375 -0.09375 0.296875 -0.09375l0.5625 0.015625q0.875 0 1.453125 -0.53125q0.578125 -0.546875 0.578125 -1.265625q0 -0.734375 -0.609375 -1.296875q-0.59375 -0.5625 -1.5625 -0.5625q-0.6875 0 -1.265625 0.234375q-0.5625 0.234375 -0.90625 0.640625q-0.125 0.15625 -0.1875 0.203125q-0.0625 0.03125 -0.15625 0.03125q-0.125 0 -0.21875 -0.09375q-0.09375 -0.09375 -0.09375 -0.21875q0 -0.3125 0.671875 -0.78125q0.953125 -0.671875 2.15625 -0.671875q1.234375 0 2.03125 0.75q0.796875 0.75 0.796875 1.78125q0 0.65625 -0.390625 1.25q-0.375 0.578125 -1.109375 0.921875zm8.4453125 1.453125q0 0.90625 -0.234375 1.90625q-0.234375 1.0 -0.90625 2.3281288q-0.65625 1.328125 -0.96875 1.59375q-0.09375 0.09375 -0.203125 0.09375q-0.140625 0 -0.234375 -0.09375q-0.09375 -0.09375 -0.09375 -0.234375q0 -0.078125 0.046875 -0.171875q0.859375 -1.578125 1.21875 -2.8593788q0.375 -1.28125 0.375 -2.5625q0 -1.28125 -0.375 -2.5625q-0.359375 -1.28125 -1.21875 -2.859375q-0.046875 -0.09375 -0.046875 -0.171875q0 -0.140625 0.09375 -0.234375q0.09375 -0.09375 0.234375 -0.09375q0.109375 0 0.203125 0.09375q0.296875 0.265625 0.953125 1.5625q0.65625 1.28125 0.90625 2.28125q0.25 0.984375 0.25 1.984375zm9.1015625 5.265629l0 -10.515629l-1.59375 0q-0.234375 0 -0.34375 -0.09375q-0.09375 -0.09375 -0.09375 -0.234375q0 -0.15625 0.09375 -0.25q0.109375 -0.09375 0.34375 -0.09375l2.25 0l0 11.843754l-2.25 0q-0.234375 0 -0.34375 -0.09375q-0.09375 -0.09375 -0.09375 -0.234375q0 -0.140625 0.09375 -0.234375q0.109375 -0.09375 0.34375 -0.09375l1.59375 0z" fill-rule="nonzero"></path><path fill="#000000" fill-opacity="0.0" d="m184.9903 95.066505l102.26773 0" fill-rule="nonzero"></path><path stroke="#000000" stroke-width="1.0" stroke-linejoin="round" stroke-linecap="butt" d="m184.9903 95.066505l102.26773 0" fill-rule="nonzero"></path><path fill="#000000" fill-opacity="0.0" d="m294.30453 95.058464l62.48819 0" fill-rule="nonzero"></path><path stroke="#000000" stroke-width="1.0" stroke-linejoin="round" stroke-linecap="butt" d="m294.30453 95.058464l62.48819 0" fill-rule="nonzero"></path><path fill="#000000" fill-opacity="0.0" d="m9.344153 0.2567953l347.46457 0l0 21.543306l-347.46457 0z" fill-rule="nonzero"></path><path fill="#000000" d="m115.53347 7.529073l0 -0.828125q0 -0.25 0.078125 -0.34375q0.09375 -0.109375 0.25 -0.109375q0.140625 0 0.234375 0.109375q0.09375 0.09375 0.09375 0.34375l0 0.828125q0.53125 0.046875 0.875 0.171875q0.34375 0.109375 0.8125 0.42187452q0 -0.18749952 0.09375 -0.28124952q0.09375 -0.09375 0.234375 -0.09375q0.140625 0 0.234375 0.109375q0.09375 0.09375 0.09375 0.32812452l0 0.96875q0 0.234375 -0.09375 0.34375q-0.09375 0.09375 -0.234375 0.09375q-0.125 0 -0.21875 -0.078125q-0.078125 -0.078125 -0.109375 -0.28125q-0.046875 -0.359375 -0.484375 -0.65625q-0.640625 -0.421875 -1.515625 -0.421875q-0.875 0 -1.453125 0.515625q-0.578125 0.515625 -0.578125 1.15625q0 0.65625 0.515625 1.0q0.375 0.265625 1.609375 0.5q1.234375 0.21875 1.671875 0.421875q0.625 0.28125 0.921875 0.75q0.3125 0.46875 0.3125 1.125q0 0.890625 -0.703125 1.578125q-0.6875 0.671875 -1.984375 0.796875l0 1.937501q0 0.25 -0.09375 0.34375q-0.09375 0.109375 -0.234375 0.109375q-0.15625 0 -0.25 -0.109375q-0.078125 -0.09375 -0.078125 -0.34375l0 -1.937501q-1.203125 -0.078125 -2.03125 -0.78125q0 0.34375 -0.03125 0.421875q-0.015625 0.078125 -0.109375 0.140625q-0.078125 0.046875 -0.1875 0.046875q-0.140625 0 -0.234375 -0.09375q-0.09375 -0.109375 -0.09375 -0.34375l0 -1.28125q0 -0.234375 0.09375 -0.328125q0.09375 -0.109375 0.234375 -0.109375q0.140625 0 0.25 0.09375q0.0625 0.078125 0.078125 0.3125q0.046875 0.421875 0.671875 0.859375q0.625 0.421875 1.6875 0.421875q1.09375 0 1.71875 -0.515625q0.640625 -0.53125 0.640625 -1.21875q0 -0.46875 -0.234375 -0.796875q-0.234375 -0.328125 -0.734375 -0.53125q-0.328125 -0.140625 -1.375 -0.328125q-1.515625 -0.296875 -2.09375 -0.765625q-0.59375 -0.46875 -0.59375 -1.375q0 -0.84375 0.640625 -1.5q0.640625 -0.6718745 1.703125 -0.7968745zm7.8046875 4.9374995l0 3.765626l5.0468674 0l0 -1.937501q0 -0.234375 0.078125 -0.328125q0.09375 -0.109375 0.25 -0.109375q0.140625 0 0.234375 0.109375q0.09375 0.09375 0.09375 0.328125l0 2.593751l-7.2499924 0q-0.234375 0 -0.34375 -0.09375q-0.09375 -0.09375 -0.09375 -0.234375q0 -0.15625 0.09375 -0.234375q0.109375 -0.09375 0.34375 -0.09375l0.890625 0l0 -7.828126l-0.890625 0q-0.234375 0 -0.34375 -0.09375q-0.09375 -0.09375 -0.09375 -0.234375q0 -0.15624952 0.09375 -0.23437452q0.109375 -0.09375 0.34375 -0.09375l6.9062424 0l0 2.2499995q0 0.234375 -0.09375 0.34375q-0.09375 0.09375 -0.234375 0.09375q-0.15625 0 -0.25 -0.09375q-0.078125 -0.109375 -0.078125 -0.34375l0 -1.59375l-4.7031174 0l0 3.40625l2.34375 0l0 -0.734375q0 -0.234375 0.09375 -0.328125q0.09375 -0.109375 0.25 -0.109375q0.140625 0 0.234375 0.109375q0.09375 0.09375 0.09375 0.328125l0 2.140625q0 0.234375 -0.09375 0.34375q-0.09375 0.09375 -0.234375 0.09375q-0.15625 0 -0.25 -0.09375q-0.09375 -0.109375 -0.09375 -0.34375l0 -0.75l-2.34375 0zm21.671867 -4.7187495l0 10.515625l1.59375 0q0.234375 0 0.328125 0.078125q0.109375 0.09375 0.109375 0.25q0 0.140625 -0.109375 0.234375q-0.09375 0.09375 -0.328125 0.09375l-2.25 0l0 -11.84375l2.25 0q0.234375 0 0.328125 0.09375q0.109375 0.09375 0.109375 0.25q0 0.140625 -0.109375 0.234375q-0.09375 0.09375 -0.328125 0.09375l-1.59375 0zm9.1953125 5.2499995q0 -0.90625 0.234375 -1.90625q0.234375 -1.015625 0.890625 -2.328125q0.671875 -1.3281245 0.96875 -1.5937495q0.09375 -0.09375 0.203125 -0.09375q0.140625 0 0.234375 0.09375q0.109375 0.09375 0.109375 0.234375q0 0.078125 -0.0625 0.171875q-0.859375 1.5781245 -1.234375 2.8593745q-0.359375 1.28125 -0.359375 2.5625q0 1.28125 0.359375 2.5625q0.375 1.281251 1.234375 2.859376q0.0625 0.09375 0.0625 0.171875q0 0.140625 -0.109375 0.234375q-0.09375 0.09375 -0.234375 0.09375q-0.109375 0 -0.203125 -0.078125q-0.28125 -0.265625 -0.9375 -1.5625q-0.65625 -1.296876 -0.90625 -2.281251q-0.25 -1.0 -0.25 -2.0zm13.0234375 -1.109375l0 0.9375l-6.703125 0l0 -0.9375l6.703125 0zm15.78125 1.109375q0 -0.90625 0.234375 -1.90625q0.234375 -1.015625 0.890625 -2.328125q0.671875 -1.3281245 0.96875 -1.5937495q0.09375 -0.09375 0.203125 -0.09375q0.140625 0 0.234375 0.09375q0.109375 0.09375 0.109375 0.234375q0 0.078125 -0.0625 0.171875q-0.859375 1.5781245 -1.234375 2.8593745q-0.359375 1.28125 -0.359375 2.5625q0 1.28125 0.359375 2.5625q0.375 1.281251 1.234375 2.859376q0.0625 0.09375 0.0625 0.171875q0 0.140625 -0.109375 0.234375q-0.09375 0.09375 -0.234375 0.09375q-0.109375 0 -0.203125 -0.078125q-0.28125 -0.265625 -0.9375 -1.5625q-0.65625 -1.296876 -0.90625 -2.281251q-0.25 -1.0 -0.25 -2.0zm12.7109375 -1.328125q0.125 0 0.21875 0.09375q0.09375 0.09375 0.09375 0.21875q0 0.265625 -0.6875 0.90625q-0.671875 0.625 -1.25 0.625q-0.34375 0 -0.703125 -0.203125q-0.359375 -0.203125 -1.03125 -0.828125q-0.4375 -0.421875 -0.671875 -0.546875q-0.234375 -0.140625 -0.421875 -0.140625q-0.21875 0 -0.421875 0.125q-0.28125 0.15625 -0.75 0.71875q-0.234375 0.25 -0.296875 0.296875q-0.0625 0.03125 -0.140625 0.03125q-0.140625 0 -0.234375 -0.078125q-0.078125 -0.09375 -0.078125 -0.234375q0 -0.125 0.203125 -0.375q0.515625 -0.640625 0.921875 -0.890625q0.40625 -0.25 0.78125 -0.25q0.328125 0 0.640625 0.15625q0.3125 0.15625 0.796875 0.59375q0.796875 0.734375 0.984375 0.84375q0.1875 0.109375 0.375 0.109375q0.5625 0 1.1875 -0.796875q0.21875 -0.28125 0.296875 -0.328125q0.078125 -0.046875 0.1875 -0.046875zm17.515625 -0.125q0.90625 0.40625 1.375 1.125q0.484375 0.703125 0.484375 1.46875q0 1.171875 -0.96875 2.078126q-0.953125 0.90625 -2.390625 0.90625q-0.84375 0 -1.75 -0.359375q-0.90625 -0.359375 -1.265625 -0.734375q-0.109375 -0.12500095 -0.109375 -0.26562595q0 -0.125 0.078125 -0.21875q0.09375 -0.09375 0.21875 -0.09375q0.125 0 0.28125 0.109375q1.21875 0.90625095 2.5625 0.90625095q1.140625 0 1.90625 -0.71875095q0.78125 -0.71875 0.78125 -1.59375q0 -0.578125 -0.390625 -1.140625q-0.375 -0.5625 -1.09375 -0.890625q-0.703125 -0.328125 -1.421875 -0.328125q-0.234375 0 -0.34375 -0.078125q-0.09375 -0.09375 -0.09375 -0.25q0 -0.140625 0.09375 -0.234375q0.09375 -0.09375 0.296875 -0.09375l0.5625 0.015625q0.875 0 1.453125 -0.53125q0.578125 -0.546875 0.578125 -1.265625q0 -0.734375 -0.609375 -1.296875q-0.59375 -0.5624995 -1.5625 -0.5624995q-0.6875 0 -1.265625 0.234375q-0.5625 0.234375 -0.90625 0.6406245q-0.125 0.15625 -0.1875 0.203125q-0.0625 0.03125 -0.15625 0.03125q-0.125 0 -0.21875 -0.09375q-0.09375 -0.09375 -0.09375 -0.21875q0 -0.31249952 0.671875 -0.7812495q0.953125 -0.671875 2.15625 -0.671875q1.234375 0 2.03125 0.75q0.796875 0.7499995 0.796875 1.7812495q0 0.65625 -0.390625 1.25q-0.375 0.578125 -1.109375 0.921875zm15.03125 4.687501l5.03125 0l0 -0.26562595q0 -0.234375 0.09375 -0.328125q0.09375 -0.109375 0.25 -0.109375q0.140625 0 0.234375 0.109375q0.09375 0.09375 0.09375 0.328125l0 0.92187595l-6.34375 0l0 -0.96875095q2.0 -1.796875 3.890625 -3.65625q0.875 -0.875 1.203125 -1.28125q0.328125 -0.40625 0.453125 -0.703125q0.125 -0.3125 0.125 -0.625q0 -0.84375 -0.6875 -1.484375q-0.671875 -0.6562495 -1.640625 -0.6562495q-0.859375 0 -1.53125 0.49999952q-0.65625 0.484375 -0.84375 1.203125q-0.046875 0.1875 -0.125 0.25q-0.09375 0.078125 -0.21875 0.078125q-0.125 0 -0.21875 -0.09375q-0.09375 -0.09375 -0.09375 -0.21875q0 -0.375 0.40625 -1.015625q0.421875 -0.6406245 1.140625 -0.9999995q0.71875 -0.375 1.484375 -0.375q1.21875 0 2.09375 0.859375q0.890625 0.8437495 0.890625 1.9218745q0 0.453125 -0.15625 0.84375q-0.140625 0.375 -0.5 0.828125q-0.34375 0.4375 -1.265625 1.34375q-2.3125 2.28125 -3.765625 3.546876l0 0.046875zm12.6171875 -3.234376q0 0.90625 -0.234375 1.90625q-0.234375 1.0 -0.90625 2.328126q-0.65625 1.328125 -0.96875 1.59375q-0.09375 0.09375 -0.203125 0.09375q-0.140625 0 -0.234375 -0.09375q-0.09375 -0.09375 -0.09375 -0.234375q0 -0.078125 0.046875 -0.171875q0.859375 -1.578125 1.21875 -2.859376q0.375 -1.28125 0.375 -2.5625q0 -1.28125 -0.375 -2.5625q-0.359375 -1.28125 -1.21875 -2.8593745q-0.046875 -0.09375 -0.046875 -0.171875q0 -0.140625 0.09375 -0.234375q0.09375 -0.09375 0.234375 -0.09375q0.109375 0 0.203125 0.09375q0.296875 0.265625 0.953125 1.5624995q0.65625 1.28125 0.90625 2.28125q0.25 0.984375 0.25 1.984375zm9.1015625 5.265626l0 -10.515625l-1.59375 0q-0.234375 0 -0.34375 -0.09375q-0.09375 -0.09375 -0.09375 -0.234375q0 -0.15625 0.09375 -0.25q0.109375 -0.09375 0.34375 -0.09375l2.25 0l0 11.84375l-2.25 0q-0.234375 0 -0.34375 -0.09375q-0.09375 -0.09375 -0.09375 -0.234375q0 -0.140625 0.09375 -0.234375q0.109375 -0.09375 0.34375 -0.09375l1.59375 0z" fill-rule="nonzero"></path><path fill="#000000" fill-opacity="0.0" d="m9.502736 47.217426l278.01575 0" fill-rule="nonzero"></path><path stroke="#000000" stroke-width="1.0" stroke-linejoin="round" stroke-linecap="butt" d="m9.502736 47.217426l278.01575 0" fill-rule="nonzero"></path><path fill="#000000" fill-opacity="0.0" d="m9.342631 24.256796l278.01575 0l0 21.543306l-278.01575 0z" fill-rule="nonzero"></path><path fill="#000000" d="m76.00675 31.529074l0 -0.828125q0 -0.25 0.078125 -0.34375q0.09375 -0.109375 0.25 -0.109375q0.140625 0 0.234375 0.109375q0.09375 0.09375 0.09375 0.34375l0 0.828125q0.53125 0.046875 0.875 0.171875q0.34375 0.109375 0.8125 0.4218731q0 -0.1874981 0.09375 -0.2812481q0.09375 -0.09375 0.234375 -0.09375q0.140625 0 0.234375 0.109375q0.09375 0.09375 0.09375 0.3281231l0 0.96875q0 0.234375 -0.09375 0.34375q-0.09375 0.09375 -0.234375 0.09375q-0.125 0 -0.21875 -0.078125q-0.078125 -0.078125 -0.109375 -0.28125q-0.046875 -0.359375 -0.484375 -0.65625q-0.640625 -0.421875 -1.515625 -0.421875q-0.875 0 -1.453125 0.515625q-0.578125 0.515625 -0.578125 1.15625q0 0.65625 0.515625 1.0q0.375 0.265625 1.609375 0.5q1.234375 0.21875 1.671875 0.421875q0.625 0.28125 0.921875 0.75q0.3125 0.46875 0.3125 1.125q0 0.890625 -0.703125 1.578125q-0.6875 0.671875 -1.984375 0.796875l0 1.9375q0 0.25 -0.09375 0.34375q-0.09375 0.109375 -0.234375 0.109375q-0.15625 0 -0.25 -0.109375q-0.078125 -0.09375 -0.078125 -0.34375l0 -1.9375q-1.203125 -0.078125 -2.03125 -0.78125q0 0.34375 -0.03125 0.421875q-0.015625 0.078125 -0.109375 0.140625q-0.078125 0.046875 -0.1875 0.046875q-0.140625 0 -0.234375 -0.09375q-0.09375 -0.109375 -0.09375 -0.34375l0 -1.28125q0 -0.234375 0.09375 -0.328125q0.09375 -0.109375 0.234375 -0.109375q0.140625 0 0.25 0.09375q0.0625 0.078125 0.078125 0.3125q0.046875 0.421875 0.671875 0.859375q0.625 0.421875 1.6875 0.421875q1.09375 0 1.71875 -0.515625q0.640625 -0.53125 0.640625 -1.21875q0 -0.46875 -0.234375 -0.796875q-0.234375 -0.328125 -0.734375 -0.53125q-0.328125 -0.140625 -1.375 -0.328125q-1.515625 -0.296875 -2.09375 -0.765625q-0.59375 -0.46875 -0.59375 -1.375q0 -0.84375 0.640625 -1.5q0.640625 -0.6718731 1.703125 -0.7968731zm7.8046875 4.937498l0 3.765625l5.046875 0l0 -1.9375q0 -0.234375 0.078125 -0.328125q0.09375 -0.109375 0.25 -0.109375q0.140625 0 0.234375 0.109375q0.09375 0.09375 0.09375 0.328125l0 2.59375l-7.25 0q-0.234375 0 -0.34375 -0.09375q-0.09375 -0.09375 -0.09375 -0.234375q0 -0.15625 0.09375 -0.234375q0.109375 -0.09375 0.34375 -0.09375l0.890625 0l0 -7.828125l-0.890625 0q-0.234375 0 -0.34375 -0.09375q-0.09375 -0.09375 -0.09375 -0.234375q0 -0.1562481 0.09375 -0.2343731q0.109375 -0.09375 0.34375 -0.09375l6.90625 0l0 2.249998q0 0.234375 -0.09375 0.34375q-0.09375 0.09375 -0.234375 0.09375q-0.15625 0 -0.25 -0.09375q-0.078125 -0.109375 -0.078125 -0.34375l0 -1.59375l-4.703125 0l0 3.40625l2.34375 0l0 -0.734375q0 -0.234375 0.09375 -0.328125q0.09375 -0.109375 0.25 -0.109375q0.140625 0 0.234375 0.109375q0.09375 0.09375 0.09375 0.328125l0 2.140625q0 0.234375 -0.09375 0.34375q-0.09375 0.09375 -0.234375 0.09375q-0.15625 0 -0.25 -0.09375q-0.09375 -0.109375 -0.09375 -0.34375l0 -0.75l-2.34375 0zm8.9296875 3.765625l0 -7.828125l-0.875 0q-0.234375 0 -0.34375 -0.09375q-0.09375 -0.09375 -0.09375 -0.234375q0 -0.1562481 0.09375 -0.2343731q0.109375 -0.09375 0.34375 -0.09375l4.125 0q1.21875 0 1.984375 0.7031231q0.78125 0.703125 0.78125 1.65625q0 1.203125 -1.296875 1.953125q1.03125 0.359375 1.5 0.96875q0.484375 0.609375 0.484375 1.34375q0 0.65625 -0.3125 1.203125q-0.3125 0.546875 -0.96875 0.9375q-0.640625 0.375 -1.390625 0.375l-4.90625 0q-0.234375 0 -0.34375 -0.09375q-0.09375 -0.09375 -0.09375 -0.234375q0 -0.15625 0.09375 -0.234375q0.109375 -0.09375 0.34375 -0.09375l0.875 0zm0.65625 -4.421875l2.328125 0q0.734375 0 1.359375 -0.28125q0.46875 -0.21875 0.734375 -0.625q0.265625 -0.421875 0.265625 -0.84375q0 -0.625 -0.578125 -1.140625q-0.578125 -0.515625 -1.5 -0.515625l-2.609375 0l0 3.40625zm0 4.421875l3.328125 0q0.625 0 1.09375 -0.28125q0.46875 -0.28125 0.703125 -0.6875q0.25 -0.421875 0.25 -0.875q0 -0.5 -0.34375 -0.96875q-0.34375 -0.46875 -0.96875 -0.703125q-0.609375 -0.25 -1.703125 -0.25l-2.359375 0l0 3.765625zm15.7578125 -3.890625q0 1.3125 -0.53125 2.4375q-0.53125 1.109375 -1.46875 1.75q-0.921875 0.625 -2.0 0.625q-1.578125 0 -2.796875 -1.34375q-1.203125 -1.359375 -1.203125 -3.46875q0 -2.125 1.203125 -3.46875q1.21875 -1.3437481 2.796875 -1.3437481q1.078125 0 2.0 0.6249981q0.9375 0.625 1.46875 1.75q0.53125 1.109375 0.53125 2.4375zm-0.65625 0q0 -1.609375 -0.9375 -2.875q-0.921875 -1.28125 -2.40625 -1.28125q-1.375 0 -2.359375 1.21875q-0.984375 1.21875 -0.984375 2.9375q0 1.828125 1.03125 2.984375q1.03125 1.15625 2.3125 1.15625q1.484375 0 2.40625 -1.265625q0.9375 -1.265625 0.9375 -2.875zm16.1875 -4.593748l0 10.515623l1.59375 0q0.234375 0 0.328125 0.078125q0.109375 0.09375 0.109375 0.25q0 0.140625 -0.109375 0.234375q-0.09375 0.09375 -0.328125 0.09375l-2.25 0l0 -11.843748l2.25 0q0.234375 0 0.328125 0.09375q0.109375 0.09375 0.109375 0.25q0 0.140625 -0.109375 0.234375q-0.09375 0.09375 -0.328125 0.09375l-1.59375 0zm9.19532 5.249998q0 -0.90625 0.234375 -1.90625q0.234375 -1.015625 0.890625 -2.328125q0.671875 -1.3281231 0.96875 -1.5937481q0.09375 -0.09375 0.203125 -0.09375q0.140625 0 0.234375 0.09375q0.109375 0.09375 0.109375 0.234375q0 0.078125 -0.0625 0.171875q-0.859375 1.5781231 -1.234375 2.859373q-0.359375 1.28125 -0.359375 2.5625q0 1.28125 0.359375 2.5625q0.375 1.28125 1.234375 2.859375q0.0625 0.09375 0.0625 0.171875q0 0.140625 -0.109375 0.234375q-0.09375 0.09375 -0.234375 0.09375q-0.109375 0 -0.203125 -0.078125q-0.28125 -0.265625 -0.9375 -1.5625q-0.65625 -1.296875 -0.90625 -2.28125q-0.25 -1.0 -0.25 -2.0zm13.0234375 -1.109375l0 0.9375l-6.703125 0l0 -0.9375l6.703125 0zm15.78125 1.109375q0 -0.90625 0.234375 -1.90625q0.234375 -1.015625 0.890625 -2.328125q0.671875 -1.3281231 0.96875 -1.5937481q0.09375 -0.09375 0.203125 -0.09375q0.140625 0 0.234375 0.09375q0.109375 0.09375 0.109375 0.234375q0 0.078125 -0.0625 0.171875q-0.859375 1.5781231 -1.234375 2.859373q-0.359375 1.28125 -0.359375 2.5625q0 1.28125 0.359375 2.5625q0.375 1.28125 1.234375 2.859375q0.0625 0.09375 0.0625 0.171875q0 0.140625 -0.109375 0.234375q-0.09375 0.09375 -0.234375 0.09375q-0.109375 0 -0.203125 -0.078125q-0.28125 -0.265625 -0.9375 -1.5625q-0.65625 -1.296875 -0.90625 -2.28125q-0.25 -1.0 -0.25 -2.0zm12.7109375 -1.328125q0.125 0 0.21875 0.09375q0.09375 0.09375 0.09375 0.21875q0 0.265625 -0.6875 0.90625q-0.671875 0.625 -1.25 0.625q-0.34375 0 -0.703125 -0.203125q-0.359375 -0.203125 -1.03125 -0.828125q-0.4375 -0.421875 -0.671875 -0.546875q-0.234375 -0.140625 -0.421875 -0.140625q-0.21875 0 -0.421875 0.125q-0.28125 0.15625 -0.75 0.71875q-0.234375 0.25 -0.296875 0.296875q-0.0625 0.03125 -0.140625 0.03125q-0.140625 0 -0.234375 -0.078125q-0.078125 -0.09375 -0.078125 -0.234375q0 -0.125 0.203125 -0.375q0.515625 -0.640625 0.921875 -0.890625q0.40625 -0.25 0.78125 -0.25q0.328125 0 0.640625 0.15625q0.3125 0.15625 0.796875 0.59375q0.796875 0.734375 0.984375 0.84375q0.1875 0.109375 0.375 0.109375q0.5625 0 1.1875 -0.796875q0.21875 -0.28125 0.296875 -0.328125q0.078125 -0.046875 0.1875 -0.046875zm17.515625 -0.125q0.90625 0.40625 1.375 1.125q0.484375 0.703125 0.484375 1.46875q0 1.171875 -0.96875 2.078125q-0.953125 0.90625 -2.390625 0.90625q-0.84375 0 -1.75 -0.359375q-0.90625 -0.359375 -1.265625 -0.734375q-0.109375 -0.125 -0.109375 -0.265625q0 -0.125 0.078125 -0.21875q0.09375 -0.09375 0.21875 -0.09375q0.125 0 0.28125 0.109375q1.21875 0.90625 2.5625 0.90625q1.140625 0 1.90625 -0.71875q0.78125 -0.71875 0.78125 -1.59375q0 -0.578125 -0.390625 -1.140625q-0.375 -0.5625 -1.09375 -0.890625q-0.703125 -0.328125 -1.421875 -0.328125q-0.234375 0 -0.34375 -0.078125q-0.09375 -0.09375 -0.09375 -0.25q0 -0.140625 0.09375 -0.234375q0.09375 -0.09375 0.296875 -0.09375l0.5625 0.015625q0.875 0 1.453125 -0.53125q0.578125 -0.546875 0.578125 -1.265625q0 -0.734375 -0.609375 -1.296875q-0.59375 -0.5624981 -1.5625 -0.5624981q-0.6875 0 -1.265625 0.234375q-0.5625 0.234375 -0.90625 0.6406231q-0.125 0.15625 -0.1875 0.203125q-0.0625 0.03125 -0.15625 0.03125q-0.125 0 -0.21875 -0.09375q-0.09375 -0.09375 -0.09375 -0.21875q0 -0.3124981 0.671875 -0.7812481q0.953125 -0.671875 2.15625 -0.671875q1.234375 0 2.03125 0.75q0.796875 0.7499981 0.796875 1.7812481q0 0.65625 -0.390625 1.25q-0.375 0.578125 -1.109375 0.921875zm8.4453125 1.453125q0 0.90625 -0.234375 1.90625q-0.234375 1.0 -0.90625 2.328125q-0.65625 1.328125 -0.96875 1.59375q-0.09375 0.09375 -0.203125 0.09375q-0.140625 0 -0.234375 -0.09375q-0.09375 -0.09375 -0.09375 -0.234375q0 -0.078125 0.046875 -0.171875q0.859375 -1.578125 1.21875 -2.859375q0.375 -1.28125 0.375 -2.5625q0 -1.28125 -0.375 -2.5625q-0.359375 -1.28125 -1.21875 -2.859373q-0.046875 -0.09375 -0.046875 -0.171875q0 -0.140625 0.09375 -0.234375q0.09375 -0.09375 0.234375 -0.09375q0.109375 0 0.203125 0.09375q0.296875 0.265625 0.953125 1.5624981q0.65625 1.28125 0.90625 2.28125q0.25 0.984375 0.25 1.984375zm9.6015625 0q0 0.90625 -0.234375 1.90625q-0.234375 1.0 -0.90625 2.328125q-0.65625 1.328125 -0.96875 1.59375q-0.09375 0.09375 -0.203125 0.09375q-0.140625 0 -0.234375 -0.09375q-0.09375 -0.09375 -0.09375 -0.234375q0 -0.078125 0.046875 -0.171875q0.859375 -1.578125 1.21875 -2.859375q0.375 -1.28125 0.375 -2.5625q0 -1.28125 -0.375 -2.5625q-0.359375 -1.28125 -1.21875 -2.859373q-0.046875 -0.09375 -0.046875 -0.171875q0 -0.140625 0.09375 -0.234375q0.09375 -0.09375 0.234375 -0.09375q0.109375 0 0.203125 0.09375q0.296875 0.265625 0.953125 1.5624981q0.65625 1.28125 0.90625 2.28125q0.25 0.984375 0.25 1.984375zm9.1015625 5.265625l0 -10.515623l-1.59375 0q-0.234375 0 -0.34375 -0.09375q-0.09375 -0.09375 -0.09375 -0.234375q0 -0.15625 0.09375 -0.25q0.109375 -0.09375 0.34375 -0.09375l2.25 0l0 11.843748l-2.25 0q-0.234375 0 -0.34375 -0.09375q-0.09375 -0.09375 -0.09375 -0.234375q0 -0.140625 0.09375 -0.234375q0.109375 -0.09375 0.34375 -0.09375l1.59375 0z" fill-rule="nonzero"></path></g></svg>

