<?xml version="1.0" standalone="yes"?>

<svg version="1.1" viewBox="0.0 0.0 965.0 112.0" fill="none" stroke="none" stroke-linecap="square" stroke-miterlimit="10" xmlns="http://www.w3.org/2000/svg" xmlns:xlink="http://www.w3.org/1999/xlink"><clipPath id="p.0"><path d="m0 0l965.0 0l0 112.0l-965.0 0l0 -112.0z" clip-rule="nonzero"></path></clipPath><g clip-path="url(#p.0)"><path fill="#000000" fill-opacity="0.0" d="m0 0l965.3333 0l0 112.0l-965.3333 0z" fill-rule="nonzero"></path><path fill="#d9ead3" d="m2.6666667 36.32024l0 0c0 -9.01342 7.30682 -16.32024 16.32024 -16.32024l175.35951 0c4.3283997 0 8.479507 1.7194481 11.540146 4.7800884c3.0606384 3.0606384 4.7800903 7.211754 4.7800903 11.540152l0 39.359516c0 9.01342 -7.3068237 16.320244 -16.320236 16.320244l-175.35951 0c-9.013419 0 -16.32024 -7.3068237 -16.32024 -16.320244z" fill-rule="nonzero"></path><path stroke="#000000" stroke-width="1.0" stroke-linejoin="round" stroke-linecap="butt" d="m2.6666667 36.32024l0 0c0 -9.01342 7.30682 -16.32024 16.32024 -16.32024l175.35951 0c4.3283997 0 8.479507 1.7194481 11.540146 4.7800884c3.0606384 3.0606384 4.7800903 7.211754 4.7800903 11.540152l0 39.359516c0 9.01342 -7.3068237 16.320244 -16.320236 16.320244l-175.35951 0c-9.013419 0 -16.32024 -7.3068237 -16.32024 -16.320244z" fill-rule="nonzero"></path><path fill="#000000" d="m56.60807 51.359997l-1.421875 0l0 -12.15625l1.421875 0l0 12.15625zm4.140625 0l-1.421875 0l0 -8.578125l1.421875 0l0 8.578125zm-1.53125 -10.90625q0 -0.46875 0.234375 -0.671875q0.25 -0.21875 0.59375 -0.21875q0.171875 0 0.328125 0.0625q0.15625 0.046875 0.265625 0.15625q0.109375 0.109375 0.171875 0.28125q0.078125 0.15625 0.078125 0.390625q0 0.453125 -0.25 0.6875q-0.25 0.21875 -0.59375 0.21875q-0.34375 0 -0.59375 -0.21875q-0.234375 -0.21875 -0.234375 -0.6875zm9.609375 10.90625l0 -5.53125q0 -1.015625 -0.40625 -1.515625q-0.40625 -0.515625 -1.28125 -0.515625q-0.640625 0 -1.078125 0.203125q-0.421875 0.203125 -0.6875 0.609375q-0.25 0.390625 -0.375 0.96875q-0.109375 0.578125 -0.109375 1.328125l0 4.453125l-1.421875 0l0 -8.578125l1.15625 0l0.203125 1.15625l0.078125 0q0.203125 -0.34375 0.46875 -0.578125q0.265625 -0.25 0.578125 -0.40625q0.328125 -0.171875 0.6875 -0.25q0.359375 -0.078125 0.734375 -0.078125q1.4375 0 2.15625 0.75q0.71875 0.734375 0.71875 2.375l0 5.609375l-1.421875 0zm10.671875 -8.578125l0 0.875l-1.53125 0.21875q0.21875 0.265625 0.359375 0.703125q0.15625 0.421875 0.15625 0.953125q0 0.59375 -0.1875 1.109375q-0.1875 0.5 -0.5625 0.875q-0.359375 0.359375 -0.90625 0.5625q-0.546875 0.203125 -1.28125 0.203125q-0.171875 0 -0.34375 0q-0.171875 0 -0.28125 -0.03125q-0.125 0.078125 -0.265625 0.1875q-0.125 0.09375 -0.234375 0.21875q-0.09375 0.125 -0.171875 0.28125q-0.0625 0.15625 -0.0625 0.34375q0 0.203125 0.09375 0.34375q0.09375 0.125 0.25 0.203125q0.171875 0.0625 0.390625 0.09375q0.21875 0.015625 0.453125 0.015625l1.375 0q0.734375 0 1.234375 0.1875q0.5 0.171875 0.8125 0.484375q0.3125 0.3125 0.453125 0.75q0.140625 0.421875 0.140625 0.90625q0 0.6875 -0.25 1.234375q-0.25 0.546875 -0.78125 0.921875q-0.515625 0.375 -1.328125 0.578125q-0.796875 0.203125 -1.875 0.203125q-0.84375 0 -1.46875 -0.171875q-0.625 -0.15625 -1.046875 -0.46875q-0.40625 -0.3125 -0.609375 -0.75q-0.203125 -0.4375 -0.203125 -1.0q0 -0.46875 0.140625 -0.828125q0.15625 -0.34375 0.40625 -0.609375q0.265625 -0.265625 0.609375 -0.421875q0.34375 -0.171875 0.703125 -0.25q-0.328125 -0.15625 -0.546875 -0.46875q-0.203125 -0.328125 -0.203125 -0.734375q0 -0.484375 0.25 -0.828125q0.25 -0.34375 0.796875 -0.671875q-0.34375 -0.140625 -0.625 -0.390625q-0.265625 -0.25 -0.46875 -0.5625q-0.1875 -0.3125 -0.296875 -0.6875q-0.09375 -0.375 -0.09375 -0.78125q0 -0.6875 0.1875 -1.234375q0.203125 -0.546875 0.578125 -0.921875q0.390625 -0.390625 0.953125 -0.59375q0.578125 -0.203125 1.328125 -0.203125q0.296875 0 0.59375 0.046875q0.3125 0.03125 0.53125 0.109375l2.828125 0zm-6.328125 9.984375q0 0.296875 0.09375 0.546875q0.109375 0.25 0.328125 0.421875q0.234375 0.1875 0.609375 0.28125q0.390625 0.109375 0.953125 0.109375q1.453125 0 2.171875 -0.453125q0.71875 -0.4375 0.71875 -1.28125q0 -0.359375 -0.09375 -0.59375q-0.09375 -0.21875 -0.3125 -0.359375q-0.203125 -0.125 -0.5625 -0.171875q-0.34375 -0.046875 -0.859375 -0.046875l-1.375 0q-0.265625 0 -0.5625 0.0625q-0.296875 0.0625 -0.546875 0.234375q-0.25 0.171875 -0.40625 0.46875q-0.15625 0.3125 -0.15625 0.78125zm0.71875 -7.234375q0 0.90625 0.421875 1.34375q0.421875 0.4375 1.1875 0.4375q0.78125 0 1.1875 -0.4375q0.40625 -0.4375 0.40625 -1.359375q0 -0.96875 -0.421875 -1.421875q-0.40625 -0.453125 -1.1875 -0.453125q-0.765625 0 -1.1875 0.46875q-0.40625 0.46875 -0.40625 1.421875zm12.8515625 5.828125l-0.21875 -1.15625l-0.078125 0q-0.1875 0.34375 -0.46875 0.59375q-0.265625 0.234375 -0.59375 0.40625q-0.3125 0.15625 -0.671875 0.234375q-0.359375 0.078125 -0.734375 0.078125q-0.703125 0 -1.25 -0.171875q-0.53125 -0.1875 -0.890625 -0.5625q-0.359375 -0.390625 -0.546875 -0.984375q-0.1875 -0.59375 -0.1875 -1.421875l0 -5.59375l1.421875 0l0 5.515625q0 1.015625 0.40625 1.53125q0.421875 0.5 1.296875 0.5q0.625 0 1.046875 -0.203125q0.4375 -0.203125 0.703125 -0.59375q0.265625 -0.390625 0.375 -0.96875q0.109375 -0.578125 0.109375 -1.328125l0 -4.453125l1.421875 0l0 8.578125l-1.140625 0zm5.28125 0l-1.421875 0l0 -8.578125l1.421875 0l0 8.578125zm-1.53125 -10.90625q0 -0.46875 0.234375 -0.671875q0.25 -0.21875 0.59375 -0.21875q0.171875 0 0.328125 0.0625q0.15625 0.046875 0.265625 0.15625q0.109375 0.109375 0.171875 0.28125q0.078125 0.15625 0.078125 0.390625q0 0.453125 -0.25 0.6875q-0.25 0.21875 -0.59375 0.21875q-0.34375 0 -0.59375 -0.21875q-0.234375 -0.21875 -0.234375 -0.6875zm9.390625 8.546875q0 0.625 -0.234375 1.09375q-0.21875 0.46875 -0.65625 0.796875q-0.421875 0.3125 -1.03125 0.46875q-0.59375 0.15625 -1.34375 0.15625q-0.84375 0 -1.453125 -0.140625q-0.609375 -0.140625 -1.078125 -0.40625l0 -1.296875q0.25 0.125 0.546875 0.25q0.296875 0.125 0.625 0.21875q0.328125 0.09375 0.671875 0.15625q0.34375 0.046875 0.6875 0.046875q0.515625 0 0.859375 -0.078125q0.359375 -0.09375 0.578125 -0.25q0.234375 -0.15625 0.328125 -0.390625q0.109375 -0.234375 0.109375 -0.515625q0 -0.234375 -0.078125 -0.421875q-0.078125 -0.203125 -0.296875 -0.390625q-0.203125 -0.203125 -0.5625 -0.390625q-0.359375 -0.203125 -0.921875 -0.4375q-0.5625 -0.25 -1.015625 -0.484375q-0.4375 -0.234375 -0.75 -0.515625q-0.3125 -0.296875 -0.484375 -0.671875q-0.171875 -0.375 -0.171875 -0.90625q0 -0.546875 0.21875 -0.96875q0.21875 -0.421875 0.609375 -0.703125q0.390625 -0.296875 0.9375 -0.4375q0.546875 -0.15625 1.21875 -0.15625q0.75 0 1.375 0.171875q0.640625 0.15625 1.203125 0.421875l-0.5 1.140625q-0.5 -0.21875 -1.046875 -0.390625q-0.53125 -0.171875 -1.078125 -0.171875q-0.796875 0 -1.1875 0.265625q-0.375 0.265625 -0.375 0.75q0 0.265625 0.078125 0.46875q0.09375 0.203125 0.3125 0.390625q0.21875 0.171875 0.578125 0.359375q0.375 0.1875 0.921875 0.40625q0.5625 0.234375 1.0 0.46875q0.453125 0.234375 0.765625 0.53125q0.3125 0.296875 0.46875 0.671875q0.171875 0.375 0.171875 0.890625zm4.671875 1.34375q0.140625 0 0.3125 -0.015625q0.1875 -0.015625 0.34375 -0.03125q0.171875 -0.03125 0.296875 -0.0625q0.140625 -0.03125 0.21875 -0.046875l0 1.078125q-0.109375 0.046875 -0.265625 0.09375q-0.15625 0.046875 -0.34375 0.078125q-0.1875 0.046875 -0.390625 0.0625q-0.203125 0.015625 -0.390625 0.015625q-0.484375 0 -0.90625 -0.125q-0.40625 -0.125 -0.71875 -0.421875q-0.296875 -0.3125 -0.46875 -0.828125q-0.171875 -0.53125 -0.171875 -1.3125l0 -4.984375l-1.203125 0l0 -0.625l1.203125 -0.609375l0.609375 -1.796875l0.828125 0l0 1.96875l2.15625 0l0 1.0625l-2.15625 0l0 4.984375q0 0.75 0.234375 1.140625q0.25 0.375 0.8125 0.375zm4.25 1.015625l-1.421875 0l0 -8.578125l1.421875 0l0 8.578125zm-1.53125 -10.90625q0 -0.46875 0.234375 -0.671875q0.25 -0.21875 0.59375 -0.21875q0.171875 0 0.328125 0.0625q0.15625 0.046875 0.265625 0.15625q0.109375 0.109375 0.171875 0.28125q0.078125 0.15625 0.078125 0.390625q0 0.453125 -0.25 0.6875q-0.25 0.21875 -0.59375 0.21875q-0.34375 0 -0.59375 -0.21875q-0.234375 -0.21875 -0.234375 -0.6875zm7.53125 11.0625q-0.78125 0 -1.46875 -0.25q-0.6875 -0.25 -1.203125 -0.78125q-0.5 -0.53125 -0.796875 -1.359375q-0.28125 -0.84375 -0.28125 -2.015625q0 -1.21875 0.296875 -2.078125q0.296875 -0.859375 0.8125 -1.390625q0.515625 -0.53125 1.203125 -0.765625q0.703125 -0.25 1.5 -0.25q0.609375 0 1.1875 0.140625q0.59375 0.125 0.984375 0.3125l-0.421875 1.203125q-0.1875 -0.078125 -0.40625 -0.140625q-0.21875 -0.078125 -0.453125 -0.140625q-0.234375 -0.0625 -0.46875 -0.09375q-0.21875 -0.03125 -0.421875 -0.03125q-1.21875 0 -1.78125 0.78125q-0.5625 0.78125 -0.5625 2.4375q0 1.65625 0.5625 2.421875q0.5625 0.75 1.71875 0.75q0.640625 0 1.140625 -0.140625q0.515625 -0.140625 0.9375 -0.34375l0 1.265625q-0.421875 0.234375 -0.90625 0.34375q-0.46875 0.125 -1.171875 0.125zm9.703125 -0.15625l-1.421875 0l0 -8.578125l1.421875 0l0 8.578125zm-1.53125 -10.90625q0 -0.46875 0.234375 -0.671875q0.25 -0.21875 0.59375 -0.21875q0.171875 0 0.328125 0.0625q0.15625 0.046875 0.265625 0.15625q0.109375 0.109375 0.171875 0.28125q0.078125 0.15625 0.078125 0.390625q0 0.453125 -0.25 0.6875q-0.25 0.21875 -0.59375 0.21875q-0.34375 0 -0.59375 -0.21875q-0.234375 -0.21875 -0.234375 -0.6875zm9.609383 10.90625l0 -5.53125q0 -1.015625 -0.40625 -1.515625q-0.40625 -0.515625 -1.28125 -0.515625q-0.640625 0 -1.078125 0.203125q-0.421875 0.203125 -0.6875 0.609375q-0.25 0.390625 -0.375 0.96875q-0.109375 0.578125 -0.109375 1.328125l0 4.453125l-1.4218826 0l0 -8.578125l1.1562576 0l0.203125 1.15625l0.078125 0q0.203125 -0.34375 0.46875 -0.578125q0.265625 -0.25 0.578125 -0.40625q0.328125 -0.171875 0.6875 -0.25q0.359375 -0.078125 0.734375 -0.078125q1.4375 0 2.15625 0.75q0.71875 0.734375 0.71875 2.375l0 5.609375l-1.421875 0zm7.9375 0.15625q-0.453125 0 -0.828125 -0.109375q-0.375 -0.09375 -0.6875 -0.265625q-0.296875 -0.171875 -0.53125 -0.390625q-0.21875 -0.234375 -0.40625 -0.484375l-0.09375 0q0.03125 0.265625 0.046875 0.515625q0.015625 0.203125 0.03125 0.421875q0.015625 0.21875 0.015625 0.34375l0 3.65625l-1.421875 0l0 -12.421875l1.15625 0l0.203125 1.15625l0.0625 0q0.1875 -0.28125 0.40625 -0.515625q0.234375 -0.234375 0.53125 -0.40625q0.296875 -0.1875 0.671875 -0.28125q0.375 -0.109375 0.84375 -0.109375q0.734375 0 1.328125 0.28125q0.609375 0.28125 1.03125 0.84375q0.4375 0.546875 0.671875 1.375q0.234375 0.828125 0.234375 1.921875q0 1.109375 -0.234375 1.9375q-0.234375 0.828125 -0.671875 1.390625q-0.421875 0.5625 -1.03125 0.859375q-0.59375 0.28125 -1.328125 0.28125zm-0.265625 -7.71875q-0.59375 0 -1.015625 0.1875q-0.40625 0.171875 -0.65625 0.546875q-0.25 0.359375 -0.375 0.90625q-0.125 0.546875 -0.140625 1.296875l0 0.3125q0 0.796875 0.109375 1.40625q0.109375 0.609375 0.359375 1.03125q0.25 0.421875 0.671875 0.640625q0.421875 0.203125 1.0625 0.203125q1.046875 0 1.546875 -0.84375q0.5 -0.859375 0.5 -2.453125q0 -1.625 -0.5 -2.421875q-0.5 -0.8125 -1.5625 -0.8125zm11.328125 7.5625l-0.21875 -1.15625l-0.078125 0q-0.1875 0.34375 -0.46875 0.59375q-0.265625 0.234375 -0.59375 0.40625q-0.3125 0.15625 -0.671875 0.234375q-0.359375 0.078125 -0.734375 0.078125q-0.703125 0 -1.25 -0.171875q-0.53125 -0.1875 -0.890625 -0.5625q-0.359375 -0.390625 -0.546875 -0.984375q-0.1875 -0.59375 -0.1875 -1.421875l0 -5.59375l1.421875 0l0 5.515625q0 1.015625 0.40625 1.53125q0.421875 0.5 1.296875 0.5q0.625 0 1.046875 -0.203125q0.4375 -0.203125 0.703125 -0.59375q0.265625 -0.390625 0.375 -0.96875q0.109375 -0.578125 0.109375 -1.328125l0 -4.453125l1.421875 0l0 8.578125l-1.140625 0zm6.453125 -1.015625q0.140625 0 0.3125 -0.015625q0.1875 -0.015625 0.34375 -0.03125q0.171875 -0.03125 0.296875 -0.0625q0.140625 -0.03125 0.21875 -0.046875l0 1.078125q-0.109375 0.046875 -0.265625 0.09375q-0.15625 0.046875 -0.34375 0.078125q-0.1875 0.046875 -0.390625 0.0625q-0.203125 0.015625 -0.390625 0.015625q-0.484375 0 -0.90625 -0.125q-0.40625 -0.125 -0.71875 -0.421875q-0.296875 -0.3125 -0.46875 -0.828125q-0.171875 -0.53125 -0.171875 -1.3125l0 -4.984375l-1.203125 0l0 -0.625l1.203125 -0.609375l0.609375 -1.796875l0.828125 0l0 1.96875l2.15625 0l0 1.0625l-2.15625 0l0 4.984375q0 0.75 0.234375 1.140625q0.25 0.375 0.8125 0.375z" fill-rule="nonzero"></path><path fill="#000000" d="m34.242104 62.97187l1.6875 0l-0.4375 3.078125q-0.046875 0.25 -0.15625 0.34375q-0.09375 0.09375 -0.25 0.09375q-0.15625 0 -0.265625 -0.09375q-0.09375 -0.09375 -0.125 -0.34375l-0.453125 -3.078125zm2.71875 0l1.6875 0l-0.4375 3.078125q-0.03125 0.25 -0.140625 0.34375q-0.09375 0.09375 -0.25 0.09375q-0.171875 0 -0.28125 -0.09375q-0.09375 -0.09375 -0.125 -0.34375l-0.453125 -3.078125zm5.5356445 -0.140625l0 3.28125q0.515625 -0.546875 0.984375 -0.765625q0.46875 -0.234375 1.046875 -0.234375q0.609375 0 1.046875 0.21875q0.4375 0.21875 0.71875 0.671875q0.296875 0.453125 0.296875 0.953125l0 3.3125l0.609375 0q0.1875 0 0.265625 0.078125q0.078125 0.0625 0.078125 0.1875q0 0.109375 -0.078125 0.1875q-0.078125 0.078125 -0.265625 0.078125l-1.734375 0q-0.203125 0 -0.296875 -0.078125q-0.078125 -0.078125 -0.078125 -0.1875q0 -0.125 0.078125 -0.1875q0.09375 -0.078125 0.296875 -0.078125l0.59375 0l0 -3.265625q0 -0.578125 -0.421875 -0.96875q-0.40625 -0.390625 -1.15625 -0.390625q-0.578125 0 -1.0 0.28125q-0.296875 0.203125 -0.984375 0.96875l0 3.375l0.609375 0q0.1875 0 0.265625 0.078125q0.09375 0.0625 0.09375 0.1875q0 0.109375 -0.09375 0.1875q-0.078125 0.078125 -0.265625 0.078125l-1.734375 0q-0.203125 0 -0.28125 -0.078125q-0.078125 -0.078125 -0.078125 -0.1875q0 -0.125 0.078125 -0.1875q0.078125 -0.078125 0.28125 -0.078125l0.59375 0l0 -6.890625l-0.71875 0q-0.1875 0 -0.265625 -0.078125q-0.078125 -0.078125 -0.078125 -0.203125q0 -0.109375 0.078125 -0.1875q0.078125 -0.078125 0.265625 -0.078125l1.25 0zm12.535645 5.234375q0 1.21875 -0.875 2.078125q-0.859375 0.859375 -2.09375 0.859375q-1.25 0 -2.125 -0.859375q-0.859375 -0.875 -0.859375 -2.078125q0 -1.21875 0.859375 -2.078125q0.875 -0.875 2.125 -0.875q1.234375 0 2.09375 0.859375q0.875 0.859375 0.875 2.09375zm-0.53125 0q0 -1.0 -0.71875 -1.703125q-0.71875 -0.703125 -1.734375 -0.703125q-1.015625 0 -1.734375 0.703125q-0.703125 0.703125 -0.703125 1.703125q0 0.984375 0.703125 1.703125q0.71875 0.703125 1.734375 0.703125q1.015625 0 1.734375 -0.703125q0.71875 -0.703125 0.71875 -1.703125zm7.1918945 2.734375l-0.65625 0l-1.171875 -3.421875l-1.171875 3.421875l-0.65625 0l-1.109375 -4.953125l-0.25 0q-0.203125 0 -0.28125 -0.078125q-0.078125 -0.078125 -0.078125 -0.203125q0 -0.109375 0.078125 -0.1875q0.078125 -0.078125 0.28125 -0.078125l1.453125 0q0.203125 0 0.28125 0.078125q0.078125 0.078125 0.078125 0.203125q0 0.109375 -0.078125 0.1875q-0.078125 0.078125 -0.28125 0.078125l-0.671875 0l0.9375 4.21875l1.140625 -3.375l0.640625 0l1.171875 3.375l0.90625 -4.21875l-0.671875 0q-0.203125 0 -0.296875 -0.078125q-0.078125 -0.078125 -0.078125 -0.203125q0 -0.109375 0.078125 -0.1875q0.09375 -0.078125 0.296875 -0.078125l1.453125 0q0.203125 0 0.28125 0.078125q0.078125 0.078125 0.078125 0.203125q0 0.109375 -0.078125 0.1875q-0.078125 0.078125 -0.28125 0.078125l-0.25 0l-1.09375 4.953125zm12.680664 -5.5l2.890625 0q0.1875 0 0.265625 0.078125q0.09375 0.078125 0.09375 0.203125q0 0.109375 -0.09375 0.1875q-0.078125 0.078125 -0.265625 0.078125l-2.890625 0l0 3.546875q0 0.453125 0.359375 0.765625q0.375 0.3125 1.09375 0.3125q0.546875 0 1.171875 -0.15625q0.625 -0.15625 0.96875 -0.359375q0.125 -0.09375 0.21875 -0.09375q0.09375 0 0.171875 0.078125q0.078125 0.078125 0.078125 0.1875q0 0.09375 -0.078125 0.1875q-0.203125 0.203125 -1.0 0.453125q-0.78125 0.234375 -1.5 0.234375q-0.921875 0 -1.484375 -0.4375q-0.546875 -0.4375 -0.546875 -1.171875l0 -3.546875l-0.984375 0q-0.1875 0 -0.28125 -0.078125q-0.078125 -0.078125 -0.078125 -0.203125q0 -0.109375 0.078125 -0.1875q0.09375 -0.078125 0.28125 -0.078125l0.984375 0l0 -1.578125q0 -0.1875 0.078125 -0.265625q0.078125 -0.078125 0.1875 -0.078125q0.125 0 0.203125 0.078125q0.078125 0.078125 0.078125 0.265625l0 1.578125zm10.42627 5.5l0 -0.765625q-1.171875 0.96875 -2.484375 0.96875q-0.953125 0 -1.5 -0.484375q-0.53125 -0.484375 -0.53125 -1.1875q0 -0.765625 0.703125 -1.34375q0.71875 -0.578125 2.078125 -0.578125q0.359375 0 0.796875 0.046875q0.4375 0.046875 0.9375 0.140625l0 -0.859375q0 -0.4375 -0.40625 -0.75q-0.40625 -0.328125 -1.21875 -0.328125q-0.625 0 -1.75 0.359375q-0.203125 0.0625 -0.265625 0.0625q-0.09375 0 -0.171875 -0.078125q-0.0625 -0.078125 -0.0625 -0.1875q0 -0.109375 0.0625 -0.171875q0.078125 -0.09375 0.71875 -0.265625q0.984375 -0.265625 1.484375 -0.265625q1.015625 0 1.578125 0.5q0.5625 0.5 0.5625 1.125l0 3.53125l0.71875 0q0.1875 0 0.265625 0.078125q0.09375 0.0625 0.09375 0.1875q0 0.109375 -0.09375 0.1875q-0.078125 0.078125 -0.265625 0.078125l-1.25 0zm0 -2.65625q-0.375 -0.109375 -0.796875 -0.15625q-0.421875 -0.046875 -0.875 -0.046875q-1.171875 0 -1.828125 0.5q-0.484375 0.375 -0.484375 0.890625q0 0.484375 0.375 0.8125q0.375 0.328125 1.09375 0.328125q0.703125 0 1.296875 -0.265625q0.59375 -0.28125 1.21875 -0.890625l0 -1.171875zm6.5356445 -5.3125l0 7.4375l2.09375 0q0.203125 0 0.28125 0.078125q0.078125 0.0625 0.078125 0.1875q0 0.109375 -0.078125 0.1875q-0.078125 0.078125 -0.28125 0.078125l-4.71875 0q-0.1875 0 -0.28125 -0.078125q-0.078125 -0.078125 -0.078125 -0.1875q0 -0.125 0.078125 -0.1875q0.09375 -0.078125 0.28125 -0.078125l2.09375 0l0 -6.890625l-1.546875 0q-0.1875 0 -0.28125 -0.078125q-0.078125 -0.078125 -0.078125 -0.203125q0 -0.109375 0.078125 -0.1875q0.09375 -0.078125 0.28125 -0.078125l2.078125 0zm7.8012695 0l0 7.4375l2.09375 0q0.203125 0 0.28125 0.078125q0.078125 0.0625 0.078125 0.1875q0 0.109375 -0.078125 0.1875q-0.078125 0.078125 -0.28125 0.078125l-4.71875 0q-0.1875 0 -0.28125 -0.078125q-0.078125 -0.078125 -0.078125 -0.1875q0 -0.125 0.078125 -0.1875q0.09375 -0.078125 0.28125 -0.078125l2.09375 0l0 -6.890625l-1.546875 0q-0.1875 0 -0.28125 -0.078125q-0.078125 -0.078125 -0.078125 -0.203125q0 -0.109375 0.078125 -0.1875q0.09375 -0.078125 0.28125 -0.078125l2.078125 0zm15.602539 -0.265625l0 1.375l-0.796875 0l0 -1.375l0.796875 0zm0.015625 2.734375l0 4.96875l2.09375 0q0.1875 0 0.265625 0.078125q0.09375 0.0625 0.09375 0.1875q0 0.109375 -0.09375 0.1875q-0.078125 0.078125 -0.265625 0.078125l-4.71875 0q-0.203125 0 -0.28125 -0.078125q-0.078125 -0.078125 -0.078125 -0.1875q0 -0.125 0.078125 -0.1875q0.078125 -0.078125 0.28125 -0.078125l2.09375 0l0 -4.421875l-1.5625 0q-0.1875 0 -0.28125 -0.078125q-0.078125 -0.078125 -0.078125 -0.1875q0 -0.125 0.078125 -0.203125q0.078125 -0.078125 0.28125 -0.078125l2.09375 0zm9.27002 0.359375q0 -0.1875 0.078125 -0.265625q0.078125 -0.09375 0.1875 -0.09375q0.125 0 0.203125 0.09375q0.078125 0.078125 0.078125 0.265625l0 0.921875q0 0.1875 -0.078125 0.28125q-0.078125 0.078125 -0.203125 0.078125q-0.09375 0 -0.171875 -0.0625q-0.078125 -0.078125 -0.09375 -0.25q-0.03125 -0.375 -0.390625 -0.625q-0.515625 -0.34375 -1.375 -0.34375q-0.890625 0 -1.390625 0.359375q-0.375 0.265625 -0.375 0.609375q0 0.375 0.453125 0.625q0.296875 0.1875 1.140625 0.28125q1.125 0.109375 1.546875 0.265625q0.625 0.21875 0.921875 0.625q0.296875 0.390625 0.296875 0.84375q0 0.6875 -0.65625 1.21875q-0.640625 0.515625 -1.90625 0.515625q-1.265625 0 -2.078125 -0.640625q0 0.21875 -0.03125 0.28125q-0.015625 0.0625 -0.09375 0.109375q-0.0625 0.046875 -0.140625 0.046875q-0.109375 0 -0.1875 -0.078125q-0.078125 -0.09375 -0.078125 -0.28125l0 -1.09375q0 -0.1875 0.0625 -0.265625q0.078125 -0.09375 0.203125 -0.09375q0.109375 0 0.1875 0.078125q0.09375 0.078125 0.09375 0.21875q0 0.296875 0.140625 0.484375q0.21875 0.3125 0.703125 0.515625q0.484375 0.1875 1.1875 0.1875q1.046875 0 1.546875 -0.375q0.515625 -0.390625 0.515625 -0.828125q0 -0.5 -0.515625 -0.796875q-0.515625 -0.296875 -1.515625 -0.390625q-0.984375 -0.109375 -1.421875 -0.265625q-0.4375 -0.171875 -0.671875 -0.5q-0.234375 -0.328125 -0.234375 -0.71875q0 -0.671875 0.671875 -1.078125q0.671875 -0.40625 1.59375 -0.40625q1.109375 0 1.796875 0.546875zm16.821297 2.40625q0 1.21875 -0.875 2.078125q-0.859375 0.859375 -2.09375 0.859375q-1.25 0 -2.125 -0.859375q-0.859375 -0.875 -0.859375 -2.078125q0 -1.21875 0.859375 -2.078125q0.875 -0.875 2.125 -0.875q1.234375 0 2.09375 0.859375q0.875 0.859375 0.875 2.09375zm-0.53125 0q0 -1.0 -0.71875 -1.703125q-0.71875 -0.703125 -1.734375 -0.703125q-1.015625 0 -1.734375 0.703125q-0.703125 0.703125 -0.703125 1.703125q0 0.984375 0.703125 1.703125q0.71875 0.703125 1.734375 0.703125q1.015625 0 1.734375 -0.703125q0.71875 -0.703125 0.71875 -1.703125zm3.3481445 -5.234375l0 3.53125q0.96875 -1.25 2.328125 -1.25q1.171875 0 2.0 0.84375q0.828125 0.84375 0.828125 2.078125q0 1.25 -0.84375 2.109375q-0.828125 0.859375 -1.984375 0.859375q-1.390625 0 -2.328125 -1.25l0 1.046875l-1.25 0q-0.1875 0 -0.28125 -0.078125q-0.078125 -0.078125 -0.078125 -0.1875q0 -0.125 0.078125 -0.1875q0.09375 -0.078125 0.28125 -0.078125l0.71875 0l0 -6.890625l-0.71875 0q-0.1875 0 -0.28125 -0.078125q-0.078125 -0.078125 -0.078125 -0.203125q0 -0.109375 0.078125 -0.1875q0.09375 -0.078125 0.28125 -0.078125l1.25 0zm4.625 5.234375q0 -1.015625 -0.6875 -1.703125q-0.6875 -0.703125 -1.625 -0.703125q-0.921875 0 -1.625 0.703125q-0.6875 0.6875 -0.6875 1.703125q0 1.0 0.6875 1.703125q0.703125 0.703125 1.625 0.703125q0.9375 0 1.625 -0.703125q0.6875 -0.703125 0.6875 -1.703125zm6.7231445 2.734375l0 -0.765625q-1.171875 0.96875 -2.484375 0.96875q-0.953125 0 -1.5 -0.484375q-0.53125 -0.484375 -0.53125 -1.1875q0 -0.765625 0.703125 -1.34375q0.71875 -0.578125 2.078125 -0.578125q0.359375 0 0.796875 0.046875q0.4375 0.046875 0.9375 0.140625l0 -0.859375q0 -0.4375 -0.40625 -0.75q-0.40625 -0.328125 -1.21875 -0.328125q-0.625 0 -1.75 0.359375q-0.203125 0.0625 -0.265625 0.0625q-0.09375 0 -0.171875 -0.078125q-0.0625 -0.078125 -0.0625 -0.1875q0 -0.109375 0.0625 -0.171875q0.078125 -0.09375 0.71875 -0.265625q0.984375 -0.265625 1.484375 -0.265625q1.015625 0 1.578125 0.5q0.5625 0.5 0.5625 1.125l0 3.53125l0.71875 0q0.1875 0 0.265625 0.078125q0.09375 0.0625 0.09375 0.1875q0 0.109375 -0.09375 0.1875q-0.078125 0.078125 -0.265625 0.078125l-1.25 0zm0 -2.65625q-0.375 -0.109375 -0.796875 -0.15625q-0.421875 -0.046875 -0.875 -0.046875q-1.171875 0 -1.828125 0.5q-0.484375 0.375 -0.484375 0.890625q0 0.484375 0.375 0.8125q0.375 0.328125 1.09375 0.328125q0.703125 0 1.296875 -0.265625q0.59375 -0.28125 1.21875 -0.890625l0 -1.171875zm3.8325195 -2.84375l0 0.546875q0.6875 -0.734375 1.375 -0.734375q0.40625 0 0.71875 0.21875q0.3125 0.21875 0.515625 0.65625q0.359375 -0.4375 0.71875 -0.65625q0.375 -0.21875 0.734375 -0.21875q0.578125 0 0.921875 0.375q0.453125 0.484375 0.453125 1.046875l0 3.734375l0.453125 0q0.1875 0 0.265625 0.078125q0.09375 0.0625 0.09375 0.1875q0 0.109375 -0.09375 0.1875q-0.078125 0.078125 -0.265625 0.078125l-0.984375 0l0 -4.203125q0 -0.40625 -0.25 -0.671875q-0.25 -0.265625 -0.578125 -0.265625q-0.28125 0 -0.609375 0.21875q-0.328125 0.21875 -0.734375 0.859375l0 3.53125l0.4375 0q0.203125 0 0.28125 0.078125q0.078125 0.0625 0.078125 0.1875q0 0.109375 -0.078125 0.1875q-0.078125 0.078125 -0.28125 0.078125l-0.984375 0l0 -4.171875q0 -0.421875 -0.25 -0.6875q-0.25 -0.28125 -0.5625 -0.28125q-0.28125 0 -0.5625 0.171875q-0.390625 0.265625 -0.8125 0.90625l0 3.53125l0.453125 0q0.1875 0 0.265625 0.078125q0.09375 0.0625 0.09375 0.1875q0 0.109375 -0.09375 0.1875q-0.078125 0.078125 -0.265625 0.078125l-1.4375 0q-0.1875 0 -0.265625 -0.078125q-0.078125 -0.078125 -0.078125 -0.1875q0 -0.125 0.078125 -0.1875q0.078125 -0.078125 0.265625 -0.078125l0.453125 0l0 -4.421875l-0.453125 0q-0.1875 0 -0.265625 -0.078125q-0.078125 -0.078125 -0.078125 -0.203125q0 -0.109375 0.078125 -0.1875q0.078125 -0.078125 0.265625 -0.078125l0.984375 0zm11.77002 5.5l0 -0.765625q-1.171875 0.96875 -2.484375 0.96875q-0.953125 0 -1.5 -0.484375q-0.53125 -0.484375 -0.53125 -1.1875q0 -0.765625 0.703125 -1.34375q0.71875 -0.578125 2.078125 -0.578125q0.359375 0 0.796875 0.046875q0.4375 0.046875 0.9375 0.140625l0 -0.859375q0 -0.4375 -0.40625 -0.75q-0.40625 -0.328125 -1.21875 -0.328125q-0.625 0 -1.75 0.359375q-0.203125 0.0625 -0.265625 0.0625q-0.09375 0 -0.171875 -0.078125q-0.0625 -0.078125 -0.0625 -0.1875q0 -0.109375 0.0625 -0.171875q0.078125 -0.09375 0.71875 -0.265625q0.984375 -0.265625 1.484375 -0.265625q1.015625 0 1.578125 0.5q0.5625 0.5 0.5625 1.125l0 3.53125l0.71875 0q0.1875 0 0.265625 0.078125q0.09375 0.0625 0.09375 0.1875q0 0.109375 -0.09375 0.1875q-0.078125 0.078125 -0.265625 0.078125l-1.25 0zm0 -2.65625q-0.375 -0.109375 -0.796875 -0.15625q-0.421875 -0.046875 -0.875 -0.046875q-1.171875 0 -1.828125 0.5q-0.484375 0.375 -0.484375 0.890625q0 0.484375 0.375 0.8125q0.375 0.328125 1.09375 0.328125q0.703125 0 1.296875 -0.265625q0.59375 -0.28125 1.21875 -0.890625l0 -1.171875zm4.0512695 -5.171875l1.6875 0l-0.4375 3.078125q-0.046875 0.25 -0.15625 0.34375q-0.09375 0.09375 -0.25 0.09375q-0.15625 0 -0.265625 -0.09375q-0.09375 -0.09375 -0.125 -0.34375l-0.453125 -3.078125zm2.71875 0l1.6875 0l-0.4375 3.078125q-0.03125 0.25 -0.140625 0.34375q-0.09375 0.09375 -0.25 0.09375q-0.171875 0 -0.28125 -0.09375q-0.09375 -0.09375 -0.125 -0.34375l-0.453125 -3.078125z" fill-rule="nonzero"></path><path fill="#cfe2f3" d="m252.66667 4.0l103.999985 0l0 103.99999l-103.999985 0z" fill-rule="nonzero"></path><path stroke="#000000" stroke-width="1.0" stroke-linejoin="round" stroke-linecap="butt" d="m252.66667 4.0l103.999985 0l0 103.99999l-103.999985 0z" fill-rule="nonzero"></path><path fill="#000000" d="m274.47427 49.123123q0 0.75 -0.265625 1.3125q-0.265625 0.546875 -0.78125 0.921875q-0.5 0.375 -1.21875 0.5625q-0.703125 0.1875 -1.59375 0.1875q-1.015625 0 -1.75 -0.171875q-0.71875 -0.15625 -1.265625 -0.46875l0 -1.546875q0.296875 0.15625 0.640625 0.296875q0.359375 0.140625 0.75 0.25q0.390625 0.109375 0.796875 0.1875q0.421875 0.0625 0.828125 0.0625q0.59375 0 1.015625 -0.09375q0.421875 -0.109375 0.6875 -0.296875q0.265625 -0.1875 0.390625 -0.453125q0.125 -0.28125 0.125 -0.609375q0 -0.296875 -0.09375 -0.53125q-0.09375 -0.234375 -0.34375 -0.453125q-0.25 -0.234375 -0.671875 -0.453125q-0.421875 -0.234375 -1.09375 -0.53125q-0.671875 -0.28125 -1.203125 -0.5625q-0.53125 -0.28125 -0.90625 -0.625q-0.375 -0.34375 -0.578125 -0.78125q-0.1875 -0.453125 -0.1875 -1.078125q0 -0.65625 0.25 -1.15625q0.265625 -0.5 0.71875 -0.84375q0.46875 -0.34375 1.109375 -0.515625q0.65625 -0.1875 1.453125 -0.1875q0.90625 0 1.640625 0.203125q0.75 0.1875 1.421875 0.5l-0.578125 1.375q-0.609375 -0.28125 -1.25 -0.46875q-0.625 -0.203125 -1.28125 -0.203125q-0.953125 0 -1.40625 0.3125q-0.453125 0.3125 -0.453125 0.875q0 0.328125 0.109375 0.578125q0.109375 0.234375 0.359375 0.453125q0.265625 0.203125 0.703125 0.421875q0.4375 0.21875 1.078125 0.5q0.671875 0.265625 1.1875 0.546875q0.53125 0.28125 0.890625 0.625q0.375 0.34375 0.5625 0.796875q0.203125 0.4375 0.203125 1.0625zm6.3546753 2.984375q-1.015625 0 -1.859375 -0.34375q-0.84375 -0.34375 -1.453125 -1.0q-0.609375 -0.65625 -0.953125 -1.625q-0.328125 -0.984375 -0.328125 -2.234375q0 -1.265625 0.296875 -2.25q0.3125 -1.0 0.875 -1.6875q0.5625 -0.703125 1.328125 -1.0625q0.78125 -0.359375 1.71875 -0.359375q0.90625 0 1.640625 0.328125q0.734375 0.328125 1.25 0.9375q0.515625 0.59375 0.78125 1.4375q0.28125 0.828125 0.28125 1.859375l0 1.046875l-6.421875 0q0.046875 1.78125 0.75 2.625q0.71875 0.84375 2.109375 0.84375q0.46875 0 0.875 -0.03125q0.40625 -0.046875 0.78125 -0.140625q0.375 -0.09375 0.71875 -0.21875q0.359375 -0.140625 0.734375 -0.3125l0 1.515625q-0.375 0.171875 -0.734375 0.296875q-0.359375 0.125 -0.734375 0.203125q-0.375 0.09375 -0.78125 0.125q-0.40625 0.046875 -0.875 0.046875zm-0.421875 -9.15625q-1.046875 0 -1.671875 0.71875q-0.609375 0.71875 -0.71875 2.109375l4.5625 0q0 -0.625 -0.125 -1.15625q-0.125 -0.53125 -0.390625 -0.890625q-0.265625 -0.375 -0.671875 -0.578125q-0.40625 -0.203125 -0.984375 -0.203125zm18.577759 8.96875l0 -6.5625q0 -1.203125 -0.46875 -1.796875q-0.453125 -0.609375 -1.4375 -0.609375q-0.671875 0 -1.15625 0.21875q-0.46875 0.21875 -0.765625 0.640625q-0.296875 0.421875 -0.4375 1.046875q-0.140625 0.625 -0.140625 1.4375l0 5.625l-1.703125 0l0 -6.5625q0 -1.203125 -0.453125 -1.796875q-0.453125 -0.609375 -1.4375 -0.609375q-0.703125 0 -1.1875 0.25q-0.484375 0.234375 -0.78125 0.703125q-0.296875 0.46875 -0.421875 1.15625q-0.125 0.6875 -0.125 1.578125l0 5.28125l-1.6875 0l0 -10.1875l1.375 0l0.25 1.375l0.09375 0q0.21875 -0.40625 0.515625 -0.6875q0.3125 -0.296875 0.671875 -0.484375q0.375 -0.203125 0.78125 -0.296875q0.421875 -0.09375 0.84375 -0.09375q1.109375 0 1.84375 0.40625q0.75 0.40625 1.09375 1.28125l0.078125 0q0.234375 -0.4375 0.578125 -0.75q0.34375 -0.3125 0.734375 -0.515625q0.40625 -0.21875 0.84375 -0.3125q0.453125 -0.109375 0.921875 -0.109375q1.625 0 2.4375 0.890625q0.828125 0.890625 0.828125 2.828125l0 6.65625l-1.6875 0zm10.262817 0l-0.34375 -1.40625l-0.078125 0q-0.296875 0.40625 -0.609375 0.71875q-0.3125 0.296875 -0.671875 0.5q-0.359375 0.1875 -0.8125 0.28125q-0.4375 0.09375 -1.015625 0.09375q-0.640625 0 -1.1875 -0.1875q-0.53125 -0.171875 -0.9375 -0.546875q-0.390625 -0.375 -0.609375 -0.9375q-0.21875 -0.578125 -0.21875 -1.359375q0 -1.53125 1.0625 -2.34375q1.078125 -0.8125 3.265625 -0.890625l1.703125 -0.0625l0 -0.640625q0 -0.625 -0.140625 -1.03125q-0.125 -0.421875 -0.390625 -0.671875q-0.25 -0.265625 -0.625 -0.375q-0.375 -0.109375 -0.84375 -0.109375q-0.78125 0 -1.453125 0.21875q-0.65625 0.21875 -1.265625 0.546875l-0.59375 -1.28125q0.6875 -0.375 1.53125 -0.625q0.84375 -0.265625 1.78125 -0.265625q0.9375 0 1.625 0.203125q0.703125 0.1875 1.140625 0.59375q0.453125 0.40625 0.671875 1.046875q0.234375 0.640625 0.234375 1.546875l0 6.984375l-1.21875 0zm-3.09375 -1.171875q0.5625 0 1.046875 -0.171875q0.484375 -0.1875 0.828125 -0.546875q0.359375 -0.359375 0.546875 -0.890625q0.203125 -0.546875 0.203125 -1.28125l0 -0.921875l-1.328125 0.0625q-0.828125 0.046875 -1.40625 0.203125q-0.5625 0.140625 -0.90625 0.40625q-0.328125 0.265625 -0.484375 0.640625q-0.140625 0.375 -0.140625 0.84375q0 0.859375 0.453125 1.265625q0.453125 0.390625 1.1875 0.390625zm13.620758 1.171875l0 -6.5625q0 -1.203125 -0.5 -1.796875q-0.484375 -0.609375 -1.515625 -0.609375q-0.75 0 -1.265625 0.25q-0.515625 0.234375 -0.828125 0.703125q-0.296875 0.46875 -0.4375 1.15625q-0.140625 0.6875 -0.140625 1.578125l0 5.28125l-1.6875 0l0 -10.1875l1.375 0l0.25 1.375l0.09375 0q0.21875 -0.40625 0.53125 -0.6875q0.328125 -0.296875 0.703125 -0.484375q0.390625 -0.203125 0.8125 -0.296875q0.4375 -0.09375 0.875 -0.09375q1.703125 0 2.5625 0.890625q0.859375 0.890625 0.859375 2.828125l0 6.65625l-1.6875 0zm7.6891785 -1.203125q0.171875 0 0.375 -0.015625q0.21875 -0.015625 0.40625 -0.046875q0.203125 -0.03125 0.359375 -0.0625q0.171875 -0.03125 0.25 -0.0625l0 1.28125q-0.125 0.046875 -0.3125 0.109375q-0.1875 0.0625 -0.40625 0.09375q-0.21875 0.046875 -0.46875 0.0625q-0.234375 0.03125 -0.46875 0.03125q-0.578125 0 -1.078125 -0.15625q-0.484375 -0.140625 -0.84375 -0.5q-0.34375 -0.359375 -0.546875 -0.96875q-0.203125 -0.625 -0.203125 -1.5625l0 -5.921875l-1.4375 0l0 -0.75l1.4375 -0.71875l0.71875 -2.140625l0.96875 0l0 2.34375l2.5625 0l0 1.265625l-2.5625 0l0 5.921875q0 0.890625 0.296875 1.34375q0.296875 0.453125 0.953125 0.453125zm4.931366 1.203125l-1.6875 0l0 -10.1875l1.6875 0l0 10.1875zm-1.8125 -12.9375q0 -0.5625 0.28125 -0.8125q0.28125 -0.25 0.703125 -0.25q0.203125 0 0.375 0.0625q0.1875 0.0625 0.3125 0.1875q0.140625 0.125 0.21875 0.328125q0.078125 0.203125 0.078125 0.484375q0 0.53125 -0.296875 0.796875q-0.28125 0.265625 -0.6875 0.265625q-0.421875 0 -0.703125 -0.25q-0.28125 -0.265625 -0.28125 -0.8125zm8.859283 13.125q-0.9375 0 -1.765625 -0.296875q-0.8125 -0.296875 -1.421875 -0.921875q-0.59375 -0.640625 -0.9375 -1.625q-0.34375 -0.984375 -0.34375 -2.375q0 -1.46875 0.34375 -2.484375q0.359375 -1.015625 0.96875 -1.640625q0.625 -0.640625 1.453125 -0.921875q0.828125 -0.296875 1.765625 -0.296875q0.734375 0 1.421875 0.15625q0.6875 0.15625 1.15625 0.390625l-0.5 1.4375q-0.21875 -0.09375 -0.484375 -0.1875q-0.25 -0.09375 -0.53125 -0.15625q-0.28125 -0.0625 -0.546875 -0.109375q-0.265625 -0.046875 -0.515625 -0.046875q-1.453125 0 -2.125 0.9375q-0.65625 0.9375 -0.65625 2.890625q0 1.96875 0.671875 2.875q0.671875 0.890625 2.046875 0.890625q0.75 0 1.359375 -0.171875q0.609375 -0.171875 1.109375 -0.390625l0 1.5q-0.5 0.265625 -1.078125 0.40625q-0.5625 0.140625 -1.390625 0.140625z" fill-rule="nonzero"></path><path fill="#000000" d="m283.82565 74.1075q-0.546875 0 -1.0 -0.125q-0.4375 -0.125 -0.796875 -0.3125q-0.359375 -0.203125 -0.640625 -0.46875q-0.265625 -0.28125 -0.484375 -0.578125l-0.109375 0q0.03125 0.328125 0.0625 0.609375q0.015625 0.234375 0.03125 0.5q0.015625 0.25 0.015625 0.40625l0 4.34375l-1.6875 0l0 -14.75l1.375 0l0.25 1.375l0.0625 0q0.21875 -0.328125 0.484375 -0.609375q0.265625 -0.28125 0.625 -0.484375q0.359375 -0.21875 0.796875 -0.34375q0.453125 -0.125 1.015625 -0.125q0.875 0 1.578125 0.34375q0.71875 0.328125 1.21875 1.0q0.515625 0.65625 0.78125 1.640625q0.28125 0.984375 0.28125 2.28125q0 1.3125 -0.28125 2.296875q-0.265625 0.984375 -0.78125 1.65625q-0.5 0.671875 -1.21875 1.015625q-0.703125 0.328125 -1.578125 0.328125zm-0.328125 -9.15625q-0.703125 0 -1.1875 0.21875q-0.484375 0.203125 -0.796875 0.640625q-0.296875 0.4375 -0.4375 1.09375q-0.140625 0.640625 -0.171875 1.515625l0 0.390625q0 0.9375 0.125 1.671875q0.125 0.71875 0.421875 1.21875q0.3125 0.5 0.8125 0.75q0.5 0.25 1.25 0.25q1.25 0 1.84375 -1.0q0.59375 -1.015625 0.59375 -2.90625q0 -1.9375 -0.59375 -2.890625q-0.59375 -0.953125 -1.859375 -0.953125zm12.4001465 8.96875l-0.34375 -1.40625l-0.078125 0q-0.296875 0.40625 -0.609375 0.71875q-0.3125 0.296875 -0.671875 0.5q-0.359375 0.1875 -0.8125 0.28125q-0.4375 0.09375 -1.015625 0.09375q-0.640625 0 -1.1875 -0.1875q-0.53125 -0.171875 -0.9375 -0.546875q-0.390625 -0.375 -0.609375 -0.9375q-0.21875 -0.578125 -0.21875 -1.359375q0 -1.53125 1.0625 -2.34375q1.078125 -0.8125 3.265625 -0.890625l1.703125 -0.0625l0 -0.640625q0 -0.625 -0.140625 -1.03125q-0.125 -0.421875 -0.390625 -0.671875q-0.25 -0.265625 -0.625 -0.375q-0.375 -0.109375 -0.84375 -0.109375q-0.78125 0 -1.453125 0.21875q-0.65625 0.21875 -1.265625 0.546875l-0.59375 -1.28125q0.6875 -0.375 1.53125 -0.625q0.84375 -0.265625 1.78125 -0.265625q0.9375 0 1.625 0.203125q0.703125 0.1875 1.140625 0.59375q0.453125 0.40625 0.671875 1.046875q0.234375 0.640625 0.234375 1.546875l0 6.984375l-1.21875 0zm-3.09375 -1.171875q0.5625 0 1.046875 -0.171875q0.484375 -0.1875 0.828125 -0.546875q0.359375 -0.359375 0.546875 -0.890625q0.203125 -0.546875 0.203125 -1.28125l0 -0.921875l-1.328125 0.0625q-0.828125 0.046875 -1.40625 0.203125q-0.5625 0.140625 -0.90625 0.40625q-0.328125 0.265625 -0.484375 0.640625q-0.140625 0.375 -0.140625 0.84375q0 0.859375 0.453125 1.265625q0.453125 0.390625 1.1875 0.390625zm11.652008 -9.203125q0.28125 0 0.609375 0.03125q0.328125 0.015625 0.578125 0.0625l-0.21875 1.5625q-0.265625 -0.046875 -0.546875 -0.078125q-0.265625 -0.03125 -0.515625 -0.03125q-0.578125 0 -1.0625 0.234375q-0.484375 0.234375 -0.828125 0.671875q-0.34375 0.4375 -0.546875 1.0625q-0.1875 0.609375 -0.1875 1.359375l0 5.5l-1.6875 0l0 -10.1875l1.375 0l0.203125 1.859375l0.078125 0q0.234375 -0.390625 0.5 -0.765625q0.265625 -0.375 0.59375 -0.65625q0.328125 -0.28125 0.734375 -0.453125q0.40625 -0.171875 0.921875 -0.171875zm9.129974 7.578125q0 0.75 -0.265625 1.3125q-0.265625 0.546875 -0.78125 0.921875q-0.5 0.375 -1.21875 0.5625q-0.703125 0.1875 -1.59375 0.1875q-1.015625 0 -1.75 -0.171875q-0.71875 -0.15625 -1.265625 -0.46875l0 -1.546875q0.296875 0.15625 0.640625 0.296875q0.359375 0.140625 0.75 0.25q0.390625 0.109375 0.796875 0.1875q0.421875 0.0625 0.828125 0.0625q0.59375 0 1.015625 -0.09375q0.421875 -0.109375 0.6875 -0.296875q0.265625 -0.1875 0.390625 -0.453125q0.125 -0.28125 0.125 -0.609375q0 -0.296875 -0.09375 -0.53125q-0.09375 -0.234375 -0.34375 -0.453125q-0.25 -0.234375 -0.671875 -0.453125q-0.421875 -0.234375 -1.09375 -0.53125q-0.671875 -0.28125 -1.203125 -0.5625q-0.53125 -0.28125 -0.90625 -0.625q-0.375 -0.34375 -0.578125 -0.78125q-0.1875 -0.453125 -0.1875 -1.078125q0 -0.65625 0.25 -1.15625q0.265625 -0.5 0.71875 -0.84375q0.46875 -0.34375 1.109375 -0.515625q0.65625 -0.1875 1.453125 -0.1875q0.90625 0 1.640625 0.203125q0.75 0.1875 1.421875 0.5l-0.578125 1.375q-0.609375 -0.28125 -1.25 -0.46875q-0.625 -0.203125 -1.28125 -0.203125q-0.953125 0 -1.40625 0.3125q-0.453125 0.3125 -0.453125 0.875q0 0.328125 0.109375 0.578125q0.109375 0.234375 0.359375 0.453125q0.265625 0.203125 0.703125 0.421875q0.4375 0.21875 1.078125 0.5q0.671875 0.265625 1.1875 0.546875q0.53125 0.28125 0.890625 0.625q0.375 0.34375 0.5625 0.796875q0.203125 0.4375 0.203125 1.0625zm6.3546753 2.984375q-1.015625 0 -1.859375 -0.34375q-0.84375 -0.34375 -1.453125 -1.0q-0.609375 -0.65625 -0.953125 -1.625q-0.328125 -0.984375 -0.328125 -2.234375q0 -1.265625 0.296875 -2.25q0.3125 -1.0 0.875 -1.6875q0.5625 -0.703125 1.328125 -1.0625q0.78125 -0.359375 1.71875 -0.359375q0.90625 0 1.640625 0.328125q0.734375 0.328125 1.25 0.9375q0.515625 0.59375 0.78125 1.4375q0.28125 0.828125 0.28125 1.859375l0 1.046875l-6.421875 0q0.046875 1.78125 0.75 2.625q0.71875 0.84375 2.109375 0.84375q0.46875 0 0.875 -0.03125q0.40625 -0.046875 0.78125 -0.140625q0.375 -0.09375 0.71875 -0.21875q0.359375 -0.140625 0.734375 -0.3125l0 1.515625q-0.375 0.171875 -0.734375 0.296875q-0.359375 0.125 -0.734375 0.203125q-0.375 0.09375 -0.78125 0.125q-0.40625 0.046875 -0.875 0.046875zm-0.421875 -9.15625q-1.046875 0 -1.671875 0.71875q-0.609375 0.71875 -0.71875 2.109375l4.5625 0q0 -0.625 -0.125 -1.15625q-0.125 -0.53125 -0.390625 -0.890625q-0.265625 -0.375 -0.671875 -0.578125q-0.40625 -0.203125 -0.984375 -0.203125zm10.780884 -1.40625q0.28125 0 0.609375 0.03125q0.328125 0.015625 0.578125 0.0625l-0.21875 1.5625q-0.265625 -0.046875 -0.546875 -0.078125q-0.265625 -0.03125 -0.515625 -0.03125q-0.578125 0 -1.0625 0.234375q-0.484375 0.234375 -0.828125 0.671875q-0.34375 0.4375 -0.546875 1.0625q-0.1875 0.609375 -0.1875 1.359375l0 5.5l-1.6875 0l0 -10.1875l1.375 0l0.203125 1.859375l0.078125 0q0.234375 -0.390625 0.5 -0.765625q0.265625 -0.375 0.59375 -0.65625q0.328125 -0.28125 0.734375 -0.453125q0.40625 -0.171875 0.921875 -0.171875z" fill-rule="nonzero"></path><path fill="#cfe2f3" d="m680.6667 4.0l104.0 0l0 103.99999l-104.0 0z" fill-rule="nonzero"></path><path stroke="#000000" stroke-width="1.0" stroke-linejoin="round" stroke-linecap="butt" d="m680.6667 4.0l104.0 0l0 103.99999l-104.0 0z" fill-rule="nonzero"></path><path fill="#000000" d="m701.58234 63.107494q-1.015625 0 -1.859375 -0.34375q-0.84375 -0.34375 -1.453125 -1.0q-0.609375 -0.65625 -0.953125 -1.625q-0.328125 -0.984375 -0.328125 -2.234375q0 -1.265625 0.296875 -2.25q0.3125 -1.0 0.875 -1.6875q0.5625 -0.703125 1.328125 -1.0625q0.78125 -0.359375 1.71875 -0.359375q0.90625 0 1.640625 0.328125q0.734375 0.328125 1.25 0.9375q0.515625 0.59375 0.78125 1.4375q0.28125 0.828125 0.28125 1.859375l0 1.046875l-6.421875 0q0.046875 1.78125 0.75 2.625q0.71875 0.84375 2.109375 0.84375q0.46875 0 0.875 -0.03125q0.40625 -0.046875 0.78125 -0.140625q0.375 -0.09375 0.71875 -0.21875q0.359375 -0.140625 0.734375 -0.3125l0 1.515625q-0.375 0.171875 -0.734375 0.296875q-0.359375 0.125 -0.734375 0.203125q-0.375 0.09375 -0.78125 0.125q-0.40625 0.046875 -0.875 0.046875zm-0.421875 -9.15625q-1.046875 0 -1.671875 0.71875q-0.609375 0.71875 -0.71875 2.109375l4.5625 0q0 -0.625 -0.125 -1.15625q-0.125 -0.53125 -0.390625 -0.890625q-0.265625 -0.375 -0.671875 -0.578125q-0.40625 -0.203125 -0.984375 -0.203125zm8.546509 3.75l-3.265625 -4.96875l1.921875 0l2.3125 3.796875l2.3125 -3.796875l1.921875 0l-3.28125 4.96875l3.453125 5.21875l-1.921875 0l-2.484375 -4.046875l-2.5 4.046875l-1.921875 0l3.453125 -5.21875zm11.1875 5.40625q-1.015625 0 -1.859375 -0.34375q-0.84375 -0.34375 -1.453125 -1.0q-0.609375 -0.65625 -0.953125 -1.625q-0.328125 -0.984375 -0.328125 -2.234375q0 -1.265625 0.296875 -2.25q0.3125 -1.0 0.875 -1.6875q0.5625 -0.703125 1.328125 -1.0625q0.78125 -0.359375 1.71875 -0.359375q0.90625 0 1.640625 0.328125q0.734375 0.328125 1.25 0.9375q0.515625 0.59375 0.78125 1.4375q0.28125 0.828125 0.28125 1.859375l0 1.046875l-6.421875 0q0.046875 1.78125 0.75 2.625q0.71875 0.84375 2.109375 0.84375q0.46875 0 0.875 -0.03125q0.40625 -0.046875 0.78125 -0.140625q0.375 -0.09375 0.71875 -0.21875q0.359375 -0.140625 0.734375 -0.3125l0 1.515625q-0.375 0.171875 -0.734375 0.296875q-0.359375 0.125 -0.734375 0.203125q-0.375 0.09375 -0.78125 0.125q-0.40625 0.046875 -0.875 0.046875zm-0.421875 -9.15625q-1.046875 0 -1.671875 0.71875q-0.609375 0.71875 -0.71875 2.109375l4.5625 0q0 -0.625 -0.125 -1.15625q-0.125 -0.53125 -0.390625 -0.890625q-0.265625 -0.375 -0.671875 -0.578125q-0.40625 -0.203125 -0.984375 -0.203125zm10.280884 9.15625q-0.9375 0 -1.765625 -0.296875q-0.8125 -0.296875 -1.421875 -0.921875q-0.59375 -0.640625 -0.9375 -1.625q-0.34375 -0.984375 -0.34375 -2.375q0 -1.46875 0.34375 -2.484375q0.359375 -1.015625 0.96875 -1.640625q0.625 -0.640625 1.453125 -0.921875q0.828125 -0.296875 1.765625 -0.296875q0.734375 0 1.421875 0.15625q0.6875 0.15625 1.15625 0.390625l-0.5 1.4375q-0.21875 -0.09375 -0.484375 -0.1875q-0.25 -0.09375 -0.53125 -0.15625q-0.28125 -0.0625 -0.546875 -0.109375q-0.265625 -0.046875 -0.515625 -0.046875q-1.453125 0 -2.125 0.9375q-0.65625 0.9375 -0.65625 2.890625q0 1.96875 0.671875 2.875q0.671875 0.890625 2.046875 0.890625q0.75 0 1.359375 -0.171875q0.609375 -0.171875 1.109375 -0.390625l0 1.5q-0.5 0.265625 -1.078125 0.40625q-0.5625 0.140625 -1.390625 0.140625zm11.323303 -0.1875l-0.25 -1.359375l-0.078125 0q-0.234375 0.390625 -0.5625 0.6875q-0.3125 0.296875 -0.703125 0.484375q-0.375 0.1875 -0.8125 0.28125q-0.421875 0.09375 -0.859375 0.09375q-0.84375 0 -1.484375 -0.203125q-0.640625 -0.21875 -1.078125 -0.671875q-0.421875 -0.46875 -0.640625 -1.171875q-0.21875 -0.703125 -0.21875 -1.671875l0 -6.65625l1.6875 0l0 6.5625q0 1.203125 0.484375 1.8125q0.5 0.59375 1.53125 0.59375q0.75 0 1.265625 -0.234375q0.515625 -0.25 0.8125 -0.71875q0.3125 -0.46875 0.453125 -1.15625q0.140625 -0.6875 0.140625 -1.578125l0 -5.28125l1.6875 0l0 10.1875l-1.375 0zm7.470459 -1.203125q0.171875 0 0.375 -0.015625q0.21875 -0.015625 0.40625 -0.046875q0.203125 -0.03125 0.359375 -0.0625q0.171875 -0.03125 0.25 -0.0625l0 1.28125q-0.125 0.046875 -0.3125 0.109375q-0.1875 0.0625 -0.40625 0.09375q-0.21875 0.046875 -0.46875 0.0625q-0.234375 0.03125 -0.46875 0.03125q-0.578125 0 -1.078125 -0.15625q-0.484375 -0.140625 -0.84375 -0.5q-0.34375 -0.359375 -0.546875 -0.96875q-0.203125 -0.625 -0.203125 -1.5625l0 -5.921875l-1.4375 0l0 -0.75l1.4375 -0.71875l0.71875 -2.140625l0.96875 0l0 2.34375l2.5625 0l0 1.265625l-2.5625 0l0 5.921875q0 0.890625 0.296875 1.34375q0.296875 0.453125 0.953125 0.453125zm11.556335 -3.90625q0 1.265625 -0.3125 2.265625q-0.3125 0.984375 -0.890625 1.65625q-0.578125 0.671875 -1.40625 1.03125q-0.828125 0.34375 -1.859375 0.34375q-0.953125 0 -1.765625 -0.34375q-0.796875 -0.359375 -1.390625 -1.03125q-0.59375 -0.671875 -0.921875 -1.65625q-0.328125 -1.0 -0.328125 -2.265625q0 -1.265625 0.3125 -2.234375q0.3125 -0.984375 0.890625 -1.65625q0.578125 -0.671875 1.40625 -1.015625q0.828125 -0.359375 1.859375 -0.359375q0.953125 0 1.75 0.359375q0.8125 0.34375 1.40625 1.015625q0.59375 0.671875 0.921875 1.65625q0.328125 0.96875 0.328125 2.234375zm-7.125 0q0 1.9375 0.625 2.921875q0.640625 0.96875 2.078125 0.96875q1.421875 0 2.046875 -0.96875q0.625 -0.984375 0.625 -2.921875q0 -1.9375 -0.640625 -2.890625q-0.625 -0.96875 -2.0625 -0.96875q-1.421875 0 -2.046875 0.96875q-0.625 0.953125 -0.625 2.890625zm13.986206 -5.265625q0.28125 0 0.609375 0.03125q0.328125 0.015625 0.578125 0.0625l-0.21875 1.5625q-0.265625 -0.046875 -0.546875 -0.078125q-0.265625 -0.03125 -0.515625 -0.03125q-0.578125 0 -1.0625 0.234375q-0.484375 0.234375 -0.828125 0.671875q-0.34375 0.4375 -0.546875 1.0625q-0.1875 0.609375 -0.1875 1.359375l0 5.5l-1.6875 0l0 -10.1875l1.375 0l0.203125 1.859375l0.078125 0q0.234375 -0.390625 0.5 -0.765625q0.265625 -0.375 0.59375 -0.65625q0.328125 -0.28125 0.734375 -0.453125q0.40625 -0.171875 0.921875 -0.171875z" fill-rule="nonzero"></path><path fill="#d9ead3" d="m398.66666 36.32024l0 0c0 -9.01342 7.3068237 -16.32024 16.320251 -16.32024l207.35953 0c4.328369 0 8.479492 1.7194481 11.540161 4.7800884c3.060608 3.0606384 4.7800903 7.211754 4.7800903 11.540152l0 39.359516c0 9.01342 -7.3068237 16.320244 -16.320251 16.320244l-207.35953 0l0 0c-9.013428 0 -16.320251 -7.3068237 -16.320251 -16.320244z" fill-rule="nonzero"></path><path stroke="#000000" stroke-width="1.0" stroke-linejoin="round" stroke-linecap="butt" d="m398.66666 36.32024l0 0c0 -9.01342 7.3068237 -16.32024 16.320251 -16.32024l207.35953 0c4.328369 0 8.479492 1.7194481 11.540161 4.7800884c3.060608 3.0606384 4.7800903 7.211754 4.7800903 11.540152l0 39.359516c0 9.01342 -7.3068237 16.320244 -16.320251 16.320244l-207.35953 0l0 0c-9.013428 0 -16.320251 -7.3068237 -16.320251 -16.320244z" fill-rule="nonzero"></path><path fill="#000000" d="m437.28778 49.00062q0 0.625 -0.234375 1.09375q-0.21875 0.46875 -0.65625 0.796875q-0.421875 0.3125 -1.03125 0.46875q-0.59375 0.15625 -1.34375 0.15625q-0.84375 0 -1.453125 -0.140625q-0.609375 -0.140625 -1.078125 -0.40625l0 -1.296875q0.25 0.125 0.546875 0.25q0.296875 0.125 0.625 0.21875q0.328125 0.09375 0.671875 0.15625q0.34375 0.046875 0.6875 0.046875q0.515625 0 0.859375 -0.078125q0.359375 -0.09375 0.578125 -0.25q0.234375 -0.15625 0.328125 -0.390625q0.109375 -0.234375 0.109375 -0.515625q0 -0.234375 -0.078125 -0.421875q-0.078125 -0.203125 -0.296875 -0.390625q-0.203125 -0.203125 -0.5625 -0.390625q-0.359375 -0.203125 -0.921875 -0.4375q-0.5625 -0.25 -1.015625 -0.484375q-0.4375 -0.234375 -0.75 -0.515625q-0.3125 -0.296875 -0.484375 -0.671875q-0.171875 -0.375 -0.171875 -0.90625q0 -0.546875 0.21875 -0.96875q0.21875 -0.421875 0.609375 -0.703125q0.390625 -0.296875 0.9375 -0.4375q0.546875 -0.15625 1.21875 -0.15625q0.75 0 1.375 0.171875q0.640625 0.15625 1.203125 0.421875l-0.5 1.140625q-0.5 -0.21875 -1.046875 -0.390625q-0.53125 -0.171875 -1.078125 -0.171875q-0.796875 0 -1.1875 0.265625q-0.375 0.265625 -0.375 0.75q0 0.265625 0.078125 0.46875q0.09375 0.203125 0.3125 0.390625q0.21875 0.171875 0.578125 0.359375q0.375 0.1875 0.921875 0.40625q0.5625 0.234375 1.0 0.46875q0.453125 0.234375 0.765625 0.53125q0.3125 0.296875 0.46875 0.671875q0.171875 0.375 0.171875 0.890625zm5.46875 2.515625q-0.859375 0 -1.578125 -0.28125q-0.703125 -0.296875 -1.21875 -0.84375q-0.5 -0.5625 -0.78125 -1.375q-0.28125 -0.828125 -0.28125 -1.890625q0 -1.0625 0.25 -1.890625q0.265625 -0.84375 0.734375 -1.421875q0.46875 -0.578125 1.109375 -0.875q0.65625 -0.3125 1.453125 -0.3125q0.765625 0 1.375 0.28125q0.625 0.265625 1.046875 0.78125q0.4375 0.5 0.671875 1.203125q0.234375 0.703125 0.234375 1.5625l0 0.890625l-5.40625 0q0.03125 1.5 0.625 2.21875q0.609375 0.703125 1.78125 0.703125q0.40625 0 0.734375 -0.03125q0.34375 -0.046875 0.65625 -0.109375q0.328125 -0.078125 0.625 -0.1875q0.296875 -0.125 0.59375 -0.265625l0 1.265625q-0.3125 0.15625 -0.609375 0.265625q-0.296875 0.109375 -0.625 0.171875q-0.3125 0.078125 -0.65625 0.109375q-0.328125 0.03125 -0.734375 0.03125zm-0.34375 -7.71875q-0.890625 0 -1.421875 0.609375q-0.515625 0.609375 -0.59375 1.78125l3.84375 0q0 -0.53125 -0.109375 -0.96875q-0.109375 -0.453125 -0.328125 -0.765625q-0.21875 -0.3125 -0.5625 -0.484375q-0.34375 -0.171875 -0.828125 -0.171875zm15.796875 7.5625l0 -5.53125q0 -1.015625 -0.390625 -1.515625q-0.390625 -0.515625 -1.21875 -0.515625q-0.5625 0 -0.96875 0.1875q-0.390625 0.1875 -0.65625 0.546875q-0.25 0.34375 -0.375 0.875q-0.109375 0.53125 -0.109375 1.21875l0 4.734375l-1.421875 0l0 -5.53125q0 -1.015625 -0.390625 -1.515625q-0.390625 -0.515625 -1.203125 -0.515625q-0.609375 0 -1.015625 0.203125q-0.40625 0.203125 -0.65625 0.609375q-0.234375 0.390625 -0.34375 0.96875q-0.109375 0.578125 -0.109375 1.328125l0 4.453125l-1.421875 0l0 -8.578125l1.15625 0l0.203125 1.15625l0.078125 0q0.1875 -0.34375 0.4375 -0.578125q0.265625 -0.25 0.578125 -0.40625q0.3125 -0.171875 0.65625 -0.25q0.34375 -0.078125 0.703125 -0.078125q0.9375 0 1.5625 0.34375q0.625 0.34375 0.921875 1.078125l0.0625 0q0.203125 -0.375 0.484375 -0.640625q0.28125 -0.265625 0.625 -0.4375q0.34375 -0.171875 0.71875 -0.25q0.375 -0.09375 0.765625 -0.09375q1.359375 0 2.046875 0.75q0.703125 0.734375 0.703125 2.375l0 5.609375l-1.421875 0zm8.8984375 0l-0.296875 -1.1875l-0.0625 0q-0.25 0.34375 -0.515625 0.609375q-0.25 0.25 -0.5625 0.421875q-0.296875 0.15625 -0.671875 0.234375q-0.375 0.078125 -0.875 0.078125q-0.53125 0 -0.984375 -0.15625q-0.453125 -0.15625 -0.796875 -0.46875q-0.328125 -0.3125 -0.515625 -0.796875q-0.1875 -0.484375 -0.1875 -1.140625q0 -1.28125 0.90625 -1.96875q0.90625 -0.6875 2.75 -0.75l1.4375 -0.046875l0 -0.546875q0 -0.515625 -0.125 -0.859375q-0.109375 -0.359375 -0.328125 -0.578125q-0.203125 -0.21875 -0.53125 -0.3125q-0.3125 -0.09375 -0.71875 -0.09375q-0.640625 0 -1.203125 0.1875q-0.5625 0.1875 -1.078125 0.453125l-0.5 -1.0625q0.578125 -0.3125 1.28125 -0.53125q0.71875 -0.21875 1.5 -0.21875q0.796875 0 1.375 0.15625q0.59375 0.15625 0.96875 0.515625q0.375 0.34375 0.5625 0.890625q0.1875 0.53125 0.1875 1.296875l0 5.875l-1.015625 0zm-2.609375 -1.0q0.46875 0 0.875 -0.140625q0.40625 -0.15625 0.703125 -0.453125q0.296875 -0.296875 0.46875 -0.75q0.171875 -0.46875 0.171875 -1.078125l0 -0.78125l-1.125 0.0625q-0.703125 0.03125 -1.1875 0.15625q-0.46875 0.125 -0.75 0.34375q-0.28125 0.21875 -0.40625 0.546875q-0.125 0.3125 -0.125 0.703125q0 0.71875 0.375 1.0625q0.375 0.328125 1.0 0.328125zm11.6171875 1.0l0 -5.53125q0 -1.015625 -0.40625 -1.515625q-0.40625 -0.515625 -1.28125 -0.515625q-0.640625 0 -1.078125 0.203125q-0.421875 0.203125 -0.6875 0.609375q-0.25 0.390625 -0.375 0.96875q-0.109375 0.578125 -0.109375 1.328125l0 4.453125l-1.421875 0l0 -8.578125l1.15625 0l0.203125 1.15625l0.078125 0q0.203125 -0.34375 0.46875 -0.578125q0.265625 -0.25 0.578125 -0.40625q0.328125 -0.171875 0.6875 -0.25q0.359375 -0.078125 0.734375 -0.078125q1.4375 0 2.15625 0.75q0.71875 0.734375 0.71875 2.375l0 5.609375l-1.421875 0zm6.65625 -1.015625q0.140625 0 0.3125 -0.015625q0.1875 -0.015625 0.34375 -0.03125q0.171875 -0.03125 0.296875 -0.0625q0.140625 -0.03125 0.21875 -0.046875l0 1.078125q-0.109375 0.046875 -0.265625 0.09375q-0.15625 0.046875 -0.34375 0.078125q-0.1875 0.046875 -0.390625 0.0625q-0.203125 0.015625 -0.390625 0.015625q-0.484375 0 -0.90625 -0.125q-0.40625 -0.125 -0.71875 -0.421875q-0.296875 -0.3125 -0.46875 -0.828125q-0.171875 -0.53125 -0.171875 -1.3125l0 -4.984375l-1.203125 0l0 -0.625l1.203125 -0.609375l0.609375 -1.796875l0.828125 0l0 1.96875l2.15625 0l0 1.0625l-2.15625 0l0 4.984375q0 0.75 0.234375 1.140625q0.25 0.375 0.8125 0.375zm4.25 1.015625l-1.421875 0l0 -8.578125l1.421875 0l0 8.578125zm-1.53125 -10.90625q0 -0.46875 0.234375 -0.671875q0.25 -0.21875 0.59375 -0.21875q0.171875 0 0.328125 0.0625q0.15625 0.046875 0.265625 0.15625q0.109375 0.109375 0.171875 0.28125q0.078125 0.15625 0.078125 0.390625q0 0.453125 -0.25 0.6875q-0.25 0.21875 -0.59375 0.21875q-0.34375 0 -0.59375 -0.21875q-0.234375 -0.21875 -0.234375 -0.6875zm7.53125 11.0625q-0.78125 0 -1.46875 -0.25q-0.6875 -0.25 -1.203125 -0.78125q-0.5 -0.53125 -0.796875 -1.359375q-0.28125 -0.84375 -0.28125 -2.015625q0 -1.21875 0.296875 -2.078125q0.296875 -0.859375 0.8125 -1.390625q0.515625 -0.53125 1.203125 -0.765625q0.703125 -0.25 1.5 -0.25q0.609375 0 1.1875 0.140625q0.59375 0.125 0.984375 0.3125l-0.421875 1.203125q-0.1875 -0.078125 -0.40625 -0.140625q-0.21875 -0.078125 -0.453125 -0.140625q-0.234375 -0.0625 -0.46875 -0.09375q-0.21875 -0.03125 -0.421875 -0.03125q-1.21875 0 -1.78125 0.78125q-0.5625 0.78125 -0.5625 2.4375q0 1.65625 0.5625 2.421875q0.5625 0.75 1.71875 0.75q0.640625 0 1.140625 -0.140625q0.515625 -0.140625 0.9375 -0.34375l0 1.265625q-0.421875 0.234375 -0.90625 0.34375q-0.46875 0.125 -1.171875 0.125zm12.0 -8.890625q0.21875 0 0.5 0.015625q0.28125 0.015625 0.484375 0.0625l-0.1875 1.3125q-0.21875 -0.046875 -0.453125 -0.0625q-0.21875 -0.03125 -0.421875 -0.03125q-0.5 0 -0.90625 0.203125q-0.40625 0.1875 -0.703125 0.5625q-0.28125 0.375 -0.453125 0.890625q-0.15625 0.515625 -0.15625 1.15625l0 4.625l-1.421875 0l0 -8.578125l1.15625 0l0.171875 1.5625l0.0625 0q0.203125 -0.328125 0.421875 -0.640625q0.21875 -0.3125 0.5 -0.546875q0.28125 -0.25 0.625 -0.390625q0.34375 -0.140625 0.78125 -0.140625zm6.0546875 8.890625q-0.859375 0 -1.578125 -0.28125q-0.703125 -0.296875 -1.21875 -0.84375q-0.5 -0.5625 -0.78125 -1.375q-0.28125 -0.828125 -0.28125 -1.890625q0 -1.0625 0.25 -1.890625q0.265625 -0.84375 0.734375 -1.421875q0.46875 -0.578125 1.109375 -0.875q0.65625 -0.3125 1.453125 -0.3125q0.765625 0 1.375 0.28125q0.625 0.265625 1.046875 0.78125q0.4375 0.5 0.671875 1.203125q0.234375 0.703125 0.234375 1.5625l0 0.890625l-5.40625 0q0.03125 1.5 0.625 2.21875q0.609375 0.703125 1.78125 0.703125q0.40625 0 0.734375 -0.03125q0.34375 -0.046875 0.65625 -0.109375q0.328125 -0.078125 0.625 -0.1875q0.296875 -0.125 0.59375 -0.265625l0 1.265625q-0.3125 0.15625 -0.609375 0.265625q-0.296875 0.109375 -0.625 0.171875q-0.3125 0.078125 -0.65625 0.109375q-0.328125 0.03125 -0.734375 0.03125zm-0.34375 -7.71875q-0.890625 0 -1.421875 0.609375q-0.515625 0.609375 -0.59375 1.78125l3.84375 0q0 -0.53125 -0.109375 -0.96875q-0.109375 -0.453125 -0.328125 -0.765625q-0.21875 -0.3125 -0.5625 -0.484375q-0.34375 -0.171875 -0.828125 -0.171875zm9.390625 7.71875q-0.453125 0 -0.828125 -0.109375q-0.375 -0.09375 -0.6875 -0.265625q-0.296875 -0.171875 -0.53125 -0.390625q-0.21875 -0.234375 -0.40625 -0.484375l-0.09375 0q0.03125 0.265625 0.046875 0.515625q0.015625 0.203125 0.03125 0.421875q0.015625 0.21875 0.015625 0.34375l0 3.65625l-1.421875 0l0 -12.421875l1.15625 0l0.203125 1.15625l0.0625 0q0.1875 -0.28125 0.40625 -0.515625q0.234375 -0.234375 0.53125 -0.40625q0.296875 -0.1875 0.671875 -0.28125q0.375 -0.109375 0.84375 -0.109375q0.734375 0 1.328125 0.28125q0.609375 0.28125 1.03125 0.84375q0.4375 0.546875 0.671875 1.375q0.234375 0.828125 0.234375 1.921875q0 1.109375 -0.234375 1.9375q-0.234375 0.828125 -0.671875 1.390625q-0.421875 0.5625 -1.03125 0.859375q-0.59375 0.28125 -1.328125 0.28125zm-0.265625 -7.71875q-0.59375 0 -1.015625 0.1875q-0.40625 0.171875 -0.65625 0.546875q-0.25 0.359375 -0.375 0.90625q-0.125 0.546875 -0.140625 1.296875l0 0.3125q0 0.796875 0.109375 1.40625q0.109375 0.609375 0.359375 1.03125q0.25 0.421875 0.671875 0.640625q0.421875 0.203125 1.0625 0.203125q1.046875 0 1.546875 -0.84375q0.5 -0.859375 0.5 -2.453125q0 -1.625 -0.5 -2.421875q-0.5 -0.8125 -1.5625 -0.8125zm9.484375 -1.171875q0.21875 0 0.5 0.015625q0.28125 0.015625 0.484375 0.0625l-0.1875 1.3125q-0.21875 -0.046875 -0.453125 -0.0625q-0.21875 -0.03125 -0.421875 -0.03125q-0.5 0 -0.90625 0.203125q-0.40625 0.1875 -0.703125 0.5625q-0.28125 0.375 -0.453125 0.890625q-0.15625 0.515625 -0.15625 1.15625l0 4.625l-1.421875 0l0 -8.578125l1.15625 0l0.171875 1.5625l0.0625 0q0.203125 -0.328125 0.421875 -0.640625q0.21875 -0.3125 0.5 -0.546875q0.28125 -0.25 0.625 -0.390625q0.34375 -0.140625 0.78125 -0.140625zm6.0546875 8.890625q-0.859375 0 -1.578125 -0.28125q-0.703125 -0.296875 -1.21875 -0.84375q-0.5 -0.5625 -0.78125 -1.375q-0.28125 -0.828125 -0.28125 -1.890625q0 -1.0625 0.25 -1.890625q0.265625 -0.84375 0.734375 -1.421875q0.46875 -0.578125 1.109375 -0.875q0.65625 -0.3125 1.453125 -0.3125q0.765625 0 1.375 0.28125q0.625 0.265625 1.046875 0.78125q0.4375 0.5 0.671875 1.203125q0.234375 0.703125 0.234375 1.5625l0 0.890625l-5.40625 0q0.03125 1.5 0.625 2.21875q0.609375 0.703125 1.78125 0.703125q0.40625 0 0.734375 -0.03125q0.34375 -0.046875 0.65625 -0.109375q0.328125 -0.078125 0.625 -0.1875q0.296875 -0.125 0.59375 -0.265625l0 1.265625q-0.3125 0.15625 -0.609375 0.265625q-0.296875 0.109375 -0.625 0.171875q-0.3125 0.078125 -0.65625 0.109375q-0.328125 0.03125 -0.734375 0.03125zm-0.34375 -7.71875q-0.890625 0 -1.421875 0.609375q-0.515625 0.609375 -0.59375 1.78125l3.84375 0q0 -0.53125 -0.109375 -0.96875q-0.109375 -0.453125 -0.328125 -0.765625q-0.21875 -0.3125 -0.5625 -0.484375q-0.34375 -0.171875 -0.828125 -0.171875zm10.65625 5.203125q0 0.625 -0.234375 1.09375q-0.21875 0.46875 -0.65625 0.796875q-0.421875 0.3125 -1.03125 0.46875q-0.59375 0.15625 -1.34375 0.15625q-0.84375 0 -1.453125 -0.140625q-0.609375 -0.140625 -1.078125 -0.40625l0 -1.296875q0.25 0.125 0.546875 0.25q0.296875 0.125 0.625 0.21875q0.328125 0.09375 0.671875 0.15625q0.34375 0.046875 0.6875 0.046875q0.515625 0 0.859375 -0.078125q0.359375 -0.09375 0.578125 -0.25q0.234375 -0.15625 0.328125 -0.390625q0.109375 -0.234375 0.109375 -0.515625q0 -0.234375 -0.078125 -0.421875q-0.078125 -0.203125 -0.296875 -0.390625q-0.203125 -0.203125 -0.5625 -0.390625q-0.359375 -0.203125 -0.921875 -0.4375q-0.5625 -0.25 -1.015625 -0.484375q-0.4375 -0.234375 -0.75 -0.515625q-0.3125 -0.296875 -0.484375 -0.671875q-0.171875 -0.375 -0.171875 -0.90625q0 -0.546875 0.21875 -0.96875q0.21875 -0.421875 0.609375 -0.703125q0.390625 -0.296875 0.9375 -0.4375q0.546875 -0.15625 1.21875 -0.15625q0.75 0 1.375 0.171875q0.640625 0.15625 1.203125 0.421875l-0.5 1.140625q-0.5 -0.21875 -1.046875 -0.390625q-0.53125 -0.171875 -1.078125 -0.171875q-0.796875 0 -1.1875 0.265625q-0.375 0.265625 -0.375 0.75q0 0.265625 0.078125 0.46875q0.09375 0.203125 0.3125 0.390625q0.21875 0.171875 0.578125 0.359375q0.375 0.1875 0.921875 0.40625q0.5625 0.234375 1.0 0.46875q0.453125 0.234375 0.765625 0.53125q0.3125 0.296875 0.46875 0.671875q0.171875 0.375 0.171875 0.890625zm5.46875 2.515625q-0.859375 0 -1.578125 -0.28125q-0.703125 -0.296875 -1.21875 -0.84375q-0.5 -0.5625 -0.78125 -1.375q-0.28125 -0.828125 -0.28125 -1.890625q0 -1.0625 0.25 -1.890625q0.265625 -0.84375 0.734375 -1.421875q0.46875 -0.578125 1.109375 -0.875q0.65625 -0.3125 1.453125 -0.3125q0.765625 0 1.375 0.28125q0.625 0.265625 1.046875 0.78125q0.4375 0.5 0.671875 1.203125q0.234375 0.703125 0.234375 1.5625l0 0.890625l-5.40625 0q0.03125 1.5 0.625 2.21875q0.609375 0.703125 1.78125 0.703125q0.40625 0 0.734375 -0.03125q0.34375 -0.046875 0.65625 -0.109375q0.328125 -0.078125 0.625 -0.1875q0.296875 -0.125 0.59375 -0.265625l0 1.265625q-0.3125 0.15625 -0.609375 0.265625q-0.296875 0.109375 -0.625 0.171875q-0.3125 0.078125 -0.65625 0.109375q-0.328125 0.03125 -0.734375 0.03125zm-0.34375 -7.71875q-0.890625 0 -1.421875 0.609375q-0.515625 0.609375 -0.59375 1.78125l3.84375 0q0 -0.53125 -0.109375 -0.96875q-0.109375 -0.453125 -0.328125 -0.765625q-0.21875 -0.3125 -0.5625 -0.484375q-0.34375 -0.171875 -0.828125 -0.171875zm10.875 7.5625l0 -5.53125q0 -1.015625 -0.40625 -1.515625q-0.40625 -0.515625 -1.28125 -0.515625q-0.640625 0 -1.078125 0.203125q-0.421875 0.203125 -0.6875 0.609375q-0.25 0.390625 -0.375 0.96875q-0.109375 0.578125 -0.109375 1.328125l0 4.453125l-1.421875 0l0 -8.578125l1.15625 0l0.203125 1.15625l0.078125 0q0.203125 -0.34375 0.46875 -0.578125q0.265625 -0.25 0.578125 -0.40625q0.328125 -0.171875 0.6875 -0.25q0.359375 -0.078125 0.734375 -0.078125q1.4375 0 2.15625 0.75q0.71875 0.734375 0.71875 2.375l0 5.609375l-1.421875 0zm6.65625 -1.015625q0.140625 0 0.3125 -0.015625q0.1875 -0.015625 0.34375 -0.03125q0.171875 -0.03125 0.296875 -0.0625q0.140625 -0.03125 0.21875 -0.046875l0 1.078125q-0.109375 0.046875 -0.265625 0.09375q-0.15625 0.046875 -0.34375 0.078125q-0.1875 0.046875 -0.390625 0.0625q-0.203125 0.015625 -0.390625 0.015625q-0.484375 0 -0.90625 -0.125q-0.40625 -0.125 -0.71875 -0.421875q-0.296875 -0.3125 -0.46875 -0.828125q-0.171875 -0.53125 -0.171875 -1.3125l0 -4.984375l-1.203125 0l0 -0.625l1.203125 -0.609375l0.609375 -1.796875l0.828125 0l0 1.96875l2.15625 0l0 1.0625l-2.15625 0l0 4.984375q0 0.75 0.234375 1.140625q0.25 0.375 0.8125 0.375zm7.671875 1.015625l-0.296875 -1.1875l-0.0625 0q-0.25 0.34375 -0.515625 0.609375q-0.25 0.25 -0.5625 0.421875q-0.296875 0.15625 -0.671875 0.234375q-0.375 0.078125 -0.875 0.078125q-0.53125 0 -0.984375 -0.15625q-0.453125 -0.15625 -0.796875 -0.46875q-0.328125 -0.3125 -0.515625 -0.796875q-0.1875 -0.484375 -0.1875 -1.140625q0 -1.28125 0.90625 -1.96875q0.90625 -0.6875 2.75 -0.75l1.4375 -0.046875l0 -0.546875q0 -0.515625 -0.125 -0.859375q-0.109375 -0.359375 -0.328125 -0.578125q-0.203125 -0.21875 -0.53125 -0.3125q-0.3125 -0.09375 -0.71875 -0.09375q-0.640625 0 -1.203125 0.1875q-0.5625 0.1875 -1.078125 0.453125l-0.5 -1.0625q0.578125 -0.3125 1.28125 -0.53125q0.71875 -0.21875 1.5 -0.21875q0.796875 0 1.375 0.15625q0.59375 0.15625 0.96875 0.515625q0.375 0.34375 0.5625 0.890625q0.1875 0.53125 0.1875 1.296875l0 5.875l-1.015625 0zm-2.609375 -1.0q0.46875 0 0.875 -0.140625q0.40625 -0.15625 0.703125 -0.453125q0.296875 -0.296875 0.46875 -0.75q0.171875 -0.46875 0.171875 -1.078125l0 -0.78125l-1.125 0.0625q-0.703125 0.03125 -1.1875 0.15625q-0.46875 0.125 -0.75 0.34375q-0.28125 0.21875 -0.40625 0.546875q-0.125 0.3125 -0.125 0.703125q0 0.71875 0.375 1.0625q0.375 0.328125 1.0 0.328125zm8.8515625 -0.015625q0.140625 0 0.3125 -0.015625q0.1875 -0.015625 0.34375 -0.03125q0.171875 -0.03125 0.296875 -0.0625q0.140625 -0.03125 0.21875 -0.046875l0 1.078125q-0.109375 0.046875 -0.265625 0.09375q-0.15625 0.046875 -0.34375 0.078125q-0.1875 0.046875 -0.390625 0.0625q-0.203125 0.015625 -0.390625 0.015625q-0.484375 0 -0.90625 -0.125q-0.40625 -0.125 -0.71875 -0.421875q-0.296875 -0.3125 -0.46875 -0.828125q-0.171875 -0.53125 -0.171875 -1.3125l0 -4.984375l-1.203125 0l0 -0.625l1.203125 -0.609375l0.609375 -1.796875l0.828125 0l0 1.96875l2.15625 0l0 1.0625l-2.15625 0l0 4.984375q0 0.75 0.234375 1.140625q0.25 0.375 0.8125 0.375zm4.25 1.015625l-1.421875 0l0 -8.578125l1.421875 0l0 8.578125zm-1.53125 -10.90625q0 -0.46875 0.234375 -0.671875q0.25 -0.21875 0.59375 -0.21875q0.171875 0 0.328125 0.0625q0.15625 0.046875 0.265625 0.15625q0.109375 0.109375 0.171875 0.28125q0.078125 0.15625 0.078125 0.390625q0 0.453125 -0.25 0.6875q-0.25 0.21875 -0.59375 0.21875q-0.34375 0 -0.59375 -0.21875q-0.234375 -0.21875 -0.234375 -0.6875zm11.25 6.59375q0 1.078125 -0.265625 1.90625q-0.265625 0.828125 -0.75 1.40625q-0.484375 0.5625 -1.1875 0.859375q-0.6875 0.296875 -1.5625 0.296875q-0.796875 0 -1.484375 -0.296875q-0.671875 -0.296875 -1.171875 -0.859375q-0.5 -0.578125 -0.78125 -1.40625q-0.265625 -0.828125 -0.265625 -1.90625q0 -1.0625 0.25 -1.875q0.265625 -0.828125 0.75 -1.390625q0.484375 -0.578125 1.1875 -0.859375q0.703125 -0.296875 1.5625 -0.296875q0.8125 0 1.484375 0.296875q0.6875 0.28125 1.171875 0.859375q0.5 0.5625 0.78125 1.390625q0.28125 0.8125 0.28125 1.875zm-6.0 0q0 1.640625 0.53125 2.46875q0.53125 0.8125 1.734375 0.8125q1.203125 0 1.734375 -0.8125q0.53125 -0.828125 0.53125 -2.46875q0 -1.625 -0.546875 -2.4375q-0.53125 -0.8125 -1.734375 -0.8125q-1.203125 0 -1.734375 0.8125q-0.515625 0.8125 -0.515625 2.4375zm13.59375 4.3125l0 -5.53125q0 -1.015625 -0.40625 -1.515625q-0.40625 -0.515625 -1.28125 -0.515625q-0.640625 0 -1.078125 0.203125q-0.421875 0.203125 -0.6875 0.609375q-0.25 0.390625 -0.375 0.96875q-0.109375 0.578125 -0.109375 1.328125l0 4.453125l-1.421875 0l0 -8.578125l1.15625 0l0.203125 1.15625l0.078125 0q0.203125 -0.34375 0.46875 -0.578125q0.265625 -0.25 0.578125 -0.40625q0.328125 -0.171875 0.6875 -0.25q0.359375 -0.078125 0.734375 -0.078125q1.4375 0 2.15625 0.75q0.71875 0.734375 0.71875 2.375l0 5.609375l-1.421875 0z" fill-rule="nonzero"></path><path fill="#000000" d="m421.09393 67.643745q0 -0.734375 0.1875 -1.546875q0.1875 -0.828125 0.71875 -1.890625q0.546875 -1.078125 0.796875 -1.296875q0.078125 -0.078125 0.171875 -0.078125q0.109375 0 0.1875 0.078125q0.078125 0.078125 0.078125 0.1875q0 0.0625 -0.046875 0.140625q-0.6875 1.28125 -1.0 2.328125q-0.296875 1.03125 -0.296875 2.078125q0 1.046875 0.296875 2.09375q0.3125 1.03125 1.0 2.3125q0.046875 0.078125 0.046875 0.140625q0 0.09375 -0.078125 0.171875q-0.078125 0.09375 -0.1875 0.09375q-0.09375 0 -0.171875 -0.078125q-0.234375 -0.21875 -0.765625 -1.265625q-0.53125 -1.046875 -0.734375 -1.84375q-0.203125 -0.8125 -0.203125 -1.625zm10.254395 -5.203125l-4.296875 9.203125q-0.109375 0.234375 -0.265625 0.234375q-0.109375 0 -0.203125 -0.078125q-0.078125 -0.078125 -0.078125 -0.1875q0 -0.0625 0.078125 -0.203125l4.28125 -9.1875q0.0625 -0.15625 0.125 -0.1875q0.0625 -0.046875 0.15625 -0.046875q0.109375 0 0.1875 0.078125q0.078125 0.078125 0.078125 0.171875q0 0.0625 -0.0625 0.203125zm3.3950195 2.859375l0 0.96875q0.484375 -0.578125 1.015625 -0.859375q0.546875 -0.296875 1.296875 -0.296875q0.78125 0 1.453125 0.375q0.671875 0.359375 1.03125 1.015625q0.359375 0.65625 0.359375 1.390625q0 1.140625 -0.828125 1.953125q-0.8125 0.8125 -2.015625 0.8125q-1.421875 0 -2.3125 -1.15625l0 3.21875l1.296875 0q0.1875 0 0.265625 0.0625q0.09375 0.078125 0.09375 0.203125q0 0.109375 -0.09375 0.1875q-0.078125 0.078125 -0.265625 0.078125l-2.546875 0q-0.1875 0 -0.28125 -0.078125q-0.078125 -0.078125 -0.078125 -0.1875q0 -0.125 0.078125 -0.203125q0.09375 -0.0625 0.28125 -0.0625l0.71875 0l0 -6.875l-0.71875 0q-0.1875 0 -0.28125 -0.078125q-0.078125 -0.078125 -0.078125 -0.203125q0 -0.109375 0.078125 -0.1875q0.09375 -0.078125 0.28125 -0.078125l1.25 0zm4.625 2.59375q0 -0.921875 -0.671875 -1.578125q-0.671875 -0.65625 -1.640625 -0.65625q-0.96875 0 -1.640625 0.65625q-0.671875 0.65625 -0.671875 1.578125q0 0.90625 0.671875 1.578125q0.671875 0.65625 1.640625 0.65625q0.96875 0 1.640625 -0.65625q0.671875 -0.65625 0.671875 -1.578125zm8.066895 0.28125l-5.421875 0q0.125 1.03125 0.859375 1.671875q0.734375 0.625 1.796875 0.625q0.59375 0 1.25 -0.1875q0.65625 -0.203125 1.0625 -0.53125q0.125 -0.09375 0.21875 -0.09375q0.09375 0 0.171875 0.078125q0.078125 0.078125 0.078125 0.1875q0 0.109375 -0.09375 0.21875q-0.3125 0.3125 -1.09375 0.59375q-0.765625 0.265625 -1.59375 0.265625q-1.375 0 -2.296875 -0.890625q-0.90625 -0.90625 -0.90625 -2.171875q0 -1.171875 0.859375 -2.0q0.859375 -0.828125 2.125 -0.828125q1.3125 0 2.15625 0.859375q0.84375 0.84375 0.828125 2.203125zm-0.53125 -0.53125q-0.15625 -0.890625 -0.84375 -1.4375q-0.671875 -0.546875 -1.609375 -0.546875q-0.921875 0 -1.59375 0.546875q-0.671875 0.53125 -0.84375 1.4375l4.890625 0zm4.8168945 -2.34375l0 1.34375q1.03125 -0.9375 1.546875 -1.203125q0.53125 -0.265625 0.96875 -0.265625q0.46875 0 0.875 0.328125q0.421875 0.3125 0.421875 0.46875q0 0.125 -0.09375 0.203125q-0.078125 0.078125 -0.1875 0.078125q-0.0625 0 -0.109375 -0.015625q-0.046875 -0.03125 -0.171875 -0.140625q-0.21875 -0.234375 -0.390625 -0.3125q-0.15625 -0.078125 -0.3125 -0.078125q-0.359375 0 -0.859375 0.28125q-0.484375 0.28125 -1.6875 1.359375l0 2.921875l2.359375 0q0.203125 0 0.28125 0.078125q0.078125 0.0625 0.078125 0.1875q0 0.109375 -0.078125 0.1875q-0.078125 0.078125 -0.28125 0.078125l-4.1875 0q-0.1875 0 -0.28125 -0.0625q-0.078125 -0.078125 -0.078125 -0.203125q0 -0.109375 0.078125 -0.171875q0.09375 -0.078125 0.28125 -0.078125l1.296875 0l0 -4.4375l-0.984375 0q-0.1875 0 -0.28125 -0.078125q-0.078125 -0.078125 -0.078125 -0.203125q0 -0.109375 0.078125 -0.1875q0.078125 -0.078125 0.28125 -0.078125l1.515625 0zm10.191895 0.359375q0 -0.1875 0.078125 -0.265625q0.078125 -0.09375 0.1875 -0.09375q0.125 0 0.203125 0.09375q0.078125 0.078125 0.078125 0.265625l0 0.921875q0 0.1875 -0.078125 0.28125q-0.078125 0.078125 -0.203125 0.078125q-0.09375 0 -0.171875 -0.0625q-0.078125 -0.078125 -0.09375 -0.25q-0.03125 -0.375 -0.390625 -0.625q-0.515625 -0.34375 -1.375 -0.34375q-0.890625 0 -1.390625 0.359375q-0.375 0.265625 -0.375 0.609375q0 0.375 0.453125 0.625q0.296875 0.1875 1.140625 0.28125q1.125 0.109375 1.546875 0.265625q0.625 0.21875 0.921875 0.625q0.296875 0.390625 0.296875 0.84375q0 0.6875 -0.65625 1.21875q-0.640625 0.515625 -1.90625 0.515625q-1.265625 0 -2.078125 -0.640625q0 0.21875 -0.03125 0.28125q-0.015625 0.0625 -0.09375 0.109375q-0.0625 0.046875 -0.140625 0.046875q-0.109375 0 -0.1875 -0.078125q-0.078125 -0.09375 -0.078125 -0.28125l0 -1.09375q0 -0.1875 0.0625 -0.265625q0.078125 -0.09375 0.203125 -0.09375q0.109375 0 0.1875 0.078125q0.09375 0.078125 0.09375 0.21875q0 0.296875 0.140625 0.484375q0.21875 0.3125 0.703125 0.515625q0.484375 0.1875 1.1875 0.1875q1.046875 0 1.546875 -0.375q0.515625 -0.390625 0.515625 -0.828125q0 -0.5 -0.515625 -0.796875q-0.515625 -0.296875 -1.515625 -0.390625q-0.984375 -0.109375 -1.421875 -0.265625q-0.4375 -0.171875 -0.671875 -0.5q-0.234375 -0.328125 -0.234375 -0.71875q0 -0.671875 0.671875 -1.078125q0.671875 -0.40625 1.59375 -0.40625q1.109375 0 1.796875 0.546875zm9.02002 2.40625q0 1.21875 -0.875 2.078125q-0.859375 0.859375 -2.09375 0.859375q-1.25 0 -2.125 -0.859375q-0.859375 -0.875 -0.859375 -2.078125q0 -1.21875 0.859375 -2.078125q0.875 -0.875 2.125 -0.875q1.234375 0 2.09375 0.859375q0.875 0.859375 0.875 2.09375zm-0.53125 0q0 -1.0 -0.71875 -1.703125q-0.71875 -0.703125 -1.734375 -0.703125q-1.015625 0 -1.734375 0.703125q-0.703125 0.703125 -0.703125 1.703125q0 0.984375 0.703125 1.703125q0.71875 0.703125 1.734375 0.703125q1.015625 0 1.734375 -0.703125q0.71875 -0.703125 0.71875 -1.703125zm3.6293945 -2.765625l0 0.8125q0.5625 -0.5625 1.015625 -0.78125q0.453125 -0.21875 1.015625 -0.21875q0.609375 0 1.109375 0.265625q0.359375 0.1875 0.640625 0.625q0.296875 0.4375 0.296875 0.90625l0 3.359375l0.453125 0q0.1875 0 0.265625 0.078125q0.078125 0.0625 0.078125 0.1875q0 0.109375 -0.078125 0.1875q-0.078125 0.078125 -0.265625 0.078125l-1.4375 0q-0.1875 0 -0.28125 -0.078125q-0.078125 -0.078125 -0.078125 -0.1875q0 -0.125 0.078125 -0.1875q0.09375 -0.078125 0.28125 -0.078125l0.453125 0l0 -3.265625q0 -0.578125 -0.421875 -0.953125q-0.40625 -0.390625 -1.09375 -0.390625q-0.53125 0 -0.921875 0.21875q-0.390625 0.203125 -1.109375 1.046875l0 3.34375l0.609375 0q0.1875 0 0.265625 0.078125q0.09375 0.0625 0.09375 0.1875q0 0.109375 -0.09375 0.1875q-0.078125 0.078125 -0.265625 0.078125l-1.734375 0q-0.203125 0 -0.28125 -0.078125q-0.078125 -0.078125 -0.078125 -0.1875q0 -0.125 0.078125 -0.1875q0.078125 -0.078125 0.28125 -0.078125l0.59375 0l0 -4.421875l-0.453125 0q-0.1875 0 -0.265625 -0.078125q-0.078125 -0.078125 -0.078125 -0.203125q0 -0.109375 0.078125 -0.1875q0.078125 -0.078125 0.265625 -0.078125l0.984375 0zm11.92627 -2.859375l-4.296875 9.203125q-0.109375 0.234375 -0.265625 0.234375q-0.109375 0 -0.203125 -0.078125q-0.078125 -0.078125 -0.078125 -0.1875q0 -0.0625 0.078125 -0.203125l4.28125 -9.1875q0.0625 -0.15625 0.125 -0.1875q0.0625 -0.046875 0.15625 -0.046875q0.109375 0 0.1875 0.078125q0.078125 0.078125 0.078125 0.171875q0 0.0625 -0.0625 0.203125zm3.6450195 0.390625l0 3.28125q0.515625 -0.546875 0.984375 -0.765625q0.46875 -0.234375 1.046875 -0.234375q0.609375 0 1.046875 0.21875q0.4375 0.21875 0.71875 0.671875q0.296875 0.453125 0.296875 0.953125l0 3.3125l0.609375 0q0.1875 0 0.265625 0.078125q0.078125 0.0625 0.078125 0.1875q0 0.109375 -0.078125 0.1875q-0.078125 0.078125 -0.265625 0.078125l-1.734375 0q-0.203125 0 -0.296875 -0.078125q-0.078125 -0.078125 -0.078125 -0.1875q0 -0.125 0.078125 -0.1875q0.09375 -0.078125 0.296875 -0.078125l0.59375 0l0 -3.265625q0 -0.578125 -0.421875 -0.96875q-0.40625 -0.390625 -1.15625 -0.390625q-0.578125 0 -1.0 0.28125q-0.296875 0.203125 -0.984375 0.96875l0 3.375l0.609375 0q0.1875 0 0.265625 0.078125q0.09375 0.0625 0.09375 0.1875q0 0.109375 -0.09375 0.1875q-0.078125 0.078125 -0.265625 0.078125l-1.734375 0q-0.203125 0 -0.28125 -0.078125q-0.078125 -0.078125 -0.078125 -0.1875q0 -0.125 0.078125 -0.1875q0.078125 -0.078125 0.28125 -0.078125l0.59375 0l0 -6.890625l-0.71875 0q-0.1875 0 -0.265625 -0.078125q-0.078125 -0.078125 -0.078125 -0.203125q0 -0.109375 0.078125 -0.1875q0.078125 -0.078125 0.265625 -0.078125l1.25 0zm12.441895 5.34375l-5.421875 0q0.125 1.03125 0.859375 1.671875q0.734375 0.625 1.796875 0.625q0.59375 0 1.25 -0.1875q0.65625 -0.203125 1.0625 -0.53125q0.125 -0.09375 0.21875 -0.09375q0.09375 0 0.171875 0.078125q0.078125 0.078125 0.078125 0.1875q0 0.109375 -0.09375 0.21875q-0.3125 0.3125 -1.09375 0.59375q-0.765625 0.265625 -1.59375 0.265625q-1.375 0 -2.296875 -0.890625q-0.90625 -0.90625 -0.90625 -2.171875q0 -1.171875 0.859375 -2.0q0.859375 -0.828125 2.125 -0.828125q1.3125 0 2.15625 0.859375q0.84375 0.84375 0.828125 2.203125zm-0.53125 -0.53125q-0.15625 -0.890625 -0.84375 -1.4375q-0.671875 -0.546875 -1.609375 -0.546875q-0.921875 0 -1.59375 0.546875q-0.671875 0.53125 -0.84375 1.4375l4.890625 0zm5.7231445 -5.078125l0 1.375l-0.796875 0l0 -1.375l0.796875 0zm0.015625 2.734375l0 4.96875l2.09375 0q0.1875 0 0.265625 0.078125q0.09375 0.0625 0.09375 0.1875q0 0.109375 -0.09375 0.1875q-0.078125 0.078125 -0.265625 0.078125l-4.71875 0q-0.203125 0 -0.28125 -0.078125q-0.078125 -0.078125 -0.078125 -0.1875q0 -0.125 0.078125 -0.1875q0.078125 -0.078125 0.28125 -0.078125l2.09375 0l0 -4.421875l-1.5625 0q-0.1875 0 -0.28125 -0.078125q-0.078125 -0.078125 -0.078125 -0.1875q0 -0.125 0.078125 -0.203125q0.078125 -0.078125 0.28125 -0.078125l2.09375 0zm9.30127 0.984375l0 -0.984375l1.25 0q0.203125 0 0.28125 0.078125q0.078125 0.078125 0.078125 0.203125q0 0.109375 -0.078125 0.1875q-0.078125 0.078125 -0.28125 0.078125l-0.703125 0l0 5.328125q0 0.53125 -0.234375 0.953125q-0.15625 0.265625 -0.515625 0.5625q-0.34375 0.3125 -0.640625 0.4375q-0.296875 0.125 -0.78125 0.125l-1.515625 0q-0.1875 0 -0.265625 -0.078125q-0.078125 -0.078125 -0.078125 -0.1875q0 -0.125 0.078125 -0.203125q0.078125 -0.078125 0.265625 -0.078125l1.53125 0.015625q0.46875 0 0.84375 -0.25q0.390625 -0.234375 0.625 -0.703125q0.140625 -0.265625 0.140625 -0.671875l0 -1.609375q-0.84375 1.171875 -2.203125 1.171875q-1.09375 0 -1.890625 -0.8125q-0.796875 -0.8125 -0.796875 -1.953125q0 -1.15625 0.796875 -1.96875q0.796875 -0.8125 1.890625 -0.8125q1.359375 0 2.203125 1.171875zm0 1.609375q0 -0.953125 -0.640625 -1.59375q-0.640625 -0.640625 -1.53125 -0.640625q-0.90625 0 -1.546875 0.65625q-0.640625 0.640625 -0.640625 1.578125q0 0.9375 0.640625 1.59375q0.640625 0.640625 1.546875 0.640625q0.890625 0 1.53125 -0.640625q0.640625 -0.65625 0.640625 -1.59375zm4.2543945 -5.0625l0 3.28125q0.515625 -0.546875 0.984375 -0.765625q0.46875 -0.234375 1.046875 -0.234375q0.609375 0 1.046875 0.21875q0.4375 0.21875 0.71875 0.671875q0.296875 0.453125 0.296875 0.953125l0 3.3125l0.609375 0q0.1875 0 0.265625 0.078125q0.078125 0.0625 0.078125 0.1875q0 0.109375 -0.078125 0.1875q-0.078125 0.078125 -0.265625 0.078125l-1.734375 0q-0.203125 0 -0.296875 -0.078125q-0.078125 -0.078125 -0.078125 -0.1875q0 -0.125 0.078125 -0.1875q0.09375 -0.078125 0.296875 -0.078125l0.59375 0l0 -3.265625q0 -0.578125 -0.421875 -0.96875q-0.40625 -0.390625 -1.15625 -0.390625q-0.578125 0 -1.0 0.28125q-0.296875 0.203125 -0.984375 0.96875l0 3.375l0.609375 0q0.1875 0 0.265625 0.078125q0.09375 0.0625 0.09375 0.1875q0 0.109375 -0.09375 0.1875q-0.078125 0.078125 -0.265625 0.078125l-1.734375 0q-0.203125 0 -0.28125 -0.078125q-0.078125 -0.078125 -0.078125 -0.1875q0 -0.125 0.078125 -0.1875q0.078125 -0.078125 0.28125 -0.078125l0.59375 0l0 -6.890625l-0.71875 0q-0.1875 0 -0.265625 -0.078125q-0.078125 -0.078125 -0.078125 -0.203125q0 -0.109375 0.078125 -0.1875q0.078125 -0.078125 0.265625 -0.078125l1.25 0zm8.473145 2.46875l2.890625 0q0.1875 0 0.265625 0.078125q0.09375 0.078125 0.09375 0.203125q0 0.109375 -0.09375 0.1875q-0.078125 0.078125 -0.265625 0.078125l-2.890625 0l0 3.546875q0 0.453125 0.359375 0.765625q0.375 0.3125 1.09375 0.3125q0.546875 0 1.171875 -0.15625q0.625 -0.15625 0.96875 -0.359375q0.125 -0.09375 0.21875 -0.09375q0.09375 0 0.171875 0.078125q0.078125 0.078125 0.078125 0.1875q0 0.09375 -0.078125 0.1875q-0.203125 0.203125 -1.0 0.453125q-0.78125 0.234375 -1.5 0.234375q-0.921875 0 -1.484375 -0.4375q-0.546875 -0.4375 -0.546875 -1.171875l0 -3.546875l-0.984375 0q-0.1875 0 -0.28125 -0.078125q-0.078125 -0.078125 -0.078125 -0.203125q0 -0.109375 0.078125 -0.1875q0.09375 -0.078125 0.28125 -0.078125l0.984375 0l0 -1.578125q0 -0.1875 0.078125 -0.265625q0.078125 -0.078125 0.1875 -0.078125q0.125 0 0.203125 0.078125q0.078125 0.078125 0.078125 0.265625l0 1.578125zm19.086914 -2.859375l-4.296875 9.203125q-0.109375 0.234375 -0.265625 0.234375q-0.109375 0 -0.203125 -0.078125q-0.078125 -0.078125 -0.078125 -0.1875q0 -0.0625 0.078125 -0.203125l4.28125 -9.1875q0.0625 -0.15625 0.125 -0.1875q0.0625 -0.046875 0.15625 -0.046875q0.109375 0 0.1875 0.078125q0.078125 0.078125 0.078125 0.171875q0 0.0625 -0.0625 0.203125zm2.9731445 2.859375l0 0.546875q0.6875 -0.734375 1.375 -0.734375q0.40625 0 0.71875 0.21875q0.3125 0.21875 0.515625 0.65625q0.359375 -0.4375 0.71875 -0.65625q0.375 -0.21875 0.734375 -0.21875q0.578125 0 0.921875 0.375q0.453125 0.484375 0.453125 1.046875l0 3.734375l0.453125 0q0.1875 0 0.265625 0.078125q0.09375 0.0625 0.09375 0.1875q0 0.109375 -0.09375 0.1875q-0.078125 0.078125 -0.265625 0.078125l-0.984375 0l0 -4.203125q0 -0.40625 -0.25 -0.671875q-0.25 -0.265625 -0.578125 -0.265625q-0.28125 0 -0.609375 0.21875q-0.328125 0.21875 -0.734375 0.859375l0 3.53125l0.4375 0q0.203125 0 0.28125 0.078125q0.078125 0.0625 0.078125 0.1875q0 0.109375 -0.078125 0.1875q-0.078125 0.078125 -0.28125 0.078125l-0.984375 0l0 -4.171875q0 -0.421875 -0.25 -0.6875q-0.25 -0.28125 -0.5625 -0.28125q-0.28125 0 -0.5625 0.171875q-0.390625 0.265625 -0.8125 0.90625l0 3.53125l0.453125 0q0.1875 0 0.265625 0.078125q0.09375 0.0625 0.09375 0.1875q0 0.109375 -0.09375 0.1875q-0.078125 0.078125 -0.265625 0.078125l-1.4375 0q-0.1875 0 -0.265625 -0.078125q-0.078125 -0.078125 -0.078125 -0.1875q0 -0.125 0.078125 -0.1875q0.078125 -0.078125 0.265625 -0.078125l0.453125 0l0 -4.421875l-0.453125 0q-0.1875 0 -0.265625 -0.078125q-0.078125 -0.078125 -0.078125 -0.203125q0 -0.109375 0.078125 -0.1875q0.078125 -0.078125 0.265625 -0.078125l0.984375 0zm12.629395 -2.859375l-4.296875 9.203125q-0.109375 0.234375 -0.265625 0.234375q-0.109375 0 -0.203125 -0.078125q-0.078125 -0.078125 -0.078125 -0.1875q0 -0.0625 0.078125 -0.203125l4.28125 -9.1875q0.0625 -0.15625 0.125 -0.1875q0.0625 -0.046875 0.15625 -0.046875q0.109375 0 0.1875 0.078125q0.078125 0.078125 0.078125 0.171875q0 0.0625 -0.0625 0.203125zm7.8481445 3.71875l0 1.328125q0 1.71875 -0.8125 2.71875q-0.640625 0.78125 -1.625 0.78125q-0.46875 0 -0.890625 -0.1875q-0.40625 -0.1875 -0.703125 -0.515625q-0.171875 -0.21875 -0.40625 -0.671875q-0.21875 -0.46875 -0.3125 -0.859375q-0.140625 -0.546875 -0.140625 -1.265625l0 -1.328125q0 -1.71875 0.8125 -2.734375q0.640625 -0.78125 1.625 -0.78125q0.484375 0 0.890625 0.1875q0.40625 0.1875 0.703125 0.515625q0.1875 0.21875 0.40625 0.6875q0.21875 0.46875 0.3125 0.84375q0.140625 0.546875 0.140625 1.28125zm-0.53125 0.0625q0 -0.75 -0.21875 -1.390625q-0.203125 -0.65625 -0.46875 -1.046875q-0.15625 -0.21875 -0.421875 -0.375q-0.359375 -0.234375 -0.8125 -0.234375q-0.890625 0 -1.40625 0.921875q-0.5 0.90625 -0.5 2.125l0 1.1875q0 0.75 0.203125 1.40625q0.21875 0.65625 0.5 1.03125q0.15625 0.21875 0.40625 0.375q0.359375 0.234375 0.8125 0.234375q0.890625 0 1.390625 -0.90625q0.515625 -0.921875 0.515625 -2.140625l0 -1.1875zm3.5981445 4.046875l4.09375 0l0 -0.21875q0 -0.1875 0.078125 -0.265625q0.078125 -0.078125 0.1875 -0.078125q0.125 0 0.1875 0.078125q0.078125 0.078125 0.078125 0.265625l0 0.75l-5.15625 0l0 -0.78125q1.625 -1.46875 3.171875 -2.984375q0.71875 -0.703125 0.984375 -1.03125q0.265625 -0.328125 0.359375 -0.578125q0.09375 -0.25 0.09375 -0.5q0 -0.6875 -0.546875 -1.21875q-0.546875 -0.53125 -1.328125 -0.53125q-0.703125 0 -1.25 0.40625q-0.53125 0.40625 -0.6875 0.984375q-0.046875 0.15625 -0.09375 0.203125q-0.078125 0.0625 -0.1875 0.0625q-0.109375 0 -0.1875 -0.0625q-0.0625 -0.078125 -0.0625 -0.1875q0 -0.296875 0.328125 -0.8125q0.34375 -0.53125 0.921875 -0.828125q0.59375 -0.296875 1.203125 -0.296875q1.0 0 1.71875 0.703125q0.71875 0.6875 0.71875 1.5625q0 0.359375 -0.125 0.671875q-0.109375 0.3125 -0.40625 0.671875q-0.28125 0.359375 -1.03125 1.09375q-1.890625 1.859375 -3.0625 2.875l0 0.046875zm7.6606445 -4.96875l0 0.546875q0.6875 -0.734375 1.375 -0.734375q0.40625 0 0.71875 0.21875q0.3125 0.21875 0.515625 0.65625q0.359375 -0.4375 0.71875 -0.65625q0.375 -0.21875 0.734375 -0.21875q0.578125 0 0.921875 0.375q0.453125 0.484375 0.453125 1.046875l0 3.734375l0.453125 0q0.1875 0 0.265625 0.078125q0.09375 0.0625 0.09375 0.1875q0 0.109375 -0.09375 0.1875q-0.078125 0.078125 -0.265625 0.078125l-0.984375 0l0 -4.203125q0 -0.40625 -0.25 -0.671875q-0.25 -0.265625 -0.578125 -0.265625q-0.28125 0 -0.609375 0.21875q-0.328125 0.21875 -0.734375 0.859375l0 3.53125l0.4375 0q0.203125 0 0.28125 0.078125q0.078125 0.0625 0.078125 0.1875q0 0.109375 -0.078125 0.1875q-0.078125 0.078125 -0.28125 0.078125l-0.984375 0l0 -4.171875q0 -0.421875 -0.25 -0.6875q-0.25 -0.28125 -0.5625 -0.28125q-0.28125 0 -0.5625 0.171875q-0.390625 0.265625 -0.8125 0.90625l0 3.53125l0.453125 0q0.1875 0 0.265625 0.078125q0.09375 0.0625 0.09375 0.1875q0 0.109375 -0.09375 0.1875q-0.078125 0.078125 -0.265625 0.078125l-1.4375 0q-0.1875 0 -0.265625 -0.078125q-0.078125 -0.078125 -0.078125 -0.1875q0 -0.125 0.078125 -0.1875q0.078125 -0.078125 0.265625 -0.078125l0.453125 0l0 -4.421875l-0.453125 0q-0.1875 0 -0.265625 -0.078125q-0.078125 -0.078125 -0.078125 -0.203125q0 -0.109375 0.078125 -0.1875q0.078125 -0.078125 0.265625 -0.078125l0.984375 0zm11.004395 -2.734375l0 1.375l-0.796875 0l0 -1.375l0.796875 0zm0.03125 3.28125l-3.171875 0q-0.1875 0 -0.28125 -0.078125q-0.078125 -0.078125 -0.078125 -0.203125q0 -0.109375 0.078125 -0.1875q0.078125 -0.078125 0.28125 -0.078125l3.703125 0l0 5.875q0 0.671875 -0.28125 1.125q-0.28125 0.46875 -0.84375 0.75q-0.390625 0.203125 -0.921875 0.203125l-1.6875 0q-0.1875 0 -0.28125 -0.078125q-0.078125 -0.078125 -0.078125 -0.1875q0 -0.125 0.078125 -0.203125q0.09375 -0.078125 0.28125 -0.078125l1.6875 0.015625q0.671875 0 1.09375 -0.453125q0.421875 -0.4375 0.421875 -1.09375l0 -5.328125zm4.5668945 -0.546875l0 0.546875q0.6875 -0.734375 1.375 -0.734375q0.40625 0 0.71875 0.21875q0.3125 0.21875 0.515625 0.65625q0.359375 -0.4375 0.71875 -0.65625q0.375 -0.21875 0.734375 -0.21875q0.578125 0 0.921875 0.375q0.453125 0.484375 0.453125 1.046875l0 3.734375l0.453125 0q0.1875 0 0.265625 0.078125q0.09375 0.0625 0.09375 0.1875q0 0.109375 -0.09375 0.1875q-0.078125 0.078125 -0.265625 0.078125l-0.984375 0l0 -4.203125q0 -0.40625 -0.25 -0.671875q-0.25 -0.265625 -0.578125 -0.265625q-0.28125 0 -0.609375 0.21875q-0.328125 0.21875 -0.734375 0.859375l0 3.53125l0.4375 0q0.203125 0 0.28125 0.078125q0.078125 0.0625 0.078125 0.1875q0 0.109375 -0.078125 0.1875q-0.078125 0.078125 -0.28125 0.078125l-0.984375 0l0 -4.171875q0 -0.421875 -0.25 -0.6875q-0.25 -0.28125 -0.5625 -0.28125q-0.28125 0 -0.5625 0.171875q-0.390625 0.265625 -0.8125 0.90625l0 3.53125l0.453125 0q0.1875 0 0.265625 0.078125q0.09375 0.0625 0.09375 0.1875q0 0.109375 -0.09375 0.1875q-0.078125 0.078125 -0.265625 0.078125l-1.4375 0q-0.1875 0 -0.265625 -0.078125q-0.078125 -0.078125 -0.078125 -0.1875q0 -0.125 0.078125 -0.1875q0.078125 -0.078125 0.265625 -0.078125l0.453125 0l0 -4.421875l-0.453125 0q-0.1875 0 -0.265625 -0.078125q-0.078125 -0.078125 -0.078125 -0.203125q0 -0.109375 0.078125 -0.1875q0.078125 -0.078125 0.265625 -0.078125l0.984375 0zm9.598145 0l0 1.34375q1.03125 -0.9375 1.546875 -1.203125q0.53125 -0.265625 0.96875 -0.265625q0.46875 0 0.875 0.328125q0.421875 0.3125 0.421875 0.46875q0 0.125 -0.09375 0.203125q-0.078125 0.078125 -0.1875 0.078125q-0.0625 0 -0.109375 -0.015625q-0.046875 -0.03125 -0.171875 -0.140625q-0.21875 -0.234375 -0.390625 -0.3125q-0.15625 -0.078125 -0.3125 -0.078125q-0.359375 0 -0.859375 0.28125q-0.484375 0.28125 -1.6875 1.359375l0 2.921875l2.359375 0q0.203125 0 0.28125 0.078125q0.078125 0.0625 0.078125 0.1875q0 0.109375 -0.078125 0.1875q-0.078125 0.078125 -0.28125 0.078125l-4.1875 0q-0.1875 0 -0.28125 -0.0625q-0.078125 -0.078125 -0.078125 -0.203125q0 -0.109375 0.078125 -0.171875q0.09375 -0.078125 0.28125 -0.078125l1.296875 0l0 -4.4375l-0.984375 0q-0.1875 0 -0.28125 -0.078125q-0.078125 -0.078125 -0.078125 -0.203125q0 -0.109375 0.078125 -0.1875q0.078125 -0.078125 0.28125 -0.078125l1.515625 0zm8.598145 2.34375q0 0.734375 -0.203125 1.546875q-0.1875 0.8125 -0.734375 1.890625q-0.53125 1.078125 -0.78125 1.296875q-0.078125 0.078125 -0.15625 0.078125q-0.125 0 -0.203125 -0.09375q-0.078125 -0.078125 -0.078125 -0.171875q0 -0.0625 0.046875 -0.140625q0.703125 -1.28125 1.0 -2.3125q0.296875 -1.046875 0.296875 -2.09375q0 -1.046875 -0.296875 -2.078125q-0.296875 -1.046875 -1.0 -2.328125q-0.046875 -0.078125 -0.046875 -0.140625q0 -0.109375 0.078125 -0.1875q0.078125 -0.078125 0.203125 -0.078125q0.078125 0 0.15625 0.078125q0.234375 0.203125 0.765625 1.25q0.546875 1.046875 0.75 1.859375q0.203125 0.8125 0.203125 1.625z" fill-rule="nonzero"></path><path fill="#d9ead3" d="m826.6667 36.32024l0 0c0 -9.01342 7.3068237 -16.32024 16.32019 -16.32024l103.35956 0c4.328369 0 8.479492 1.7194481 11.540161 4.7800884c3.060608 3.0606384 4.7800903 7.211754 4.7800903 11.540152l0 39.359516c0 9.01342 -7.3068237 16.320244 -16.320251 16.320244l-103.35956 0c-9.013367 0 -16.32019 -7.3068237 -16.32019 -16.320244z" fill-rule="nonzero"></path><path stroke="#000000" stroke-width="1.0" stroke-linejoin="round" stroke-linecap="butt" d="m826.6667 36.32024l0 0c0 -9.01342 7.3068237 -16.32024 16.32019 -16.32024l103.35956 0c4.328369 0 8.479492 1.7194481 11.540161 4.7800884c3.060608 3.0606384 4.7800903 7.211754 4.7800903 11.540152l0 39.359516c0 9.01342 -7.3068237 16.320244 -16.320251 16.320244l-103.35956 0c-9.013367 0 -16.32019 -7.3068237 -16.32019 -16.320244z" fill-rule="nonzero"></path><path fill="#000000" d="m861.95966 50.203747l-0.0625 0q-0.171875 0.265625 -0.40625 0.515625q-0.21875 0.234375 -0.53125 0.421875q-0.296875 0.171875 -0.671875 0.265625q-0.375 0.109375 -0.84375 0.109375q-0.71875 0 -1.328125 -0.28125q-0.59375 -0.28125 -1.03125 -0.84375q-0.421875 -0.5625 -0.65625 -1.390625q-0.234375 -0.828125 -0.234375 -1.921875q0 -1.09375 0.234375 -1.921875q0.234375 -0.84375 0.65625 -1.40625q0.4375 -0.5625 1.03125 -0.84375q0.609375 -0.28125 1.328125 -0.28125q0.46875 0 0.84375 0.109375q0.375 0.09375 0.671875 0.265625q0.296875 0.171875 0.53125 0.40625q0.234375 0.21875 0.40625 0.46875l0.09375 0q-0.015625 -0.265625 -0.046875 -0.515625q-0.015625 -0.203125 -0.03125 -0.40625q-0.015625 -0.21875 -0.015625 -0.34375l0 -3.40625l1.421875 0l0 12.15625l-1.140625 0l-0.21875 -1.15625zm-2.234375 0.125q0.59375 0 1.0 -0.171875q0.40625 -0.1875 0.65625 -0.546875q0.265625 -0.375 0.375 -0.921875q0.125 -0.546875 0.140625 -1.28125l0 -0.328125q0 -0.78125 -0.109375 -1.390625q-0.09375 -0.625 -0.359375 -1.03125q-0.25 -0.421875 -0.671875 -0.640625q-0.421875 -0.21875 -1.046875 -0.21875q-1.0625 0 -1.5625 0.859375q-0.484375 0.84375 -0.484375 2.4375q0 1.640625 0.484375 2.4375q0.5 0.796875 1.578125 0.796875zm9.703125 1.1875q-0.859375 0 -1.578125 -0.28125q-0.703125 -0.296875 -1.21875 -0.84375q-0.5 -0.5625 -0.78125 -1.375q-0.28125 -0.828125 -0.28125 -1.890625q0 -1.0625 0.25 -1.890625q0.265625 -0.84375 0.734375 -1.421875q0.46875 -0.578125 1.109375 -0.875q0.65625 -0.3125 1.453125 -0.3125q0.765625 0 1.375 0.28125q0.625 0.265625 1.046875 0.78125q0.4375 0.5 0.671875 1.203125q0.234375 0.703125 0.234375 1.5625l0 0.890625l-5.40625 0q0.03125 1.5 0.625 2.21875q0.609375 0.703125 1.78125 0.703125q0.40625 0 0.734375 -0.03125q0.34375 -0.046875 0.65625 -0.109375q0.328125 -0.078125 0.625 -0.1875q0.296875 -0.125 0.59375 -0.265625l0 1.265625q-0.3125 0.15625 -0.609375 0.265625q-0.296875 0.109375 -0.625 0.171875q-0.3125 0.078125 -0.65625 0.109375q-0.328125 0.03125 -0.734375 0.03125zm-0.34375 -7.71875q-0.890625 0 -1.421875 0.609375q-0.515625 0.609375 -0.59375 1.78125l3.84375 0q0 -0.53125 -0.109375 -0.96875q-0.109375 -0.453125 -0.328125 -0.765625q-0.21875 -0.3125 -0.5625 -0.484375q-0.34375 -0.171875 -0.828125 -0.171875zm10.875 7.5625l0 -5.53125q0 -1.015625 -0.40625 -1.515625q-0.40625 -0.515625 -1.28125 -0.515625q-0.640625 0 -1.078125 0.203125q-0.421875 0.203125 -0.6875 0.609375q-0.25 0.390625 -0.375 0.96875q-0.109375 0.578125 -0.109375 1.328125l0 4.453125l-1.421875 0l0 -8.578125l1.15625 0l0.203125 1.15625l0.078125 0q0.203125 -0.34375 0.46875 -0.578125q0.265625 -0.25 0.578125 -0.40625q0.328125 -0.171875 0.6875 -0.25q0.359375 -0.078125 0.734375 -0.078125q1.4375 0 2.15625 0.75q0.71875 0.734375 0.71875 2.375l0 5.609375l-1.421875 0zm11.0625 -4.3125q0 1.078125 -0.265625 1.90625q-0.265625 0.828125 -0.75 1.40625q-0.484375 0.5625 -1.1875 0.859375q-0.6875 0.296875 -1.5625 0.296875q-0.796875 0 -1.484375 -0.296875q-0.671875 -0.296875 -1.171875 -0.859375q-0.5 -0.578125 -0.78125 -1.40625q-0.265625 -0.828125 -0.265625 -1.90625q0 -1.0625 0.25 -1.875q0.265625 -0.828125 0.75 -1.390625q0.484375 -0.578125 1.1875 -0.859375q0.703125 -0.296875 1.5625 -0.296875q0.8125 0 1.484375 0.296875q0.6875 0.28125 1.171875 0.859375q0.5 0.5625 0.78125 1.390625q0.28125 0.8125 0.28125 1.875zm-6.0 0q0 1.640625 0.53125 2.46875q0.53125 0.8125 1.734375 0.8125q1.203125 0 1.734375 -0.8125q0.53125 -0.828125 0.53125 -2.46875q0 -1.625 -0.546875 -2.4375q-0.53125 -0.8125 -1.734375 -0.8125q-1.203125 0 -1.734375 0.8125q-0.515625 0.8125 -0.515625 2.4375zm10.828125 3.296875q0.140625 0 0.3125 -0.015625q0.1875 -0.015625 0.34375 -0.03125q0.171875 -0.03125 0.296875 -0.0625q0.140625 -0.03125 0.21875 -0.046875l0 1.078125q-0.109375 0.046875 -0.265625 0.09375q-0.15625 0.046875 -0.34375 0.078125q-0.1875 0.046875 -0.390625 0.0625q-0.203125 0.015625 -0.390625 0.015625q-0.484375 0 -0.90625 -0.125q-0.40625 -0.125 -0.71875 -0.421875q-0.296875 -0.3125 -0.46875 -0.828125q-0.171875 -0.53125 -0.171875 -1.3125l0 -4.984375l-1.203125 0l0 -0.625l1.203125 -0.609375l0.609375 -1.796875l0.828125 0l0 1.96875l2.15625 0l0 1.0625l-2.15625 0l0 4.984375q0 0.75 0.234375 1.140625q0.25 0.375 0.8125 0.375zm7.671875 1.015625l-0.296875 -1.1875l-0.0625 0q-0.25 0.34375 -0.515625 0.609375q-0.25 0.25 -0.5625 0.421875q-0.296875 0.15625 -0.671875 0.234375q-0.375 0.078125 -0.875 0.078125q-0.53125 0 -0.984375 -0.15625q-0.453125 -0.15625 -0.796875 -0.46875q-0.328125 -0.3125 -0.515625 -0.796875q-0.1875 -0.484375 -0.1875 -1.140625q0 -1.28125 0.90625 -1.96875q0.90625 -0.6875 2.75 -0.75l1.4375 -0.046875l0 -0.546875q0 -0.515625 -0.125 -0.859375q-0.109375 -0.359375 -0.328125 -0.578125q-0.203125 -0.21875 -0.53125 -0.3125q-0.3125 -0.09375 -0.71875 -0.09375q-0.640625 0 -1.203125 0.1875q-0.5625 0.1875 -1.078125 0.453125l-0.5 -1.0625q0.578125 -0.3125 1.28125 -0.53125q0.71875 -0.21875 1.5 -0.21875q0.796875 0 1.375 0.15625q0.59375 0.15625 0.96875 0.515625q0.375 0.34375 0.5625 0.890625q0.1875 0.53125 0.1875 1.296875l0 5.875l-1.015625 0zm-2.609375 -1.0q0.46875 0 0.875 -0.140625q0.40625 -0.15625 0.703125 -0.453125q0.296875 -0.296875 0.46875 -0.75q0.171875 -0.46875 0.171875 -1.078125l0 -0.78125l-1.125 0.0625q-0.703125 0.03125 -1.1875 0.15625q-0.46875 0.125 -0.75 0.34375q-0.28125 0.21875 -0.40625 0.546875q-0.125 0.3125 -0.125 0.703125q0 0.71875 0.375 1.0625q0.375 0.328125 1.0 0.328125zm8.8515625 -0.015625q0.140625 0 0.3125 -0.015625q0.1875 -0.015625 0.34375 -0.03125q0.171875 -0.03125 0.296875 -0.0625q0.140625 -0.03125 0.21875 -0.046875l0 1.078125q-0.109375 0.046875 -0.265625 0.09375q-0.15625 0.046875 -0.34375 0.078125q-0.1875 0.046875 -0.390625 0.0625q-0.203125 0.015625 -0.390625 0.015625q-0.484375 0 -0.90625 -0.125q-0.40625 -0.125 -0.71875 -0.421875q-0.296875 -0.3125 -0.46875 -0.828125q-0.171875 -0.53125 -0.171875 -1.3125l0 -4.984375l-1.203125 0l0 -0.625l1.203125 -0.609375l0.609375 -1.796875l0.828125 0l0 1.96875l2.15625 0l0 1.0625l-2.15625 0l0 4.984375q0 0.75 0.234375 1.140625q0.25 0.375 0.8125 0.375zm4.25 1.015625l-1.421875 0l0 -8.578125l1.421875 0l0 8.578125zm-1.53125 -10.90625q0 -0.46875 0.234375 -0.671875q0.25 -0.21875 0.59375 -0.21875q0.171875 0 0.328125 0.0625q0.15625 0.046875 0.265625 0.15625q0.109375 0.109375 0.171875 0.28125q0.078125 0.15625 0.078125 0.390625q0 0.453125 -0.25 0.6875q-0.25 0.21875 -0.59375 0.21875q-0.34375 0 -0.59375 -0.21875q-0.234375 -0.21875 -0.234375 -0.6875zm11.25 6.59375q0 1.078125 -0.265625 1.90625q-0.265625 0.828125 -0.75 1.40625q-0.484375 0.5625 -1.1875 0.859375q-0.6875 0.296875 -1.5625 0.296875q-0.796875 0 -1.484375 -0.296875q-0.671875 -0.296875 -1.171875 -0.859375q-0.5 -0.578125 -0.78125 -1.40625q-0.265625 -0.828125 -0.265625 -1.90625q0 -1.0625 0.25 -1.875q0.265625 -0.828125 0.75 -1.390625q0.484375 -0.578125 1.1875 -0.859375q0.703125 -0.296875 1.5625 -0.296875q0.8125 0 1.484375 0.296875q0.6875 0.28125 1.171875 0.859375q0.5 0.5625 0.78125 1.390625q0.28125 0.8125 0.28125 1.875zm-6.0 0q0 1.640625 0.53125 2.46875q0.53125 0.8125 1.734375 0.8125q1.203125 0 1.734375 -0.8125q0.53125 -0.828125 0.53125 -2.46875q0 -1.625 -0.546875 -2.4375q-0.53125 -0.8125 -1.734375 -0.8125q-1.203125 0 -1.734375 0.8125q-0.515625 0.8125 -0.515625 2.4375zm13.59375 4.3125l0 -5.53125q0 -1.015625 -0.40625 -1.515625q-0.40625 -0.515625 -1.28125 -0.515625q-0.640625 0 -1.078125 0.203125q-0.421875 0.203125 -0.6875 0.609375q-0.25 0.390625 -0.375 0.96875q-0.109375 0.578125 -0.109375 1.328125l0 4.453125l-1.421875 0l0 -8.578125l1.15625 0l0.203125 1.15625l0.078125 0q0.203125 -0.34375 0.46875 -0.578125q0.265625 -0.25 0.578125 -0.40625q0.328125 -0.171875 0.6875 -0.25q0.359375 -0.078125 0.734375 -0.078125q1.4375 0 2.15625 0.75q0.71875 0.734375 0.71875 2.375l0 5.609375l-1.421875 0z" fill-rule="nonzero"></path><path fill="#000000" d="m879.3354 62.72187l0 7.546875l1.828125 0q0.1875 0 0.265625 0.078125q0.078125 0.0625 0.078125 0.1875q0 0.109375 -0.078125 0.1875q-0.078125 0.078125 -0.265625 0.078125l-4.203125 0q-0.1875 0 -0.265625 -0.078125q-0.078125 -0.078125 -0.078125 -0.1875q0 -0.125 0.078125 -0.1875q0.078125 -0.078125 0.265625 -0.078125l1.828125 0l0 -6.8125l-1.734375 0.546875q-0.125 0.046875 -0.1875 0.046875q-0.09375 0 -0.171875 -0.078125q-0.078125 -0.078125 -0.078125 -0.1875q0 -0.09375 0.0625 -0.1875q0.046875 -0.046875 0.21875 -0.109375l2.4375 -0.765625zm7.4262695 6.546875l0.21875 0q0.359375 0 0.609375 0.25q0.25 0.25 0.25 0.609375q0 0.359375 -0.25 0.609375q-0.25 0.25 -0.609375 0.25l-0.21875 0q-0.359375 0 -0.625 -0.25q-0.25 -0.25 -0.25 -0.609375q0 -0.359375 0.25 -0.609375q0.265625 -0.25 0.625 -0.25zm9.004395 -2.59375q0.65625 0.3125 1.0 0.84375q0.34375 0.53125 0.34375 1.140625q0 0.953125 -0.71875 1.640625q-0.703125 0.6875 -1.71875 0.6875q-1.015625 0 -1.734375 -0.6875q-0.703125 -0.6875 -0.703125 -1.640625q0 -0.609375 0.328125 -1.125q0.34375 -0.53125 1.015625 -0.859375q-0.578125 -0.34375 -0.84375 -0.703125q-0.375 -0.515625 -0.375 -1.140625q0 -0.875 0.671875 -1.53125q0.6875 -0.65625 1.640625 -0.65625q0.953125 0 1.625 0.65625q0.671875 0.65625 0.671875 1.53125q0 0.625 -0.359375 1.125q-0.265625 0.375 -0.84375 0.71875zm0.65625 -1.828125q0 -0.6875 -0.515625 -1.171875q-0.5 -0.5 -1.25 -0.5q-0.734375 0 -1.25 0.5q-0.5 0.5 -0.5 1.171875q0 0.625 0.5 1.09375q0.515625 0.453125 1.25 0.453125q0.765625 0 1.265625 -0.453125q0.5 -0.46875 0.5 -1.09375zm0.15625 3.828125q0 -0.703125 -0.546875 -1.21875q-0.546875 -0.53125 -1.359375 -0.53125q-0.8125 0 -1.359375 0.53125q-0.546875 0.515625 -0.546875 1.203125q0 0.734375 0.546875 1.265625q0.546875 0.53125 1.359375 0.53125q0.796875 0 1.34375 -0.53125q0.5625 -0.53125 0.5625 -1.25zm4.4262695 -5.296875l0 2.609375q0.46875 -0.203125 0.890625 -0.296875q0.4375 -0.109375 0.828125 -0.109375q1.0 0 1.671875 0.71875q0.671875 0.703125 0.671875 1.84375q0 1.265625 -0.765625 2.0625q-0.75 0.78125 -1.890625 0.78125q-0.765625 0 -1.453125 -0.328125q-0.5 -0.234375 -0.90625 -0.59375q-0.234375 -0.203125 -0.234375 -0.34375q0 -0.109375 0.0625 -0.1875q0.078125 -0.09375 0.1875 -0.09375q0.109375 0 0.234375 0.125q0.953125 0.890625 2.078125 0.890625q0.9375 0 1.546875 -0.640625q0.609375 -0.640625 0.609375 -1.6875q0 -0.90625 -0.53125 -1.453125q-0.53125 -0.546875 -1.34375 -0.546875q-0.828125 0 -1.65625 0.4375q-0.203125 0.09375 -0.28125 0.09375q-0.125 0 -0.203125 -0.078125q-0.0625 -0.078125 -0.0625 -0.21875l0 -3.53125l3.734375 0q0.1875 0 0.265625 0.078125q0.078125 0.078125 0.078125 0.203125q0 0.109375 -0.078125 0.1875q-0.078125 0.078125 -0.265625 0.078125l-3.1875 0zm6.8325195 1.921875l0 0.546875q0.6875 -0.734375 1.375 -0.734375q0.40625 0 0.71875 0.21875q0.3125 0.21875 0.515625 0.65625q0.359375 -0.4375 0.71875 -0.65625q0.375 -0.21875 0.734375 -0.21875q0.578125 0 0.921875 0.375q0.453125 0.484375 0.453125 1.046875l0 3.734375l0.453125 0q0.1875 0 0.265625 0.078125q0.09375 0.0625 0.09375 0.1875q0 0.109375 -0.09375 0.1875q-0.078125 0.078125 -0.265625 0.078125l-0.984375 0l0 -4.203125q0 -0.40625 -0.25 -0.671875q-0.25 -0.265625 -0.578125 -0.265625q-0.28125 0 -0.609375 0.21875q-0.328125 0.21875 -0.734375 0.859375l0 3.53125l0.4375 0q0.203125 0 0.28125 0.078125q0.078125 0.0625 0.078125 0.1875q0 0.109375 -0.078125 0.1875q-0.078125 0.078125 -0.28125 0.078125l-0.984375 0l0 -4.171875q0 -0.421875 -0.25 -0.6875q-0.25 -0.28125 -0.5625 -0.28125q-0.28125 0 -0.5625 0.171875q-0.390625 0.265625 -0.8125 0.90625l0 3.53125l0.453125 0q0.1875 0 0.265625 0.078125q0.09375 0.0625 0.09375 0.1875q0 0.109375 -0.09375 0.1875q-0.078125 0.078125 -0.265625 0.078125l-1.4375 0q-0.1875 0 -0.265625 -0.078125q-0.078125 -0.078125 -0.078125 -0.1875q0 -0.125 0.078125 -0.1875q0.078125 -0.078125 0.265625 -0.078125l0.453125 0l0 -4.421875l-0.453125 0q-0.1875 0 -0.265625 -0.078125q-0.078125 -0.078125 -0.078125 -0.203125q0 -0.109375 0.078125 -0.1875q0.078125 -0.078125 0.265625 -0.078125l0.984375 0z" fill-rule="nonzero"></path><path fill="#000000" fill-opacity="0.0" d="m210.66666 56.0l42.015747 0" fill-rule="nonzero"></path><path stroke="#000000" stroke-width="2.0" stroke-linejoin="round" stroke-linecap="butt" d="m210.66667 56.0l30.015747 0" fill-rule="evenodd"></path><path fill="#000000" stroke="#000000" stroke-width="2.0" stroke-linecap="butt" d="m240.68242 59.303463l9.076187 -3.303463l-9.076187 -3.303463z" fill-rule="evenodd"></path><path fill="#000000" fill-opacity="0.0" d="m356.66666 55.999996l42.015747 0" fill-rule="nonzero"></path><path stroke="#000000" stroke-width="2.0" stroke-linejoin="round" stroke-linecap="butt" d="m356.66666 56.0l30.015747 0" fill-rule="evenodd"></path><path fill="#000000" stroke="#000000" stroke-width="2.0" stroke-linecap="butt" d="m386.6824 59.303463l9.076202 -3.303463l-9.076202 -3.303463z" fill-rule="evenodd"></path><path fill="#000000" fill-opacity="0.0" d="m638.6667 56.0l41.984253 0" fill-rule="nonzero"></path><path stroke="#000000" stroke-width="2.0" stroke-linejoin="round" stroke-linecap="butt" d="m638.6667 56.0l29.984253 0" fill-rule="evenodd"></path><path fill="#000000" stroke="#000000" stroke-width="2.0" stroke-linecap="butt" d="m668.65094 59.303463l9.076172 -3.303463l-9.076172 -3.303463z" fill-rule="evenodd"></path><path fill="#000000" fill-opacity="0.0" d="m784.6667 55.999996l42.015747 0" fill-rule="nonzero"></path><path stroke="#000000" stroke-width="2.0" stroke-linejoin="round" stroke-linecap="butt" d="m784.6667 56.0l30.015747 0" fill-rule="evenodd"></path><path fill="#000000" stroke="#000000" stroke-width="2.0" stroke-linecap="butt" d="m814.68243 59.303463l9.076172 -3.303463l-9.076172 -3.303463z" fill-rule="evenodd"></path></g></svg>

