<?xml version="1.0" standalone="yes"?>

<svg version="1.1" viewBox="0.0 0.0 845.0 138.0" fill="none" stroke="none" stroke-linecap="square" stroke-miterlimit="10" xmlns="http://www.w3.org/2000/svg" xmlns:xlink="http://www.w3.org/1999/xlink"><clipPath id="p.0"><path d="m0 0l845.0 0l0 138.0l-845.0 0l0 -138.0z" clip-rule="nonzero"></path></clipPath><g clip-path="url(#p.0)"><path fill="#000000" fill-opacity="0.0" d="m0 0l845.86615 0l0 138.47244l-845.86615 0z" fill-rule="nonzero"></path><path fill="#d9d2e9" d="m357.67764 57.64933l0 0c0 -5.311058 4.3054504 -9.61652 9.616516 -9.61652l242.65671 0c2.550476 0 4.99646 1.0131645 6.7999268 2.8166122c1.8034668 1.8034477 2.8165894 4.249447 2.8165894 6.7999077l0 23.192154c0 5.311058 -4.30542 9.616524 -9.616516 9.616524l-242.65671 0c-5.3110657 0 -9.616516 -4.3054657 -9.616516 -9.616524z" fill-rule="nonzero"></path><path stroke="#000000" stroke-width="1.0" stroke-linejoin="round" stroke-linecap="butt" d="m357.67764 57.64933l0 0c0 -5.311058 4.3054504 -9.61652 9.616516 -9.61652l242.65671 0c2.550476 0 4.99646 1.0131645 6.7999268 2.8166122c1.8034668 1.8034477 2.8165894 4.249447 2.8165894 6.7999077l0 23.192154c0 5.311058 -4.30542 9.616524 -9.616516 9.616524l-242.65671 0c-5.3110657 0 -9.616516 -4.3054657 -9.616516 -9.616524z" fill-rule="nonzero"></path><path fill="#000000" d="m382.93893 69.71478q0 -0.90625 0.234375 -1.90625q0.234375 -1.015625 0.890625 -2.328125q0.671875 -1.328125 0.96875 -1.59375q0.09375 -0.09375 0.203125 -0.09375q0.140625 0 0.234375 0.09375q0.109375 0.09375 0.109375 0.234375q0 0.078125 -0.0625 0.171875q-0.859375 1.578125 -1.234375 2.859375q-0.359375 1.28125 -0.359375 2.5625q0 1.28125 0.359375 2.5625q0.375 1.28125 1.234375 2.859375q0.0625 0.09375 0.0625 0.171875q0 0.140625 -0.109375 0.234375q-0.09375 0.09375 -0.234375 0.09375q-0.109375 0 -0.203125 -0.078125q-0.28125 -0.265625 -0.9375 -1.5625q-0.65625 -1.296875 -0.90625 -2.28125q-0.25 -1.0 -0.25 -2.0zm7.1953125 -2.875l0 1.1875q0.59375 -0.703125 1.265625 -1.0625q0.671875 -0.359375 1.578125 -0.359375q0.96875 0 1.78125 0.453125q0.828125 0.453125 1.28125 1.265625q0.453125 0.796875 0.453125 1.6875q0 1.421875 -1.015625 2.421875q-1.015625 1.0 -2.484375 1.0q-1.765625 0 -2.859375 -1.421875l0 3.953125l1.59375 0q0.234375 0 0.328125 0.09375q0.109375 0.09375 0.109375 0.234375q0 0.140625 -0.109375 0.234375q-0.09375 0.09375 -0.328125 0.09375l-3.125 0q-0.234375 0 -0.34375 -0.09375q-0.09375 -0.078125 -0.09375 -0.234375q0 -0.140625 0.09375 -0.234375q0.109375 -0.09375 0.34375 -0.09375l0.875 0l0 -8.46875l-0.875 0q-0.234375 0 -0.34375 -0.09375q-0.09375 -0.09375 -0.09375 -0.234375q0 -0.140625 0.09375 -0.234375q0.109375 -0.09375 0.34375 -0.09375l1.53125 0zm5.6875 3.171875q0 -1.125 -0.828125 -1.9375q-0.8125 -0.8125 -2.0 -0.8125q-1.203125 0 -2.03125 0.8125q-0.828125 0.8125 -0.828125 1.9375q0 1.140625 0.828125 1.953125q0.828125 0.8125 2.03125 0.8125q1.171875 0 2.0 -0.8125q0.828125 -0.8125 0.828125 -1.953125zm10.0546875 0.21875q0 1.5 -1.078125 2.578125q-1.0625 1.0625 -2.578125 1.0625q-1.53125 0 -2.609375 -1.0625q-1.0625 -1.078125 -1.0625 -2.578125q0 -1.5 1.0625 -2.5625q1.078125 -1.0625 2.609375 -1.0625q1.515625 0 2.578125 1.0625q1.078125 1.0625 1.078125 2.5625zm-0.65625 0q0 -1.234375 -0.890625 -2.09375q-0.875 -0.875 -2.125 -0.875q-1.25 0 -2.125 0.875q-0.875 0.875 -0.875 2.09375q0 1.21875 0.875 2.09375q0.875 0.875 2.125 0.875q1.25 0 2.125 -0.859375q0.890625 -0.875 0.890625 -2.109375zm4.1171875 -3.390625l0 1.1875q0.59375 -0.703125 1.265625 -1.0625q0.671875 -0.359375 1.578125 -0.359375q0.96875 0 1.78125 0.453125q0.828125 0.453125 1.28125 1.265625q0.453125 0.796875 0.453125 1.6875q0 1.421875 -1.015625 2.421875q-1.015625 1.0 -2.484375 1.0q-1.765625 0 -2.859375 -1.421875l0 3.953125l1.59375 0q0.234375 0 0.328125 0.09375q0.109375 0.09375 0.109375 0.234375q0 0.140625 -0.109375 0.234375q-0.09375 0.09375 -0.328125 0.09375l-3.125 0q-0.234375 0 -0.34375 -0.09375q-0.09375 -0.078125 -0.09375 -0.234375q0 -0.140625 0.09375 -0.234375q0.109375 -0.09375 0.34375 -0.09375l0.875 0l0 -8.46875l-0.875 0q-0.234375 0 -0.34375 -0.09375q-0.09375 -0.09375 -0.09375 -0.234375q0 -0.140625 0.09375 -0.234375q0.109375 -0.09375 0.34375 -0.09375l1.53125 0zm5.6875 3.171875q0 -1.125 -0.828125 -1.9375q-0.8125 -0.8125 -2.0 -0.8125q-1.203125 0 -2.03125 0.8125q-0.828125 0.8125 -0.828125 1.9375q0 1.140625 0.828125 1.953125q0.828125 0.8125 2.03125 0.8125q1.171875 0 2.0 -0.8125q0.828125 -0.8125 0.828125 -1.953125zm8.6328125 3.59375l0 -0.96875q-1.34375 1.234375 -2.90625 1.234375q-0.953125 0 -1.453125 -0.53125q-0.65625 -0.6875 -0.65625 -1.609375l0 -4.234375l-0.875 0q-0.234375 0 -0.34375 -0.09375q-0.09375 -0.09375 -0.09375 -0.234375q0 -0.140625 0.09375 -0.234375q0.109375 -0.09375 0.34375 -0.09375l1.53125 0l0 4.890625q0 0.640625 0.40625 1.0625q0.40625 0.40625 1.015625 0.40625q1.609375 0 2.9375 -1.46875l0 -4.234375l-1.203125 0q-0.234375 0 -0.34375 -0.09375q-0.09375 -0.09375 -0.09375 -0.234375q0 -0.140625 0.09375 -0.234375q0.109375 -0.09375 0.34375 -0.09375l1.859375 0l0 6.109375l0.5625 0q0.234375 0 0.328125 0.09375q0.109375 0.078125 0.109375 0.234375q0 0.140625 -0.109375 0.234375q-0.09375 0.09375 -0.328125 0.09375l-1.21875 0zm7.6953125 -9.8125l0 9.15625l2.578125 0q0.234375 0 0.328125 0.09375q0.109375 0.078125 0.109375 0.234375q0 0.140625 -0.109375 0.234375q-0.09375 0.09375 -0.328125 0.09375l-5.8125 0q-0.234375 0 -0.34375 -0.09375q-0.09375 -0.09375 -0.09375 -0.234375q0 -0.15625 0.09375 -0.234375q0.109375 -0.09375 0.34375 -0.09375l2.578125 0l0 -8.484375l-1.890625 0q-0.234375 0 -0.34375 -0.09375q-0.109375 -0.09375 -0.109375 -0.25q0 -0.140625 0.09375 -0.234375q0.109375 -0.09375 0.359375 -0.09375l2.546875 0zm11.1484375 9.8125l0 -0.953125q-1.421875 1.21875 -3.046875 1.21875q-1.1875 0 -1.859375 -0.59375q-0.65625 -0.609375 -0.65625 -1.484375q0 -0.953125 0.875 -1.65625q0.875 -0.71875 2.5625 -0.71875q0.453125 0 0.984375 0.0625q0.53125 0.0625 1.140625 0.1875l0 -1.0625q0 -0.546875 -0.5 -0.9375q-0.5 -0.40625 -1.5 -0.40625q-0.765625 0 -2.140625 0.453125q-0.25 0.078125 -0.328125 0.078125q-0.125 0 -0.21875 -0.09375q-0.078125 -0.09375 -0.078125 -0.234375q0 -0.140625 0.078125 -0.21875q0.109375 -0.109375 0.875 -0.3125q1.21875 -0.328125 1.84375 -0.328125q1.25 0 1.9375 0.609375q0.703125 0.609375 0.703125 1.390625l0 4.34375l0.875 0q0.234375 0 0.328125 0.09375q0.109375 0.078125 0.109375 0.234375q0 0.140625 -0.109375 0.234375q-0.09375 0.09375 -0.328125 0.09375l-1.546875 0zm0 -3.265625q-0.453125 -0.140625 -0.96875 -0.203125q-0.515625 -0.0625 -1.09375 -0.0625q-1.421875 0 -2.234375 0.625q-0.609375 0.453125 -0.609375 1.09375q0 0.59375 0.46875 1.0q0.46875 0.40625 1.359375 0.40625q0.84375 0 1.578125 -0.328125q0.734375 -0.34375 1.5 -1.09375l0 -1.4375zm6.3671875 -3.5l3.5625 0q0.234375 0 0.328125 0.09375q0.109375 0.09375 0.109375 0.234375q0 0.140625 -0.109375 0.234375q-0.09375 0.09375 -0.328125 0.09375l-3.5625 0l0 4.375q0 0.5625 0.453125 0.953125q0.46875 0.375 1.34375 0.375q0.671875 0 1.4375 -0.1875q0.78125 -0.203125 1.203125 -0.453125q0.15625 -0.109375 0.265625 -0.109375q0.125 0 0.21875 0.109375q0.09375 0.09375 0.09375 0.21875q0 0.125 -0.109375 0.21875q-0.25 0.265625 -1.21875 0.578125q-0.953125 0.296875 -1.84375 0.296875q-1.140625 0 -1.828125 -0.546875q-0.671875 -0.546875 -0.671875 -1.453125l0 -4.375l-1.21875 0q-0.234375 0 -0.34375 -0.09375q-0.09375 -0.09375 -0.09375 -0.234375q0 -0.140625 0.09375 -0.234375q0.109375 -0.09375 0.34375 -0.09375l1.21875 0l0 -1.9375q0 -0.234375 0.09375 -0.328125q0.09375 -0.109375 0.234375 -0.109375q0.140625 0 0.234375 0.109375q0.09375 0.09375 0.09375 0.328125l0 1.9375zm11.2734375 -3.375l0 1.703125l-0.96875 0l0 -1.703125l0.96875 0zm0.03125 3.375l0 6.109375l2.578125 0q0.234375 0 0.328125 0.09375q0.109375 0.078125 0.109375 0.234375q0 0.140625 -0.109375 0.234375q-0.09375 0.09375 -0.328125 0.09375l-5.8125 0q-0.234375 0 -0.34375 -0.09375q-0.09375 -0.09375 -0.09375 -0.234375q0 -0.15625 0.09375 -0.234375q0.109375 -0.09375 0.34375 -0.09375l2.578125 0l0 -5.453125l-1.921875 0q-0.234375 0 -0.34375 -0.09375q-0.09375 -0.09375 -0.09375 -0.234375q0 -0.140625 0.09375 -0.234375q0.109375 -0.09375 0.34375 -0.09375l2.578125 0zm12.9140625 3.390625q0 1.5 -1.078125 2.578125q-1.0625 1.0625 -2.578125 1.0625q-1.53125 0 -2.609375 -1.0625q-1.0625 -1.078125 -1.0625 -2.578125q0 -1.5 1.0625 -2.5625q1.078125 -1.0625 2.609375 -1.0625q1.515625 0 2.578125 1.0625q1.078125 1.0625 1.078125 2.5625zm-0.65625 0q0 -1.234375 -0.890625 -2.09375q-0.875 -0.875 -2.125 -0.875q-1.25 0 -2.125 0.875q-0.875 0.875 -0.875 2.09375q0 1.21875 0.875 2.09375q0.875 0.875 2.125 0.875q1.25 0 2.125 -0.859375q0.890625 -0.875 0.890625 -2.109375zm4.4765625 -3.390625l0 0.984375q0.6875 -0.6875 1.234375 -0.953125q0.5625 -0.265625 1.25 -0.265625q0.75 0 1.375 0.3125q0.4375 0.234375 0.78125 0.78125q0.359375 0.546875 0.359375 1.109375l0 4.140625l0.5625 0q0.234375 0 0.328125 0.09375q0.109375 0.078125 0.109375 0.234375q0 0.140625 -0.109375 0.234375q-0.09375 0.09375 -0.328125 0.09375l-1.765625 0q-0.234375 0 -0.34375 -0.09375q-0.09375 -0.09375 -0.09375 -0.234375q0 -0.15625 0.09375 -0.234375q0.109375 -0.09375 0.34375 -0.09375l0.546875 0l0 -4.03125q0 -0.6875 -0.515625 -1.171875q-0.5 -0.484375 -1.34375 -0.484375q-0.65625 0 -1.140625 0.265625q-0.46875 0.265625 -1.34375 1.296875l0 4.125l0.734375 0q0.234375 0 0.328125 0.09375q0.109375 0.078125 0.109375 0.234375q0 0.140625 -0.109375 0.234375q-0.09375 0.09375 -0.328125 0.09375l-2.140625 0q-0.234375 0 -0.34375 -0.09375q-0.09375 -0.09375 -0.09375 -0.234375q0 -0.15625 0.09375 -0.234375q0.109375 -0.09375 0.34375 -0.09375l0.75 0l0 -5.453125l-0.5625 0q-0.234375 0 -0.34375 -0.09375q-0.09375 -0.09375 -0.09375 -0.234375q0 -0.140625 0.09375 -0.234375q0.109375 -0.09375 0.34375 -0.09375l1.21875 0zm24.265625 -3.515625l-5.28125 11.3125q-0.125 0.296875 -0.34375 0.296875q-0.125 0 -0.234375 -0.109375q-0.09375 -0.09375 -0.09375 -0.203125q0 -0.09375 0.078125 -0.265625l5.28125 -11.3125q0.078125 -0.1875 0.15625 -0.234375q0.078125 -0.0625 0.1875 -0.0625q0.140625 0 0.234375 0.109375q0.09375 0.09375 0.09375 0.203125q0 0.09375 -0.078125 0.265625zm3.6640625 3.515625l0 0.65625q0.84375 -0.890625 1.6875 -0.890625q0.5 0 0.875 0.265625q0.390625 0.265625 0.65625 0.8125q0.4375 -0.546875 0.875 -0.8125q0.453125 -0.265625 0.90625 -0.265625q0.71875 0 1.140625 0.453125q0.546875 0.59375 0.546875 1.296875l0 4.59375l0.5624695 0q0.234375 0 0.328125 0.09375q0.109375 0.078125 0.109375 0.234375q0 0.140625 -0.109375 0.234375q-0.09375 0.09375 -0.328125 0.09375l-1.2187195 0l0 -5.1875q0 -0.5 -0.3125 -0.828125q-0.296875 -0.328125 -0.6875 -0.328125q-0.359375 0 -0.765625 0.28125q-0.390625 0.265625 -0.90625 1.046875l0 4.359375l0.546875 0q0.234375 0 0.328125 0.09375q0.109375 0.078125 0.109375 0.234375q0 0.140625 -0.109375 0.234375q-0.09375 0.09375 -0.328125 0.09375l-1.203125 0l0 -5.140625q0 -0.515625 -0.3125 -0.859375q-0.3125 -0.34375 -0.6875 -0.34375q-0.359375 0 -0.703125 0.234375q-0.46875 0.3125 -1.0 1.09375l0 4.359375l0.5625 0q0.234375 0 0.328125 0.09375q0.109375 0.078125 0.109375 0.234375q0 0.140625 -0.109375 0.234375q-0.09375 0.09375 -0.328125 0.09375l-1.765625 0q-0.234375 0 -0.34375 -0.09375q-0.09375 -0.09375 -0.09375 -0.234375q0 -0.15625 0.09375 -0.234375q0.109375 -0.09375 0.34375 -0.09375l0.546875 0l0 -5.453125l-0.546875 0q-0.234375 0 -0.34375 -0.09375q-0.09375 -0.09375 -0.09375 -0.234375q0 -0.140625 0.09375 -0.234375q0.109375 -0.09375 0.34375 -0.09375l1.203125 0zm15.539032 -3.515625l-5.28125 11.3125q-0.125 0.296875 -0.34375 0.296875q-0.125 0 -0.234375 -0.109375q-0.09375 -0.09375 -0.09375 -0.203125q0 -0.09375 0.078125 -0.265625l5.28125 -11.3125q0.078125 -0.1875 0.15625 -0.234375q0.078125 -0.0625 0.1875 -0.0625q0.140625 0 0.234375 0.109375q0.09375 0.09375 0.09375 0.203125q0 0.09375 -0.078125 0.265625zm9.6640625 4.5625l0 1.625q0 2.125 -1.0 3.359375q-0.796875 0.96875 -2.0 0.96875q-0.578125 0 -1.09375 -0.234375q-0.5 -0.234375 -0.859375 -0.640625q-0.234375 -0.265625 -0.5 -0.828125q-0.265625 -0.578125 -0.390625 -1.046875q-0.171875 -0.671875 -0.171875 -1.578125l0 -1.625q0 -2.125 1.0 -3.359375q0.796875 -0.96875 2.0 -0.96875q0.578125 0 1.078125 0.234375q0.515625 0.234375 0.875 0.640625q0.234375 0.265625 0.5 0.84375q0.265625 0.5625 0.390625 1.03125q0.171875 0.671875 0.171875 1.578125zm-0.65625 0.09375q0 -0.9375 -0.265625 -1.734375q-0.25 -0.796875 -0.578125 -1.28125q-0.203125 -0.265625 -0.515625 -0.46875q-0.4375 -0.265625 -1.0 -0.265625q-1.09375 0 -1.71875 1.125q-0.625 1.125 -0.625 2.625l0 1.4375q0 0.9375 0.25 1.75q0.265625 0.796875 0.609375 1.265625q0.1875 0.265625 0.5 0.46875q0.4375 0.28125 1.0 0.28125q1.09375 0 1.71875 -1.125q0.625 -1.140625 0.625 -2.640625l0 -1.4375zm4.4296875 4.96875l5.03125 0l0 -0.265625q0 -0.234375 0.09375 -0.328125q0.09375 -0.109375 0.25 -0.109375q0.140625 0 0.234375 0.109375q0.09375 0.09375 0.09375 0.328125l0 0.921875l-6.34375 0l0 -0.96875q2.0 -1.796875 3.890625 -3.65625q0.875 -0.875 1.203125 -1.28125q0.328125 -0.40625 0.453125 -0.703125q0.125 -0.3125 0.125 -0.625q0 -0.84375 -0.6875 -1.484375q-0.671875 -0.65625 -1.640625 -0.65625q-0.859375 0 -1.53125 0.5q-0.65625 0.484375 -0.84375 1.203125q-0.046875 0.1875 -0.125 0.25q-0.09375 0.078125 -0.21875 0.078125q-0.125 0 -0.21875 -0.09375q-0.09375 -0.09375 -0.09375 -0.21875q0 -0.375 0.40625 -1.015625q0.421875 -0.640625 1.140625 -1.0q0.71875 -0.375 1.484375 -0.375q1.21875 0 2.09375 0.859375q0.890625 0.84375 0.890625 1.921875q0 0.453125 -0.15625 0.84375q-0.140625 0.375 -0.5 0.828125q-0.34375 0.4375 -1.265625 1.34375q-2.3125 2.28125 -3.765625 3.546875l0 0.046875zm16.789062 5.046875l-8.734375 0q-0.234375 0 -0.34375 -0.09375q-0.09375 -0.09375 -0.09375 -0.234375q0 -0.15625 0.09375 -0.25q0.109375 -0.078125 0.34375 -0.078125l8.734375 0q0.234375 0 0.328125 0.078125q0.109375 0.09375 0.109375 0.25q0 0.140625 -0.109375 0.234375q-0.09375 0.09375 -0.328125 0.09375zm8.2421875 -10.109375l0 1.625q0 2.125 -1.0 3.359375q-0.796875 0.96875 -2.0 0.96875q-0.578125 0 -1.09375 -0.234375q-0.5 -0.234375 -0.859375 -0.640625q-0.234375 -0.265625 -0.5 -0.828125q-0.265625 -0.578125 -0.390625 -1.046875q-0.171875 -0.671875 -0.171875 -1.578125l0 -1.625q0 -2.125 1.0 -3.359375q0.796875 -0.96875 2.0 -0.96875q0.578125 0 1.078125 0.234375q0.515625 0.234375 0.875 0.640625q0.234375 0.265625 0.5 0.84375q0.265625 0.5625 0.390625 1.03125q0.171875 0.671875 0.171875 1.578125zm-0.65625 0.09375q0 -0.9375 -0.265625 -1.734375q-0.25 -0.796875 -0.578125 -1.28125q-0.203125 -0.265625 -0.515625 -0.46875q-0.4375 -0.265625 -1.0 -0.265625q-1.09375 0 -1.71875 1.125q-0.625 1.125 -0.625 2.625l0 1.4375q0 0.9375 0.25 1.75q0.265625 0.796875 0.609375 1.265625q0.1875 0.265625 0.5 0.46875q0.4375 0.28125 1.0 0.28125q1.09375 0 1.71875 -1.125q0.625 -1.140625 0.625 -2.640625l0 -1.4375zm4.4296875 4.96875l5.03125 0l0 -0.265625q0 -0.234375 0.09375 -0.328125q0.09375 -0.109375 0.25 -0.109375q0.140625 0 0.234375 0.109375q0.09375 0.09375 0.09375 0.328125l0 0.921875l-6.34375 0l0 -0.96875q2.0 -1.796875 3.890625 -3.65625q0.875 -0.875 1.203125 -1.28125q0.328125 -0.40625 0.453125 -0.703125q0.125 -0.3125 0.125 -0.625q0 -0.84375 -0.6875 -1.484375q-0.671875 -0.65625 -1.640625 -0.65625q-0.859375 0 -1.53125 0.5q-0.65625 0.484375 -0.84375 1.203125q-0.046875 0.1875 -0.125 0.25q-0.09375 0.078125 -0.21875 0.078125q-0.125 0 -0.21875 -0.09375q-0.09375 -0.09375 -0.09375 -0.21875q0 -0.375 0.40625 -1.015625q0.421875 -0.640625 1.140625 -1.0q0.71875 -0.375 1.484375 -0.375q1.21875 0 2.09375 0.859375q0.890625 0.84375 0.890625 1.921875q0 0.453125 -0.15625 0.84375q-0.140625 0.375 -0.5 0.828125q-0.34375 0.4375 -1.265625 1.34375q-2.3125 2.28125 -3.765625 3.546875l0 0.046875zm13.7734375 -4.4375q0.8125 0.40625 1.234375 1.0625q0.421875 0.640625 0.421875 1.390625q0 1.171875 -0.875 2.03125q-0.875 0.84375 -2.125 0.84375q-1.25 0 -2.125 -0.84375q-0.875 -0.859375 -0.875 -2.03125q0 -0.734375 0.40625 -1.390625q0.421875 -0.65625 1.25 -1.0625q-0.71875 -0.40625 -1.046875 -0.859375q-0.453125 -0.625 -0.453125 -1.390625q0 -1.078125 0.828125 -1.890625q0.84375 -0.8125 2.015625 -0.8125q1.171875 0 2.0 0.8125q0.828125 0.8125 0.828125 1.890625q0 0.765625 -0.453125 1.390625q-0.3125 0.453125 -1.03125 0.859375zm0.8125 -2.234375q0 -0.84375 -0.625 -1.4375q-0.625 -0.609375 -1.546875 -0.609375q-0.90625 0 -1.53125 0.609375q-0.625 0.609375 -0.625 1.4375q0 0.765625 0.609375 1.34375q0.625 0.5625 1.546875 0.5625q0.9375 0 1.546875 -0.5625q0.625 -0.578125 0.625 -1.34375zm0.1875 4.703125q0 -0.859375 -0.671875 -1.5q-0.671875 -0.640625 -1.671875 -0.640625q-1.0 0 -1.671875 0.640625q-0.671875 0.640625 -0.671875 1.5q0 0.890625 0.671875 1.546875q0.671875 0.65625 1.671875 0.65625q0.984375 0 1.65625 -0.65625q0.6875 -0.65625 0.6875 -1.546875zm5.2890625 -1.53125q0.609375 -0.890625 1.25 -1.3125q0.65625 -0.4375 1.4375 -0.4375q1.046875 0 1.859375 0.875q0.8125 0.859375 0.8125 2.140625q0 1.171875 -0.75 2.15625q-0.734375 0.96875 -2.03125 0.96875q-0.859375 0 -1.59375 -0.515625q-0.734375 -0.53125 -1.15625 -1.625q-0.53125 -1.34375 -0.53125 -2.984375q0 -1.234375 0.5 -2.296875q0.375 -0.828125 1.0 -1.4375q0.625 -0.625 1.453125 -1.015625q0.828125 -0.40625 1.796875 -0.40625q0.65625 0 1.09375 0.265625q0.1875 0.125 0.1875 0.3125q0 0.140625 -0.09375 0.234375q-0.078125 0.09375 -0.203125 0.09375q-0.109375 0 -0.25 -0.078125q-0.3125 -0.15625 -0.796875 -0.15625q-1.515625 0 -2.78125 1.3125q-1.25 1.296875 -1.25 3.109375q0 0.25 0.046875 0.796875zm0.15625 1.09375q0.296875 1.421875 0.921875 2.03125q0.640625 0.609375 1.515625 0.609375q0.875 0 1.484375 -0.6875q0.625 -0.6875 0.625 -1.78125q0 -1.015625 -0.625 -1.6875q-0.625 -0.671875 -1.40625 -0.671875q-0.765625 0 -1.46875 0.640625q-0.46875 0.4375 -1.046875 1.546875zm11.6015625 -0.828125q0 0.90625 -0.234375 1.90625q-0.234375 1.0 -0.90625 2.328125q-0.65625 1.328125 -0.96875 1.59375q-0.09375 0.09375 -0.203125 0.09375q-0.140625 0 -0.234375 -0.09375q-0.09375 -0.09375 -0.09375 -0.234375q0 -0.078125 0.046875 -0.171875q0.859375 -1.578125 1.21875 -2.859375q0.375 -1.28125 0.375 -2.5625q0 -1.28125 -0.375 -2.5625q-0.359375 -1.28125 -1.21875 -2.859375q-0.046875 -0.09375 -0.046875 -0.171875q0 -0.140625 0.09375 -0.234375q0.09375 -0.09375 0.234375 -0.09375q0.109375 0 0.203125 0.09375q0.296875 0.265625 0.953125 1.5625q0.65625 1.28125 0.90625 2.28125q0.25 0.984375 0.25 1.984375z" fill-rule="nonzero"></path><path fill="#ead1dc" d="m704.92645 57.64933l0 0c0 -5.311058 4.305481 -9.61652 9.616516 -9.61652l112.64099 0c2.550476 0 4.99646 1.0131645 6.7998657 2.8166122c1.8034668 1.8034477 2.8166504 4.249447 2.8166504 6.7999077l0 23.192154c0 5.311058 -4.305481 9.616524 -9.616516 9.616524l-112.64099 0c-5.311035 0 -9.616516 -4.3054657 -9.616516 -9.616524z" fill-rule="nonzero"></path><path stroke="#000000" stroke-width="1.0" stroke-linejoin="round" stroke-linecap="butt" d="m704.92645 57.64933l0 0c0 -5.311058 4.305481 -9.61652 9.616516 -9.61652l112.64099 0c2.550476 0 4.99646 1.0131645 6.7998657 2.8166122c1.8034668 1.8034477 2.8166504 4.249447 2.8166504 6.7999077l0 23.192154c0 5.311058 -4.305481 9.616524 -9.616516 9.616524l-112.64099 0c-5.311035 0 -9.616516 -4.3054657 -9.616516 -9.616524z" fill-rule="nonzero"></path><path fill="#000000" d="m733.8127 68.51166q0.8125 0.40625 1.234375 1.0625q0.421875 0.640625 0.421875 1.390625q0 1.171875 -0.875 2.03125q-0.875 0.84375 -2.125 0.84375q-1.25 0 -2.125 -0.84375q-0.875 -0.859375 -0.875 -2.03125q0 -0.734375 0.40625 -1.390625q0.421875 -0.65625 1.25 -1.0625q-0.71875 -0.40625 -1.046875 -0.859375q-0.453125 -0.625 -0.453125 -1.390625q0 -1.078125 0.828125 -1.890625q0.84375 -0.8125 2.015625 -0.8125q1.171875 0 2.0 0.8125q0.828125 0.8125 0.828125 1.890625q0 0.765625 -0.453125 1.390625q-0.3125 0.453125 -1.03125 0.859375zm0.8125 -2.234375q0 -0.84375 -0.625 -1.4375q-0.625 -0.609375 -1.546875 -0.609375q-0.90625 0 -1.53125 0.609375q-0.625 0.609375 -0.625 1.4375q0 0.765625 0.609375 1.34375q0.625 0.5625 1.546875 0.5625q0.9375 0 1.546875 -0.5625q0.625 -0.578125 0.625 -1.34375zm0.1875 4.703125q0 -0.859375 -0.671875 -1.5q-0.671875 -0.640625 -1.671875 -0.640625q-1.0 0 -1.671875 0.640625q-0.671875 0.640625 -0.671875 1.5q0 0.890625 0.671875 1.546875q0.671875 0.65625 1.671875 0.65625q0.984375 0 1.65625 -0.65625q0.6875 -0.65625 0.6875 -1.546875zm5.9453125 0.265625l2.140625 0l-2.328125 4.3125q-0.203125 0.390625 -0.5 0.390625q-0.203125 0 -0.34375 -0.140625q-0.125 -0.125 -0.125 -0.328125q0 -0.078125 0.015625 -0.171875l1.140625 -4.0625zm12.1328125 -0.390625l-4.359375 0l0 -0.75l3.65625 -6.3125l1.359375 0l0 6.40625l0.546875 0q0.25 0 0.34375 0.09375q0.109375 0.09375 0.109375 0.234375q0 0.140625 -0.109375 0.234375q-0.09375 0.09375 -0.34375 0.09375l-0.546875 0l0 2.09375l0.546875 0q0.25 0 0.34375 0.09375q0.109375 0.078125 0.109375 0.234375q0 0.140625 -0.109375 0.234375q-0.09375 0.09375 -0.34375 0.09375l-2.4375 0q-0.234375 0 -0.34375 -0.09375q-0.09375 -0.09375 -0.09375 -0.234375q0 -0.15625 0.09375 -0.234375q0.109375 -0.09375 0.34375 -0.09375l1.234375 0l0 -2.09375zm0 -0.65625l0 -5.734375l-0.34375 0l-3.328125 5.734375l3.671875 0zm11.3828125 -2.3125l0 1.625q0 2.125 -1.0 3.359375q-0.796875 0.96875 -2.0 0.96875q-0.578125 0 -1.09375 -0.234375q-0.5 -0.234375 -0.859375 -0.640625q-0.234375 -0.265625 -0.5 -0.828125q-0.265625 -0.578125 -0.390625 -1.046875q-0.171875 -0.671875 -0.171875 -1.578125l0 -1.625q0 -2.125 1.0 -3.359375q0.796875 -0.96875 2.0 -0.96875q0.578125 0 1.078125 0.234375q0.515625 0.234375 0.875 0.640625q0.234375 0.265625 0.5 0.84375q0.265625 0.5625 0.390625 1.03125q0.171875 0.671875 0.171875 1.578125zm-0.65625 0.09375q0 -0.9375 -0.265625 -1.734375q-0.25 -0.796875 -0.578125 -1.28125q-0.203125 -0.265625 -0.515625 -0.46875q-0.4375 -0.265625 -1.0 -0.265625q-1.09375 0 -1.71875 1.125q-0.625 1.125 -0.625 2.625l0 1.4375q0 0.9375 0.25 1.75q0.265625 0.796875 0.609375 1.265625q0.1875 0.265625 0.5 0.46875q0.4375 0.28125 1.0 0.28125q1.09375 0 1.71875 -1.125q0.625 -1.140625 0.625 -2.640625l0 -1.4375zm5.4453125 -3.515625l0 3.203125q0.578125 -0.234375 1.109375 -0.359375q0.53125 -0.125 1.0 -0.125q1.234375 0 2.0625 0.875q0.84375 0.859375 0.84375 2.28125q0 1.5625 -0.9375 2.53125q-0.9375 0.96875 -2.34375 0.96875q-0.9375 0 -1.796875 -0.421875q-0.609375 -0.28125 -1.109375 -0.71875q-0.296875 -0.25 -0.296875 -0.421875q0 -0.140625 0.09375 -0.234375q0.09375 -0.109375 0.21875 -0.109375q0.140625 0 0.28125 0.140625q1.1875 1.109375 2.578125 1.109375q1.140625 0 1.890625 -0.78125q0.75 -0.796875 0.75 -2.09375q0 -1.109375 -0.65625 -1.78125q-0.640625 -0.6875 -1.640625 -0.6875q-1.015625 0 -2.046875 0.546875q-0.25 0.125 -0.34375 0.125q-0.140625 0 -0.234375 -0.09375q-0.078125 -0.09375 -0.078125 -0.265625l0 -4.359375l4.578125 0q0.234375 0 0.328125 0.09375q0.109375 0.09375 0.109375 0.25q0 0.140625 -0.109375 0.234375q-0.09375 0.09375 -0.328125 0.09375l-3.921875 0zm10.1015625 6.78125l2.140625 0l-2.328125 4.3125q-0.203125 0.390625 -0.5 0.390625q-0.203125 0 -0.34375 -0.140625q-0.125 -0.125 -0.125 -0.328125q0 -0.078125 0.015625 -0.171875l1.140625 -4.0625zm12.2578125 -2.734375q0.8125 0.40625 1.234375 1.0625q0.421875 0.640625 0.421875 1.390625q0 1.171875 -0.875 2.03125q-0.875 0.84375 -2.125 0.84375q-1.25 0 -2.125 -0.84375q-0.875 -0.859375 -0.875 -2.03125q0 -0.734375 0.40625 -1.390625q0.421875 -0.65625 1.25 -1.0625q-0.71875 -0.40625 -1.046875 -0.859375q-0.453125 -0.625 -0.453125 -1.390625q0 -1.078125 0.828125 -1.890625q0.84375 -0.8125 2.015625 -0.8125q1.171875 0 2.0 0.8125q0.828125 0.8125 0.828125 1.890625q0 0.765625 -0.453125 1.390625q-0.3125 0.453125 -1.03125 0.859375zm0.8125 -2.234375q0 -0.84375 -0.625 -1.4375q-0.625 -0.609375 -1.546875 -0.609375q-0.90625 0 -1.53125 0.609375q-0.625 0.609375 -0.625 1.4375q0 0.765625 0.609375 1.34375q0.625 0.5625 1.546875 0.5625q0.9375 0 1.546875 -0.5625q0.625 -0.578125 0.625 -1.34375zm0.1875 4.703125q0 -0.859375 -0.671875 -1.5q-0.671875 -0.640625 -1.671875 -0.640625q-1.0 0 -1.671875 0.640625q-0.671875 0.640625 -0.671875 1.5q0 0.890625 0.671875 1.546875q0.671875 0.65625 1.671875 0.65625q0.984375 0 1.65625 -0.65625q0.6875 -0.65625 0.6875 -1.546875zm8.6015625 -2.71875q0.90625 0.40625 1.375 1.125q0.484375 0.703125 0.484375 1.46875q0 1.171875 -0.96875 2.078125q-0.953125 0.90625 -2.390625 0.90625q-0.84375 0 -1.75 -0.359375q-0.90625 -0.359375 -1.265625 -0.734375q-0.109375 -0.125 -0.109375 -0.265625q0 -0.125 0.078125 -0.21875q0.09375 -0.09375 0.21875 -0.09375q0.125 0 0.28125 0.109375q1.21875 0.90625 2.5625 0.90625q1.140625 0 1.90625 -0.71875q0.78125 -0.71875 0.78125 -1.59375q0 -0.578125 -0.390625 -1.140625q-0.375 -0.5625 -1.09375 -0.890625q-0.703125 -0.328125 -1.421875 -0.328125q-0.234375 0 -0.34375 -0.078125q-0.09375 -0.09375 -0.09375 -0.25q0 -0.140625 0.09375 -0.234375q0.09375 -0.09375 0.296875 -0.09375l0.5625 0.015625q0.875 0 1.453125 -0.53125q0.578125 -0.546875 0.578125 -1.265625q0 -0.734375 -0.609375 -1.296875q-0.59375 -0.5625 -1.5625 -0.5625q-0.6875 0 -1.265625 0.234375q-0.5625 0.234375 -0.90625 0.640625q-0.125 0.15625 -0.1875 0.203125q-0.0625 0.03125 -0.15625 0.03125q-0.125 0 -0.21875 -0.09375q-0.09375 -0.09375 -0.09375 -0.21875q0 -0.3125 0.671875 -0.78125q0.953125 -0.671875 2.15625 -0.671875q1.234375 0 2.03125 0.75q0.796875 0.75 0.796875 1.78125q0 0.65625 -0.390625 1.25q-0.375 0.578125 -1.109375 0.921875zm10.4609375 -3.5l0 -0.296875l-4.703125 0l0 0.578125q0 0.234375 -0.09375 0.34375q-0.09375 0.09375 -0.234375 0.09375q-0.140625 0 -0.234375 -0.09375q-0.09375 -0.109375 -0.09375 -0.34375l0 -1.25l6.015625 0l0 1.046875l-2.640625 8.4375q-0.0625 0.203125 -0.15625 0.28125q-0.078125 0.0625 -0.1875 0.0625q-0.140625 0 -0.234375 -0.09375q-0.09375 -0.09375 -0.09375 -0.21875q0 -0.078125 0.046875 -0.21875l2.609375 -8.328125z" fill-rule="nonzero"></path><path fill="#000000" fill-opacity="0.0" d="m619.5674 69.24541l85.35437 0" fill-rule="nonzero"></path><path stroke="#000000" stroke-width="2.0" stroke-linejoin="round" stroke-linecap="butt" d="m619.56744 69.24541l73.35431 0" fill-rule="evenodd"></path><path fill="#000000" stroke="#000000" stroke-width="2.0" stroke-linecap="butt" d="m692.92175 72.548874l9.076172 -3.3034668l-9.076172 -3.3034668z" fill-rule="evenodd"></path><path fill="#000000" fill-opacity="0.0" d="m260.9344 31.141788l96.75589 38.110233" fill-rule="nonzero"></path><path stroke="#000000" stroke-width="2.0" stroke-linejoin="round" stroke-linecap="butt" d="m260.9344 31.141788l85.59079 33.712513" fill-rule="evenodd"></path><path fill="#000000" stroke="#000000" stroke-width="2.0" stroke-linecap="butt" d="m345.3145 67.92793l9.6553955 0.25258636l-7.2341003 -6.399849z" fill-rule="evenodd"></path><path fill="#cfe2f3" d="m10.666667 19.54571l0 0c0 -5.311057 4.305462 -9.616519 9.616519 -9.616519l231.03468 0c2.5504608 0 4.99646 1.0131655 6.7998962 2.8166132c1.8034668 1.8034468 2.8166199 4.249447 2.8166199 6.799906l0 23.19216c0 5.311054 -4.3054504 9.616516 -9.616516 9.616516l-231.03468 0c-5.311057 0 -9.616519 -4.305462 -9.616519 -9.616516z" fill-rule="nonzero"></path><path stroke="#000000" stroke-width="1.0" stroke-linejoin="round" stroke-linecap="butt" d="m10.666667 19.54571l0 0c0 -5.311057 4.305462 -9.616519 9.616519 -9.616519l231.03468 0c2.5504608 0 4.99646 1.0131655 6.7998962 2.8166132c1.8034668 1.8034468 2.8166199 4.249447 2.8166199 6.799906l0 23.19216c0 5.311054 -4.3054504 9.616516 -9.616516 9.616516l-231.03468 0c-5.311057 0 -9.616519 -4.305462 -9.616519 -9.616516z" fill-rule="nonzero"></path><path fill="#000000" d="m61.06615 25.861164l2.078125 0l-0.546875 3.796875q-0.046875 0.296875 -0.171875 0.421875q-0.125 0.109375 -0.3125 0.109375q-0.203125 0 -0.328125 -0.109375q-0.125 -0.125 -0.171875 -0.421875l-0.546875 -3.796875zm3.3593712 0l2.078125 0l-0.546875 3.796875q-0.046875 0.296875 -0.171875 0.421875q-0.125 0.109375 -0.3125 0.109375q-0.203125 0 -0.328125 -0.109375q-0.125 -0.125 -0.171875 -0.421875l-0.546875 -3.796875zm6.8515625 2.875l0 0.984375q0.6875 -0.6875 1.234375 -0.953125q0.5625 -0.265625 1.25 -0.265625q0.75 0 1.375 0.3125q0.4375 0.234375 0.78125 0.78125q0.359375 0.546875 0.359375 1.109375l0 4.140625l0.5625 0q0.234375 0 0.328125 0.09375q0.109375 0.078125 0.109375 0.234375q0 0.140625 -0.109375 0.234375q-0.09375 0.09375 -0.328125 0.09375l-1.765625 0q-0.234375 0 -0.34375 -0.09375q-0.09375 -0.09375 -0.09375 -0.234375q0 -0.15625 0.09375 -0.234375q0.109375 -0.09375 0.34375 -0.09375l0.546875 0l0 -4.03125q0 -0.6875 -0.515625 -1.171875q-0.5 -0.484375 -1.34375 -0.484375q-0.65625 0 -1.140625 0.265625q-0.46875 0.265625 -1.34375 1.296875l0 4.125l0.734375 0q0.234375 0 0.328125 0.09375q0.109375 0.078125 0.109375 0.234375q0 0.140625 -0.109375 0.234375q-0.09375 0.09375 -0.328125 0.09375l-2.140625 0q-0.234375 0 -0.34375 -0.09375q-0.09375 -0.09375 -0.09375 -0.234375q0 -0.15625 0.09375 -0.234375q0.109375 -0.09375 0.34375 -0.09375l0.75 0l0 -5.453125l-0.5625 0q-0.234375 0 -0.34375 -0.09375q-0.09375 -0.09375 -0.09375 -0.234375q0 -0.140625 0.09375 -0.234375q0.109375 -0.09375 0.34375 -0.09375l1.21875 0zm11.7578125 6.765625l-3.046875 -6.109375l-0.1875 0q-0.234375 0 -0.34375 -0.09375q-0.09375 -0.09375 -0.09375 -0.234375q0 -0.09375 0.046875 -0.171875q0.046875 -0.09375 0.125 -0.125q0.09375 -0.03125 0.265625 -0.03125l1.796875 0q0.234375 0 0.328125 0.09375q0.109375 0.09375 0.109375 0.234375q0 0.140625 -0.109375 0.234375q-0.09375 0.09375 -0.328125 0.09375l-0.890625 0l2.6875 5.390625l2.640625 -5.390625l-0.890625 0q-0.234375 0 -0.34375 -0.09375q-0.09375 -0.09375 -0.09375 -0.234375q0 -0.140625 0.09375 -0.234375q0.109375 -0.09375 0.34375 -0.09375l1.796875 0q0.234375 0 0.328125 0.09375q0.109375 0.09375 0.109375 0.234375q0 0.109375 -0.0625 0.203125q-0.0625 0.078125 -0.140625 0.109375q-0.078125 0.015625 -0.4375 0.015625l-4.15625 8.46875l1.03125 0q0.234375 0 0.328125 0.09375q0.109375 0.09375 0.109375 0.234375q0 0.140625 -0.109375 0.234375q-0.09375 0.09375 -0.328125 0.09375l-3.78125 0q-0.234375 0 -0.34375 -0.09375q-0.09375 -0.078125 -0.09375 -0.234375q0 -0.140625 0.09375 -0.234375q0.109375 -0.09375 0.34375 -0.09375l2.046875 0l1.15625 -2.359375zm12.3046875 -6.109375l0 -0.21875q0 -0.234375 0.09375 -0.328125q0.09375 -0.109375 0.234375 -0.109375q0.140625 0 0.234375 0.109375q0.09375 0.09375 0.09375 0.328125l0 1.484375q0 0.25 -0.09375 0.359375q-0.09375 0.09375 -0.234375 0.09375q-0.140625 0 -0.234375 -0.09375q-0.078125 -0.09375 -0.09375 -0.296875q-0.046875 -0.5625 -0.734375 -1.0625q-0.6875 -0.5 -1.84375 -0.5q-1.453125 0 -2.21875 0.921875q-0.75 0.90625 -0.75 2.09375q0 1.265625 0.828125 2.09375q0.84375 0.828125 2.171875 0.828125q0.765625 0 1.546875 -0.28125q0.796875 -0.28125 1.4375 -0.90625q0.171875 -0.15625 0.296875 -0.15625q0.125 0 0.21875 0.09375q0.09375 0.09375 0.09375 0.21875q0 0.34375 -0.796875 0.859375q-1.265625 0.84375 -2.828125 0.84375q-1.59375 0 -2.609375 -1.015625q-1.015625 -1.015625 -1.015625 -2.578125q0 -1.578125 1.03125 -2.625q1.046875 -1.046875 2.640625 -1.046875q1.5 0 2.53125 0.890625zm13.984375 -0.65625l0 1.1875q0.59375 -0.703125 1.265625 -1.0625q0.671875 -0.359375 1.578125 -0.359375q0.96875 0 1.78125 0.453125q0.828125 0.453125 1.28125 1.265625q0.453125 0.796875 0.453125 1.6875q0 1.421875 -1.015625 2.421875q-1.015625 1.0 -2.484375 1.0q-1.765625 0 -2.859375 -1.421875l0 3.953125l1.59375 0q0.234375 0 0.328125 0.09375q0.109375 0.09375 0.109375 0.234375q0 0.140625 -0.109375 0.234375q-0.09375 0.09375 -0.328125 0.09375l-3.125 0q-0.234375 0 -0.34375 -0.09375q-0.09375 -0.078125 -0.09375 -0.234375q0 -0.140625 0.09375 -0.234375q0.109375 -0.09375 0.34375 -0.09375l0.875 0l0 -8.46875l-0.875 0q-0.234375 0 -0.34375 -0.09375q-0.09375 -0.09375 -0.09375 -0.234375q0 -0.140625 0.09375 -0.234375q0.109375 -0.09375 0.34375 -0.09375l1.53125 0zm5.6875 3.171875q0 -1.125 -0.828125 -1.9375q-0.8125 -0.8125 -2.0 -0.8125q-1.203125 0 -2.03125 0.8125q-0.828125 0.8125 -0.828125 1.9375q0 1.140625 0.828125 1.953125q0.828125 0.8125 2.03125 0.8125q1.171875 0 2.0 -0.8125q0.828125 -0.8125 0.828125 -1.953125zm10.0546875 0.21875q0 1.5 -1.078125 2.578125q-1.0625 1.0625 -2.578125 1.0625q-1.53125 0 -2.609375 -1.0625q-1.0625 -1.078125 -1.0625 -2.578125q0 -1.5 1.0625 -2.5625q1.078125 -1.0625 2.609375 -1.0625q1.515625 0 2.578125 1.0625q1.078125 1.0625 1.078125 2.5625zm-0.65625 0q0 -1.234375 -0.890625 -2.09375q-0.875 -0.875 -2.125 -0.875q-1.25 0 -2.125 0.875q-0.875 0.875 -0.875 2.09375q0 1.21875 0.875 2.09375q0.875 0.875 2.125 0.875q1.25 0 2.125 -0.859375q0.890625 -0.875 0.890625 -2.109375zm4.1171875 -3.390625l0 1.1875q0.59375 -0.703125 1.265625 -1.0625q0.671875 -0.359375 1.578125 -0.359375q0.96875 0 1.78125 0.453125q0.828125 0.453125 1.28125 1.265625q0.453125 0.796875 0.453125 1.6875q0 1.421875 -1.015625 2.421875q-1.015625 1.0 -2.484375 1.0q-1.765625 0 -2.859375 -1.421875l0 3.953125l1.59375 0q0.234375 0 0.328125 0.09375q0.109375 0.09375 0.109375 0.234375q0 0.140625 -0.109375 0.234375q-0.09375 0.09375 -0.328125 0.09375l-3.125 0q-0.234375 0 -0.34375 -0.09375q-0.09375 -0.078125 -0.09375 -0.234375q0 -0.140625 0.09375 -0.234375q0.109375 -0.09375 0.34375 -0.09375l0.875 0l0 -8.46875l-0.875 0q-0.234375 0 -0.34375 -0.09375q-0.09375 -0.09375 -0.09375 -0.234375q0 -0.140625 0.09375 -0.234375q0.109375 -0.09375 0.34375 -0.09375l1.53125 0zm5.6875 3.171875q0 -1.125 -0.828125 -1.9375q-0.8125 -0.8125 -2.0 -0.8125q-1.203125 0 -2.03125 0.8125q-0.828125 0.8125 -0.828125 1.9375q0 1.140625 0.828125 1.953125q0.828125 0.8125 2.03125 0.8125q1.171875 0 2.0 -0.8125q0.828125 -0.8125 0.828125 -1.953125zm8.6328125 3.59375l0 -0.96875q-1.34375 1.234375 -2.90625 1.234375q-0.953125 0 -1.453125 -0.53125q-0.65625 -0.6875 -0.65625 -1.609375l0 -4.234375l-0.875 0q-0.234375 0 -0.34375 -0.09375q-0.09375 -0.09375 -0.09375 -0.234375q0 -0.140625 0.09375 -0.234375q0.109375 -0.09375 0.34375 -0.09375l1.53125 0l0 4.890625q0 0.640625 0.40625 1.0625q0.40625 0.40625 1.015625 0.40625q1.609375 0 2.9375 -1.46875l0 -4.234375l-1.203125 0q-0.234375 0 -0.34375 -0.09375q-0.09375 -0.09375 -0.09375 -0.234375q0 -0.140625 0.09375 -0.234375q0.109375 -0.09375 0.34375 -0.09375l1.859375 0l0 6.109375l0.5625 0q0.234375 0 0.328125 0.09375q0.109375 0.078125 0.109375 0.234375q0 0.140625 -0.109375 0.234375q-0.09375 0.09375 -0.328125 0.09375l-1.21875 0zm7.6953125 -9.8125l0 9.15625l2.578125 0q0.234375 0 0.328125 0.09375q0.109375 0.078125 0.109375 0.234375q0 0.140625 -0.109375 0.234375q-0.09375 0.09375 -0.328125 0.09375l-5.8125 0q-0.234375 0 -0.34375 -0.09375q-0.09375 -0.09375 -0.09375 -0.234375q0 -0.15625 0.09375 -0.234375q0.109375 -0.09375 0.34375 -0.09375l2.578125 0l0 -8.484375l-1.890625 0q-0.234375 0 -0.34375 -0.09375q-0.109375 -0.09375 -0.109375 -0.25q0 -0.140625 0.09375 -0.234375q0.109375 -0.09375 0.359375 -0.09375l2.546875 0zm11.1484375 9.8125l0 -0.953125q-1.421875 1.21875 -3.046875 1.21875q-1.1875 0 -1.859375 -0.59375q-0.65625 -0.609375 -0.65625 -1.484375q0 -0.953125 0.875 -1.65625q0.875 -0.71875 2.5625 -0.71875q0.453125 0 0.984375 0.0625q0.53125 0.0625 1.140625 0.1875l0 -1.0625q0 -0.546875 -0.5 -0.9375q-0.5 -0.40625 -1.5 -0.40625q-0.765625 0 -2.140625 0.453125q-0.25 0.078125 -0.328125 0.078125q-0.125 0 -0.21875 -0.09375q-0.078125 -0.09375 -0.078125 -0.234375q0 -0.140625 0.078125 -0.21875q0.109375 -0.109375 0.875 -0.3125q1.21875 -0.328125 1.84375 -0.328125q1.25 0 1.9375 0.609375q0.703125 0.609375 0.703125 1.390625l0 4.34375l0.875 0q0.234375 0 0.328125 0.09375q0.109375 0.078125 0.109375 0.234375q0 0.140625 -0.109375 0.234375q-0.09375 0.09375 -0.328125 0.09375l-1.546875 0zm0 -3.265625q-0.453125 -0.140625 -0.96875 -0.203125q-0.515625 -0.0625 -1.09375 -0.0625q-1.421875 0 -2.234375 0.625q-0.609375 0.453125 -0.609375 1.09375q0 0.59375 0.46875 1.0q0.46875 0.40625 1.359375 0.40625q0.84375 0 1.578125 -0.328125q0.734375 -0.34375 1.5 -1.09375l0 -1.4375zm6.3671875 -3.5l3.5625 0q0.234375 0 0.328125 0.09375q0.109375 0.09375 0.109375 0.234375q0 0.140625 -0.109375 0.234375q-0.09375 0.09375 -0.328125 0.09375l-3.5625 0l0 4.375q0 0.5625 0.453125 0.953125q0.46875 0.375 1.34375 0.375q0.671875 0 1.4375 -0.1875q0.78125 -0.203125 1.203125 -0.453125q0.15625 -0.109375 0.265625 -0.109375q0.125 0 0.21875 0.109375q0.09375 0.09375 0.09375 0.21875q0 0.125 -0.109375 0.21875q-0.25 0.265625 -1.21875 0.578125q-0.953125 0.296875 -1.84375 0.296875q-1.140625 0 -1.828125 -0.546875q-0.671875 -0.546875 -0.671875 -1.453125l0 -4.375l-1.21875 0q-0.234375 0 -0.34375 -0.09375q-0.09375 -0.09375 -0.09375 -0.234375q0 -0.140625 0.09375 -0.234375q0.109375 -0.09375 0.34375 -0.09375l1.21875 0l0 -1.9375q0 -0.234375 0.09375 -0.328125q0.09375 -0.109375 0.234375 -0.109375q0.140625 0 0.234375 0.109375q0.09375 0.09375 0.09375 0.328125l0 1.9375zm11.2734375 -3.375l0 1.703125l-0.96875 0l0 -1.703125l0.96875 0zm0.03125 3.375l0 6.109375l2.578125 0q0.234375 0 0.328125 0.09375q0.109375 0.078125 0.109375 0.234375q0 0.140625 -0.109375 0.234375q-0.09375 0.09375 -0.328125 0.09375l-5.8125 0q-0.234375 0 -0.34375 -0.09375q-0.09375 -0.09375 -0.09375 -0.234375q0 -0.15625 0.09375 -0.234375q0.109375 -0.09375 0.34375 -0.09375l2.578125 0l0 -5.453125l-1.921875 0q-0.234375 0 -0.34375 -0.09375q-0.09375 -0.09375 -0.09375 -0.234375q0 -0.140625 0.09375 -0.234375q0.109375 -0.09375 0.34375 -0.09375l2.578125 0zm12.9140625 3.390625q0 1.5 -1.078125 2.578125q-1.0625 1.0625 -2.578125 1.0625q-1.53125 0 -2.609375 -1.0625q-1.0625 -1.078125 -1.0625 -2.578125q0 -1.5 1.0625 -2.5625q1.078125 -1.0625 2.609375 -1.0625q1.515625 0 2.578125 1.0625q1.078125 1.0625 1.078125 2.5625zm-0.65625 0q0 -1.234375 -0.890625 -2.09375q-0.875 -0.875 -2.125 -0.875q-1.25 0 -2.125 0.875q-0.875 0.875 -0.875 2.09375q0 1.21875 0.875 2.09375q0.875 0.875 2.125 0.875q1.25 0 2.125 -0.859375q0.890625 -0.875 0.890625 -2.109375zm4.4765625 -3.390625l0 0.984375q0.6875 -0.6875 1.234375 -0.953125q0.5625 -0.265625 1.25 -0.265625q0.75 0 1.375 0.3125q0.4375 0.234375 0.78125 0.78125q0.359375 0.546875 0.359375 1.109375l0 4.140625l0.5625 0q0.234375 0 0.328125 0.09375q0.109375 0.078125 0.109375 0.234375q0 0.140625 -0.109375 0.234375q-0.09375 0.09375 -0.328125 0.09375l-1.765625 0q-0.234375 0 -0.34375 -0.09375q-0.09375 -0.09375 -0.09375 -0.234375q0 -0.15625 0.09375 -0.234375q0.109375 -0.09375 0.34375 -0.09375l0.546875 0l0 -4.03125q0 -0.6875 -0.515625 -1.171875q-0.5 -0.484375 -1.34375 -0.484375q-0.65625 0 -1.140625 0.265625q-0.46875 0.265625 -1.34375 1.296875l0 4.125l0.734375 0q0.234375 0 0.328125 0.09375q0.109375 0.078125 0.109375 0.234375q0 0.140625 -0.109375 0.234375q-0.09375 0.09375 -0.328125 0.09375l-2.140625 0q-0.234375 0 -0.34375 -0.09375q-0.09375 -0.09375 -0.09375 -0.234375q0 -0.15625 0.09375 -0.234375q0.109375 -0.09375 0.34375 -0.09375l0.75 0l0 -5.453125l-0.5625 0q-0.234375 0 -0.34375 -0.09375q-0.09375 -0.09375 -0.09375 -0.234375q0 -0.140625 0.09375 -0.234375q0.109375 -0.09375 0.34375 -0.09375l1.21875 0zm8.9921875 -2.875l2.078125 0l-0.546875 3.796875q-0.046875 0.296875 -0.171875 0.421875q-0.125 0.109375 -0.3125 0.109375q-0.203125 0 -0.328125 -0.109375q-0.125 -0.125 -0.171875 -0.421875l-0.546875 -3.796875zm3.359375 0l2.078125 0l-0.546875 3.796875q-0.046875 0.296875 -0.171875 0.421875q-0.125 0.109375 -0.3125 0.109375q-0.203125 0 -0.328125 -0.109375q-0.125 -0.125 -0.171875 -0.421875l-0.546875 -3.796875z" fill-rule="nonzero"></path><path fill="#cfe2f3" d="m10.666667 82.23489l0 0c0 -7.4993515 6.079427 -13.578781 13.578782 -13.578781l223.11015 0c3.6013184 0 7.05513 1.4306183 9.601639 3.9771347c2.5465088 2.5465164 3.9771423 6.000328 3.9771423 9.601646l0 32.747948c0 7.499359 -6.0794373 13.578789 -13.578781 13.578789l-223.11015 0c-7.4993553 0 -13.578782 -6.0794296 -13.578782 -13.578789z" fill-rule="nonzero"></path><path stroke="#000000" stroke-width="1.0" stroke-linejoin="round" stroke-linecap="butt" d="m10.666667 82.23489l0 0c0 -7.4993515 6.079427 -13.578781 13.578782 -13.578781l223.11015 0c3.6013184 0 7.05513 1.4306183 9.601639 3.9771347c2.5465088 2.5465164 3.9771423 6.000328 3.9771423 9.601646l0 32.747948c0 7.499359 -6.0794373 13.578789 -13.578781 13.578789l-223.11015 0c-7.4993553 0 -13.578782 -6.0794296 -13.578782 -13.578789z" fill-rule="nonzero"></path><path fill="#000000" d="m37.062244 82.32825l2.078125 0l-0.546875 3.796875q-0.046875 0.296875 -0.171875 0.421875q-0.125 0.109375 -0.3125 0.109375q-0.203125 0 -0.328125 -0.109375q-0.125 -0.125 -0.171875 -0.421875l-0.546875 -3.796875zm3.359375 0l2.078125 0l-0.546875 3.796875q-0.046875 0.296875 -0.171875 0.421875q-0.125 0.109375 -0.3125 0.109375q-0.203125 0 -0.328125 -0.109375q-0.125 -0.125 -0.171875 -0.421875l-0.546875 -3.796875zm6.8046875 -0.171875l0 4.046875q0.625 -0.6875 1.203125 -0.953125q0.578125 -0.28125 1.28125 -0.28125q0.765625 0 1.296875 0.265625q0.546875 0.265625 0.90625 0.828125q0.359375 0.5625 0.359375 1.171875l0 4.078125l0.734375 0q0.234375 0 0.328125 0.09375q0.109375 0.078125 0.109375 0.234375q0 0.140625 -0.109375 0.234375q-0.09375 0.09375 -0.328125 0.09375l-2.140625 0q-0.234375 0 -0.34375 -0.09375q-0.09375 -0.09375 -0.09375 -0.234375q0 -0.15625 0.09375 -0.234375q0.109375 -0.09375 0.34375 -0.09375l0.734375 0l0 -4.03125q0 -0.703125 -0.515625 -1.171875q-0.5 -0.484375 -1.421875 -0.484375q-0.71875 0 -1.21875 0.34375q-0.375 0.25 -1.21875 1.1875l0 4.15625l0.75 0q0.234375 0 0.328125 0.09375q0.109375 0.078125 0.109375 0.234375q0 0.140625 -0.109375 0.234375q-0.09375 0.09375 -0.328125 0.09375l-2.140625 0q-0.234375 0 -0.34375 -0.09375q-0.09375 -0.09375 -0.09375 -0.234375q0 -0.15625 0.09375 -0.234375q0.109375 -0.09375 0.34375 -0.09375l0.734375 0l0 -8.484375l-0.875 0q-0.234375 0 -0.34375 -0.09375q-0.09375 -0.09375 -0.09375 -0.25q0 -0.140625 0.09375 -0.234375q0.109375 -0.09375 0.34375 -0.09375l1.53125 0zm15.4296875 6.4375q0 1.5 -1.078125 2.578125q-1.0625 1.0625 -2.578125 1.0625q-1.53125 0 -2.609375 -1.0625q-1.0625 -1.078125 -1.0625 -2.578125q0 -1.5 1.0625 -2.5625q1.078125 -1.0625 2.609375 -1.0625q1.515625 0 2.578125 1.0625q1.078125 1.0625 1.078125 2.5625zm-0.65625 0q0 -1.234375 -0.890625 -2.09375q-0.875 -0.875 -2.125 -0.875q-1.25 0 -2.125 0.875q-0.875 0.875 -0.875 2.09375q0 1.21875 0.875 2.09375q0.875 0.875 2.125 0.875q1.25 0 2.125 -0.859375q0.890625 -0.875 0.890625 -2.109375zm8.851559 3.375l-0.8125 0.015625l-1.4375 -4.234375l-1.4375 4.234375l-0.8125 -0.015625l-1.359375 -6.109375l-0.328125 0q-0.234375 0 -0.34375 -0.09375q-0.09375 -0.09375 -0.09375 -0.234375q0 -0.140625 0.09375 -0.234375q0.109375 -0.09375 0.34375 -0.09375l1.8125 0q0.234375 0 0.328125 0.09375q0.109375 0.09375 0.109375 0.234375q0 0.140625 -0.109375 0.234375q-0.09375 0.09375 -0.328125 0.09375l-0.84375 0l1.171875 5.203125l1.390625 -4.15625l0.78125 0l1.4375 4.15625l1.125 -5.203125l-0.828125 0q-0.234375 0 -0.34375 -0.09375q-0.109375 -0.09375 -0.109375 -0.234375q0 -0.140625 0.09375 -0.234375q0.109375 -0.09375 0.359375 -0.09375l1.796875 0q0.234375 0 0.328125 0.09375q0.109375 0.09375 0.109375 0.234375q0 0.140625 -0.109375 0.234375q-0.09375 0.09375 -0.328125 0.09375l-0.3125 0l-1.34375 6.109375zm13.953125 -6.765625l0 0.65625q0.84375 -0.890625 1.6875 -0.890625q0.5 0 0.875 0.265625q0.390625 0.265625 0.65625 0.8125q0.4375 -0.546875 0.875 -0.8125q0.453125 -0.265625 0.90625 -0.265625q0.71875 0 1.140625 0.453125q0.546875 0.59375 0.546875 1.296875l0 4.59375l0.5625 0q0.234375 0 0.328125 0.09375q0.109375 0.078125 0.109375 0.234375q0 0.140625 -0.109375 0.234375q-0.09375 0.09375 -0.328125 0.09375l-1.21875 0l0 -5.1875q0 -0.5 -0.3125 -0.828125q-0.296875 -0.328125 -0.6875 -0.328125q-0.359375 0 -0.765625 0.28125q-0.390625 0.265625 -0.90625 1.046875l0 4.359375l0.546875 0q0.234375 0 0.328125 0.09375q0.109375 0.078125 0.109375 0.234375q0 0.140625 -0.109375 0.234375q-0.09375 0.09375 -0.328125 0.09375l-1.203125 0l0 -5.140625q0 -0.515625 -0.3125 -0.859375q-0.3125 -0.34375 -0.6875 -0.34375q-0.359375 0 -0.703125 0.234375q-0.46875 0.3125 -1.0 1.09375l0 4.359375l0.5625 0q0.234375 0 0.328125 0.09375q0.109375 0.078125 0.109375 0.234375q0 0.140625 -0.109375 0.234375q-0.09375 0.09375 -0.328125 0.09375l-1.765625 0q-0.234375 0 -0.34375 -0.09375q-0.09375 -0.09375 -0.09375 -0.234375q0 -0.15625 0.09375 -0.234375q0.109375 -0.09375 0.34375 -0.09375l0.546875 0l0 -5.453125l-0.546875 0q-0.234375 0 -0.34375 -0.09375q-0.09375 -0.09375 -0.09375 -0.234375q0 -0.140625 0.09375 -0.234375q0.109375 -0.09375 0.34375 -0.09375l1.203125 0zm14.4765625 6.765625l0 -0.953125q-1.421875 1.21875 -3.046875 1.21875q-1.1875 0 -1.859375 -0.59375q-0.65625 -0.609375 -0.65625 -1.484375q0 -0.953125 0.875 -1.65625q0.875 -0.71875 2.5625 -0.71875q0.453125 0 0.984375 0.0625q0.53125 0.0625 1.140625 0.1875l0 -1.0625q0 -0.546875 -0.5 -0.9375q-0.5 -0.40625 -1.5 -0.40625q-0.765625 0 -2.140625 0.453125q-0.25 0.078125 -0.328125 0.078125q-0.125 0 -0.21875 -0.09375q-0.078125 -0.09375 -0.078125 -0.234375q0 -0.140625 0.078125 -0.21875q0.109375 -0.109375 0.875 -0.3125q1.21875 -0.328125 1.84375 -0.328125q1.25 0 1.9375 0.609375q0.703125 0.609375 0.703125 1.390625l0 4.34375l0.875 0q0.234375 0 0.328125 0.09375q0.109375 0.078125 0.109375 0.234375q0 0.140625 -0.109375 0.234375q-0.09375 0.09375 -0.328125 0.09375l-1.546875 0zm0 -3.265625q-0.453125 -0.140625 -0.96875 -0.203125q-0.515625 -0.0625 -1.09375 -0.0625q-1.421875 0 -2.234375 0.625q-0.609375 0.453125 -0.609375 1.09375q0 0.59375 0.46875 1.0q0.46875 0.40625 1.359375 0.40625q0.84375 0 1.578125 -0.328125q0.734375 -0.34375 1.5 -1.09375l0 -1.4375zm5.6015625 -3.5l0 0.984375q0.6875 -0.6875 1.234375 -0.953125q0.5625 -0.265625 1.25 -0.265625q0.75 0 1.375 0.3125q0.4375 0.234375 0.78125 0.78125q0.359375 0.546875 0.359375 1.109375l0 4.140625l0.5625 0q0.234375 0 0.328125 0.09375q0.109375 0.078125 0.109375 0.234375q0 0.140625 -0.109375 0.234375q-0.09375 0.09375 -0.328125 0.09375l-1.765625 0q-0.234375 0 -0.34375 -0.09375q-0.09375 -0.09375 -0.09375 -0.234375q0 -0.15625 0.09375 -0.234375q0.109375 -0.09375 0.34375 -0.09375l0.546875 0l0 -4.03125q0 -0.6875 -0.515625 -1.171875q-0.5 -0.484375 -1.34375 -0.484375q-0.65625 0 -1.140625 0.265625q-0.46875 0.265625 -1.34375 1.296875l0 4.125l0.734375 0q0.234375 0 0.328125 0.09375q0.109375 0.078125 0.109375 0.234375q0 0.140625 -0.109375 0.234375q-0.09375 0.09375 -0.328125 0.09375l-2.140625 0q-0.234375 0 -0.34375 -0.09375q-0.09375 -0.09375 -0.09375 -0.234375q0 -0.15625 0.09375 -0.234375q0.109375 -0.09375 0.34375 -0.09375l0.75 0l0 -5.453125l-0.5625 0q-0.234375 0 -0.34375 -0.09375q-0.09375 -0.09375 -0.09375 -0.234375q0 -0.140625 0.09375 -0.234375q0.109375 -0.09375 0.34375 -0.09375l1.21875 0zm11.7578125 6.765625l-3.046875 -6.109375l-0.1875 0q-0.234375 0 -0.34375 -0.09375q-0.09375 -0.09375 -0.09375 -0.234375q0 -0.09375 0.046875 -0.171875q0.046875 -0.09375 0.125 -0.125q0.09375 -0.03125 0.265625 -0.03125l1.796875 0q0.234375 0 0.328125 0.09375q0.109375 0.09375 0.109375 0.234375q0 0.140625 -0.109375 0.234375q-0.09375 0.09375 -0.328125 0.09375l-0.890625 0l2.6875 5.390625l2.640625 -5.390625l-0.890625 0q-0.234375 0 -0.34375 -0.09375q-0.09375 -0.09375 -0.09375 -0.234375q0 -0.140625 0.09375 -0.234375q0.109375 -0.09375 0.34375 -0.09375l1.796875 0q0.234375 0 0.328125 0.09375q0.109375 0.09375 0.109375 0.234375q0 0.109375 -0.0625 0.203125q-0.0625 0.078125 -0.140625 0.109375q-0.078125 0.015625 -0.4375 0.015625l-4.15625 8.46875l1.03125 0q0.234375 0 0.328125 0.09375q0.109375 0.09375 0.109375 0.234375q0 0.140625 -0.109375 0.234375q-0.09375 0.09375 -0.328125 0.09375l-3.78125 0q-0.234375 0 -0.34375 -0.09375q-0.09375 -0.078125 -0.09375 -0.234375q0 -0.140625 0.09375 -0.234375q0.109375 -0.09375 0.34375 -0.09375l2.046875 0l1.15625 -2.359375zm16.6875 -6.765625l0 1.1875q0.59375 -0.703125 1.265625 -1.0625q0.671875 -0.359375 1.578125 -0.359375q0.96875 0 1.78125 0.453125q0.828125 0.453125 1.28125 1.265625q0.453125 0.796875 0.453125 1.6875q0 1.421875 -1.015625 2.421875q-1.015625 1.0 -2.484375 1.0q-1.765625 0 -2.859375 -1.421875l0 3.953125l1.59375 0q0.234375 0 0.328125 0.09375q0.109375 0.09375 0.109375 0.234375q0 0.140625 -0.109375 0.234375q-0.09375 0.09375 -0.328125 0.09375l-3.125 0q-0.234375 0 -0.34375 -0.09375q-0.09375 -0.078125 -0.09375 -0.234375q0 -0.140625 0.09375 -0.234375q0.109375 -0.09375 0.34375 -0.09375l0.875 0l0 -8.46875l-0.875 0q-0.234375 0 -0.34375 -0.09375q-0.09375 -0.09375 -0.09375 -0.234375q0 -0.140625 0.09375 -0.234375q0.109375 -0.09375 0.34375 -0.09375l1.53125 0zm5.6875 3.171875q0 -1.125 -0.828125 -1.9375q-0.8125 -0.8125 -2.0 -0.8125q-1.203125 0 -2.03125 0.8125q-0.828125 0.8125 -0.828125 1.9375q0 1.140625 0.828125 1.953125q0.828125 0.8125 2.03125 0.8125q1.171875 0 2.0 -0.8125q0.828125 -0.8125 0.828125 -1.953125zm9.9453125 0.359375l-6.6875 0q0.171875 1.28125 1.0625 2.0625q0.890625 0.765625 2.21875 0.765625q0.734375 0 1.53125 -0.234375q0.8125 -0.25 1.3125 -0.640625q0.15625 -0.125 0.265625 -0.125q0.125 0 0.21875 0.109375q0.09375 0.09375 0.09375 0.21875q0 0.140625 -0.125 0.265625q-0.375 0.390625 -1.34375 0.734375q-0.953125 0.34375 -1.953125 0.34375q-1.6875 0 -2.828125 -1.109375q-1.125 -1.109375 -1.125 -2.6875q0 -1.421875 1.0625 -2.4375q1.0625 -1.03125 2.625 -1.03125q1.609375 0 2.640625 1.046875q1.046875 1.046875 1.03125 2.71875zm-0.671875 -0.65625q-0.1875 -1.09375 -1.03125 -1.765625q-0.828125 -0.6875 -1.96875 -0.6875q-1.15625 0 -1.984375 0.671875q-0.828125 0.671875 -1.03125 1.78125l6.015625 0zm10.3828125 0.515625q0 1.5 -1.078125 2.578125q-1.0625 1.0625 -2.578125 1.0625q-1.53125 0 -2.609375 -1.0625q-1.0625 -1.078125 -1.0625 -2.578125q0 -1.5 1.0625 -2.5625q1.078125 -1.0625 2.609375 -1.0625q1.515625 0 2.578125 1.0625q1.078125 1.0625 1.078125 2.5625zm-0.65625 0q0 -1.234375 -0.890625 -2.09375q-0.875 -0.875 -2.125 -0.875q-1.25 0 -2.125 0.875q-0.875 0.875 -0.875 2.09375q0 1.21875 0.875 2.09375q0.875 0.875 2.125 0.875q1.25 0 2.125 -0.859375q0.890625 -0.875 0.890625 -2.109375zm4.1171875 -3.390625l0 1.1875q0.59375 -0.703125 1.265625 -1.0625q0.671875 -0.359375 1.578125 -0.359375q0.96875 0 1.78125 0.453125q0.828125 0.453125 1.28125 1.265625q0.453125 0.796875 0.453125 1.6875q0 1.421875 -1.015625 2.421875q-1.015625 1.0 -2.484375 1.0q-1.765625 0 -2.859375 -1.421875l0 3.953125l1.59375 0q0.234375 0 0.328125 0.09375q0.109375 0.09375 0.109375 0.234375q0 0.140625 -0.109375 0.234375q-0.09375 0.09375 -0.328125 0.09375l-3.125 0q-0.234375 0 -0.34375 -0.09375q-0.09375 -0.078125 -0.09375 -0.234375q0 -0.140625 0.09375 -0.234375q0.109375 -0.09375 0.34375 -0.09375l0.875 0l0 -8.46875l-0.875 0q-0.234375 0 -0.34375 -0.09375q-0.09375 -0.09375 -0.09375 -0.234375q0 -0.140625 0.09375 -0.234375q0.109375 -0.09375 0.34375 -0.09375l1.53125 0zm5.6875 3.171875q0 -1.125 -0.828125 -1.9375q-0.8125 -0.8125 -2.0 -0.8125q-1.203125 0 -2.03125 0.8125q-0.828125 0.8125 -0.828125 1.9375q0 1.140625 0.828125 1.953125q0.828125 0.8125 2.03125 0.8125q1.171875 0 2.0 -0.8125q0.828125 -0.8125 0.828125 -1.953125zm6.7265625 -6.21875l0 9.15625l2.578125 0q0.234375 0 0.328125 0.09375q0.109375 0.078125 0.109375 0.234375q0 0.140625 -0.109375 0.234375q-0.09375 0.09375 -0.328125 0.09375l-5.8125 0q-0.234375 0 -0.34375 -0.09375q-0.09375 -0.09375 -0.09375 -0.234375q0 -0.15625 0.09375 -0.234375q0.109375 -0.09375 0.34375 -0.09375l2.578125 0l0 -8.484375l-1.890625 0q-0.234375 0 -0.34375 -0.09375q-0.109375 -0.09375 -0.109375 -0.25q0 -0.140625 0.09375 -0.234375q0.109375 -0.09375 0.359375 -0.09375l2.546875 0zm12.8203125 6.578125l-6.6875 0q0.171875 1.28125 1.0625 2.0625q0.890625 0.765625 2.21875 0.765625q0.734375 0 1.53125 -0.234375q0.8125 -0.25 1.3125 -0.640625q0.15625 -0.125 0.265625 -0.125q0.125 0 0.21875 0.109375q0.09375 0.09375 0.09375 0.21875q0 0.140625 -0.125 0.265625q-0.375 0.390625 -1.34375 0.734375q-0.953125 0.34375 -1.953125 0.34375q-1.6875 0 -2.828125 -1.109375q-1.125 -1.109375 -1.125 -2.6875q0 -1.421875 1.0625 -2.4375q1.0625 -1.03125 2.625 -1.03125q1.609375 0 2.640625 1.046875q1.046875 1.046875 1.03125 2.71875zm-0.671875 -0.65625q-0.1875 -1.09375 -1.03125 -1.765625q-0.828125 -0.6875 -1.96875 -0.6875q-1.15625 0 -1.984375 0.671875q-0.828125 0.671875 -1.03125 1.78125l6.015625 0zm16.65625 -5.921875l0 9.15625l2.578125 0q0.234375 0 0.328125 0.09375q0.109375 0.078125 0.109375 0.234375q0 0.140625 -0.109375 0.234375q-0.09375 0.09375 -0.328125 0.09375l-5.8125 0q-0.234375 0 -0.34375 -0.09375q-0.09375 -0.09375 -0.09375 -0.234375q0 -0.15625 0.09375 -0.234375q0.109375 -0.09375 0.34375 -0.09375l2.578125 0l0 -8.484375l-1.890625 0q-0.234375 0 -0.34375 -0.09375q-0.109375 -0.09375 -0.109375 -0.25q0 -0.140625 0.09375 -0.234375q0.109375 -0.09375 0.359375 -0.09375l2.546875 0zm9.5859375 -0.328125l0 1.703125l-0.96875 0l0 -1.703125l0.96875 0zm0.03125 3.375l0 6.109375l2.578125 0q0.234375 0 0.328125 0.09375q0.109375 0.078125 0.109375 0.234375q0 0.140625 -0.109375 0.234375q-0.09375 0.09375 -0.328125 0.09375l-5.8125 0q-0.234375 0 -0.34375 -0.09375q-0.09375 -0.09375 -0.09375 -0.234375q0 -0.15625 0.09375 -0.234375q0.109375 -0.09375 0.34375 -0.09375l2.578125 0l0 -5.453125l-1.921875 0q-0.234375 0 -0.34375 -0.09375q-0.09375 -0.09375 -0.09375 -0.234375q0 -0.140625 0.09375 -0.234375q0.109375 -0.09375 0.34375 -0.09375l2.578125 0zm9.8203125 6.765625l-1.109375 0l-2.6875 -6.109375l-0.671875 0q-0.234375 0 -0.34375 -0.09375q-0.09375 -0.09375 -0.09375 -0.234375q0 -0.140625 0.09375 -0.234375q0.109375 -0.09375 0.34375 -0.09375l2.453125 0q0.234375 0 0.328125 0.09375q0.109375 0.09375 0.109375 0.234375q0 0.140625 -0.109375 0.234375q-0.09375 0.09375 -0.328125 0.09375l-1.078125 0l2.40625 5.453125l0.28125 0l2.359375 -5.453125l-1.09375 0q-0.234375 0 -0.34375 -0.09375q-0.09375 -0.09375 -0.09375 -0.234375q0 -0.140625 0.09375 -0.234375q0.109375 -0.09375 0.34375 -0.09375l2.46875 0q0.25 0 0.34375 0.09375q0.09375 0.09375 0.09375 0.234375q0 0.140625 -0.09375 0.234375q-0.09375 0.09375 -0.34375 0.09375l-0.65625 0l-2.671875 6.109375zm12.5859375 -3.234375l-6.6875 0q0.171875 1.28125 1.0625 2.0625q0.890625 0.765625 2.21875 0.765625q0.734375 0 1.53125 -0.234375q0.8125 -0.25 1.3125 -0.640625q0.15625 -0.125 0.265625 -0.125q0.125 0 0.21875 0.109375q0.09375 0.09375 0.09375 0.21875q0 0.140625 -0.125 0.265625q-0.375 0.390625 -1.34375 0.734375q-0.953125 0.34375 -1.953125 0.34375q-1.6875 0 -2.828125 -1.109375q-1.125 -1.109375 -1.125 -2.6875q0 -1.421875 1.0625 -2.4375q1.0625 -1.03125 2.625 -1.03125q1.609375 0 2.640625 1.046875q1.046875 1.046875 1.03125 2.71875zm-0.671875 -0.65625q-0.1875 -1.09375 -1.03125 -1.765625q-0.828125 -0.6875 -1.96875 -0.6875q-1.15625 0 -1.984375 0.671875q-0.828125 0.671875 -1.03125 1.78125l6.015625 0z" fill-rule="nonzero"></path><path fill="#000000" d="m59.312244 103.82825l0 1.703125l-0.96875 0l0 -1.703125l0.96875 0zm0.03125 3.375l0 6.109375l2.578125 0q0.234375 0 0.328125 0.09375q0.109375 0.078125 0.109375 0.234375q0 0.140625 -0.109375 0.234375q-0.09375 0.09375 -0.328125 0.09375l-5.8125 0q-0.234375 0 -0.34375 -0.09375q-0.09375 -0.09375 -0.09375 -0.234375q0 -0.15625 0.09375 -0.234375q0.109375 -0.09375 0.34375 -0.09375l2.578125 0l0 -5.453125l-1.921875 0q-0.234375 0 -0.34375 -0.09375q-0.09375 -0.09375 -0.09375 -0.234375q0 -0.140625 0.09375 -0.234375q0.109375 -0.09375 0.34375 -0.09375l2.578125 0zm7.1328087 0l0 0.984375q0.6875 -0.6875 1.234375 -0.953125q0.5625 -0.265625 1.25 -0.265625q0.75 0 1.375 0.3125q0.4375 0.234375 0.78125 0.78125q0.359375 0.546875 0.359375 1.109375l0 4.140625l0.5625 0q0.234375 0 0.328125 0.09375q0.109375 0.078125 0.109375 0.234375q0 0.140625 -0.109375 0.234375q-0.09375 0.09375 -0.328125 0.09375l-1.765625 0q-0.234375 0 -0.34375 -0.09375q-0.09375 -0.09375 -0.09375 -0.234375q0 -0.15625 0.09375 -0.234375q0.109375 -0.09375 0.34375 -0.09375l0.546875 0l0 -4.03125q0 -0.6875 -0.515625 -1.171875q-0.5 -0.484375 -1.34375 -0.484375q-0.65625 0 -1.140625 0.265625q-0.46875 0.265625 -1.34375 1.296875l0 4.125l0.734375 0q0.234375 0 0.328125 0.09375q0.109375 0.078125 0.109375 0.234375q0 0.140625 -0.109375 0.234375q-0.09375 0.09375 -0.328125 0.09375l-2.140625 0q-0.234375 0 -0.34375 -0.09375q-0.09375 -0.09375 -0.09375 -0.234375q0 -0.15625 0.09375 -0.234375q0.109375 -0.09375 0.34375 -0.09375l0.75 0l0 -5.453125l-0.5625 0q-0.234375 0 -0.34375 -0.09375q-0.09375 -0.09375 -0.09375 -0.234375q0 -0.140625 0.09375 -0.234375q0.109375 -0.09375 0.34375 -0.09375l1.21875 0zm19.203125 0l0 0.984375q0.6875 -0.6875 1.234375 -0.953125q0.5625 -0.265625 1.25 -0.265625q0.75 0 1.375 0.3125q0.4375 0.234375 0.78125 0.78125q0.359375 0.546875 0.359375 1.109375l0 4.140625l0.5625 0q0.234375 0 0.328125 0.09375q0.109375 0.078125 0.109375 0.234375q0 0.140625 -0.109375 0.234375q-0.09375 0.09375 -0.328125 0.09375l-1.765625 0q-0.234375 0 -0.34375 -0.09375q-0.09375 -0.09375 -0.09375 -0.234375q0 -0.15625 0.09375 -0.234375q0.109375 -0.09375 0.34375 -0.09375l0.546875 0l0 -4.03125q0 -0.6875 -0.515625 -1.171875q-0.5 -0.484375 -1.34375 -0.484375q-0.65625 0 -1.140625 0.265625q-0.46875 0.265625 -1.34375 1.296875l0 4.125l0.734375 0q0.234375 0 0.328125 0.09375q0.109375 0.078125 0.109375 0.234375q0 0.140625 -0.109375 0.234375q-0.09375 0.09375 -0.328125 0.09375l-2.140625 0q-0.234375 0 -0.34375 -0.09375q-0.09375 -0.09375 -0.09375 -0.234375q0 -0.15625 0.09375 -0.234375q0.109375 -0.09375 0.34375 -0.09375l0.75 0l0 -5.453125l-0.5625 0q-0.234375 0 -0.34375 -0.09375q-0.09375 -0.09375 -0.09375 -0.234375q0 -0.140625 0.09375 -0.234375q0.109375 -0.09375 0.34375 -0.09375l1.21875 0zm15.2734375 3.53125l-6.6875 0q0.171875 1.28125 1.0625 2.0625q0.890625 0.765625 2.21875 0.765625q0.734375 0 1.53125 -0.234375q0.8125 -0.25 1.3125 -0.640625q0.15625 -0.125 0.265625 -0.125q0.125 0 0.21875 0.109375q0.09375 0.09375 0.09375 0.21875q0 0.140625 -0.125 0.265625q-0.375 0.390625 -1.34375 0.734375q-0.953125 0.34375 -1.953125 0.34375q-1.6875 0 -2.828125 -1.109375q-1.125 -1.109375 -1.125 -2.6875q0 -1.421875 1.0625 -2.4375q1.0625 -1.03125 2.625 -1.03125q1.609375 0 2.640625 1.046875q1.046875 1.046875 1.03125 2.71875zm-0.671875 -0.65625q-0.1875 -1.09375 -1.03125 -1.765625q-0.828125 -0.6875 -1.96875 -0.6875q-1.15625 0 -1.984375 0.671875q-0.828125 0.671875 -1.03125 1.78125l6.015625 0zm8.9765625 3.890625l-0.8125 0.015625l-1.4375 -4.234375l-1.4375 4.234375l-0.8125 -0.015625l-1.359375 -6.109375l-0.328125 0q-0.234375 0 -0.34375 -0.09375q-0.09375 -0.09375 -0.09375 -0.234375q0 -0.140625 0.09375 -0.234375q0.109375 -0.09375 0.34375 -0.09375l1.8125 0q0.234375 0 0.328125 0.09375q0.109375 0.09375 0.109375 0.234375q0 0.140625 -0.109375 0.234375q-0.09375 0.09375 -0.328125 0.09375l-0.84375 0l1.171875 5.203125l1.390625 -4.15625l0.78125 0l1.4375 4.15625l1.125 -5.203125l-0.828125 0q-0.234375 0 -0.34375 -0.09375q-0.109375 -0.09375 -0.109375 -0.234375q0 -0.140625 0.09375 -0.234375q0.109375 -0.09375 0.359375 -0.09375l1.796875 0q0.234375 0 0.328125 0.09375q0.109375 0.09375 0.109375 0.234375q0 0.140625 -0.109375 0.234375q-0.09375 0.09375 -0.328125 0.09375l-0.3125 0l-1.34375 6.109375zm16.984375 0l-3.046875 -6.109375l-0.1875 0q-0.234375 0 -0.34375 -0.09375q-0.09375 -0.09375 -0.09375 -0.234375q0 -0.09375 0.046875 -0.171875q0.046875 -0.09375 0.125 -0.125q0.09375 -0.03125 0.265625 -0.03125l1.796875 0q0.234375 0 0.328125 0.09375q0.109375 0.09375 0.109375 0.234375q0 0.140625 -0.109375 0.234375q-0.09375 0.09375 -0.328125 0.09375l-0.890625 0l2.6875 5.390625l2.640625 -5.390625l-0.890625 0q-0.234375 0 -0.34375 -0.09375q-0.09375 -0.09375 -0.09375 -0.234375q0 -0.140625 0.09375 -0.234375q0.109375 -0.09375 0.34375 -0.09375l1.796875 0q0.234375 0 0.328125 0.09375q0.109375 0.09375 0.109375 0.234375q0 0.109375 -0.0625 0.203125q-0.0625 0.078125 -0.140625 0.109375q-0.078125 0.015625 -0.4375 0.015625l-4.15625 8.46875l1.03125 0q0.234375 0 0.328125 0.09375q0.109375 0.09375 0.109375 0.234375q0 0.140625 -0.109375 0.234375q-0.09375 0.09375 -0.328125 0.09375l-3.78125 0q-0.234375 0 -0.34375 -0.09375q-0.09375 -0.078125 -0.09375 -0.234375q0 -0.140625 0.09375 -0.234375q0.109375 -0.09375 0.34375 -0.09375l2.046875 0l1.15625 -2.359375zm13.2265625 -3.375q0 1.5 -1.078125 2.578125q-1.0625 1.0625 -2.578125 1.0625q-1.53125 0 -2.609375 -1.0625q-1.0625 -1.078125 -1.0625 -2.578125q0 -1.5 1.0625 -2.5625q1.078125 -1.0625 2.609375 -1.0625q1.515625 0 2.578125 1.0625q1.078125 1.0625 1.078125 2.5625zm-0.65625 0q0 -1.234375 -0.890625 -2.09375q-0.875 -0.875 -2.125 -0.875q-1.25 0 -2.125 0.875q-0.875 0.875 -0.875 2.09375q0 1.21875 0.875 2.09375q0.875 0.875 2.125 0.875q1.25 0 2.125 -0.859375q0.890625 -0.875 0.890625 -2.109375zm5.8046875 -3.390625l0 1.65625q1.28125 -1.15625 1.921875 -1.484375q0.640625 -0.34375 1.171875 -0.34375q0.59375 0 1.09375 0.40625q0.5 0.390625 0.5 0.59375q0 0.140625 -0.09375 0.25q-0.09375 0.09375 -0.25 0.09375q-0.078125 0 -0.140625 -0.03125q-0.046875 -0.03125 -0.1875 -0.171875q-0.28125 -0.28125 -0.484375 -0.375q-0.203125 -0.109375 -0.390625 -0.109375q-0.4375 0 -1.046875 0.34375q-0.59375 0.34375 -2.09375 1.6875l0 3.59375l2.90625 0q0.25 0 0.34375 0.09375q0.109375 0.078125 0.109375 0.234375q0 0.140625 -0.109375 0.234375q-0.09375 0.09375 -0.34375 0.09375l-5.140625 0q-0.234375 0 -0.34375 -0.09375q-0.09375 -0.09375 -0.09375 -0.234375q0 -0.125 0.09375 -0.21875q0.09375 -0.09375 0.34375 -0.09375l1.578125 0l0 -5.46875l-1.203125 0q-0.234375 0 -0.34375 -0.09375q-0.09375 -0.09375 -0.09375 -0.234375q0 -0.140625 0.09375 -0.234375q0.09375 -0.09375 0.34375 -0.09375l1.859375 0zm9.0546875 3.84375l0 2.921875l-1.53125 0q-0.234375 0 -0.34375 -0.09375q-0.09375 -0.09375 -0.09375 -0.234375q0 -0.15625 0.09375 -0.234375q0.109375 -0.09375 0.34375 -0.09375l0.875 0l0 -8.484375l-0.875 0q-0.234375 0 -0.34375 -0.09375q-0.09375 -0.09375 -0.09375 -0.25q0 -0.140625 0.09375 -0.234375q0.109375 -0.09375 0.34375 -0.09375l1.53125 0l0 6.046875l2.796875 -2.34375l-0.34375 0q-0.234375 0 -0.34375 -0.09375q-0.09375 -0.09375 -0.09375 -0.234375q0 -0.140625 0.09375 -0.234375q0.109375 -0.09375 0.34375 -0.09375l2.109375 0q0.234375 0 0.328125 0.09375q0.109375 0.09375 0.109375 0.234375q0 0.140625 -0.109375 0.234375q-0.09375 0.09375 -0.328125 0.09375l-0.765625 0l-2.5625 2.140625l3.25 3.3125l0.75 0q0.25 0 0.34375 0.09375q0.109375 0.078125 0.109375 0.234375q0 0.140625 -0.109375 0.234375q-0.09375 0.09375 -0.34375 0.09375l-2.125 0q-0.234375 0 -0.34375 -0.09375q-0.09375 -0.09375 -0.09375 -0.234375q0 -0.15625 0.09375 -0.234375q0.109375 -0.09375 0.34375 -0.09375l0.46875 0l-2.828125 -2.90625l-0.75 0.640625zm23.28125 -3.1875l0 -0.21875q0 -0.234375 0.09375 -0.328125q0.09375 -0.109375 0.234375 -0.109375q0.140625 0 0.234375 0.109375q0.09375 0.09375 0.09375 0.328125l0 1.484375q0 0.25 -0.09375 0.359375q-0.09375 0.09375 -0.234375 0.09375q-0.140625 0 -0.234375 -0.09375q-0.078125 -0.09375 -0.09375 -0.296875q-0.046875 -0.5625 -0.734375 -1.0625q-0.6875 -0.5 -1.84375 -0.5q-1.453125 0 -2.21875 0.921875q-0.75 0.90625 -0.75 2.09375q0 1.265625 0.828125 2.09375q0.84375 0.828125 2.171875 0.828125q0.765625 0 1.546875 -0.28125q0.796875 -0.28125 1.4375 -0.90625q0.171875 -0.15625 0.296875 -0.15625q0.125 0 0.21875 0.09375q0.09375 0.09375 0.09375 0.21875q0 0.34375 -0.796875 0.859375q-1.265625 0.84375 -2.828125 0.84375q-1.59375 0 -2.609375 -1.015625q-1.015625 -1.015625 -1.015625 -2.578125q0 -1.578125 1.03125 -2.625q1.046875 -1.046875 2.640625 -1.046875q1.5 0 2.53125 0.890625zm7.1796875 -4.03125l0 1.703125l-0.96875 0l0 -1.703125l0.96875 0zm0.03125 3.375l0 6.109375l2.578125 0q0.234375 0 0.328125 0.09375q0.109375 0.078125 0.109375 0.234375q0 0.140625 -0.109375 0.234375q-0.09375 0.09375 -0.328125 0.09375l-5.8125 0q-0.234375 0 -0.34375 -0.09375q-0.09375 -0.09375 -0.09375 -0.234375q0 -0.15625 0.09375 -0.234375q0.109375 -0.09375 0.34375 -0.09375l2.578125 0l0 -5.453125l-1.921875 0q-0.234375 0 -0.34375 -0.09375q-0.09375 -0.09375 -0.09375 -0.234375q0 -0.140625 0.09375 -0.234375q0.109375 -0.09375 0.34375 -0.09375l2.578125 0zm7.8984375 0l3.5625 0q0.234375 0 0.328125 0.09375q0.109375 0.09375 0.109375 0.234375q0 0.140625 -0.109375 0.234375q-0.09375 0.09375 -0.328125 0.09375l-3.5625 0l0 4.375q0 0.5625 0.453125 0.953125q0.46875 0.375 1.34375 0.375q0.671875 0 1.4375 -0.1875q0.78125 -0.203125 1.203125 -0.453125q0.15625 -0.109375 0.265625 -0.109375q0.125 0 0.21875 0.109375q0.09375 0.09375 0.09375 0.21875q0 0.125 -0.109375 0.21875q-0.25 0.265625 -1.21875 0.578125q-0.953125 0.296875 -1.84375 0.296875q-1.140625 0 -1.828125 -0.546875q-0.671875 -0.546875 -0.671875 -1.453125l0 -4.375l-1.21875 0q-0.234375 0 -0.34375 -0.09375q-0.09375 -0.09375 -0.09375 -0.234375q0 -0.140625 0.09375 -0.234375q0.109375 -0.09375 0.34375 -0.09375l1.21875 0l0 -1.9375q0 -0.234375 0.09375 -0.328125q0.09375 -0.109375 0.234375 -0.109375q0.140625 0 0.234375 0.109375q0.09375 0.09375 0.09375 0.328125l0 1.9375zm10.9921875 6.765625l-3.046875 -6.109375l-0.1875 0q-0.234375 0 -0.34375 -0.09375q-0.09375 -0.09375 -0.09375 -0.234375q0 -0.09375 0.046875 -0.171875q0.046875 -0.09375 0.125 -0.125q0.09375 -0.03125 0.265625 -0.03125l1.796875 0q0.234375 0 0.328125 0.09375q0.109375 0.09375 0.109375 0.234375q0 0.140625 -0.109375 0.234375q-0.09375 0.09375 -0.328125 0.09375l-0.890625 0l2.6875 5.390625l2.640625 -5.390625l-0.890625 0q-0.234375 0 -0.34375 -0.09375q-0.09375 -0.09375 -0.09375 -0.234375q0 -0.140625 0.09375 -0.234375q0.109375 -0.09375 0.34375 -0.09375l1.796875 0q0.234375 0 0.328125 0.09375q0.109375 0.09375 0.109375 0.234375q0 0.109375 -0.0625 0.203125q-0.0625 0.078125 -0.140625 0.109375q-0.078125 0.015625 -0.4375 0.015625l-4.15625 8.46875l1.03125 0q0.234375 0 0.328125 0.09375q0.109375 0.09375 0.109375 0.234375q0 0.140625 -0.109375 0.234375q-0.09375 0.09375 -0.328125 0.09375l-3.78125 0q-0.234375 0 -0.34375 -0.09375q-0.09375 -0.078125 -0.09375 -0.234375q0 -0.140625 0.09375 -0.234375q0.109375 -0.09375 0.34375 -0.09375l2.046875 0l1.15625 -2.359375zm6.8359375 -9.640625l2.078125 0l-0.546875 3.796875q-0.046875 0.296875 -0.171875 0.421875q-0.125 0.109375 -0.3125 0.109375q-0.203125 0 -0.328125 -0.109375q-0.125 -0.125 -0.171875 -0.421875l-0.546875 -3.796875zm3.359375 0l2.078125 0l-0.546875 3.796875q-0.046875 0.296875 -0.171875 0.421875q-0.125 0.109375 -0.3125 0.109375q-0.203125 0 -0.328125 -0.109375q-0.125 -0.125 -0.171875 -0.421875l-0.546875 -3.796875z" fill-rule="nonzero"></path><path fill="#000000" fill-opacity="0.0" d="m260.9344 98.60887l96.75589 -29.354332" fill-rule="nonzero"></path><path stroke="#000000" stroke-width="2.0" stroke-linejoin="round" stroke-linecap="butt" d="m260.9344 98.60887l85.272766 -25.870514" fill-rule="evenodd"></path><path fill="#000000" stroke="#000000" stroke-width="2.0" stroke-linecap="butt" d="m347.1662 75.89954l7.726227 -5.796173l-9.644348 -0.5261917z" fill-rule="evenodd"></path></g></svg>

